G04 #@! TF.GenerationSoftware,KiCad,Pcbnew,5.1.6*
G04 #@! TF.CreationDate,2020-10-27T17:21:31+03:00*
G04 #@! TF.ProjectId,motherboard,6d6f7468-6572-4626-9f61-72642e6b6963,rev?*
G04 #@! TF.SameCoordinates,Original*
G04 #@! TF.FileFunction,Copper,L1,Top*
G04 #@! TF.FilePolarity,Positive*
%FSLAX46Y46*%
G04 Gerber Fmt 4.6, Leading zero omitted, Abs format (unit mm)*
G04 Created by KiCad (PCBNEW 5.1.6) date 2020-10-27 17:21:31*
%MOMM*%
%LPD*%
G01*
G04 APERTURE LIST*
G04 #@! TA.AperFunction,ComponentPad*
%ADD10C,7.000000*%
G04 #@! TD*
G04 #@! TA.AperFunction,ComponentPad*
%ADD11R,1.600000X1.600000*%
G04 #@! TD*
G04 #@! TA.AperFunction,ComponentPad*
%ADD12O,1.600000X1.600000*%
G04 #@! TD*
G04 #@! TA.AperFunction,ComponentPad*
%ADD13C,1.600000*%
G04 #@! TD*
G04 #@! TA.AperFunction,ComponentPad*
%ADD14C,1.200000*%
G04 #@! TD*
G04 #@! TA.AperFunction,ComponentPad*
%ADD15R,1.200000X1.200000*%
G04 #@! TD*
G04 #@! TA.AperFunction,ComponentPad*
%ADD16O,1.700000X1.700000*%
G04 #@! TD*
G04 #@! TA.AperFunction,ComponentPad*
%ADD17R,1.700000X1.700000*%
G04 #@! TD*
G04 #@! TA.AperFunction,ComponentPad*
%ADD18R,1.905000X2.000000*%
G04 #@! TD*
G04 #@! TA.AperFunction,ComponentPad*
%ADD19O,1.905000X2.000000*%
G04 #@! TD*
G04 #@! TA.AperFunction,ComponentPad*
%ADD20O,2.400000X2.400000*%
G04 #@! TD*
G04 #@! TA.AperFunction,ComponentPad*
%ADD21C,2.400000*%
G04 #@! TD*
G04 #@! TA.AperFunction,ComponentPad*
%ADD22R,3.500000X3.500000*%
G04 #@! TD*
G04 #@! TA.AperFunction,ComponentPad*
%ADD23C,1.800000*%
G04 #@! TD*
G04 #@! TA.AperFunction,ComponentPad*
%ADD24R,1.800000X1.800000*%
G04 #@! TD*
G04 #@! TA.AperFunction,ComponentPad*
%ADD25O,2.200000X2.200000*%
G04 #@! TD*
G04 #@! TA.AperFunction,ComponentPad*
%ADD26R,2.200000X2.200000*%
G04 #@! TD*
G04 #@! TA.AperFunction,ViaPad*
%ADD27C,0.800000*%
G04 #@! TD*
G04 #@! TA.AperFunction,Conductor*
%ADD28C,0.250000*%
G04 #@! TD*
G04 APERTURE END LIST*
D10*
X21590000Y-21590000D03*
X21590000Y-185420000D03*
X205740000Y-185420000D03*
X205740000Y-21590000D03*
D11*
X172720000Y-135890000D03*
D12*
X180340000Y-151130000D03*
X172720000Y-138430000D03*
X180340000Y-148590000D03*
X172720000Y-140970000D03*
X180340000Y-146050000D03*
X172720000Y-143510000D03*
X180340000Y-143510000D03*
X172720000Y-146050000D03*
X180340000Y-140970000D03*
X172720000Y-148590000D03*
X180340000Y-138430000D03*
X172720000Y-151130000D03*
X180340000Y-135890000D03*
D11*
X88900000Y-163830000D03*
D12*
X96520000Y-179070000D03*
X88900000Y-166370000D03*
X96520000Y-176530000D03*
X88900000Y-168910000D03*
X96520000Y-173990000D03*
X88900000Y-171450000D03*
X96520000Y-171450000D03*
X88900000Y-173990000D03*
X96520000Y-168910000D03*
X88900000Y-176530000D03*
X96520000Y-166370000D03*
X88900000Y-179070000D03*
X96520000Y-163830000D03*
D11*
X104140000Y-163830000D03*
D12*
X111760000Y-179070000D03*
X104140000Y-166370000D03*
X111760000Y-176530000D03*
X104140000Y-168910000D03*
X111760000Y-173990000D03*
X104140000Y-171450000D03*
X111760000Y-171450000D03*
X104140000Y-173990000D03*
X111760000Y-168910000D03*
X104140000Y-176530000D03*
X111760000Y-166370000D03*
X104140000Y-179070000D03*
X111760000Y-163830000D03*
D11*
X58420000Y-133350000D03*
D12*
X66040000Y-151130000D03*
X58420000Y-135890000D03*
X66040000Y-148590000D03*
X58420000Y-138430000D03*
X66040000Y-146050000D03*
X58420000Y-140970000D03*
X66040000Y-143510000D03*
X58420000Y-143510000D03*
X66040000Y-140970000D03*
X58420000Y-146050000D03*
X66040000Y-138430000D03*
X58420000Y-148590000D03*
X66040000Y-135890000D03*
X58420000Y-151130000D03*
X66040000Y-133350000D03*
D11*
X157480000Y-21590000D03*
D12*
X180340000Y-100330000D03*
X157480000Y-24130000D03*
X180340000Y-97790000D03*
X157480000Y-26670000D03*
X180340000Y-95250000D03*
X157480000Y-29210000D03*
X180340000Y-92710000D03*
X157480000Y-31750000D03*
X180340000Y-90170000D03*
X157480000Y-34290000D03*
X180340000Y-87630000D03*
X157480000Y-36830000D03*
X180340000Y-85090000D03*
X157480000Y-39370000D03*
X180340000Y-82550000D03*
X157480000Y-41910000D03*
X180340000Y-80010000D03*
X157480000Y-44450000D03*
X180340000Y-77470000D03*
X157480000Y-46990000D03*
X180340000Y-74930000D03*
X157480000Y-49530000D03*
X180340000Y-72390000D03*
X157480000Y-52070000D03*
X180340000Y-69850000D03*
X157480000Y-54610000D03*
X180340000Y-67310000D03*
X157480000Y-57150000D03*
X180340000Y-64770000D03*
X157480000Y-59690000D03*
X180340000Y-62230000D03*
X157480000Y-62230000D03*
X180340000Y-59690000D03*
X157480000Y-64770000D03*
X180340000Y-57150000D03*
X157480000Y-67310000D03*
X180340000Y-54610000D03*
X157480000Y-69850000D03*
X180340000Y-52070000D03*
X157480000Y-72390000D03*
X180340000Y-49530000D03*
X157480000Y-74930000D03*
X180340000Y-46990000D03*
X157480000Y-77470000D03*
X180340000Y-44450000D03*
X157480000Y-80010000D03*
X180340000Y-41910000D03*
X157480000Y-82550000D03*
X180340000Y-39370000D03*
X157480000Y-85090000D03*
X180340000Y-36830000D03*
X157480000Y-87630000D03*
X180340000Y-34290000D03*
X157480000Y-90170000D03*
X180340000Y-31750000D03*
X157480000Y-92710000D03*
X180340000Y-29210000D03*
X157480000Y-95250000D03*
X180340000Y-26670000D03*
X157480000Y-97790000D03*
X180340000Y-24130000D03*
X157480000Y-100330000D03*
X180340000Y-21590000D03*
X127000000Y-118110000D03*
X111760000Y-151130000D03*
X127000000Y-120650000D03*
X111760000Y-148590000D03*
X127000000Y-123190000D03*
X111760000Y-146050000D03*
X127000000Y-125730000D03*
X111760000Y-143510000D03*
X127000000Y-128270000D03*
X111760000Y-140970000D03*
X127000000Y-130810000D03*
X111760000Y-138430000D03*
X127000000Y-133350000D03*
X111760000Y-135890000D03*
X127000000Y-135890000D03*
X111760000Y-133350000D03*
X127000000Y-138430000D03*
X111760000Y-130810000D03*
X127000000Y-140970000D03*
X111760000Y-128270000D03*
X127000000Y-143510000D03*
X111760000Y-125730000D03*
X127000000Y-146050000D03*
X111760000Y-123190000D03*
X127000000Y-148590000D03*
X111760000Y-120650000D03*
X127000000Y-151130000D03*
D11*
X111760000Y-118110000D03*
X73660000Y-135890000D03*
D12*
X81280000Y-151130000D03*
X73660000Y-138430000D03*
X81280000Y-148590000D03*
X73660000Y-140970000D03*
X81280000Y-146050000D03*
X73660000Y-143510000D03*
X81280000Y-143510000D03*
X73660000Y-146050000D03*
X81280000Y-140970000D03*
X73660000Y-148590000D03*
X81280000Y-138430000D03*
X73660000Y-151130000D03*
X81280000Y-135890000D03*
D11*
X142240000Y-92710000D03*
D12*
X149860000Y-115570000D03*
X142240000Y-95250000D03*
X149860000Y-113030000D03*
X142240000Y-97790000D03*
X149860000Y-110490000D03*
X142240000Y-100330000D03*
X149860000Y-107950000D03*
X142240000Y-102870000D03*
X149860000Y-105410000D03*
X142240000Y-105410000D03*
X149860000Y-102870000D03*
X142240000Y-107950000D03*
X149860000Y-100330000D03*
X142240000Y-110490000D03*
X149860000Y-97790000D03*
X142240000Y-113030000D03*
X149860000Y-95250000D03*
X142240000Y-115570000D03*
X149860000Y-92710000D03*
D11*
X187960000Y-57150000D03*
D12*
X195580000Y-80010000D03*
X187960000Y-59690000D03*
X195580000Y-77470000D03*
X187960000Y-62230000D03*
X195580000Y-74930000D03*
X187960000Y-64770000D03*
X195580000Y-72390000D03*
X187960000Y-67310000D03*
X195580000Y-69850000D03*
X187960000Y-69850000D03*
X195580000Y-67310000D03*
X187960000Y-72390000D03*
X195580000Y-64770000D03*
X187960000Y-74930000D03*
X195580000Y-62230000D03*
X187960000Y-77470000D03*
X195580000Y-59690000D03*
X187960000Y-80010000D03*
X195580000Y-57150000D03*
D11*
X73660000Y-107950000D03*
D12*
X81280000Y-123190000D03*
X73660000Y-110490000D03*
X81280000Y-120650000D03*
X73660000Y-113030000D03*
X81280000Y-118110000D03*
X73660000Y-115570000D03*
X81280000Y-115570000D03*
X73660000Y-118110000D03*
X81280000Y-113030000D03*
X73660000Y-120650000D03*
X81280000Y-110490000D03*
X73660000Y-123190000D03*
X81280000Y-107950000D03*
D11*
X157480000Y-135890000D03*
D12*
X165100000Y-151130000D03*
X157480000Y-138430000D03*
X165100000Y-148590000D03*
X157480000Y-140970000D03*
X165100000Y-146050000D03*
X157480000Y-143510000D03*
X165100000Y-143510000D03*
X157480000Y-146050000D03*
X165100000Y-140970000D03*
X157480000Y-148590000D03*
X165100000Y-138430000D03*
X157480000Y-151130000D03*
X165100000Y-135890000D03*
D11*
X142240000Y-21590000D03*
D12*
X149860000Y-44450000D03*
X142240000Y-24130000D03*
X149860000Y-41910000D03*
X142240000Y-26670000D03*
X149860000Y-39370000D03*
X142240000Y-29210000D03*
X149860000Y-36830000D03*
X142240000Y-31750000D03*
X149860000Y-34290000D03*
X142240000Y-34290000D03*
X149860000Y-31750000D03*
X142240000Y-36830000D03*
X149860000Y-29210000D03*
X142240000Y-39370000D03*
X149860000Y-26670000D03*
X142240000Y-41910000D03*
X149860000Y-24130000D03*
X142240000Y-44450000D03*
X149860000Y-21590000D03*
D11*
X187960000Y-92710000D03*
D12*
X195580000Y-115570000D03*
X187960000Y-95250000D03*
X195580000Y-113030000D03*
X187960000Y-97790000D03*
X195580000Y-110490000D03*
X187960000Y-100330000D03*
X195580000Y-107950000D03*
X187960000Y-102870000D03*
X195580000Y-105410000D03*
X187960000Y-105410000D03*
X195580000Y-102870000D03*
X187960000Y-107950000D03*
X195580000Y-100330000D03*
X187960000Y-110490000D03*
X195580000Y-97790000D03*
X187960000Y-113030000D03*
X195580000Y-95250000D03*
X187960000Y-115570000D03*
X195580000Y-92710000D03*
D13*
X34250000Y-101600000D03*
D11*
X31750000Y-101600000D03*
D14*
X41656000Y-101600000D03*
D15*
X39656000Y-101600000D03*
D12*
X50800000Y-163830000D03*
X43180000Y-179070000D03*
X50800000Y-166370000D03*
X43180000Y-176530000D03*
X50800000Y-168910000D03*
X43180000Y-173990000D03*
X50800000Y-171450000D03*
X43180000Y-171450000D03*
X50800000Y-173990000D03*
X43180000Y-168910000D03*
X50800000Y-176530000D03*
X43180000Y-166370000D03*
X50800000Y-179070000D03*
D11*
X43180000Y-163830000D03*
D16*
X50800000Y-157480000D03*
X48260000Y-157480000D03*
X50800000Y-154940000D03*
X48260000Y-154940000D03*
X50800000Y-152400000D03*
X48260000Y-152400000D03*
X50800000Y-149860000D03*
X48260000Y-149860000D03*
X50800000Y-147320000D03*
X48260000Y-147320000D03*
X50800000Y-144780000D03*
X48260000Y-144780000D03*
X50800000Y-142240000D03*
X48260000Y-142240000D03*
X50800000Y-139700000D03*
D17*
X48260000Y-139700000D03*
X107950000Y-21590000D03*
D16*
X110490000Y-21590000D03*
X107950000Y-24130000D03*
X110490000Y-24130000D03*
X107950000Y-26670000D03*
X110490000Y-26670000D03*
X107950000Y-29210000D03*
X110490000Y-29210000D03*
X107950000Y-31750000D03*
X110490000Y-31750000D03*
X107950000Y-34290000D03*
X110490000Y-34290000D03*
X107950000Y-36830000D03*
X110490000Y-36830000D03*
X107950000Y-39370000D03*
X110490000Y-39370000D03*
X107950000Y-41910000D03*
X110490000Y-41910000D03*
X107950000Y-44450000D03*
X110490000Y-44450000D03*
X107950000Y-46990000D03*
X110490000Y-46990000D03*
X107950000Y-49530000D03*
X110490000Y-49530000D03*
X107950000Y-52070000D03*
X110490000Y-52070000D03*
X107950000Y-54610000D03*
X110490000Y-54610000D03*
X107950000Y-57150000D03*
X110490000Y-57150000D03*
X107950000Y-59690000D03*
X110490000Y-59690000D03*
X107950000Y-62230000D03*
X110490000Y-62230000D03*
X107950000Y-64770000D03*
X110490000Y-64770000D03*
X107950000Y-67310000D03*
X110490000Y-67310000D03*
X107950000Y-69850000D03*
X110490000Y-69850000D03*
X107950000Y-72390000D03*
X110490000Y-72390000D03*
X107950000Y-74930000D03*
X110490000Y-74930000D03*
X107950000Y-77470000D03*
X110490000Y-77470000D03*
X107950000Y-80010000D03*
X110490000Y-80010000D03*
D11*
X115570000Y-102870000D03*
D13*
X115570000Y-95250000D03*
X123190000Y-95250000D03*
X123190000Y-102870000D03*
D18*
X120650000Y-58420000D03*
D19*
X123190000Y-58420000D03*
X125730000Y-58420000D03*
D12*
X66040000Y-113030000D03*
X58420000Y-120650000D03*
X66040000Y-115570000D03*
X58420000Y-118110000D03*
X66040000Y-118110000D03*
X58420000Y-115570000D03*
X66040000Y-120650000D03*
D11*
X58420000Y-113030000D03*
X142240000Y-128270000D03*
D12*
X149860000Y-151130000D03*
X142240000Y-130810000D03*
X149860000Y-148590000D03*
X142240000Y-133350000D03*
X149860000Y-146050000D03*
X142240000Y-135890000D03*
X149860000Y-143510000D03*
X142240000Y-138430000D03*
X149860000Y-140970000D03*
X142240000Y-140970000D03*
X149860000Y-138430000D03*
X142240000Y-143510000D03*
X149860000Y-135890000D03*
X142240000Y-146050000D03*
X149860000Y-133350000D03*
X142240000Y-148590000D03*
X149860000Y-130810000D03*
X142240000Y-151130000D03*
X149860000Y-128270000D03*
D11*
X187960000Y-128270000D03*
D12*
X195580000Y-151130000D03*
X187960000Y-130810000D03*
X195580000Y-148590000D03*
X187960000Y-133350000D03*
X195580000Y-146050000D03*
X187960000Y-135890000D03*
X195580000Y-143510000D03*
X187960000Y-138430000D03*
X195580000Y-140970000D03*
X187960000Y-140970000D03*
X195580000Y-138430000D03*
X187960000Y-143510000D03*
X195580000Y-135890000D03*
X187960000Y-146050000D03*
X195580000Y-133350000D03*
X187960000Y-148590000D03*
X195580000Y-130810000D03*
X187960000Y-151130000D03*
X195580000Y-128270000D03*
D11*
X142240000Y-57150000D03*
D12*
X149860000Y-80010000D03*
X142240000Y-59690000D03*
X149860000Y-77470000D03*
X142240000Y-62230000D03*
X149860000Y-74930000D03*
X142240000Y-64770000D03*
X149860000Y-72390000D03*
X142240000Y-67310000D03*
X149860000Y-69850000D03*
X142240000Y-69850000D03*
X149860000Y-67310000D03*
X142240000Y-72390000D03*
X149860000Y-64770000D03*
X142240000Y-74930000D03*
X149860000Y-62230000D03*
X142240000Y-77470000D03*
X149860000Y-59690000D03*
X142240000Y-80010000D03*
X149860000Y-57150000D03*
D11*
X187960000Y-21590000D03*
D12*
X195580000Y-44450000D03*
X187960000Y-24130000D03*
X195580000Y-41910000D03*
X187960000Y-26670000D03*
X195580000Y-39370000D03*
X187960000Y-29210000D03*
X195580000Y-36830000D03*
X187960000Y-31750000D03*
X195580000Y-34290000D03*
X187960000Y-34290000D03*
X195580000Y-31750000D03*
X187960000Y-36830000D03*
X195580000Y-29210000D03*
X187960000Y-39370000D03*
X195580000Y-26670000D03*
X187960000Y-41910000D03*
X195580000Y-24130000D03*
X187960000Y-44450000D03*
X195580000Y-21590000D03*
D11*
X73660000Y-163830000D03*
D12*
X81280000Y-179070000D03*
X73660000Y-166370000D03*
X81280000Y-176530000D03*
X73660000Y-168910000D03*
X81280000Y-173990000D03*
X73660000Y-171450000D03*
X81280000Y-171450000D03*
X73660000Y-173990000D03*
X81280000Y-168910000D03*
X73660000Y-176530000D03*
X81280000Y-166370000D03*
X73660000Y-179070000D03*
X81280000Y-163830000D03*
D11*
X58420000Y-163830000D03*
D12*
X66040000Y-179070000D03*
X58420000Y-166370000D03*
X66040000Y-176530000D03*
X58420000Y-168910000D03*
X66040000Y-173990000D03*
X58420000Y-171450000D03*
X66040000Y-171450000D03*
X58420000Y-173990000D03*
X66040000Y-168910000D03*
X58420000Y-176530000D03*
X66040000Y-166370000D03*
X58420000Y-179070000D03*
X66040000Y-163830000D03*
D11*
X187960000Y-163830000D03*
D12*
X195580000Y-179070000D03*
X187960000Y-166370000D03*
X195580000Y-176530000D03*
X187960000Y-168910000D03*
X195580000Y-173990000D03*
X187960000Y-171450000D03*
X195580000Y-171450000D03*
X187960000Y-173990000D03*
X195580000Y-168910000D03*
X187960000Y-176530000D03*
X195580000Y-166370000D03*
X187960000Y-179070000D03*
X195580000Y-163830000D03*
X104140000Y-118110000D03*
X88900000Y-151130000D03*
X104140000Y-120650000D03*
X88900000Y-148590000D03*
X104140000Y-123190000D03*
X88900000Y-146050000D03*
X104140000Y-125730000D03*
X88900000Y-143510000D03*
X104140000Y-128270000D03*
X88900000Y-140970000D03*
X104140000Y-130810000D03*
X88900000Y-138430000D03*
X104140000Y-133350000D03*
X88900000Y-135890000D03*
X104140000Y-135890000D03*
X88900000Y-133350000D03*
X104140000Y-138430000D03*
X88900000Y-130810000D03*
X104140000Y-140970000D03*
X88900000Y-128270000D03*
X104140000Y-143510000D03*
X88900000Y-125730000D03*
X104140000Y-146050000D03*
X88900000Y-123190000D03*
X104140000Y-148590000D03*
X88900000Y-120650000D03*
X104140000Y-151130000D03*
D11*
X88900000Y-118110000D03*
X142240000Y-163830000D03*
D12*
X149860000Y-179070000D03*
X142240000Y-166370000D03*
X149860000Y-176530000D03*
X142240000Y-168910000D03*
X149860000Y-173990000D03*
X142240000Y-171450000D03*
X149860000Y-171450000D03*
X142240000Y-173990000D03*
X149860000Y-168910000D03*
X142240000Y-176530000D03*
X149860000Y-166370000D03*
X142240000Y-179070000D03*
X149860000Y-163830000D03*
D11*
X172720000Y-163830000D03*
D12*
X180340000Y-179070000D03*
X172720000Y-166370000D03*
X180340000Y-176530000D03*
X172720000Y-168910000D03*
X180340000Y-173990000D03*
X172720000Y-171450000D03*
X180340000Y-171450000D03*
X172720000Y-173990000D03*
X180340000Y-168910000D03*
X172720000Y-176530000D03*
X180340000Y-166370000D03*
X172720000Y-179070000D03*
X180340000Y-163830000D03*
D11*
X119380000Y-163830000D03*
D12*
X127000000Y-179070000D03*
X119380000Y-166370000D03*
X127000000Y-176530000D03*
X119380000Y-168910000D03*
X127000000Y-173990000D03*
X119380000Y-171450000D03*
X127000000Y-171450000D03*
X119380000Y-173990000D03*
X127000000Y-168910000D03*
X119380000Y-176530000D03*
X127000000Y-166370000D03*
X119380000Y-179070000D03*
X127000000Y-163830000D03*
D11*
X157480000Y-163830000D03*
D12*
X165100000Y-179070000D03*
X157480000Y-166370000D03*
X165100000Y-176530000D03*
X157480000Y-168910000D03*
X165100000Y-173990000D03*
X157480000Y-171450000D03*
X165100000Y-171450000D03*
X157480000Y-173990000D03*
X165100000Y-168910000D03*
X157480000Y-176530000D03*
X165100000Y-166370000D03*
X157480000Y-179070000D03*
X165100000Y-163830000D03*
D11*
X158750000Y-128270000D03*
D12*
X161290000Y-128270000D03*
X163830000Y-128270000D03*
X166370000Y-128270000D03*
X168910000Y-128270000D03*
X171450000Y-128270000D03*
X173990000Y-128270000D03*
X176530000Y-128270000D03*
X179070000Y-128270000D03*
X134620000Y-130810000D03*
X134620000Y-133350000D03*
X134620000Y-135890000D03*
X134620000Y-138430000D03*
X134620000Y-140970000D03*
X134620000Y-143510000D03*
X134620000Y-146050000D03*
X134620000Y-148590000D03*
D11*
X134620000Y-151130000D03*
X49530000Y-133350000D03*
D12*
X49530000Y-130810000D03*
X49530000Y-128270000D03*
X49530000Y-125730000D03*
X49530000Y-123190000D03*
X49530000Y-120650000D03*
X49530000Y-118110000D03*
X49530000Y-115570000D03*
X49530000Y-113030000D03*
X134620000Y-59690000D03*
X134620000Y-62230000D03*
X134620000Y-64770000D03*
X134620000Y-67310000D03*
X134620000Y-69850000D03*
X134620000Y-72390000D03*
X134620000Y-74930000D03*
X134620000Y-77470000D03*
D11*
X134620000Y-80010000D03*
D20*
X179070000Y-120650000D03*
D21*
X158750000Y-120650000D03*
D20*
X67310000Y-102870000D03*
D21*
X46990000Y-102870000D03*
D20*
X107950000Y-102870000D03*
D21*
X87630000Y-102870000D03*
D20*
X107950000Y-95250000D03*
D21*
X87630000Y-95250000D03*
D20*
X67310000Y-95250000D03*
D21*
X46990000Y-95250000D03*
D20*
X40640000Y-137160000D03*
D21*
X40640000Y-157480000D03*
D20*
X33020000Y-137160000D03*
D21*
X33020000Y-157480000D03*
D20*
X40640000Y-109220000D03*
D21*
X40640000Y-129540000D03*
D20*
X33020000Y-109220000D03*
D21*
X33020000Y-129540000D03*
D20*
X33020000Y-165100000D03*
D21*
X33020000Y-185420000D03*
D16*
X109220000Y-110490000D03*
D17*
X106680000Y-110490000D03*
D16*
X134620000Y-24130000D03*
D17*
X134620000Y-21590000D03*
D22*
X123190000Y-33020000D03*
G04 #@! TA.AperFunction,ComponentPad*
G36*
G01*
X122190000Y-25520000D02*
X124190000Y-25520000D01*
G75*
G02*
X124940000Y-26270000I0J-750000D01*
G01*
X124940000Y-27770000D01*
G75*
G02*
X124190000Y-28520000I-750000J0D01*
G01*
X122190000Y-28520000D01*
G75*
G02*
X121440000Y-27770000I0J750000D01*
G01*
X121440000Y-26270000D01*
G75*
G02*
X122190000Y-25520000I750000J0D01*
G01*
G37*
G04 #@! TD.AperFunction*
G04 #@! TA.AperFunction,ComponentPad*
G36*
G01*
X117615000Y-28270000D02*
X119365000Y-28270000D01*
G75*
G02*
X120240000Y-29145000I0J-875000D01*
G01*
X120240000Y-30895000D01*
G75*
G02*
X119365000Y-31770000I-875000J0D01*
G01*
X117615000Y-31770000D01*
G75*
G02*
X116740000Y-30895000I0J875000D01*
G01*
X116740000Y-29145000D01*
G75*
G02*
X117615000Y-28270000I875000J0D01*
G01*
G37*
G04 #@! TD.AperFunction*
D16*
X134620000Y-123190000D03*
X134620000Y-120650000D03*
D17*
X134620000Y-118110000D03*
X88900000Y-21590000D03*
D16*
X91440000Y-21590000D03*
X88900000Y-24130000D03*
X91440000Y-24130000D03*
X88900000Y-26670000D03*
X91440000Y-26670000D03*
X88900000Y-29210000D03*
X91440000Y-29210000D03*
X88900000Y-31750000D03*
X91440000Y-31750000D03*
X88900000Y-34290000D03*
X91440000Y-34290000D03*
X88900000Y-36830000D03*
X91440000Y-36830000D03*
X88900000Y-39370000D03*
X91440000Y-39370000D03*
X88900000Y-41910000D03*
X91440000Y-41910000D03*
X88900000Y-44450000D03*
X91440000Y-44450000D03*
X88900000Y-46990000D03*
X91440000Y-46990000D03*
X88900000Y-49530000D03*
X91440000Y-49530000D03*
X88900000Y-52070000D03*
X91440000Y-52070000D03*
X88900000Y-54610000D03*
X91440000Y-54610000D03*
X88900000Y-57150000D03*
X91440000Y-57150000D03*
X88900000Y-59690000D03*
X91440000Y-59690000D03*
X88900000Y-62230000D03*
X91440000Y-62230000D03*
X88900000Y-64770000D03*
X91440000Y-64770000D03*
X88900000Y-67310000D03*
X91440000Y-67310000D03*
X88900000Y-69850000D03*
X91440000Y-69850000D03*
X88900000Y-72390000D03*
X91440000Y-72390000D03*
X88900000Y-74930000D03*
X91440000Y-74930000D03*
X88900000Y-77470000D03*
X91440000Y-77470000D03*
X88900000Y-80010000D03*
X91440000Y-80010000D03*
D17*
X69850000Y-21590000D03*
D16*
X72390000Y-21590000D03*
X69850000Y-24130000D03*
X72390000Y-24130000D03*
X69850000Y-26670000D03*
X72390000Y-26670000D03*
X69850000Y-29210000D03*
X72390000Y-29210000D03*
X69850000Y-31750000D03*
X72390000Y-31750000D03*
X69850000Y-34290000D03*
X72390000Y-34290000D03*
X69850000Y-36830000D03*
X72390000Y-36830000D03*
X69850000Y-39370000D03*
X72390000Y-39370000D03*
X69850000Y-41910000D03*
X72390000Y-41910000D03*
X69850000Y-44450000D03*
X72390000Y-44450000D03*
X69850000Y-46990000D03*
X72390000Y-46990000D03*
X69850000Y-49530000D03*
X72390000Y-49530000D03*
X69850000Y-52070000D03*
X72390000Y-52070000D03*
X69850000Y-54610000D03*
X72390000Y-54610000D03*
X69850000Y-57150000D03*
X72390000Y-57150000D03*
X69850000Y-59690000D03*
X72390000Y-59690000D03*
X69850000Y-62230000D03*
X72390000Y-62230000D03*
X69850000Y-64770000D03*
X72390000Y-64770000D03*
X69850000Y-67310000D03*
X72390000Y-67310000D03*
X69850000Y-69850000D03*
X72390000Y-69850000D03*
X69850000Y-72390000D03*
X72390000Y-72390000D03*
X69850000Y-74930000D03*
X72390000Y-74930000D03*
X69850000Y-77470000D03*
X72390000Y-77470000D03*
X69850000Y-80010000D03*
X72390000Y-80010000D03*
D17*
X50800000Y-21590000D03*
D16*
X53340000Y-21590000D03*
X50800000Y-24130000D03*
X53340000Y-24130000D03*
X50800000Y-26670000D03*
X53340000Y-26670000D03*
X50800000Y-29210000D03*
X53340000Y-29210000D03*
X50800000Y-31750000D03*
X53340000Y-31750000D03*
X50800000Y-34290000D03*
X53340000Y-34290000D03*
X50800000Y-36830000D03*
X53340000Y-36830000D03*
X50800000Y-39370000D03*
X53340000Y-39370000D03*
X50800000Y-41910000D03*
X53340000Y-41910000D03*
X50800000Y-44450000D03*
X53340000Y-44450000D03*
X50800000Y-46990000D03*
X53340000Y-46990000D03*
X50800000Y-49530000D03*
X53340000Y-49530000D03*
X50800000Y-52070000D03*
X53340000Y-52070000D03*
X50800000Y-54610000D03*
X53340000Y-54610000D03*
X50800000Y-57150000D03*
X53340000Y-57150000D03*
X50800000Y-59690000D03*
X53340000Y-59690000D03*
X50800000Y-62230000D03*
X53340000Y-62230000D03*
X50800000Y-64770000D03*
X53340000Y-64770000D03*
X50800000Y-67310000D03*
X53340000Y-67310000D03*
X50800000Y-69850000D03*
X53340000Y-69850000D03*
X50800000Y-72390000D03*
X53340000Y-72390000D03*
X50800000Y-74930000D03*
X53340000Y-74930000D03*
X50800000Y-77470000D03*
X53340000Y-77470000D03*
X50800000Y-80010000D03*
X53340000Y-80010000D03*
D17*
X31750000Y-21590000D03*
D16*
X34290000Y-21590000D03*
X31750000Y-24130000D03*
X34290000Y-24130000D03*
X31750000Y-26670000D03*
X34290000Y-26670000D03*
X31750000Y-29210000D03*
X34290000Y-29210000D03*
X31750000Y-31750000D03*
X34290000Y-31750000D03*
X31750000Y-34290000D03*
X34290000Y-34290000D03*
X31750000Y-36830000D03*
X34290000Y-36830000D03*
X31750000Y-39370000D03*
X34290000Y-39370000D03*
X31750000Y-41910000D03*
X34290000Y-41910000D03*
X31750000Y-44450000D03*
X34290000Y-44450000D03*
X31750000Y-46990000D03*
X34290000Y-46990000D03*
X31750000Y-49530000D03*
X34290000Y-49530000D03*
X31750000Y-52070000D03*
X34290000Y-52070000D03*
X31750000Y-54610000D03*
X34290000Y-54610000D03*
X31750000Y-57150000D03*
X34290000Y-57150000D03*
X31750000Y-59690000D03*
X34290000Y-59690000D03*
X31750000Y-62230000D03*
X34290000Y-62230000D03*
X31750000Y-64770000D03*
X34290000Y-64770000D03*
X31750000Y-67310000D03*
X34290000Y-67310000D03*
X31750000Y-69850000D03*
X34290000Y-69850000D03*
X31750000Y-72390000D03*
X34290000Y-72390000D03*
X31750000Y-74930000D03*
X34290000Y-74930000D03*
X31750000Y-77470000D03*
X34290000Y-77470000D03*
X31750000Y-80010000D03*
X34290000Y-80010000D03*
X31750000Y-82550000D03*
X34290000Y-82550000D03*
X31750000Y-85090000D03*
X34290000Y-85090000D03*
D23*
X170180000Y-111760000D03*
D24*
X167640000Y-111760000D03*
D25*
X134620000Y-34290000D03*
D26*
X134620000Y-44450000D03*
D14*
X124174000Y-76200000D03*
D15*
X122174000Y-76200000D03*
D13*
X125650000Y-86360000D03*
X120650000Y-86360000D03*
X137080000Y-86360000D03*
X132080000Y-86360000D03*
X124420000Y-67310000D03*
D11*
X121920000Y-67310000D03*
D13*
X79930000Y-99060000D03*
X74930000Y-99060000D03*
X121840000Y-157480000D03*
X116840000Y-157480000D03*
X125650000Y-185420000D03*
X120650000Y-185420000D03*
X79930000Y-157480000D03*
X74930000Y-157480000D03*
X49450000Y-185420000D03*
X44450000Y-185420000D03*
X148510000Y-185420000D03*
X143510000Y-185420000D03*
X95170000Y-185420000D03*
X90170000Y-185420000D03*
X163750000Y-185420000D03*
X158750000Y-185420000D03*
X79930000Y-185420000D03*
X74930000Y-185420000D03*
X178990000Y-157480000D03*
X173990000Y-157480000D03*
X73580000Y-86360000D03*
X68580000Y-86360000D03*
X148510000Y-86360000D03*
X143510000Y-86360000D03*
X194230000Y-157480000D03*
X189230000Y-157480000D03*
X111680000Y-86360000D03*
X106680000Y-86360000D03*
X194230000Y-86360000D03*
X189230000Y-86360000D03*
X64690000Y-127000000D03*
X59690000Y-127000000D03*
X92630000Y-86360000D03*
X87630000Y-86360000D03*
X64690000Y-157480000D03*
X59690000Y-157480000D03*
X194230000Y-185420000D03*
X189230000Y-185420000D03*
X35810000Y-91960000D03*
X30810000Y-91960000D03*
X64690000Y-185420000D03*
X59690000Y-185420000D03*
X178990000Y-185420000D03*
X173990000Y-185420000D03*
X194230000Y-50800000D03*
X189230000Y-50800000D03*
X98980000Y-157480000D03*
X93980000Y-157480000D03*
X79930000Y-129540000D03*
X74930000Y-129540000D03*
X163750000Y-157480000D03*
X158750000Y-157480000D03*
X194230000Y-121920000D03*
X189230000Y-121920000D03*
X54530000Y-86360000D03*
X49530000Y-86360000D03*
X148510000Y-50800000D03*
X143510000Y-50800000D03*
X148510000Y-157480000D03*
X143510000Y-157480000D03*
X110410000Y-185420000D03*
X105410000Y-185420000D03*
X148510000Y-121920000D03*
X143510000Y-121920000D03*
X180260000Y-106680000D03*
X175260000Y-106680000D03*
X162480000Y-106680000D03*
X157480000Y-106680000D03*
D27*
X39370000Y-46990000D03*
X39370000Y-69850000D03*
X55880000Y-46990000D03*
X55880000Y-69850000D03*
X74930000Y-46990000D03*
X74930000Y-69850000D03*
X93980000Y-46990000D03*
X93980000Y-69850000D03*
X140970000Y-85090000D03*
X125730000Y-69850000D03*
X127000000Y-68580000D03*
X100330000Y-118110000D03*
X100330000Y-143510000D03*
X162560000Y-147320000D03*
X190500000Y-109220000D03*
X193040000Y-95250000D03*
X154940000Y-82550000D03*
X193040000Y-151130000D03*
X190500000Y-170180000D03*
X193040000Y-167640000D03*
X64770000Y-144780000D03*
X97790000Y-151130000D03*
X116840000Y-151130000D03*
X63500000Y-137160000D03*
X151130000Y-76200000D03*
X193040000Y-142240000D03*
X114300000Y-163830000D03*
X123190000Y-138430000D03*
X173990000Y-109220000D03*
X177800000Y-144780000D03*
X161290000Y-74930000D03*
X39370000Y-21590000D03*
X55880000Y-21590000D03*
X74930000Y-21590000D03*
X93980000Y-21590000D03*
X106680000Y-71120000D03*
X87630000Y-71120000D03*
X68580000Y-71120000D03*
X49530000Y-71120000D03*
X49530000Y-48260000D03*
X68580000Y-48260000D03*
X87630000Y-48260000D03*
X106680000Y-48260000D03*
X43180000Y-96520000D03*
X191770000Y-130810000D03*
X99060000Y-163830000D03*
X99060000Y-161290000D03*
X167640000Y-163830000D03*
X167640000Y-161290000D03*
X194310000Y-91440000D03*
X194310000Y-55880000D03*
X71120000Y-106680000D03*
X189230000Y-82550000D03*
X190500000Y-143510000D03*
X177800000Y-118110000D03*
X185420000Y-118110000D03*
X45720000Y-109220000D03*
X43180000Y-92710000D03*
X193040000Y-22860000D03*
X66040000Y-109220000D03*
X50800000Y-116840000D03*
X41910000Y-116840000D03*
X38100000Y-104140000D03*
X76200000Y-105410000D03*
X76200000Y-109220000D03*
X77470000Y-110490000D03*
X76200000Y-124460000D03*
X128270000Y-85090000D03*
X118110000Y-85090000D03*
X121920000Y-71120000D03*
X67310000Y-107950000D03*
X38100000Y-96520000D03*
X45720000Y-97790000D03*
X52070000Y-93980000D03*
X62230000Y-102870000D03*
X137160000Y-25400000D03*
X156210000Y-113030000D03*
X161290000Y-109220000D03*
X30480000Y-133350000D03*
X45720000Y-130810000D03*
X44450000Y-129540000D03*
X44450000Y-118110000D03*
X41910000Y-118110000D03*
X38100000Y-111760000D03*
X39370000Y-106680000D03*
X39370000Y-104140000D03*
X41910000Y-85090000D03*
X40640000Y-92710000D03*
X59690000Y-123190000D03*
X55880000Y-127000000D03*
X52070000Y-127000000D03*
X124460000Y-104140000D03*
X125730000Y-88900000D03*
X123190000Y-86360000D03*
X121920000Y-78740000D03*
X114300000Y-74930000D03*
X114300000Y-72390000D03*
X109220000Y-119380000D03*
X124460000Y-121920000D03*
X110490000Y-157480000D03*
X111760000Y-160020000D03*
X127000000Y-78740000D03*
X144780000Y-77470000D03*
X152400000Y-57150000D03*
X154940000Y-54610000D03*
X124460000Y-137160000D03*
X113030000Y-152400000D03*
X115570000Y-163830000D03*
X55880000Y-72390000D03*
X74930000Y-72390000D03*
X93980000Y-72390000D03*
X39370000Y-72390000D03*
X139700000Y-93980000D03*
X132080000Y-88900000D03*
X111760000Y-73660000D03*
X127000000Y-77470000D03*
X134620000Y-57150000D03*
X134620000Y-46990000D03*
X143510000Y-30480000D03*
X158750000Y-133350000D03*
X163830000Y-147320000D03*
X167640000Y-154940000D03*
X172720000Y-154940000D03*
X176530000Y-154940000D03*
X187960000Y-154940000D03*
X193040000Y-143510000D03*
X160020000Y-154940000D03*
X154940000Y-163830000D03*
X153670000Y-171450000D03*
X143510000Y-170180000D03*
X134620000Y-171450000D03*
X123190000Y-167640000D03*
X191770000Y-163830000D03*
X185420000Y-167640000D03*
X182880000Y-170180000D03*
X195580000Y-153670000D03*
X199390000Y-168910000D03*
X114300000Y-27940000D03*
X113030000Y-57150000D03*
X115570000Y-68580000D03*
X115570000Y-71120000D03*
X115570000Y-76200000D03*
X114300000Y-21590000D03*
X39370000Y-74930000D03*
X55880000Y-74930000D03*
X74930000Y-74930000D03*
X93980000Y-74930000D03*
X190500000Y-165100000D03*
X176530000Y-176530000D03*
X114300000Y-29210000D03*
X111760000Y-76200000D03*
X116840000Y-77470000D03*
X116840000Y-71120000D03*
X116840000Y-68580000D03*
X114300000Y-57150000D03*
X33020000Y-180340000D03*
X30480000Y-114300000D03*
X30480000Y-96520000D03*
X77470000Y-68580000D03*
X39370000Y-67310000D03*
X55880000Y-67310000D03*
X74930000Y-67310000D03*
X93980000Y-67310000D03*
X78740000Y-67310000D03*
X111760000Y-66040000D03*
X80010000Y-66040000D03*
X39370000Y-64770000D03*
X55880000Y-64770000D03*
X74930000Y-64770000D03*
X93980000Y-64770000D03*
X81280000Y-64770000D03*
X111760000Y-63500000D03*
X82550000Y-63500000D03*
X39370000Y-62230000D03*
X55880000Y-62230000D03*
X74930000Y-62230000D03*
X93980000Y-62230000D03*
X83820000Y-62230000D03*
X111760000Y-60960000D03*
X85090000Y-60960000D03*
X39370000Y-59690000D03*
X55880000Y-59690000D03*
X74930000Y-59690000D03*
X93980000Y-59690000D03*
X86360000Y-59690000D03*
X111760000Y-58420000D03*
X96520000Y-58420000D03*
X115570000Y-149860000D03*
X115570000Y-143510000D03*
X125730000Y-149860000D03*
X121920000Y-149860000D03*
X39370000Y-57150000D03*
X55880000Y-57150000D03*
X74930000Y-57150000D03*
X93980000Y-57150000D03*
X97790000Y-57150000D03*
X114300000Y-149860000D03*
X114300000Y-147320000D03*
X125730000Y-147320000D03*
X121920000Y-147320000D03*
X99060000Y-55880000D03*
X125730000Y-144780000D03*
X121920000Y-144780000D03*
X39370000Y-54610000D03*
X55880000Y-54610000D03*
X74930000Y-54610000D03*
X93980000Y-54610000D03*
X100330000Y-54610000D03*
X101600000Y-53340000D03*
X39370000Y-52070000D03*
X55880000Y-52070000D03*
X74930000Y-52070000D03*
X93980000Y-52070000D03*
X102870000Y-52070000D03*
X104140000Y-50800000D03*
X39370000Y-49530000D03*
X55880000Y-49530000D03*
X74930000Y-49530000D03*
X93980000Y-49530000D03*
X105410000Y-49530000D03*
X107950000Y-85090000D03*
X105410000Y-85090000D03*
X39370000Y-44450000D03*
X55880000Y-44450000D03*
X74930000Y-44450000D03*
X93980000Y-44450000D03*
X105410000Y-142240000D03*
X105410000Y-157480000D03*
X193040000Y-160020000D03*
X175260000Y-160020000D03*
X168910000Y-158750000D03*
X135890000Y-160020000D03*
X41910000Y-132080000D03*
X43180000Y-115570000D03*
X43180000Y-110490000D03*
X40640000Y-105410000D03*
X45720000Y-44450000D03*
X41910000Y-92710000D03*
X106680000Y-139700000D03*
X106680000Y-157480000D03*
X193040000Y-161290000D03*
X173990000Y-161290000D03*
X167640000Y-160020000D03*
X128270000Y-160020000D03*
X102870000Y-161290000D03*
X36830000Y-142240000D03*
X35560000Y-133350000D03*
X36830000Y-107950000D03*
X36830000Y-99060000D03*
X36830000Y-95250000D03*
X44450000Y-85090000D03*
X44450000Y-43180000D03*
X36830000Y-104140000D03*
X55880000Y-41910000D03*
X74930000Y-41910000D03*
X93980000Y-41910000D03*
X168910000Y-179070000D03*
X168910000Y-182880000D03*
X151130000Y-182880000D03*
X148590000Y-182880000D03*
X30480000Y-132080000D03*
X30480000Y-115570000D03*
X35560000Y-88900000D03*
X38100000Y-77470000D03*
X41910000Y-77470000D03*
X39370000Y-41910000D03*
X41910000Y-41910000D03*
X106680000Y-177800000D03*
X106680000Y-163830000D03*
X109220000Y-160020000D03*
X107950000Y-157480000D03*
X107950000Y-137160000D03*
X106680000Y-166370000D03*
X109220000Y-133350000D03*
X109220000Y-157480000D03*
X110490000Y-160020000D03*
X107950000Y-163830000D03*
X170180000Y-179070000D03*
X170180000Y-181610000D03*
X151130000Y-181610000D03*
X148590000Y-181610000D03*
X107950000Y-180340000D03*
X102870000Y-177800000D03*
X107950000Y-177800000D03*
X35560000Y-143510000D03*
X36830000Y-88900000D03*
X39370000Y-78740000D03*
X43180000Y-78740000D03*
X43180000Y-40640000D03*
X35560000Y-132080000D03*
X34290000Y-121920000D03*
X31750000Y-119380000D03*
X107950000Y-166370000D03*
X39370000Y-39370000D03*
X55880000Y-39370000D03*
X74930000Y-39370000D03*
X93980000Y-39370000D03*
X185420000Y-111760000D03*
X152400000Y-125730000D03*
X85090000Y-111760000D03*
X87630000Y-109220000D03*
X67310000Y-39370000D03*
X78740000Y-101600000D03*
X76200000Y-96520000D03*
X76200000Y-92710000D03*
X73660000Y-88900000D03*
X133350000Y-128270000D03*
X184150000Y-110490000D03*
X152400000Y-124460000D03*
X69850000Y-105410000D03*
X66040000Y-38100000D03*
X73660000Y-95250000D03*
X73660000Y-91440000D03*
X133350000Y-127000000D03*
X39370000Y-36830000D03*
X55880000Y-36830000D03*
X74930000Y-36830000D03*
X93980000Y-36830000D03*
X82550000Y-125730000D03*
X182880000Y-109220000D03*
X152400000Y-123190000D03*
X76200000Y-120650000D03*
X72390000Y-119380000D03*
X69850000Y-119380000D03*
X69850000Y-110490000D03*
X68580000Y-109220000D03*
X64770000Y-101600000D03*
X62230000Y-101600000D03*
X64770000Y-36830000D03*
X133350000Y-125730000D03*
X76200000Y-119380000D03*
X82550000Y-119380000D03*
X88900000Y-115570000D03*
X130810000Y-58420000D03*
X130810000Y-52070000D03*
X144780000Y-91440000D03*
X39370000Y-34290000D03*
X55880000Y-34290000D03*
X74930000Y-34290000D03*
X93980000Y-34290000D03*
X132080000Y-58420000D03*
X130810000Y-50800000D03*
X146050000Y-90170000D03*
X107950000Y-125730000D03*
X125730000Y-113030000D03*
X124460000Y-119380000D03*
X125730000Y-121920000D03*
X86360000Y-123190000D03*
X86360000Y-127000000D03*
X133350000Y-58420000D03*
X130810000Y-49530000D03*
X147320000Y-88900000D03*
X107950000Y-128270000D03*
X39370000Y-31750000D03*
X55880000Y-31750000D03*
X74930000Y-31750000D03*
X93980000Y-31750000D03*
X83820000Y-127000000D03*
X83820000Y-123190000D03*
X83820000Y-119380000D03*
X83820000Y-114300000D03*
X153670000Y-81280000D03*
X153670000Y-77470000D03*
X151130000Y-55880000D03*
X134620000Y-52070000D03*
X130810000Y-48260000D03*
X107950000Y-135890000D03*
X86360000Y-133350000D03*
X87630000Y-134620000D03*
X85090000Y-127000000D03*
X85090000Y-123190000D03*
X77470000Y-115570000D03*
X77470000Y-113030000D03*
X80010000Y-111760000D03*
X83820000Y-110490000D03*
X154940000Y-78740000D03*
X154940000Y-76200000D03*
X151130000Y-54610000D03*
X134620000Y-50800000D03*
X130810000Y-46990000D03*
X107950000Y-130810000D03*
X39370000Y-29210000D03*
X55880000Y-29210000D03*
X74930000Y-29210000D03*
X93980000Y-29210000D03*
X82550000Y-109220000D03*
X151130000Y-53340000D03*
X134620000Y-49530000D03*
X130810000Y-45720000D03*
X107950000Y-123190000D03*
X156210000Y-127000000D03*
X162560000Y-135890000D03*
X161290000Y-143510000D03*
X129540000Y-121920000D03*
X148590000Y-33020000D03*
X148590000Y-22860000D03*
X39370000Y-26670000D03*
X55880000Y-26670000D03*
X74930000Y-26670000D03*
X93980000Y-26670000D03*
X129540000Y-120650000D03*
X133350000Y-134620000D03*
X146050000Y-152400000D03*
X151130000Y-149860000D03*
X132080000Y-123190000D03*
X147320000Y-30480000D03*
X147320000Y-24130000D03*
X143510000Y-25400000D03*
X138430000Y-26670000D03*
X114300000Y-26670000D03*
X157480000Y-153670000D03*
X39370000Y-24130000D03*
X55880000Y-24130000D03*
X74930000Y-24130000D03*
X93980000Y-24130000D03*
X199390000Y-29210000D03*
X199390000Y-26670000D03*
X171450000Y-147320000D03*
X55880000Y-77470000D03*
X74930000Y-77470000D03*
X93980000Y-77470000D03*
X30480000Y-127000000D03*
X30480000Y-130810000D03*
X198120000Y-167640000D03*
X170180000Y-147320000D03*
X167640000Y-140970000D03*
X170180000Y-127000000D03*
X60960000Y-140970000D03*
X62230000Y-133350000D03*
X41910000Y-124460000D03*
X172720000Y-127000000D03*
X167640000Y-139700000D03*
X59690000Y-144780000D03*
X63500000Y-144780000D03*
X41910000Y-125730000D03*
X46990000Y-130810000D03*
X53340000Y-135890000D03*
X175260000Y-127000000D03*
X168910000Y-137160000D03*
X53340000Y-137160000D03*
X35560000Y-134620000D03*
X44450000Y-96520000D03*
X46990000Y-90170000D03*
X54610000Y-132080000D03*
X71120000Y-172720000D03*
X54610000Y-139700000D03*
X44450000Y-92710000D03*
X68580000Y-133350000D03*
X64770000Y-124460000D03*
X57150000Y-119380000D03*
X53340000Y-119380000D03*
X41910000Y-119380000D03*
X35560000Y-109220000D03*
X53340000Y-129540000D03*
X35560000Y-104140000D03*
X49530000Y-107950000D03*
X69850000Y-100330000D03*
X69850000Y-95250000D03*
X53340000Y-128270000D03*
X55880000Y-128270000D03*
X60960000Y-160020000D03*
X68580000Y-160020000D03*
X55880000Y-139700000D03*
X71120000Y-170180000D03*
X71120000Y-167640000D03*
X69850000Y-135890000D03*
X68580000Y-116840000D03*
X62230000Y-114300000D03*
X60960000Y-113030000D03*
X58420000Y-110490000D03*
X50800000Y-104140000D03*
X71120000Y-97790000D03*
X71120000Y-95250000D03*
X53340000Y-106680000D03*
X39370000Y-113030000D03*
X44450000Y-110490000D03*
X67310000Y-132080000D03*
X66040000Y-128270000D03*
X55880000Y-110490000D03*
X55880000Y-107950000D03*
X39370000Y-114300000D03*
X44450000Y-111760000D03*
X54610000Y-111760000D03*
X54610000Y-104140000D03*
X87630000Y-91440000D03*
X85090000Y-88900000D03*
X58420000Y-104140000D03*
X77470000Y-95250000D03*
X57150000Y-139700000D03*
X53340000Y-138430000D03*
X33020000Y-140970000D03*
X100330000Y-173990000D03*
X92710000Y-172720000D03*
X87630000Y-172720000D03*
X63500000Y-165100000D03*
X57150000Y-167640000D03*
X57150000Y-160020000D03*
X49530000Y-104140000D03*
X68580000Y-92710000D03*
X76200000Y-90170000D03*
X88900000Y-83820000D03*
X93980000Y-81280000D03*
X54610000Y-113030000D03*
X55880000Y-115570000D03*
X39370000Y-115570000D03*
X44450000Y-114300000D03*
X55880000Y-111760000D03*
X63500000Y-113030000D03*
X67310000Y-114300000D03*
X68580000Y-115570000D03*
X72390000Y-116840000D03*
X80010000Y-105410000D03*
X69850000Y-140970000D03*
X69850000Y-120650000D03*
X69850000Y-160020000D03*
X71120000Y-157480000D03*
X73660000Y-132080000D03*
X91440000Y-110490000D03*
X100330000Y-110490000D03*
X100330000Y-104140000D03*
X105410000Y-104140000D03*
X105410000Y-101600000D03*
X80010000Y-132080000D03*
X129540000Y-161290000D03*
X129540000Y-157480000D03*
X135890000Y-147320000D03*
X115570000Y-105410000D03*
X115570000Y-110490000D03*
X123190000Y-106680000D03*
X130810000Y-161290000D03*
X130810000Y-157480000D03*
X137160000Y-149860000D03*
X132080000Y-132080000D03*
X132080000Y-129540000D03*
X115570000Y-100330000D03*
X127000000Y-95250000D03*
X146050000Y-148590000D03*
X129540000Y-125730000D03*
X110490000Y-101600000D03*
X123190000Y-90170000D03*
X151130000Y-93980000D03*
X147320000Y-93980000D03*
X146050000Y-96520000D03*
X143510000Y-96520000D03*
X129540000Y-113030000D03*
X128270000Y-115570000D03*
X128270000Y-124460000D03*
X125730000Y-139700000D03*
X123190000Y-139700000D03*
X110490000Y-144780000D03*
X110490000Y-152400000D03*
X102870000Y-152400000D03*
X97790000Y-160020000D03*
X91440000Y-168910000D03*
X90170000Y-160020000D03*
X83820000Y-161290000D03*
X83820000Y-158750000D03*
X78740000Y-158750000D03*
X77470000Y-152400000D03*
X68580000Y-139700000D03*
X60960000Y-130810000D03*
X57150000Y-130810000D03*
X58420000Y-125730000D03*
X55880000Y-121920000D03*
X53340000Y-121920000D03*
X52070000Y-124460000D03*
X46990000Y-124460000D03*
X158750000Y-58420000D03*
X161290000Y-60960000D03*
X170180000Y-73660000D03*
X170180000Y-90170000D03*
X190500000Y-101600000D03*
X191770000Y-102870000D03*
X191770000Y-109220000D03*
X193040000Y-116840000D03*
X189230000Y-134620000D03*
X175260000Y-149860000D03*
X170180000Y-152400000D03*
X152400000Y-148590000D03*
X149860000Y-153670000D03*
X151130000Y-157480000D03*
X144780000Y-162560000D03*
X133350000Y-165100000D03*
X110490000Y-170180000D03*
X110490000Y-165100000D03*
X105410000Y-170180000D03*
X99060000Y-166370000D03*
X93980000Y-165100000D03*
X91440000Y-163830000D03*
X91440000Y-166370000D03*
X175260000Y-139700000D03*
X176530000Y-135890000D03*
X175260000Y-144780000D03*
X62230000Y-179070000D03*
X54610000Y-177800000D03*
X52070000Y-177800000D03*
X48260000Y-177800000D03*
X46990000Y-135890000D03*
X46990000Y-132080000D03*
X172720000Y-74930000D03*
X173990000Y-74930000D03*
X173990000Y-92710000D03*
X175260000Y-96520000D03*
X175260000Y-74930000D03*
X175260000Y-91440000D03*
X173990000Y-96520000D03*
X176530000Y-74930000D03*
X176530000Y-95250000D03*
X172720000Y-96520000D03*
X184150000Y-107950000D03*
X167640000Y-102870000D03*
X171450000Y-102870000D03*
X167640000Y-101600000D03*
X170180000Y-101600000D03*
X158750000Y-91440000D03*
X162560000Y-91440000D03*
X158750000Y-93980000D03*
X162560000Y-93980000D03*
X179070000Y-125730000D03*
X167640000Y-116840000D03*
X158750000Y-96520000D03*
X162560000Y-96520000D03*
X154940000Y-91440000D03*
X166370000Y-116840000D03*
X179070000Y-124460000D03*
X158750000Y-99060000D03*
X162560000Y-99060000D03*
X153670000Y-92710000D03*
X157480000Y-113030000D03*
X160020000Y-111760000D03*
X166370000Y-114300000D03*
X179070000Y-123190000D03*
X158750000Y-101600000D03*
X162560000Y-101600000D03*
X139700000Y-85090000D03*
X125730000Y-80010000D03*
X119380000Y-80010000D03*
X120650000Y-73660000D03*
X119380000Y-68580000D03*
X111760000Y-45720000D03*
X46990000Y-45720000D03*
X46990000Y-87630000D03*
X39370000Y-88900000D03*
X33020000Y-92710000D03*
X31750000Y-96520000D03*
X33020000Y-106680000D03*
X35560000Y-115570000D03*
X35560000Y-127000000D03*
X40640000Y-132080000D03*
X38100000Y-143510000D03*
X46990000Y-175260000D03*
X54610000Y-176530000D03*
X60960000Y-172720000D03*
X158750000Y-102870000D03*
X162560000Y-102870000D03*
X158750000Y-104140000D03*
X162560000Y-104140000D03*
X158750000Y-105410000D03*
X163830000Y-104140000D03*
X171450000Y-153670000D03*
X161290000Y-153670000D03*
X161290000Y-158750000D03*
X134620000Y-158750000D03*
X132080000Y-161290000D03*
X132080000Y-167640000D03*
X114300000Y-171450000D03*
X114300000Y-176530000D03*
X134620000Y-173990000D03*
X129540000Y-179070000D03*
X168910000Y-72390000D03*
X170180000Y-99060000D03*
X182880000Y-96520000D03*
X181610000Y-102870000D03*
X179070000Y-102870000D03*
X177800000Y-113030000D03*
X180340000Y-113030000D03*
X181610000Y-129540000D03*
X176530000Y-142240000D03*
X176530000Y-144780000D03*
X185420000Y-137160000D03*
X186690000Y-53340000D03*
X187960000Y-54610000D03*
X158750000Y-63500000D03*
X152400000Y-83820000D03*
X85090000Y-115570000D03*
X83820000Y-116840000D03*
X86360000Y-119380000D03*
X86360000Y-129540000D03*
X86360000Y-134620000D03*
X86360000Y-157480000D03*
X77470000Y-165100000D03*
X154940000Y-26670000D03*
X151130000Y-27940000D03*
X152400000Y-25400000D03*
X182880000Y-168910000D03*
X191770000Y-176530000D03*
X175260000Y-151130000D03*
X184150000Y-173990000D03*
X95250000Y-181610000D03*
X102870000Y-181610000D03*
X105410000Y-181610000D03*
X107950000Y-182880000D03*
X110490000Y-182880000D03*
X133350000Y-139700000D03*
X144780000Y-152400000D03*
X140970000Y-153670000D03*
X140970000Y-157480000D03*
X140970000Y-167640000D03*
X132080000Y-170180000D03*
X121920000Y-171450000D03*
X121920000Y-173990000D03*
X92710000Y-173990000D03*
X105410000Y-175260000D03*
X100330000Y-175260000D03*
X87630000Y-137160000D03*
X88900000Y-157480000D03*
X91440000Y-175260000D03*
X102870000Y-184150000D03*
X105410000Y-182880000D03*
X107950000Y-184150000D03*
X111760000Y-184150000D03*
X115570000Y-181610000D03*
X52070000Y-160020000D03*
X91440000Y-179070000D03*
X92710000Y-180340000D03*
X95250000Y-180340000D03*
X102870000Y-180340000D03*
X120650000Y-175260000D03*
X138430000Y-175260000D03*
X146050000Y-167640000D03*
X162560000Y-158750000D03*
X171450000Y-157480000D03*
X182880000Y-163830000D03*
X175260000Y-156210000D03*
X182880000Y-156210000D03*
X175260000Y-182880000D03*
X152400000Y-184150000D03*
X152400000Y-179070000D03*
X153670000Y-176530000D03*
X154940000Y-173990000D03*
X152400000Y-173990000D03*
X152400000Y-163830000D03*
X156210000Y-156210000D03*
X186690000Y-172720000D03*
X53340000Y-160020000D03*
X53340000Y-172720000D03*
X49530000Y-181610000D03*
X43180000Y-181610000D03*
X142240000Y-181610000D03*
X148590000Y-180340000D03*
X151130000Y-180340000D03*
X160020000Y-180340000D03*
X161290000Y-176530000D03*
X170180000Y-172720000D03*
X175260000Y-171450000D03*
X177800000Y-171450000D03*
X107950000Y-133350000D03*
X163830000Y-172720000D03*
X163830000Y-180340000D03*
X120650000Y-167640000D03*
X113030000Y-165100000D03*
X91440000Y-132080000D03*
X91440000Y-142240000D03*
X96520000Y-151130000D03*
X96520000Y-157480000D03*
X100330000Y-166370000D03*
X171450000Y-74930000D03*
X171450000Y-101600000D03*
X191770000Y-110490000D03*
X191770000Y-118110000D03*
X193040000Y-129540000D03*
X190500000Y-134620000D03*
X191770000Y-135890000D03*
X191770000Y-143510000D03*
X176530000Y-163830000D03*
X175260000Y-168910000D03*
X184150000Y-151130000D03*
X184150000Y-153670000D03*
X160020000Y-73660000D03*
X85090000Y-157480000D03*
X85090000Y-163830000D03*
X99060000Y-167640000D03*
X93980000Y-167640000D03*
X92710000Y-179070000D03*
X100330000Y-172720000D03*
X105410000Y-172720000D03*
X92710000Y-176530000D03*
X95250000Y-177800000D03*
X95250000Y-170180000D03*
X110490000Y-177800000D03*
X140970000Y-182880000D03*
X123190000Y-177800000D03*
X140970000Y-177800000D03*
X146050000Y-184150000D03*
X149860000Y-184150000D03*
X152400000Y-185420000D03*
X167640000Y-185420000D03*
X168910000Y-176530000D03*
X170180000Y-175260000D03*
X170180000Y-163830000D03*
X190500000Y-153670000D03*
X113030000Y-160020000D03*
X120650000Y-160020000D03*
X109220000Y-163830000D03*
X193040000Y-181610000D03*
X196850000Y-181610000D03*
X138430000Y-185420000D03*
X133350000Y-185420000D03*
X125730000Y-181610000D03*
X186690000Y-137160000D03*
X186690000Y-139700000D03*
X179070000Y-139700000D03*
X177800000Y-135890000D03*
X186690000Y-142240000D03*
X179070000Y-142240000D03*
X68580000Y-170180000D03*
X69850000Y-163830000D03*
X76200000Y-148590000D03*
X77470000Y-158750000D03*
X55880000Y-157480000D03*
X69850000Y-157480000D03*
X71120000Y-175260000D03*
X69850000Y-173990000D03*
X69850000Y-171450000D03*
X71120000Y-163830000D03*
X82550000Y-157480000D03*
X80010000Y-149860000D03*
X77470000Y-149860000D03*
X76200000Y-140970000D03*
X68580000Y-157480000D03*
X68580000Y-163830000D03*
X72390000Y-157480000D03*
X73660000Y-153670000D03*
X67310000Y-157480000D03*
X64770000Y-123190000D03*
X67310000Y-125730000D03*
X72390000Y-130810000D03*
X73660000Y-128270000D03*
X86360000Y-152400000D03*
X87630000Y-157480000D03*
X49530000Y-160020000D03*
X190500000Y-172720000D03*
X194310000Y-170180000D03*
X139700000Y-157480000D03*
X139700000Y-151130000D03*
X88900000Y-114300000D03*
X115570000Y-114300000D03*
X124460000Y-142240000D03*
X115570000Y-142240000D03*
X121920000Y-140970000D03*
X138430000Y-157480000D03*
X138430000Y-152400000D03*
X71120000Y-125730000D03*
X71120000Y-123190000D03*
X137160000Y-157480000D03*
X137160000Y-153670000D03*
X81280000Y-133350000D03*
X81280000Y-125730000D03*
X85090000Y-133350000D03*
X184150000Y-166370000D03*
X177800000Y-168910000D03*
X161290000Y-170180000D03*
X148590000Y-177800000D03*
X161290000Y-151130000D03*
X76200000Y-163830000D03*
X83820000Y-157480000D03*
X62230000Y-172720000D03*
X67310000Y-172720000D03*
X77470000Y-176530000D03*
X80010000Y-177800000D03*
D28*
X39370000Y-46990000D02*
X50800000Y-46990000D01*
X39370000Y-69850000D02*
X50800000Y-69850000D01*
X55880000Y-46990000D02*
X69850000Y-46990000D01*
X55880000Y-69850000D02*
X69850000Y-69850000D01*
X74930000Y-46990000D02*
X88900000Y-46990000D01*
X74930000Y-69850000D02*
X88900000Y-69850000D01*
X93980000Y-46990000D02*
X107950000Y-46990000D01*
X108750998Y-69850000D02*
X107950000Y-69850000D01*
X93980000Y-69850000D02*
X108750998Y-69850000D01*
X58420000Y-120730000D02*
X58420000Y-120650000D01*
X64690000Y-127000000D02*
X58420000Y-120730000D01*
X147240000Y-85090000D02*
X140970000Y-85090000D01*
X148510000Y-86360000D02*
X147240000Y-85090000D01*
X125730000Y-69850000D02*
X127000000Y-68580000D01*
X125730000Y-116840000D02*
X127000000Y-118110000D01*
X104140000Y-118110000D02*
X105410000Y-116840000D01*
X105410000Y-116840000D02*
X125730000Y-116840000D01*
X107950000Y-102870000D02*
X115570000Y-95250000D01*
X104140000Y-118110000D02*
X100330000Y-118110000D01*
X180340000Y-135890000D02*
X179070000Y-134620000D01*
X179070000Y-134620000D02*
X166370000Y-134620000D01*
X166370000Y-134620000D02*
X165100000Y-135890000D01*
X195580000Y-123270000D02*
X194230000Y-121920000D01*
X195580000Y-128270000D02*
X195580000Y-123270000D01*
X163750000Y-157480000D02*
X162560000Y-156290000D01*
X162560000Y-156290000D02*
X162560000Y-147320000D01*
X148510000Y-126920000D02*
X148510000Y-121920000D01*
X149860000Y-128270000D02*
X148510000Y-126920000D01*
X151130000Y-86360000D02*
X154940000Y-82550000D01*
X148510000Y-86360000D02*
X151130000Y-86360000D01*
X190500000Y-170180000D02*
X193040000Y-167640000D01*
X81280000Y-107950000D02*
X85090000Y-104140000D01*
X85090000Y-104140000D02*
X85090000Y-97790000D01*
X85090000Y-97790000D02*
X87630000Y-95250000D01*
X123190000Y-149860000D02*
X121920000Y-151130000D01*
X121920000Y-151130000D02*
X116840000Y-151130000D01*
X97790000Y-151130000D02*
X100330000Y-148590000D01*
X100330000Y-148590000D02*
X100330000Y-143510000D01*
X64770000Y-144780000D02*
X64770000Y-138430000D01*
X64770000Y-138430000D02*
X63500000Y-137160000D01*
X95250000Y-102870000D02*
X107950000Y-102870000D01*
X87630000Y-95250000D02*
X95250000Y-102870000D01*
X149860000Y-57150000D02*
X151130000Y-58420000D01*
X151130000Y-58420000D02*
X151130000Y-76200000D01*
X193040000Y-142240000D02*
X194310000Y-143510000D01*
X193040000Y-148590000D02*
X194310000Y-147320000D01*
X193040000Y-148590000D02*
X193040000Y-151130000D01*
X194310000Y-147320000D02*
X194310000Y-143510000D01*
X114300000Y-163830000D02*
X115570000Y-162560000D01*
X115570000Y-162560000D02*
X125730000Y-162560000D01*
X125730000Y-162560000D02*
X127000000Y-163830000D01*
X123190000Y-138430000D02*
X124460000Y-139700000D01*
X124460000Y-139700000D02*
X124460000Y-140970000D01*
X124460000Y-140970000D02*
X123190000Y-142240000D01*
X123190000Y-142240000D02*
X123190000Y-149860000D01*
X191770000Y-96520000D02*
X193040000Y-95250000D01*
X191770000Y-101600000D02*
X191770000Y-96520000D01*
X190500000Y-102870000D02*
X191770000Y-101600000D01*
X190500000Y-109220000D02*
X190500000Y-102870000D01*
X168910000Y-107950000D02*
X163830000Y-107950000D01*
X163830000Y-107950000D02*
X162480000Y-106680000D01*
X173990000Y-109220000D02*
X170180000Y-109220000D01*
X170180000Y-109220000D02*
X168910000Y-107950000D01*
X180340000Y-120650000D02*
X179070000Y-120650000D01*
X187960000Y-128270000D02*
X180340000Y-120650000D01*
X178990000Y-157480000D02*
X177800000Y-156290000D01*
X177800000Y-156290000D02*
X177800000Y-144780000D01*
X161290000Y-74930000D02*
X157480000Y-74930000D01*
X53340000Y-46990000D02*
X54610000Y-48260000D01*
X54610000Y-48260000D02*
X68580000Y-48260000D01*
X71120000Y-48260000D02*
X72390000Y-46990000D01*
X53340000Y-69850000D02*
X54610000Y-71120000D01*
X54610000Y-71120000D02*
X68580000Y-71120000D01*
X71120000Y-71120000D02*
X72390000Y-69850000D01*
X72390000Y-46990000D02*
X73660000Y-48260000D01*
X73660000Y-48260000D02*
X87630000Y-48260000D01*
X90170000Y-48260000D02*
X91440000Y-46990000D01*
X72390000Y-69850000D02*
X73660000Y-71120000D01*
X73660000Y-71120000D02*
X87630000Y-71120000D01*
X90170000Y-71120000D02*
X91440000Y-69850000D01*
X91440000Y-46990000D02*
X92710000Y-48260000D01*
X92710000Y-48260000D02*
X106680000Y-48260000D01*
X109220000Y-48260000D02*
X110490000Y-46990000D01*
X34290000Y-52070000D02*
X38100000Y-48260000D01*
X38100000Y-48260000D02*
X49530000Y-48260000D01*
X52070000Y-48260000D02*
X53340000Y-46990000D01*
X34290000Y-74930000D02*
X38100000Y-71120000D01*
X38100000Y-71120000D02*
X49530000Y-71120000D01*
X52070000Y-71120000D02*
X53340000Y-69850000D01*
X39370000Y-21590000D02*
X50800000Y-21590000D01*
X55880000Y-21590000D02*
X69850000Y-21590000D01*
X74930000Y-21590000D02*
X88900000Y-21590000D01*
X93980000Y-21590000D02*
X107950000Y-21590000D01*
X91440000Y-69850000D02*
X92710000Y-71120000D01*
X92710000Y-71120000D02*
X106680000Y-71120000D01*
X109220000Y-71120000D02*
X110490000Y-69850000D01*
X106680000Y-71120000D02*
X109220000Y-71120000D01*
X87630000Y-71120000D02*
X90170000Y-71120000D01*
X68580000Y-71120000D02*
X71120000Y-71120000D01*
X49530000Y-71120000D02*
X52070000Y-71120000D01*
X49530000Y-48260000D02*
X52070000Y-48260000D01*
X68580000Y-48260000D02*
X71120000Y-48260000D01*
X87630000Y-48260000D02*
X90170000Y-48260000D01*
X106680000Y-48260000D02*
X109220000Y-48260000D01*
X191770000Y-130810000D02*
X195580000Y-130810000D01*
X99060000Y-163830000D02*
X99060000Y-161290000D01*
X167640000Y-163830000D02*
X167640000Y-161290000D01*
X194310000Y-93980000D02*
X194310000Y-91440000D01*
X195580000Y-95250000D02*
X194310000Y-93980000D01*
X194310000Y-58420000D02*
X195580000Y-59690000D01*
X194310000Y-55880000D02*
X194310000Y-58420000D01*
X189230000Y-86360000D02*
X189230000Y-82550000D01*
X162560000Y-111760000D02*
X157480000Y-106680000D01*
X167640000Y-111760000D02*
X162560000Y-111760000D01*
X191770000Y-130810000D02*
X191770000Y-124460000D01*
X191770000Y-124460000D02*
X189230000Y-121920000D01*
X177800000Y-118110000D02*
X185420000Y-118110000D01*
X79930000Y-102950000D02*
X79930000Y-99060000D01*
X71120000Y-106680000D02*
X76200000Y-106680000D01*
X76200000Y-106680000D02*
X79930000Y-102950000D01*
X58420000Y-151130000D02*
X57150000Y-149860000D01*
X57150000Y-149860000D02*
X57150000Y-142240000D01*
X57150000Y-142240000D02*
X58420000Y-140970000D01*
X46990000Y-110490000D02*
X45720000Y-109220000D01*
X58420000Y-111760000D02*
X55880000Y-109220000D01*
X55880000Y-109220000D02*
X53340000Y-109220000D01*
X53340000Y-109220000D02*
X52070000Y-110490000D01*
X58420000Y-113030000D02*
X58420000Y-111760000D01*
X52070000Y-110490000D02*
X46990000Y-110490000D01*
X43180000Y-96520000D02*
X43180000Y-92710000D01*
X195580000Y-24130000D02*
X194310000Y-22860000D01*
X194310000Y-22860000D02*
X193040000Y-22860000D01*
X187960000Y-151130000D02*
X189230000Y-149860000D01*
X189230000Y-144780000D02*
X190500000Y-143510000D01*
X189230000Y-149860000D02*
X189230000Y-144780000D01*
X90170000Y-152400000D02*
X88900000Y-151130000D01*
X111760000Y-151130000D02*
X107950000Y-151130000D01*
X107950000Y-151130000D02*
X106680000Y-149860000D01*
X101600000Y-149860000D02*
X99060000Y-152400000D01*
X106680000Y-149860000D02*
X101600000Y-149860000D01*
X99060000Y-152400000D02*
X90170000Y-152400000D01*
X58420000Y-115570000D02*
X59690000Y-115570000D01*
X59690000Y-115570000D02*
X66040000Y-109220000D01*
X50800000Y-116840000D02*
X41910000Y-116840000D01*
X38100000Y-102306000D02*
X38806000Y-101600000D01*
X38806000Y-101600000D02*
X39656000Y-101600000D01*
X38100000Y-104140000D02*
X38100000Y-102306000D01*
X74930000Y-99060000D02*
X73660000Y-100330000D01*
X73660000Y-100330000D02*
X73660000Y-104140000D01*
X73660000Y-104140000D02*
X74930000Y-105410000D01*
X74930000Y-105410000D02*
X76200000Y-105410000D01*
X76200000Y-109220000D02*
X77470000Y-110490000D01*
X69850000Y-124460000D02*
X66040000Y-120650000D01*
X76200000Y-124460000D02*
X69850000Y-124460000D01*
X128270000Y-85090000D02*
X118110000Y-85090000D01*
X121920000Y-71120000D02*
X121920000Y-67310000D01*
X66040000Y-115570000D02*
X67310000Y-115570000D01*
X67310000Y-115570000D02*
X68580000Y-114300000D01*
X68580000Y-111760000D02*
X67310000Y-110490000D01*
X68580000Y-114300000D02*
X68580000Y-111760000D01*
X67310000Y-110490000D02*
X67310000Y-107950000D01*
X31750000Y-101600000D02*
X36830000Y-96520000D01*
X36830000Y-96520000D02*
X38100000Y-96520000D01*
X45720000Y-97790000D02*
X48260000Y-97790000D01*
X48260000Y-97790000D02*
X52070000Y-93980000D01*
X62230000Y-102870000D02*
X67310000Y-102870000D01*
X135720000Y-21590000D02*
X134620000Y-21590000D01*
X137160000Y-23030000D02*
X135720000Y-21590000D01*
X137160000Y-25400000D02*
X137160000Y-23030000D01*
X158750000Y-120650000D02*
X158750000Y-115570000D01*
X158750000Y-115570000D02*
X156210000Y-113030000D01*
X167640000Y-109220000D02*
X170180000Y-111760000D01*
X161290000Y-109220000D02*
X167640000Y-109220000D01*
X45720000Y-130810000D02*
X44450000Y-129540000D01*
X44450000Y-118110000D02*
X41910000Y-118110000D01*
X38100000Y-111760000D02*
X38100000Y-107950000D01*
X38100000Y-107950000D02*
X39370000Y-106680000D01*
X41910000Y-85090000D02*
X34290000Y-85090000D01*
X40640000Y-96520000D02*
X40640000Y-92710000D01*
X43180000Y-99060000D02*
X40640000Y-96520000D01*
X43180000Y-101600000D02*
X43180000Y-99060000D01*
X39370000Y-104140000D02*
X40640000Y-104140000D01*
X40640000Y-104140000D02*
X43180000Y-101600000D01*
X81280000Y-138430000D02*
X80010000Y-138430000D01*
X80010000Y-138430000D02*
X78740000Y-137160000D01*
X78740000Y-137160000D02*
X78740000Y-135890000D01*
X78740000Y-135890000D02*
X76200000Y-133350000D01*
X76200000Y-133350000D02*
X72390000Y-133350000D01*
X72390000Y-133350000D02*
X68580000Y-129540000D01*
X68580000Y-129540000D02*
X64770000Y-129540000D01*
X64770000Y-129540000D02*
X62230000Y-127000000D01*
X62230000Y-127000000D02*
X62230000Y-125730000D01*
X62230000Y-125730000D02*
X59690000Y-123190000D01*
X55880000Y-127000000D02*
X52070000Y-127000000D01*
X53340000Y-72390000D02*
X54610000Y-73660000D01*
X54610000Y-73660000D02*
X71120000Y-73660000D01*
X71120000Y-73660000D02*
X72390000Y-72390000D01*
X72390000Y-72390000D02*
X73660000Y-73660000D01*
X73660000Y-73660000D02*
X90170000Y-73660000D01*
X90170000Y-73660000D02*
X91440000Y-72390000D01*
X91440000Y-72390000D02*
X92710000Y-73660000D01*
X92710000Y-73660000D02*
X109220000Y-73660000D01*
X109220000Y-73660000D02*
X110490000Y-72390000D01*
X34290000Y-77470000D02*
X38100000Y-73660000D01*
X38100000Y-73660000D02*
X52070000Y-73660000D01*
X52070000Y-73660000D02*
X53340000Y-72390000D01*
X109220000Y-110490000D02*
X111125000Y-108585000D01*
X111125000Y-108585000D02*
X118745000Y-108585000D01*
X118745000Y-108585000D02*
X123190000Y-104140000D01*
X123190000Y-104140000D02*
X124460000Y-104140000D01*
X125730000Y-88900000D02*
X123190000Y-86360000D01*
X121920000Y-78740000D02*
X119380000Y-78740000D01*
X119380000Y-78740000D02*
X115570000Y-74930000D01*
X115570000Y-74930000D02*
X114300000Y-74930000D01*
X110490000Y-72390000D02*
X114300000Y-72390000D01*
X109220000Y-119380000D02*
X119380000Y-119380000D01*
X119380000Y-119380000D02*
X120650000Y-120650000D01*
X120650000Y-120650000D02*
X123190000Y-120650000D01*
X123190000Y-120650000D02*
X124460000Y-121920000D01*
X110490000Y-157480000D02*
X110490000Y-158750000D01*
X110490000Y-158750000D02*
X111760000Y-160020000D01*
X121920000Y-78740000D02*
X127000000Y-78740000D01*
X144780000Y-77470000D02*
X146050000Y-78740000D01*
X146050000Y-78740000D02*
X151130000Y-78740000D01*
X151130000Y-78740000D02*
X152400000Y-77470000D01*
X152400000Y-77470000D02*
X152400000Y-57150000D01*
X157480000Y-57150000D02*
X154940000Y-54610000D01*
X113030000Y-150734998D02*
X113030000Y-152400000D01*
X109220000Y-148590000D02*
X110490000Y-149860000D01*
X124460000Y-137160000D02*
X118110000Y-137160000D01*
X118110000Y-137160000D02*
X113030000Y-142240000D01*
X113030000Y-142240000D02*
X110490000Y-142240000D01*
X110490000Y-149860000D02*
X112155002Y-149860000D01*
X109220000Y-143510000D02*
X109220000Y-148590000D01*
X112155002Y-149860000D02*
X113030000Y-150734998D01*
X110490000Y-142240000D02*
X109220000Y-143510000D01*
X111760000Y-166370000D02*
X113030000Y-166370000D01*
X113030000Y-166370000D02*
X115570000Y-163830000D01*
X55880000Y-72390000D02*
X69850000Y-72390000D01*
X74930000Y-72390000D02*
X88900000Y-72390000D01*
X93980000Y-72390000D02*
X107950000Y-72390000D01*
X39370000Y-72390000D02*
X50800000Y-72390000D01*
X115570000Y-73660000D02*
X111760000Y-73660000D01*
X129540000Y-86360000D02*
X129540000Y-80010000D01*
X129540000Y-80010000D02*
X127000000Y-77470000D01*
X132080000Y-88900000D02*
X129540000Y-86360000D01*
X119380000Y-77470000D02*
X115570000Y-73660000D01*
X127000000Y-77470000D02*
X119380000Y-77470000D01*
X134620000Y-57150000D02*
X135890000Y-55880000D01*
X135890000Y-55880000D02*
X135890000Y-48260000D01*
X135890000Y-48260000D02*
X134620000Y-46990000D01*
X143510000Y-27940000D02*
X146050000Y-25400000D01*
X143510000Y-30480000D02*
X143510000Y-27940000D01*
X146050000Y-25400000D02*
X148590000Y-25400000D01*
X148590000Y-25400000D02*
X149860000Y-24130000D01*
X149860000Y-95250000D02*
X151130000Y-96520000D01*
X151130000Y-96520000D02*
X151130000Y-125730000D01*
X151130000Y-125730000D02*
X158750000Y-133350000D01*
X163830000Y-147320000D02*
X163830000Y-152400000D01*
X163830000Y-152400000D02*
X166370000Y-154940000D01*
X166370000Y-154940000D02*
X167640000Y-154940000D01*
X172720000Y-154940000D02*
X176530000Y-154940000D01*
X187960000Y-154940000D02*
X190500000Y-154940000D01*
X190500000Y-154940000D02*
X191770000Y-153670000D01*
X191770000Y-153670000D02*
X191770000Y-146050000D01*
X191770000Y-146050000D02*
X193040000Y-144780000D01*
X193040000Y-144780000D02*
X193040000Y-143510000D01*
X160020000Y-154940000D02*
X160020000Y-158750000D01*
X160020000Y-158750000D02*
X154940000Y-163830000D01*
X153670000Y-171450000D02*
X152400000Y-170180000D01*
X152400000Y-170180000D02*
X143510000Y-170180000D01*
X149860000Y-95250000D02*
X146050000Y-95250000D01*
X146050000Y-95250000D02*
X144780000Y-93980000D01*
X144780000Y-93980000D02*
X139700000Y-93980000D01*
X123190000Y-167640000D02*
X123190000Y-168910000D01*
X123190000Y-168910000D02*
X124460000Y-170180000D01*
X124460000Y-170180000D02*
X129540000Y-170180000D01*
X130810000Y-168910000D02*
X132080000Y-168910000D01*
X129540000Y-170180000D02*
X130810000Y-168910000D01*
X132080000Y-168910000D02*
X134620000Y-171450000D01*
X53340000Y-74930000D02*
X54610000Y-76200000D01*
X54610000Y-76200000D02*
X71120000Y-76200000D01*
X71120000Y-76200000D02*
X72390000Y-74930000D01*
X72390000Y-74930000D02*
X73660000Y-76200000D01*
X73660000Y-76200000D02*
X90170000Y-76200000D01*
X90170000Y-76200000D02*
X91440000Y-74930000D01*
X91440000Y-74930000D02*
X92710000Y-76200000D01*
X92710000Y-76200000D02*
X109220000Y-76200000D01*
X109220000Y-76200000D02*
X110490000Y-74930000D01*
X34290000Y-80010000D02*
X38100000Y-76200000D01*
X38100000Y-76200000D02*
X52070000Y-76200000D01*
X52070000Y-76200000D02*
X53340000Y-74930000D01*
X195580000Y-146050000D02*
X196850000Y-147320000D01*
X196850000Y-147320000D02*
X196850000Y-152400000D01*
X196850000Y-152400000D02*
X195580000Y-153670000D01*
X185420000Y-167640000D02*
X182880000Y-170180000D01*
X114300000Y-27940000D02*
X113030000Y-29210000D01*
X113030000Y-29210000D02*
X113030000Y-57150000D01*
X115570000Y-68580000D02*
X115570000Y-71120000D01*
X110490000Y-74930000D02*
X113030000Y-74930000D01*
X113030000Y-74930000D02*
X114300000Y-76200000D01*
X114300000Y-76200000D02*
X115570000Y-76200000D01*
X199390000Y-168910000D02*
X200660000Y-167640000D01*
X116840000Y-19050000D02*
X114300000Y-21590000D01*
X172720000Y-166370000D02*
X177800000Y-166370000D01*
X177800000Y-166370000D02*
X179070000Y-167640000D01*
X185420000Y-167640000D02*
X179070000Y-167640000D01*
X200660000Y-24130000D02*
X195580000Y-19050000D01*
X195580000Y-19050000D02*
X116840000Y-19050000D01*
X200660000Y-167640000D02*
X200660000Y-24130000D01*
X191770000Y-157480000D02*
X191770000Y-163830000D01*
X195580000Y-153670000D02*
X191770000Y-157480000D01*
X39370000Y-74930000D02*
X50800000Y-74930000D01*
X55880000Y-74930000D02*
X69850000Y-74930000D01*
X74930000Y-74930000D02*
X88900000Y-74930000D01*
X93980000Y-74930000D02*
X107950000Y-74930000D01*
X195580000Y-173990000D02*
X194310000Y-175260000D01*
X194310000Y-175260000D02*
X184150000Y-175260000D01*
X184150000Y-175260000D02*
X181610000Y-177800000D01*
X181610000Y-177800000D02*
X177800000Y-177800000D01*
X177800000Y-177800000D02*
X176530000Y-176530000D01*
X114300000Y-29210000D02*
X114300000Y-57150000D01*
X111760000Y-76200000D02*
X113030000Y-77470000D01*
X113030000Y-77470000D02*
X116840000Y-77470000D01*
X116840000Y-71120000D02*
X116840000Y-68580000D01*
X190500000Y-157480000D02*
X190500000Y-165100000D01*
X194310000Y-149860000D02*
X194310000Y-153670000D01*
X194310000Y-153670000D02*
X190500000Y-157480000D01*
X195580000Y-148590000D02*
X194310000Y-149860000D01*
X30480000Y-114300000D02*
X29845000Y-113665000D01*
X29845000Y-113665000D02*
X29845000Y-97155000D01*
X29845000Y-97155000D02*
X30480000Y-96520000D01*
X149225000Y-187325000D02*
X151130000Y-185420000D01*
X33020000Y-180340000D02*
X40005000Y-187325000D01*
X151130000Y-185420000D02*
X151130000Y-184150000D01*
X149860000Y-182880000D02*
X149860000Y-179070000D01*
X40005000Y-187325000D02*
X149225000Y-187325000D01*
X151130000Y-184150000D02*
X149860000Y-182880000D01*
X53340000Y-67310000D02*
X54610000Y-68580000D01*
X54610000Y-68580000D02*
X71120000Y-68580000D01*
X71120000Y-68580000D02*
X72390000Y-67310000D01*
X72390000Y-67310000D02*
X73660000Y-68580000D01*
X73660000Y-68580000D02*
X77470000Y-68580000D01*
X90170000Y-68580000D02*
X91440000Y-67310000D01*
X91440000Y-67310000D02*
X92710000Y-68580000D01*
X92710000Y-68580000D02*
X109220000Y-68580000D01*
X109220000Y-68580000D02*
X110490000Y-67310000D01*
X34290000Y-72390000D02*
X38100000Y-68580000D01*
X38100000Y-68580000D02*
X52070000Y-68580000D01*
X52070000Y-68580000D02*
X53340000Y-67310000D01*
X77470000Y-68580000D02*
X90170000Y-68580000D01*
X142240000Y-24130000D02*
X136525000Y-29845000D01*
X136525000Y-71755000D02*
X142240000Y-77470000D01*
X136525000Y-29845000D02*
X136525000Y-71755000D01*
X134620000Y-77470000D02*
X128270000Y-71120000D01*
X128270000Y-71120000D02*
X128270000Y-68580000D01*
X128270000Y-68580000D02*
X124460000Y-64770000D01*
X124460000Y-64770000D02*
X119380000Y-64770000D01*
X116840000Y-67310000D02*
X110490000Y-67310000D01*
X119380000Y-64770000D02*
X116840000Y-67310000D01*
X39370000Y-67310000D02*
X50800000Y-67310000D01*
X55880000Y-67310000D02*
X69850000Y-67310000D01*
X74930000Y-67310000D02*
X78740000Y-67310000D01*
X93980000Y-67310000D02*
X107950000Y-67310000D01*
X78740000Y-67310000D02*
X88900000Y-67310000D01*
X141108630Y-26670000D02*
X137160000Y-30618630D01*
X142240000Y-26670000D02*
X141108630Y-26670000D01*
X137160000Y-69850000D02*
X142240000Y-74930000D01*
X137160000Y-30618630D02*
X137160000Y-69850000D01*
X134620000Y-74930000D02*
X132715000Y-73025000D01*
X132715000Y-73025000D02*
X132715000Y-71755000D01*
X132715000Y-71755000D02*
X125095000Y-64135000D01*
X125095000Y-64135000D02*
X118745000Y-64135000D01*
X118745000Y-64135000D02*
X116840000Y-66040000D01*
X116840000Y-66040000D02*
X111760000Y-66040000D01*
X53340000Y-64770000D02*
X54610000Y-66040000D01*
X54610000Y-66040000D02*
X71120000Y-66040000D01*
X71120000Y-66040000D02*
X72390000Y-64770000D01*
X72390000Y-64770000D02*
X73660000Y-66040000D01*
X73660000Y-66040000D02*
X80010000Y-66040000D01*
X90170000Y-66040000D02*
X91440000Y-64770000D01*
X91440000Y-64770000D02*
X92710000Y-66040000D01*
X92710000Y-66040000D02*
X109220000Y-66040000D01*
X109220000Y-66040000D02*
X110490000Y-64770000D01*
X34290000Y-69850000D02*
X38100000Y-66040000D01*
X38100000Y-66040000D02*
X52070000Y-66040000D01*
X52070000Y-66040000D02*
X53340000Y-64770000D01*
X80010000Y-66040000D02*
X90170000Y-66040000D01*
X142240000Y-29210000D02*
X137795000Y-33655000D01*
X137795000Y-67945000D02*
X142240000Y-72390000D01*
X137795000Y-33655000D02*
X137795000Y-67945000D01*
X118110000Y-63500000D02*
X116840000Y-64770000D01*
X116840000Y-64770000D02*
X110490000Y-64770000D01*
X134620000Y-72390000D02*
X125730000Y-63500000D01*
X125730000Y-63500000D02*
X118110000Y-63500000D01*
X39370000Y-64770000D02*
X50800000Y-64770000D01*
X55880000Y-64770000D02*
X69850000Y-64770000D01*
X74930000Y-64770000D02*
X81280000Y-64770000D01*
X93980000Y-64770000D02*
X107950000Y-64770000D01*
X81280000Y-64770000D02*
X88900000Y-64770000D01*
X138430000Y-66040000D02*
X142240000Y-69850000D01*
X142240000Y-31750000D02*
X138430000Y-35560000D01*
X138430000Y-35560000D02*
X138430000Y-66040000D01*
X117475000Y-62865000D02*
X116840000Y-63500000D01*
X116840000Y-63500000D02*
X111760000Y-63500000D01*
X134620000Y-69850000D02*
X127635000Y-62865000D01*
X127635000Y-62865000D02*
X117475000Y-62865000D01*
X53340000Y-62230000D02*
X54610000Y-63500000D01*
X54610000Y-63500000D02*
X71120000Y-63500000D01*
X71120000Y-63500000D02*
X72390000Y-62230000D01*
X72390000Y-62230000D02*
X73660000Y-63500000D01*
X73660000Y-63500000D02*
X82550000Y-63500000D01*
X90170000Y-63500000D02*
X91440000Y-62230000D01*
X91440000Y-62230000D02*
X92710000Y-63500000D01*
X92710000Y-63500000D02*
X109220000Y-63500000D01*
X109220000Y-63500000D02*
X110490000Y-62230000D01*
X34290000Y-67310000D02*
X38100000Y-63500000D01*
X38100000Y-63500000D02*
X52070000Y-63500000D01*
X52070000Y-63500000D02*
X53340000Y-62230000D01*
X82550000Y-63500000D02*
X90170000Y-63500000D01*
X129540000Y-62230000D02*
X110490000Y-62230000D01*
X139065000Y-37465000D02*
X142240000Y-34290000D01*
X139065000Y-64135000D02*
X139065000Y-37465000D01*
X142240000Y-67310000D02*
X139065000Y-64135000D01*
X134620000Y-67310000D02*
X129540000Y-62230000D01*
X39370000Y-62230000D02*
X50800000Y-62230000D01*
X55880000Y-62230000D02*
X69850000Y-62230000D01*
X74930000Y-62230000D02*
X83820000Y-62230000D01*
X93980000Y-62230000D02*
X107950000Y-62230000D01*
X83820000Y-62230000D02*
X88900000Y-62230000D01*
X111760000Y-60960000D02*
X116840000Y-60960000D01*
X139700000Y-62230000D02*
X142240000Y-64770000D01*
X139700000Y-39370000D02*
X139700000Y-62230000D01*
X142240000Y-36830000D02*
X139700000Y-39370000D01*
X134620000Y-64770000D02*
X131445000Y-61595000D01*
X131445000Y-61595000D02*
X117475000Y-61595000D01*
X116840000Y-60960000D02*
X117475000Y-61595000D01*
X53340000Y-59690000D02*
X54610000Y-60960000D01*
X54610000Y-60960000D02*
X71120000Y-60960000D01*
X71120000Y-60960000D02*
X72390000Y-59690000D01*
X72390000Y-59690000D02*
X73660000Y-60960000D01*
X73660000Y-60960000D02*
X85090000Y-60960000D01*
X90170000Y-60960000D02*
X91440000Y-59690000D01*
X91440000Y-59690000D02*
X92710000Y-60960000D01*
X92710000Y-60960000D02*
X109220000Y-60960000D01*
X109220000Y-60960000D02*
X110490000Y-59690000D01*
X34290000Y-64770000D02*
X38100000Y-60960000D01*
X38100000Y-60960000D02*
X52070000Y-60960000D01*
X52070000Y-60960000D02*
X53340000Y-59690000D01*
X85090000Y-60960000D02*
X90170000Y-60960000D01*
X118110000Y-60960000D02*
X116840000Y-59690000D01*
X116840000Y-59690000D02*
X110490000Y-59690000D01*
X133350000Y-60960000D02*
X118110000Y-60960000D01*
X134620000Y-62230000D02*
X133350000Y-60960000D01*
X140335000Y-41275000D02*
X142240000Y-39370000D01*
X140335000Y-60325000D02*
X140335000Y-41275000D01*
X142240000Y-62230000D02*
X140335000Y-60325000D01*
X39370000Y-59690000D02*
X50800000Y-59690000D01*
X55880000Y-59690000D02*
X69850000Y-59690000D01*
X74930000Y-59690000D02*
X86360000Y-59690000D01*
X93980000Y-59690000D02*
X107950000Y-59690000D01*
X142240000Y-59690000D02*
X140970000Y-58420000D01*
X140970000Y-43180000D02*
X142240000Y-41910000D01*
X140970000Y-58420000D02*
X140970000Y-43180000D01*
X86360000Y-59690000D02*
X88900000Y-59690000D01*
X132853630Y-60325000D02*
X118745000Y-60325000D01*
X118745000Y-60325000D02*
X116840000Y-58420000D01*
X134620000Y-59690000D02*
X133488630Y-59690000D01*
X116840000Y-58420000D02*
X111760000Y-58420000D01*
X133488630Y-59690000D02*
X132853630Y-60325000D01*
X53340000Y-57150000D02*
X54610000Y-58420000D01*
X54610000Y-58420000D02*
X71120000Y-58420000D01*
X71120000Y-58420000D02*
X72390000Y-57150000D01*
X72390000Y-57150000D02*
X73660000Y-58420000D01*
X73660000Y-58420000D02*
X90170000Y-58420000D01*
X90170000Y-58420000D02*
X91440000Y-57150000D01*
X91440000Y-57150000D02*
X92710000Y-58420000D01*
X92710000Y-58420000D02*
X96520000Y-58420000D01*
X109220000Y-58420000D02*
X110490000Y-57150000D01*
X34290000Y-62230000D02*
X38100000Y-58420000D01*
X38100000Y-58420000D02*
X52070000Y-58420000D01*
X52070000Y-58420000D02*
X53340000Y-57150000D01*
X96520000Y-58420000D02*
X109220000Y-58420000D01*
X142240000Y-95250000D02*
X136525000Y-100965000D01*
X136525000Y-142875000D02*
X142240000Y-148590000D01*
X136525000Y-100965000D02*
X136525000Y-142875000D01*
X115570000Y-143510000D02*
X111760000Y-143510000D01*
X134620000Y-148590000D02*
X133350000Y-148590000D01*
X133350000Y-148590000D02*
X132080000Y-149860000D01*
X132080000Y-149860000D02*
X125730000Y-149860000D01*
X121920000Y-149860000D02*
X115570000Y-149860000D01*
X39370000Y-57150000D02*
X50800000Y-57150000D01*
X55880000Y-57150000D02*
X69850000Y-57150000D01*
X74930000Y-57150000D02*
X88900000Y-57150000D01*
X93980000Y-57150000D02*
X97790000Y-57150000D01*
X97790000Y-57150000D02*
X107950000Y-57150000D01*
X142240000Y-97790000D02*
X137160000Y-102870000D01*
X137160000Y-140970000D02*
X142240000Y-146050000D01*
X137160000Y-102870000D02*
X137160000Y-140970000D01*
X116840000Y-147320000D02*
X114300000Y-149860000D01*
X114300000Y-147320000D02*
X113030000Y-146050000D01*
X113030000Y-146050000D02*
X111760000Y-146050000D01*
X134620000Y-146050000D02*
X133350000Y-146050000D01*
X133350000Y-146050000D02*
X132080000Y-147320000D01*
X132080000Y-147320000D02*
X125730000Y-147320000D01*
X121920000Y-147320000D02*
X116840000Y-147320000D01*
X53340000Y-54610000D02*
X54610000Y-55880000D01*
X54610000Y-55880000D02*
X71120000Y-55880000D01*
X71120000Y-55880000D02*
X72390000Y-54610000D01*
X72390000Y-54610000D02*
X73660000Y-55880000D01*
X73660000Y-55880000D02*
X90170000Y-55880000D01*
X90170000Y-55880000D02*
X91440000Y-54610000D01*
X91440000Y-54610000D02*
X92710000Y-55880000D01*
X92710000Y-55880000D02*
X99060000Y-55880000D01*
X109220000Y-55880000D02*
X110490000Y-54610000D01*
X34290000Y-59690000D02*
X38100000Y-55880000D01*
X38100000Y-55880000D02*
X52070000Y-55880000D01*
X52070000Y-55880000D02*
X53340000Y-54610000D01*
X99060000Y-55880000D02*
X109220000Y-55880000D01*
X141108630Y-100330000D02*
X137795000Y-103643630D01*
X142240000Y-100330000D02*
X141108630Y-100330000D01*
X137795000Y-139065000D02*
X142240000Y-143510000D01*
X137795000Y-103643630D02*
X137795000Y-139065000D01*
X114300000Y-148590000D02*
X111760000Y-148590000D01*
X118110000Y-144780000D02*
X114300000Y-148590000D01*
X134620000Y-143510000D02*
X133350000Y-143510000D01*
X132080000Y-144780000D02*
X125730000Y-144780000D01*
X133350000Y-143510000D02*
X132080000Y-144780000D01*
X121920000Y-144780000D02*
X118110000Y-144780000D01*
X39370000Y-54610000D02*
X50800000Y-54610000D01*
X55880000Y-54610000D02*
X69850000Y-54610000D01*
X74930000Y-54610000D02*
X88900000Y-54610000D01*
X93980000Y-54610000D02*
X100330000Y-54610000D01*
X100330000Y-54610000D02*
X107950000Y-54610000D01*
X142240000Y-102870000D02*
X138430000Y-106680000D01*
X138430000Y-137160000D02*
X142240000Y-140970000D01*
X138430000Y-106680000D02*
X138430000Y-137160000D01*
X53340000Y-52070000D02*
X54610000Y-53340000D01*
X54610000Y-53340000D02*
X71120000Y-53340000D01*
X71120000Y-53340000D02*
X72390000Y-52070000D01*
X72390000Y-52070000D02*
X73660000Y-53340000D01*
X73660000Y-53340000D02*
X90170000Y-53340000D01*
X90170000Y-53340000D02*
X91440000Y-52070000D01*
X91440000Y-52070000D02*
X92710000Y-53340000D01*
X92710000Y-53340000D02*
X101600000Y-53340000D01*
X109220000Y-53340000D02*
X110490000Y-52070000D01*
X34290000Y-57150000D02*
X38100000Y-53340000D01*
X38100000Y-53340000D02*
X52070000Y-53340000D01*
X52070000Y-53340000D02*
X53340000Y-52070000D01*
X101600000Y-53340000D02*
X109220000Y-53340000D01*
X142240000Y-138430000D02*
X139065000Y-135255000D01*
X139065000Y-108585000D02*
X139065000Y-135255000D01*
X139065000Y-108585000D02*
X142240000Y-105410000D01*
X39370000Y-52070000D02*
X50800000Y-52070000D01*
X55880000Y-52070000D02*
X69850000Y-52070000D01*
X74930000Y-52070000D02*
X88900000Y-52070000D01*
X93980000Y-52070000D02*
X102870000Y-52070000D01*
X102870000Y-52070000D02*
X107950000Y-52070000D01*
X139700000Y-110490000D02*
X139700000Y-133350000D01*
X142240000Y-135890000D02*
X139700000Y-133350000D01*
X139700000Y-110490000D02*
X142240000Y-107950000D01*
X53340000Y-49530000D02*
X54610000Y-50800000D01*
X54610000Y-50800000D02*
X71120000Y-50800000D01*
X71120000Y-50800000D02*
X72390000Y-49530000D01*
X72390000Y-49530000D02*
X73660000Y-50800000D01*
X73660000Y-50800000D02*
X90170000Y-50800000D01*
X90170000Y-50800000D02*
X91440000Y-49530000D01*
X91440000Y-49530000D02*
X92710000Y-50800000D01*
X92710000Y-50800000D02*
X104140000Y-50800000D01*
X109220000Y-50800000D02*
X110490000Y-49530000D01*
X34290000Y-54610000D02*
X38100000Y-50800000D01*
X38100000Y-50800000D02*
X52070000Y-50800000D01*
X52070000Y-50800000D02*
X53340000Y-49530000D01*
X104140000Y-50800000D02*
X109220000Y-50800000D01*
X142240000Y-133350000D02*
X140335000Y-131445000D01*
X140335000Y-112395000D02*
X140335000Y-131445000D01*
X140335000Y-112395000D02*
X142240000Y-110490000D01*
X39370000Y-49530000D02*
X50800000Y-49530000D01*
X55880000Y-49530000D02*
X69850000Y-49530000D01*
X74930000Y-49530000D02*
X88900000Y-49530000D01*
X93980000Y-49530000D02*
X105410000Y-49530000D01*
X142240000Y-130810000D02*
X140970000Y-129540000D01*
X140970000Y-129540000D02*
X140970000Y-114300000D01*
X140970000Y-114300000D02*
X142240000Y-113030000D01*
X105410000Y-49530000D02*
X107950000Y-49530000D01*
X107950000Y-85090000D02*
X105410000Y-85090000D01*
X39370000Y-44450000D02*
X45720000Y-44450000D01*
X55880000Y-44450000D02*
X69850000Y-44450000D01*
X74930000Y-44450000D02*
X88900000Y-44450000D01*
X93980000Y-44450000D02*
X107950000Y-44450000D01*
X107950000Y-142240000D02*
X109220000Y-140970000D01*
X109220000Y-140970000D02*
X111760000Y-140970000D01*
X88900000Y-140970000D02*
X96520000Y-140970000D01*
X96520000Y-140970000D02*
X97790000Y-142240000D01*
X97790000Y-142240000D02*
X105410000Y-142240000D01*
X105410000Y-142240000D02*
X107950000Y-142240000D01*
X195580000Y-113030000D02*
X197485000Y-114935000D01*
X197485000Y-114935000D02*
X197485000Y-156845000D01*
X197485000Y-156845000D02*
X194310000Y-160020000D01*
X194310000Y-160020000D02*
X193040000Y-160020000D01*
X175260000Y-160020000D02*
X173990000Y-158750000D01*
X173990000Y-158750000D02*
X168910000Y-158750000D01*
X135890000Y-160020000D02*
X133350000Y-162560000D01*
X105410000Y-160020000D02*
X105410000Y-157480000D01*
X43180000Y-115570000D02*
X43180000Y-110490000D01*
X45720000Y-44450000D02*
X50800000Y-44450000D01*
X107315000Y-161925000D02*
X127000000Y-161925000D01*
X107315000Y-161925000D02*
X105410000Y-160020000D01*
X127000000Y-161925000D02*
X127635000Y-162560000D01*
X133350000Y-162560000D02*
X127635000Y-162560000D01*
X44450000Y-99060000D02*
X41910000Y-96520000D01*
X41910000Y-105410000D02*
X43180000Y-104140000D01*
X40640000Y-105410000D02*
X41910000Y-105410000D01*
X43180000Y-102870000D02*
X44450000Y-101600000D01*
X43180000Y-104140000D02*
X43180000Y-102870000D01*
X44450000Y-101600000D02*
X44450000Y-99060000D01*
X41910000Y-96520000D02*
X41910000Y-92710000D01*
X101600000Y-176530000D02*
X95250000Y-182880000D01*
X40640000Y-182880000D02*
X38100000Y-180340000D01*
X44450000Y-138430000D02*
X44450000Y-134620000D01*
X44450000Y-134620000D02*
X41910000Y-132080000D01*
X38100000Y-144780000D02*
X44450000Y-138430000D01*
X95250000Y-182880000D02*
X40640000Y-182880000D01*
X101600000Y-161290000D02*
X101600000Y-176530000D01*
X38100000Y-180340000D02*
X38100000Y-144780000D01*
X102870000Y-160020000D02*
X101600000Y-161290000D01*
X105410000Y-160020000D02*
X102870000Y-160020000D01*
X53340000Y-41910000D02*
X54610000Y-43180000D01*
X54610000Y-43180000D02*
X71120000Y-43180000D01*
X71120000Y-43180000D02*
X72390000Y-41910000D01*
X72390000Y-41910000D02*
X73660000Y-43180000D01*
X73660000Y-43180000D02*
X90170000Y-43180000D01*
X90170000Y-43180000D02*
X91440000Y-41910000D01*
X91440000Y-41910000D02*
X92710000Y-43180000D01*
X92710000Y-43180000D02*
X109220000Y-43180000D01*
X109220000Y-43180000D02*
X110490000Y-41910000D01*
X34290000Y-46990000D02*
X38100000Y-43180000D01*
X38100000Y-43180000D02*
X44450000Y-43180000D01*
X52070000Y-43180000D02*
X53340000Y-41910000D01*
X107950000Y-139700000D02*
X109220000Y-138430000D01*
X109220000Y-138430000D02*
X111760000Y-138430000D01*
X88900000Y-138430000D02*
X96520000Y-138430000D01*
X96520000Y-138430000D02*
X97790000Y-139700000D01*
X97790000Y-139700000D02*
X106680000Y-139700000D01*
X106680000Y-139700000D02*
X107950000Y-139700000D01*
X195580000Y-110490000D02*
X198120000Y-113030000D01*
X198120000Y-113030000D02*
X198120000Y-157480000D01*
X198120000Y-157480000D02*
X194310000Y-161290000D01*
X194310000Y-161290000D02*
X193040000Y-161290000D01*
X173990000Y-161290000D02*
X172720000Y-160020000D01*
X172720000Y-160020000D02*
X167640000Y-160020000D01*
X35560000Y-133350000D02*
X36830000Y-132080000D01*
X36830000Y-132080000D02*
X36830000Y-107950000D01*
X44450000Y-43180000D02*
X52070000Y-43180000D01*
X40005000Y-183515000D02*
X95885000Y-183515000D01*
X36830000Y-180340000D02*
X40005000Y-183515000D01*
X95885000Y-183515000D02*
X102870000Y-176530000D01*
X36830000Y-142240000D02*
X36830000Y-180340000D01*
X102870000Y-176530000D02*
X102870000Y-161290000D01*
X36830000Y-99060000D02*
X36830000Y-104140000D01*
X44450000Y-86360000D02*
X44450000Y-85090000D01*
X36830000Y-95250000D02*
X36830000Y-93980000D01*
X38100000Y-92710000D02*
X38100000Y-88900000D01*
X36830000Y-93980000D02*
X38100000Y-92710000D01*
X38100000Y-88900000D02*
X39370000Y-87630000D01*
X39370000Y-87630000D02*
X43180000Y-87630000D01*
X43180000Y-87630000D02*
X44450000Y-86360000D01*
X107950000Y-161290000D02*
X106680000Y-160020000D01*
X106680000Y-160020000D02*
X106680000Y-157480000D01*
X128270000Y-160020000D02*
X127000000Y-161290000D01*
X127000000Y-161290000D02*
X107950000Y-161290000D01*
X55880000Y-41910000D02*
X69850000Y-41910000D01*
X74930000Y-41910000D02*
X88900000Y-41910000D01*
X93980000Y-41910000D02*
X107950000Y-41910000D01*
X107950000Y-137160000D02*
X109220000Y-135890000D01*
X109220000Y-135890000D02*
X111760000Y-135890000D01*
X88900000Y-135890000D02*
X96520000Y-135890000D01*
X96520000Y-135890000D02*
X97790000Y-137160000D01*
X97790000Y-137160000D02*
X107950000Y-137160000D01*
X198755000Y-158750000D02*
X189865000Y-167640000D01*
X198755000Y-111125000D02*
X198755000Y-158750000D01*
X189865000Y-167640000D02*
X186690000Y-167640000D01*
X195580000Y-107950000D02*
X198755000Y-111125000D01*
X186690000Y-167640000D02*
X180340000Y-173990000D01*
X180340000Y-173990000D02*
X175260000Y-173990000D01*
X175260000Y-173990000D02*
X173990000Y-175260000D01*
X173990000Y-175260000D02*
X171450000Y-175260000D01*
X171450000Y-175260000D02*
X168910000Y-177800000D01*
X168910000Y-177800000D02*
X168910000Y-179070000D01*
X168910000Y-182880000D02*
X151130000Y-182880000D01*
X38100000Y-77470000D02*
X41910000Y-77470000D01*
X50800000Y-41910000D02*
X41910000Y-41910000D01*
X41910000Y-41910000D02*
X39370000Y-41910000D01*
X30480000Y-115570000D02*
X29210000Y-114300000D01*
X29210000Y-114300000D02*
X29210000Y-95250000D01*
X29210000Y-95250000D02*
X35560000Y-88900000D01*
X29210000Y-175260000D02*
X40640000Y-186690000D01*
X30480000Y-132080000D02*
X29210000Y-133350000D01*
X29210000Y-133350000D02*
X29210000Y-175260000D01*
X40640000Y-186690000D02*
X109220000Y-186690000D01*
X106680000Y-177800000D02*
X106680000Y-184150000D01*
X106680000Y-184150000D02*
X109220000Y-186690000D01*
X107950000Y-158750000D02*
X109220000Y-160020000D01*
X107950000Y-157480000D02*
X107950000Y-158750000D01*
X106680000Y-166370000D02*
X106680000Y-163830000D01*
X139700000Y-186690000D02*
X143510000Y-182880000D01*
X109220000Y-186690000D02*
X139700000Y-186690000D01*
X143510000Y-182880000D02*
X148590000Y-182880000D01*
X53340000Y-39370000D02*
X54610000Y-40640000D01*
X54610000Y-40640000D02*
X71120000Y-40640000D01*
X71120000Y-40640000D02*
X72390000Y-39370000D01*
X72390000Y-39370000D02*
X73660000Y-40640000D01*
X73660000Y-40640000D02*
X90170000Y-40640000D01*
X90170000Y-40640000D02*
X91440000Y-39370000D01*
X91440000Y-39370000D02*
X92710000Y-40640000D01*
X92710000Y-40640000D02*
X109220000Y-40640000D01*
X109220000Y-40640000D02*
X110490000Y-39370000D01*
X34290000Y-44450000D02*
X38100000Y-40640000D01*
X38100000Y-40640000D02*
X43180000Y-40640000D01*
X52070000Y-40640000D02*
X53340000Y-39370000D01*
X107950000Y-134620000D02*
X109220000Y-133350000D01*
X88900000Y-133350000D02*
X96520000Y-133350000D01*
X96520000Y-133350000D02*
X97790000Y-134620000D01*
X97790000Y-134620000D02*
X107950000Y-134620000D01*
X186690000Y-170180000D02*
X180340000Y-176530000D01*
X189230000Y-170180000D02*
X186690000Y-170180000D01*
X199390000Y-109220000D02*
X199390000Y-162560000D01*
X195580000Y-105410000D02*
X199390000Y-109220000D01*
X199390000Y-162560000D02*
X196850000Y-165100000D01*
X194310000Y-165100000D02*
X189230000Y-170180000D01*
X196850000Y-165100000D02*
X194310000Y-165100000D01*
X109220000Y-133350000D02*
X111760000Y-133350000D01*
X109220000Y-157480000D02*
X109220000Y-158750000D01*
X109220000Y-158750000D02*
X110490000Y-160020000D01*
X180340000Y-176530000D02*
X179070000Y-175260000D01*
X179070000Y-175260000D02*
X176530000Y-175260000D01*
X176530000Y-175260000D02*
X173990000Y-177800000D01*
X173990000Y-177800000D02*
X171450000Y-177800000D01*
X171450000Y-177800000D02*
X170180000Y-179070000D01*
X170180000Y-181610000D02*
X151130000Y-181610000D01*
X107950000Y-180340000D02*
X107950000Y-177800000D01*
X35560000Y-132080000D02*
X35560000Y-128270000D01*
X35560000Y-128270000D02*
X34290000Y-127000000D01*
X39370000Y-78740000D02*
X43180000Y-78740000D01*
X43180000Y-40640000D02*
X52070000Y-40640000D01*
X109220000Y-180340000D02*
X113030000Y-184150000D01*
X107950000Y-180340000D02*
X109220000Y-180340000D01*
X35560000Y-180340000D02*
X35560000Y-143510000D01*
X102870000Y-177800000D02*
X96520000Y-184150000D01*
X39370000Y-184150000D02*
X35560000Y-180340000D01*
X96520000Y-184150000D02*
X39370000Y-184150000D01*
X34290000Y-127000000D02*
X34290000Y-121920000D01*
X34290000Y-91440000D02*
X36830000Y-88900000D01*
X31750000Y-114300000D02*
X30480000Y-113030000D01*
X31750000Y-119380000D02*
X31750000Y-114300000D01*
X30480000Y-113030000D02*
X30480000Y-99060000D01*
X30480000Y-99060000D02*
X34290000Y-95250000D01*
X34290000Y-95250000D02*
X34290000Y-91440000D01*
X107950000Y-166370000D02*
X107950000Y-163830000D01*
X143510000Y-181610000D02*
X148590000Y-181610000D01*
X140970000Y-184150000D02*
X143510000Y-181610000D01*
X113030000Y-184150000D02*
X140970000Y-184150000D01*
X39370000Y-39370000D02*
X50800000Y-39370000D01*
X55880000Y-39370000D02*
X67310000Y-39370000D01*
X74930000Y-39370000D02*
X88900000Y-39370000D01*
X93980000Y-39370000D02*
X107950000Y-39370000D01*
X107950000Y-132080000D02*
X109220000Y-130810000D01*
X109220000Y-130810000D02*
X111760000Y-130810000D01*
X88900000Y-130810000D02*
X96520000Y-130810000D01*
X96520000Y-130810000D02*
X97790000Y-132080000D01*
X97790000Y-132080000D02*
X107950000Y-132080000D01*
X175260000Y-111760000D02*
X185420000Y-111760000D01*
X171450000Y-121920000D02*
X171450000Y-115570000D01*
X171450000Y-115570000D02*
X175260000Y-111760000D01*
X152400000Y-125730000D02*
X167640000Y-125730000D01*
X167640000Y-125730000D02*
X171450000Y-121920000D01*
X132080000Y-128270000D02*
X128270000Y-132080000D01*
X128270000Y-132080000D02*
X120650000Y-132080000D01*
X119380000Y-130810000D02*
X111760000Y-130810000D01*
X120650000Y-132080000D02*
X119380000Y-130810000D01*
X85090000Y-111760000D02*
X87630000Y-109220000D01*
X67310000Y-39370000D02*
X69850000Y-39370000D01*
X78740000Y-101600000D02*
X76200000Y-99060000D01*
X76200000Y-99060000D02*
X76200000Y-96520000D01*
X76200000Y-91440000D02*
X73660000Y-88900000D01*
X76200000Y-92710000D02*
X76200000Y-91440000D01*
X132080000Y-128270000D02*
X133350000Y-128270000D01*
X53340000Y-36830000D02*
X54610000Y-38100000D01*
X54610000Y-38100000D02*
X66040000Y-38100000D01*
X71120000Y-38100000D02*
X72390000Y-36830000D01*
X72390000Y-36830000D02*
X73660000Y-38100000D01*
X73660000Y-38100000D02*
X90170000Y-38100000D01*
X90170000Y-38100000D02*
X91440000Y-36830000D01*
X91440000Y-36830000D02*
X92710000Y-38100000D01*
X92710000Y-38100000D02*
X109220000Y-38100000D01*
X109220000Y-38100000D02*
X110490000Y-36830000D01*
X34290000Y-41910000D02*
X38100000Y-38100000D01*
X38100000Y-38100000D02*
X52070000Y-38100000D01*
X52070000Y-38100000D02*
X53340000Y-36830000D01*
X107950000Y-129540000D02*
X109220000Y-128270000D01*
X109220000Y-128270000D02*
X111760000Y-128270000D01*
X88900000Y-128270000D02*
X96520000Y-128270000D01*
X96520000Y-128270000D02*
X97790000Y-129540000D01*
X97790000Y-129540000D02*
X107950000Y-129540000D01*
X170180000Y-115570000D02*
X175260000Y-110490000D01*
X170180000Y-120650000D02*
X170180000Y-115570000D01*
X175260000Y-110490000D02*
X184150000Y-110490000D01*
X152400000Y-124460000D02*
X166370000Y-124460000D01*
X166370000Y-124460000D02*
X170180000Y-120650000D01*
X66040000Y-38100000D02*
X71120000Y-38100000D01*
X73660000Y-95250000D02*
X73660000Y-91440000D01*
X71120000Y-113030000D02*
X71120000Y-109220000D01*
X72390000Y-114300000D02*
X71120000Y-113030000D01*
X78740000Y-118110000D02*
X74930000Y-114300000D01*
X71120000Y-109220000D02*
X69850000Y-107950000D01*
X74930000Y-114300000D02*
X72390000Y-114300000D01*
X69850000Y-107950000D02*
X69850000Y-105410000D01*
X81280000Y-118110000D02*
X78740000Y-118110000D01*
X128270000Y-129540000D02*
X120650000Y-129540000D01*
X130810000Y-127000000D02*
X133350000Y-127000000D01*
X130810000Y-127000000D02*
X128270000Y-129540000D01*
X120650000Y-129540000D02*
X119380000Y-128270000D01*
X119380000Y-128270000D02*
X111760000Y-128270000D01*
X39370000Y-36830000D02*
X50800000Y-36830000D01*
X55880000Y-36830000D02*
X64770000Y-36830000D01*
X74930000Y-36830000D02*
X88900000Y-36830000D01*
X93980000Y-36830000D02*
X107950000Y-36830000D01*
X107950000Y-127000000D02*
X109220000Y-125730000D01*
X109220000Y-125730000D02*
X111760000Y-125730000D01*
X88900000Y-125730000D02*
X96520000Y-125730000D01*
X96520000Y-125730000D02*
X97790000Y-127000000D01*
X97790000Y-127000000D02*
X107950000Y-127000000D01*
X88900000Y-125730000D02*
X82550000Y-125730000D01*
X168910000Y-115570000D02*
X168910000Y-119380000D01*
X175260000Y-109220000D02*
X168910000Y-115570000D01*
X182880000Y-109220000D02*
X175260000Y-109220000D01*
X168910000Y-119380000D02*
X165100000Y-123190000D01*
X165100000Y-123190000D02*
X152400000Y-123190000D01*
X81280000Y-120650000D02*
X76200000Y-120650000D01*
X72390000Y-119380000D02*
X69850000Y-119380000D01*
X69850000Y-110490000D02*
X68580000Y-109220000D01*
X64770000Y-101600000D02*
X62230000Y-101600000D01*
X64770000Y-36830000D02*
X69850000Y-36830000D01*
X129540000Y-127000000D02*
X130810000Y-125730000D01*
X120650000Y-127000000D02*
X129540000Y-127000000D01*
X130810000Y-125730000D02*
X133350000Y-125730000D01*
X119380000Y-125730000D02*
X120650000Y-127000000D01*
X111760000Y-125730000D02*
X119380000Y-125730000D01*
X53340000Y-34290000D02*
X54610000Y-35560000D01*
X54610000Y-35560000D02*
X71120000Y-35560000D01*
X71120000Y-35560000D02*
X72390000Y-34290000D01*
X72390000Y-34290000D02*
X73660000Y-35560000D01*
X73660000Y-35560000D02*
X90170000Y-35560000D01*
X90170000Y-35560000D02*
X91440000Y-34290000D01*
X91440000Y-34290000D02*
X92710000Y-35560000D01*
X92710000Y-35560000D02*
X109220000Y-35560000D01*
X109220000Y-35560000D02*
X110490000Y-34290000D01*
X34290000Y-39370000D02*
X38100000Y-35560000D01*
X38100000Y-35560000D02*
X52070000Y-35560000D01*
X52070000Y-35560000D02*
X53340000Y-34290000D01*
X107950000Y-124460000D02*
X109220000Y-123190000D01*
X109220000Y-123190000D02*
X111760000Y-123190000D01*
X88900000Y-123190000D02*
X96520000Y-123190000D01*
X96520000Y-123190000D02*
X97790000Y-124460000D01*
X97790000Y-124460000D02*
X107950000Y-124460000D01*
X82550000Y-119380000D02*
X76200000Y-119380000D01*
X130810000Y-58420000D02*
X130810000Y-52070000D01*
X195580000Y-87630000D02*
X195580000Y-80010000D01*
X194310000Y-88900000D02*
X195580000Y-87630000D01*
X156210000Y-88900000D02*
X194310000Y-88900000D01*
X153670000Y-91440000D02*
X156210000Y-88900000D01*
X144780000Y-91440000D02*
X153670000Y-91440000D01*
X128270000Y-102870000D02*
X139700000Y-91440000D01*
X139700000Y-91440000D02*
X144780000Y-91440000D01*
X128270000Y-113665000D02*
X128270000Y-102870000D01*
X126365000Y-115570000D02*
X128270000Y-113665000D01*
X88900000Y-115570000D02*
X126365000Y-115570000D01*
X39370000Y-34290000D02*
X50800000Y-34290000D01*
X55880000Y-34290000D02*
X69850000Y-34290000D01*
X74930000Y-34290000D02*
X88900000Y-34290000D01*
X93980000Y-34290000D02*
X107950000Y-34290000D01*
X104140000Y-125730000D02*
X97790000Y-125730000D01*
X97790000Y-125730000D02*
X96520000Y-124460000D01*
X77470000Y-124460000D02*
X74930000Y-121920000D01*
X96520000Y-124460000D02*
X77470000Y-124460000D01*
X127000000Y-125730000D02*
X120650000Y-125730000D01*
X120650000Y-125730000D02*
X119380000Y-124460000D01*
X132080000Y-58420000D02*
X132080000Y-52070000D01*
X132080000Y-52070000D02*
X130810000Y-50800000D01*
X193040000Y-80010000D02*
X193040000Y-85090000D01*
X152400000Y-90170000D02*
X146050000Y-90170000D01*
X193040000Y-85090000D02*
X190500000Y-87630000D01*
X195580000Y-77470000D02*
X193040000Y-80010000D01*
X184150000Y-87630000D02*
X182880000Y-86360000D01*
X182880000Y-86360000D02*
X156210000Y-86360000D01*
X156210000Y-86360000D02*
X152400000Y-90170000D01*
X190500000Y-87630000D02*
X184150000Y-87630000D01*
X107950000Y-125730000D02*
X109220000Y-124460000D01*
X109220000Y-124460000D02*
X119380000Y-124460000D01*
X74930000Y-121920000D02*
X74930000Y-116840000D01*
X74930000Y-116840000D02*
X73660000Y-115570000D01*
X127635000Y-102235000D02*
X139700000Y-90170000D01*
X139700000Y-90170000D02*
X146050000Y-90170000D01*
X127635000Y-111125000D02*
X127635000Y-102235000D01*
X125730000Y-113030000D02*
X127635000Y-111125000D01*
X124460000Y-119380000D02*
X124460000Y-120650000D01*
X124460000Y-120650000D02*
X125730000Y-121920000D01*
X53340000Y-31750000D02*
X54610000Y-33020000D01*
X54610000Y-33020000D02*
X71120000Y-33020000D01*
X71120000Y-33020000D02*
X72390000Y-31750000D01*
X72390000Y-31750000D02*
X73660000Y-33020000D01*
X73660000Y-33020000D02*
X90170000Y-33020000D01*
X90170000Y-33020000D02*
X91440000Y-31750000D01*
X91440000Y-31750000D02*
X92710000Y-33020000D01*
X109220000Y-33020000D02*
X110490000Y-31750000D01*
X92710000Y-33020000D02*
X109220000Y-33020000D01*
X34290000Y-36830000D02*
X38100000Y-33020000D01*
X38100000Y-33020000D02*
X52070000Y-33020000D01*
X52070000Y-33020000D02*
X53340000Y-31750000D01*
X104140000Y-128270000D02*
X97790000Y-128270000D01*
X97790000Y-128270000D02*
X96520000Y-127000000D01*
X96520000Y-127000000D02*
X86360000Y-127000000D01*
X127000000Y-128270000D02*
X120650000Y-128270000D01*
X120650000Y-128270000D02*
X119380000Y-127000000D01*
X133350000Y-58420000D02*
X133350000Y-52070000D01*
X133350000Y-52070000D02*
X130810000Y-49530000D01*
X151130000Y-88900000D02*
X147320000Y-88900000D01*
X189230000Y-81280000D02*
X184150000Y-81280000D01*
X156210000Y-83820000D02*
X151130000Y-88900000D01*
X184150000Y-81280000D02*
X181610000Y-83820000D01*
X195580000Y-74930000D02*
X189230000Y-81280000D01*
X181610000Y-83820000D02*
X156210000Y-83820000D01*
X107950000Y-128270000D02*
X109220000Y-127000000D01*
X109220000Y-127000000D02*
X119380000Y-127000000D01*
X139700000Y-88900000D02*
X127000000Y-101600000D01*
X73660000Y-113030000D02*
X76200000Y-113030000D01*
X82550000Y-114300000D02*
X77470000Y-114300000D01*
X76200000Y-113030000D02*
X77470000Y-114300000D01*
X147320000Y-88900000D02*
X139700000Y-88900000D01*
X87630000Y-119380000D02*
X82550000Y-114300000D01*
X127000000Y-101600000D02*
X127000000Y-109220000D01*
X127000000Y-109220000D02*
X123190000Y-113030000D01*
X123190000Y-113030000D02*
X88900000Y-113030000D01*
X88900000Y-113030000D02*
X87630000Y-114300000D01*
X87630000Y-114300000D02*
X87630000Y-119380000D01*
X86360000Y-123190000D02*
X87630000Y-121920000D01*
X87630000Y-121920000D02*
X87630000Y-119380000D01*
X39370000Y-31750000D02*
X50800000Y-31750000D01*
X55880000Y-31750000D02*
X69850000Y-31750000D01*
X74930000Y-31750000D02*
X88900000Y-31750000D01*
X93980000Y-31750000D02*
X107950000Y-31750000D01*
X83820000Y-123190000D02*
X83820000Y-119380000D01*
X83820000Y-113030000D02*
X81280000Y-110490000D01*
X83820000Y-114300000D02*
X83820000Y-113030000D01*
X195580000Y-72390000D02*
X189230000Y-78740000D01*
X185420000Y-78740000D02*
X182880000Y-81280000D01*
X189230000Y-78740000D02*
X185420000Y-78740000D01*
X182880000Y-81280000D02*
X153670000Y-81280000D01*
X153670000Y-77470000D02*
X153670000Y-57150000D01*
X153670000Y-57150000D02*
X152400000Y-55880000D01*
X152400000Y-55880000D02*
X151130000Y-55880000D01*
X134620000Y-52070000D02*
X130810000Y-48260000D01*
X83820000Y-114300000D02*
X90170000Y-107950000D01*
X118110000Y-107950000D02*
X121920000Y-104140000D01*
X123190000Y-100330000D02*
X125730000Y-100330000D01*
X90170000Y-107950000D02*
X118110000Y-107950000D01*
X121920000Y-101600000D02*
X123190000Y-100330000D01*
X121920000Y-104140000D02*
X121920000Y-101600000D01*
X120650000Y-135890000D02*
X119380000Y-134620000D01*
X127000000Y-135890000D02*
X120650000Y-135890000D01*
X109220000Y-134620000D02*
X119380000Y-134620000D01*
X107950000Y-135890000D02*
X109220000Y-134620000D01*
X152400000Y-82550000D02*
X137160000Y-82550000D01*
X152400000Y-82550000D02*
X153670000Y-81280000D01*
X137160000Y-82550000D02*
X134620000Y-85090000D01*
X134620000Y-85090000D02*
X134620000Y-91440000D01*
X125730000Y-100330000D02*
X134620000Y-91440000D01*
X104140000Y-135890000D02*
X97790000Y-135890000D01*
X96520000Y-134620000D02*
X87630000Y-134620000D01*
X97790000Y-135890000D02*
X96520000Y-134620000D01*
X83820000Y-128270000D02*
X86360000Y-130810000D01*
X86360000Y-130810000D02*
X86360000Y-133350000D01*
X83820000Y-127000000D02*
X83820000Y-128270000D01*
X53340000Y-29210000D02*
X54610000Y-30480000D01*
X54610000Y-30480000D02*
X71120000Y-30480000D01*
X71120000Y-30480000D02*
X72390000Y-29210000D01*
X72390000Y-29210000D02*
X73660000Y-30480000D01*
X73660000Y-30480000D02*
X90170000Y-30480000D01*
X90170000Y-30480000D02*
X91440000Y-29210000D01*
X91440000Y-29210000D02*
X92710000Y-30480000D01*
X92710000Y-30480000D02*
X109220000Y-30480000D01*
X109220000Y-30480000D02*
X110490000Y-29210000D01*
X34290000Y-34290000D02*
X38100000Y-30480000D01*
X38100000Y-30480000D02*
X52070000Y-30480000D01*
X52070000Y-30480000D02*
X53340000Y-29210000D01*
X104140000Y-130810000D02*
X97790000Y-130810000D01*
X97790000Y-130810000D02*
X96520000Y-129540000D01*
X96520000Y-129540000D02*
X87630000Y-129540000D01*
X87630000Y-129540000D02*
X85090000Y-127000000D01*
X85090000Y-123190000D02*
X85090000Y-119380000D01*
X85090000Y-119380000D02*
X82550000Y-116840000D01*
X82550000Y-116840000D02*
X78740000Y-116840000D01*
X78740000Y-116840000D02*
X77470000Y-115570000D01*
X77470000Y-113030000D02*
X77470000Y-111760000D01*
X76200000Y-110490000D02*
X73660000Y-110490000D01*
X77470000Y-111760000D02*
X76200000Y-110490000D01*
X77470000Y-113030000D02*
X78740000Y-113030000D01*
X78740000Y-113030000D02*
X80010000Y-111760000D01*
X189230000Y-76200000D02*
X185420000Y-76200000D01*
X185420000Y-76200000D02*
X182880000Y-78740000D01*
X195580000Y-69850000D02*
X189230000Y-76200000D01*
X182880000Y-78740000D02*
X154940000Y-78740000D01*
X127000000Y-130810000D02*
X120650000Y-130810000D01*
X120650000Y-130810000D02*
X119380000Y-129540000D01*
X154940000Y-76200000D02*
X154940000Y-57150000D01*
X154940000Y-57150000D02*
X152400000Y-54610000D01*
X152400000Y-54610000D02*
X151130000Y-54610000D01*
X134620000Y-50800000D02*
X130810000Y-46990000D01*
X107950000Y-130810000D02*
X109220000Y-129540000D01*
X109220000Y-129540000D02*
X119380000Y-129540000D01*
X120650000Y-104140000D02*
X120650000Y-101600000D01*
X123190000Y-99060000D02*
X125730000Y-99060000D01*
X117475000Y-107315000D02*
X120650000Y-104140000D01*
X120650000Y-101600000D02*
X123190000Y-99060000D01*
X83820000Y-110490000D02*
X86995000Y-107315000D01*
X86995000Y-107315000D02*
X117475000Y-107315000D01*
X151765000Y-81915000D02*
X136525000Y-81915000D01*
X151765000Y-81915000D02*
X154940000Y-78740000D01*
X136525000Y-81915000D02*
X133985000Y-84455000D01*
X133985000Y-84455000D02*
X133985000Y-90805000D01*
X125730000Y-99060000D02*
X133985000Y-90805000D01*
X39370000Y-29210000D02*
X50800000Y-29210000D01*
X55880000Y-29210000D02*
X69850000Y-29210000D01*
X74930000Y-29210000D02*
X88900000Y-29210000D01*
X93980000Y-29210000D02*
X107950000Y-29210000D01*
X107950000Y-121920000D02*
X109220000Y-120650000D01*
X109220000Y-120650000D02*
X111760000Y-120650000D01*
X88900000Y-120650000D02*
X96520000Y-120650000D01*
X96520000Y-120650000D02*
X97790000Y-121920000D01*
X97790000Y-121920000D02*
X107950000Y-121920000D01*
X80010000Y-109220000D02*
X82550000Y-109220000D01*
X73660000Y-107950000D02*
X78740000Y-107950000D01*
X78740000Y-107950000D02*
X80010000Y-109220000D01*
X189230000Y-73660000D02*
X184150000Y-73660000D01*
X195580000Y-67310000D02*
X189230000Y-73660000D01*
X184150000Y-73660000D02*
X181610000Y-76200000D01*
X181610000Y-76200000D02*
X156210000Y-76200000D01*
X156210000Y-76200000D02*
X156210000Y-57150000D01*
X156210000Y-57150000D02*
X152400000Y-53340000D01*
X152400000Y-53340000D02*
X151130000Y-53340000D01*
X134620000Y-49530000D02*
X130810000Y-45720000D01*
X125730000Y-97790000D02*
X133350000Y-90170000D01*
X119380000Y-104140000D02*
X119380000Y-101600000D01*
X133350000Y-90170000D02*
X133350000Y-83820000D01*
X123190000Y-97790000D02*
X125730000Y-97790000D01*
X151130000Y-81280000D02*
X156210000Y-76200000D01*
X119380000Y-101600000D02*
X123190000Y-97790000D01*
X82550000Y-109220000D02*
X85090000Y-106680000D01*
X85090000Y-106680000D02*
X116840000Y-106680000D01*
X116840000Y-106680000D02*
X119380000Y-104140000D01*
X135890000Y-81280000D02*
X151130000Y-81280000D01*
X133350000Y-83820000D02*
X135890000Y-81280000D01*
X53340000Y-26670000D02*
X54610000Y-27940000D01*
X54610000Y-27940000D02*
X71120000Y-27940000D01*
X71120000Y-27940000D02*
X72390000Y-26670000D01*
X72390000Y-26670000D02*
X73660000Y-27940000D01*
X73660000Y-27940000D02*
X90170000Y-27940000D01*
X90170000Y-27940000D02*
X91440000Y-26670000D01*
X91440000Y-26670000D02*
X92710000Y-27940000D01*
X109220000Y-27940000D02*
X110490000Y-26670000D01*
X92710000Y-27940000D02*
X109220000Y-27940000D01*
X34290000Y-31750000D02*
X38100000Y-27940000D01*
X38100000Y-27940000D02*
X52070000Y-27940000D01*
X52070000Y-27940000D02*
X53340000Y-26670000D01*
X127000000Y-123190000D02*
X120650000Y-123190000D01*
X120650000Y-123190000D02*
X119380000Y-121920000D01*
X107950000Y-123190000D02*
X109220000Y-121920000D01*
X109220000Y-121920000D02*
X119380000Y-121920000D01*
X156210000Y-127000000D02*
X156210000Y-129540000D01*
X156210000Y-129540000D02*
X162560000Y-135890000D01*
X161290000Y-143510000D02*
X165100000Y-143510000D01*
X195580000Y-64770000D02*
X189230000Y-71120000D01*
X189230000Y-71120000D02*
X184150000Y-71120000D01*
X184150000Y-71120000D02*
X181610000Y-73660000D01*
X181610000Y-73660000D02*
X177800000Y-73660000D01*
X177800000Y-73660000D02*
X176530000Y-72390000D01*
X176530000Y-72390000D02*
X176530000Y-50800000D01*
X176530000Y-50800000D02*
X158750000Y-33020000D01*
X158750000Y-33020000D02*
X148590000Y-33020000D01*
X113030000Y-26670000D02*
X110490000Y-26670000D01*
X116840000Y-22860000D02*
X113030000Y-26670000D01*
X148590000Y-22860000D02*
X140970000Y-22860000D01*
X140970000Y-22860000D02*
X137160000Y-26670000D01*
X137160000Y-26670000D02*
X130810000Y-26670000D01*
X130810000Y-26670000D02*
X127000000Y-22860000D01*
X127000000Y-22860000D02*
X116840000Y-22860000D01*
X127000000Y-123190000D02*
X128270000Y-121920000D01*
X128270000Y-121920000D02*
X129540000Y-121920000D01*
X39370000Y-26670000D02*
X50800000Y-26670000D01*
X55880000Y-26670000D02*
X69850000Y-26670000D01*
X74930000Y-26670000D02*
X88900000Y-26670000D01*
X93980000Y-26670000D02*
X107950000Y-26670000D01*
X107950000Y-119380000D02*
X109220000Y-118110000D01*
X109220000Y-118110000D02*
X111760000Y-118110000D01*
X88900000Y-118110000D02*
X96520000Y-118110000D01*
X96520000Y-118110000D02*
X97790000Y-119380000D01*
X97790000Y-119380000D02*
X107950000Y-119380000D01*
X111760000Y-118110000D02*
X124460000Y-118110000D01*
X128270000Y-119380000D02*
X129540000Y-120650000D01*
X146050000Y-152400000D02*
X150255002Y-152400000D01*
X150255002Y-152400000D02*
X151130000Y-151525002D01*
X151130000Y-151525002D02*
X151130000Y-149860000D01*
X162560000Y-146050000D02*
X165100000Y-146050000D01*
X160020000Y-148590000D02*
X162560000Y-146050000D01*
X134620000Y-125730000D02*
X132080000Y-123190000D01*
X134620000Y-128270000D02*
X134620000Y-125730000D01*
X133350000Y-134620000D02*
X133350000Y-129540000D01*
X133350000Y-129540000D02*
X134620000Y-128270000D01*
X195580000Y-62230000D02*
X189230000Y-68580000D01*
X189230000Y-68580000D02*
X184150000Y-68580000D01*
X184150000Y-68580000D02*
X181610000Y-71120000D01*
X181610000Y-71120000D02*
X179070000Y-71120000D01*
X179070000Y-71120000D02*
X177800000Y-69850000D01*
X177800000Y-69850000D02*
X177800000Y-49530000D01*
X177800000Y-49530000D02*
X158750000Y-30480000D01*
X158750000Y-30480000D02*
X147320000Y-30480000D01*
X147320000Y-24130000D02*
X144780000Y-24130000D01*
X144780000Y-24130000D02*
X143510000Y-25400000D01*
X125730000Y-119380000D02*
X124460000Y-118110000D01*
X125730000Y-119380000D02*
X128270000Y-119380000D01*
X117475000Y-23495000D02*
X114300000Y-26670000D01*
X130810000Y-27940000D02*
X126365000Y-23495000D01*
X138430000Y-26670000D02*
X137160000Y-27940000D01*
X126365000Y-23495000D02*
X117475000Y-23495000D01*
X137160000Y-27940000D02*
X130810000Y-27940000D01*
X157480000Y-153670000D02*
X160020000Y-151130000D01*
X160020000Y-151130000D02*
X160020000Y-148590000D01*
X53340000Y-24130000D02*
X54610000Y-25400000D01*
X54610000Y-25400000D02*
X71120000Y-25400000D01*
X71120000Y-25400000D02*
X72390000Y-24130000D01*
X72390000Y-24130000D02*
X73660000Y-25400000D01*
X73660000Y-25400000D02*
X90170000Y-25400000D01*
X90170000Y-25400000D02*
X91440000Y-24130000D01*
X91440000Y-24130000D02*
X92710000Y-25400000D01*
X92710000Y-25400000D02*
X109220000Y-25400000D01*
X109220000Y-25400000D02*
X110490000Y-24130000D01*
X34290000Y-29210000D02*
X38100000Y-25400000D01*
X38100000Y-25400000D02*
X52070000Y-25400000D01*
X52070000Y-25400000D02*
X53340000Y-24130000D01*
X133350000Y-20320000D02*
X189230000Y-20320000D01*
X189230000Y-20320000D02*
X190500000Y-21590000D01*
X190500000Y-21590000D02*
X190500000Y-39370000D01*
X116205000Y-22225000D02*
X131445000Y-22225000D01*
X190500000Y-39370000D02*
X195580000Y-44450000D01*
X114300000Y-24130000D02*
X116205000Y-22225000D01*
X131445000Y-22225000D02*
X133350000Y-20320000D01*
X110490000Y-24130000D02*
X114300000Y-24130000D01*
X39370000Y-24130000D02*
X50800000Y-24130000D01*
X55880000Y-24130000D02*
X69850000Y-24130000D01*
X74930000Y-24130000D02*
X88900000Y-24130000D01*
X93980000Y-24130000D02*
X107950000Y-24130000D01*
X199390000Y-29210000D02*
X199390000Y-26670000D01*
X53340000Y-21590000D02*
X54610000Y-22860000D01*
X54610000Y-22860000D02*
X71120000Y-22860000D01*
X71120000Y-22860000D02*
X72390000Y-21590000D01*
X72390000Y-21590000D02*
X73660000Y-22860000D01*
X73660000Y-22860000D02*
X90170000Y-22860000D01*
X90170000Y-22860000D02*
X91440000Y-21590000D01*
X91440000Y-21590000D02*
X92710000Y-22860000D01*
X92710000Y-22860000D02*
X109220000Y-22860000D01*
X109220000Y-22860000D02*
X110490000Y-21590000D01*
X34290000Y-26670000D02*
X38100000Y-22860000D01*
X38100000Y-22860000D02*
X52070000Y-22860000D01*
X52070000Y-22860000D02*
X53340000Y-21590000D01*
X157480000Y-143510000D02*
X158750000Y-144780000D01*
X158750000Y-144780000D02*
X166370000Y-144780000D01*
X166370000Y-144780000D02*
X167640000Y-146050000D01*
X191770000Y-35560000D02*
X195580000Y-39370000D01*
X191770000Y-20320000D02*
X191770000Y-35560000D01*
X132715000Y-19685000D02*
X191135000Y-19685000D01*
X130810000Y-21590000D02*
X132715000Y-19685000D01*
X191135000Y-19685000D02*
X191770000Y-20320000D01*
X115570000Y-21590000D02*
X130810000Y-21590000D01*
X114300000Y-22860000D02*
X111760000Y-22860000D01*
X111760000Y-22860000D02*
X110490000Y-21590000D01*
X115570000Y-21590000D02*
X114300000Y-22860000D01*
X167640000Y-147320000D02*
X168910000Y-148590000D01*
X167640000Y-146050000D02*
X167640000Y-147320000D01*
X168910000Y-148590000D02*
X170180000Y-148590000D01*
X170180000Y-148590000D02*
X171450000Y-147320000D01*
X55880000Y-77470000D02*
X69850000Y-77470000D01*
X74930000Y-77470000D02*
X88900000Y-77470000D01*
X93980000Y-77470000D02*
X107950000Y-77470000D01*
X28575000Y-29845000D02*
X31750000Y-26670000D01*
X30480000Y-127000000D02*
X28575000Y-125095000D01*
X28575000Y-125095000D02*
X28575000Y-90805000D01*
X28575000Y-90805000D02*
X28575000Y-29845000D01*
X167640000Y-142240000D02*
X170180000Y-144780000D01*
X162560000Y-142240000D02*
X167640000Y-142240000D01*
X161290000Y-140970000D02*
X162560000Y-142240000D01*
X157480000Y-140970000D02*
X161290000Y-140970000D01*
X41910000Y-86360000D02*
X50800000Y-77470000D01*
X33020000Y-86360000D02*
X41910000Y-86360000D01*
X28575000Y-90805000D02*
X33020000Y-86360000D01*
X39370000Y-187960000D02*
X27940000Y-176530000D01*
X27940000Y-133350000D02*
X30480000Y-130810000D01*
X198120000Y-186690000D02*
X196850000Y-187960000D01*
X27940000Y-176530000D02*
X27940000Y-133350000D01*
X198120000Y-167640000D02*
X198120000Y-186690000D01*
X196850000Y-187960000D02*
X39370000Y-187960000D01*
X170180000Y-144780000D02*
X170180000Y-147320000D01*
X172720000Y-146050000D02*
X167640000Y-140970000D01*
X62230000Y-133350000D02*
X58420000Y-133350000D01*
X58420000Y-133350000D02*
X54610000Y-133350000D01*
X54610000Y-133350000D02*
X50800000Y-129540000D01*
X50800000Y-129540000D02*
X46990000Y-129540000D01*
X46990000Y-129540000D02*
X41910000Y-124460000D01*
X198120000Y-36830000D02*
X195580000Y-34290000D01*
X198120000Y-95250000D02*
X198120000Y-36830000D01*
X184150000Y-114300000D02*
X186690000Y-111760000D01*
X191770000Y-111760000D02*
X193040000Y-110490000D01*
X173990000Y-114300000D02*
X184150000Y-114300000D01*
X193040000Y-110490000D02*
X193040000Y-97155000D01*
X172720000Y-115570000D02*
X173990000Y-114300000D01*
X172720000Y-124460000D02*
X172720000Y-115570000D01*
X170180000Y-127000000D02*
X172720000Y-124460000D01*
X186690000Y-111760000D02*
X191770000Y-111760000D01*
X193040000Y-97155000D02*
X193675000Y-96520000D01*
X193675000Y-96520000D02*
X196850000Y-96520000D01*
X196850000Y-96520000D02*
X198120000Y-95250000D01*
X155575000Y-137160000D02*
X161290000Y-137160000D01*
X154305000Y-138430000D02*
X155575000Y-137160000D01*
X60960000Y-140970000D02*
X60960000Y-151130000D01*
X154305000Y-153035000D02*
X154305000Y-138430000D01*
X162560000Y-138430000D02*
X165100000Y-138430000D01*
X161290000Y-137160000D02*
X162560000Y-138430000D01*
X60960000Y-151130000D02*
X65405000Y-155575000D01*
X65405000Y-155575000D02*
X151765000Y-155575000D01*
X151765000Y-155575000D02*
X154305000Y-153035000D01*
X162560000Y-139700000D02*
X161290000Y-138430000D01*
X161290000Y-138430000D02*
X157480000Y-138430000D01*
X172720000Y-143510000D02*
X171450000Y-143510000D01*
X171450000Y-143510000D02*
X167640000Y-139700000D01*
X167640000Y-139700000D02*
X162560000Y-139700000D01*
X63500000Y-144780000D02*
X63500000Y-138430000D01*
X60960000Y-135890000D02*
X58420000Y-135890000D01*
X63500000Y-138430000D02*
X60960000Y-135890000D01*
X41910000Y-125730000D02*
X46990000Y-130810000D01*
X53340000Y-135890000D02*
X58420000Y-135890000D01*
X198755000Y-34925000D02*
X195580000Y-31750000D01*
X198755000Y-97155000D02*
X198755000Y-34925000D01*
X185420000Y-115570000D02*
X186690000Y-114300000D01*
X175260000Y-115570000D02*
X185420000Y-115570000D01*
X172720000Y-127000000D02*
X173990000Y-125730000D01*
X196850000Y-99060000D02*
X198755000Y-97155000D01*
X173990000Y-116840000D02*
X175260000Y-115570000D01*
X186690000Y-114300000D02*
X192405000Y-114300000D01*
X173990000Y-125730000D02*
X173990000Y-116840000D01*
X194310000Y-99060000D02*
X196850000Y-99060000D01*
X192405000Y-114300000D02*
X193675000Y-113030000D01*
X193675000Y-99695000D02*
X194310000Y-99060000D01*
X193675000Y-113030000D02*
X193675000Y-99695000D01*
X154940000Y-139700000D02*
X156210000Y-138430000D01*
X59690000Y-144780000D02*
X59690000Y-151130000D01*
X59690000Y-151130000D02*
X64770000Y-156210000D01*
X64770000Y-156210000D02*
X152400000Y-156210000D01*
X156210000Y-138430000D02*
X157480000Y-138430000D01*
X152400000Y-156210000D02*
X154940000Y-153670000D01*
X154940000Y-153670000D02*
X154940000Y-139700000D01*
X161290000Y-135890000D02*
X157480000Y-135890000D01*
X162560000Y-137160000D02*
X161290000Y-135890000D01*
X168910000Y-137160000D02*
X162560000Y-137160000D01*
X58420000Y-138430000D02*
X57150000Y-137160000D01*
X57150000Y-137160000D02*
X53340000Y-137160000D01*
X27940000Y-127000000D02*
X35560000Y-134620000D01*
X33020000Y-22860000D02*
X30480000Y-22860000D01*
X27940000Y-25400000D02*
X27940000Y-127000000D01*
X34290000Y-21590000D02*
X33020000Y-22860000D01*
X30480000Y-22860000D02*
X27940000Y-25400000D01*
X175260000Y-118110000D02*
X176530000Y-116840000D01*
X195184998Y-101600000D02*
X196850000Y-101600000D01*
X194310000Y-102474998D02*
X195184998Y-101600000D01*
X175260000Y-127000000D02*
X175260000Y-118110000D01*
X196850000Y-101600000D02*
X199390000Y-99060000D01*
X199390000Y-99060000D02*
X199390000Y-33020000D01*
X199390000Y-33020000D02*
X195580000Y-29210000D01*
X194310000Y-114300000D02*
X194310000Y-102474998D01*
X189230000Y-116840000D02*
X190500000Y-115570000D01*
X176530000Y-116840000D02*
X189230000Y-116840000D01*
X190500000Y-115570000D02*
X193040000Y-115570000D01*
X193040000Y-115570000D02*
X194310000Y-114300000D01*
X154940000Y-135890000D02*
X157480000Y-135890000D01*
X153670000Y-137160000D02*
X154940000Y-135890000D01*
X153670000Y-152400000D02*
X153670000Y-137160000D01*
X60960000Y-138430000D02*
X62230000Y-139700000D01*
X62230000Y-151130000D02*
X66040000Y-154940000D01*
X58420000Y-138430000D02*
X60960000Y-138430000D01*
X62230000Y-139700000D02*
X62230000Y-151130000D01*
X151130000Y-154940000D02*
X153670000Y-152400000D01*
X66040000Y-154940000D02*
X151130000Y-154940000D01*
X172720000Y-140970000D02*
X170180000Y-140970000D01*
X168910000Y-139700000D02*
X168910000Y-137160000D01*
X170180000Y-140970000D02*
X168910000Y-139700000D01*
X46990000Y-90170000D02*
X49530000Y-90170000D01*
X50800000Y-88900000D02*
X50800000Y-80010000D01*
X49530000Y-90170000D02*
X50800000Y-88900000D01*
X71120000Y-173990000D02*
X71120000Y-172720000D01*
X69850000Y-175260000D02*
X71120000Y-173990000D01*
X54610000Y-172720000D02*
X57150000Y-175260000D01*
X57150000Y-175260000D02*
X69850000Y-175260000D01*
X54610000Y-172720000D02*
X54610000Y-139700000D01*
X44450000Y-96520000D02*
X44450000Y-92710000D01*
X50800000Y-121920000D02*
X49530000Y-120650000D01*
X54610000Y-132080000D02*
X50800000Y-128270000D01*
X50800000Y-128270000D02*
X50800000Y-121920000D01*
X53340000Y-93980000D02*
X53340000Y-80010000D01*
X41910000Y-106680000D02*
X44450000Y-104140000D01*
X44450000Y-102870000D02*
X53340000Y-93980000D01*
X44450000Y-104140000D02*
X44450000Y-102870000D01*
X73660000Y-135890000D02*
X71120000Y-135890000D01*
X71120000Y-135890000D02*
X68580000Y-133350000D01*
X64770000Y-124460000D02*
X59690000Y-119380000D01*
X59690000Y-119380000D02*
X57150000Y-119380000D01*
X53340000Y-119380000D02*
X41910000Y-119380000D01*
X39370000Y-105410000D02*
X40640000Y-106680000D01*
X40640000Y-106680000D02*
X41910000Y-106680000D01*
X36830000Y-105410000D02*
X39370000Y-105410000D01*
X33020000Y-109220000D02*
X36830000Y-105410000D01*
X60960000Y-129540000D02*
X53340000Y-129540000D01*
X52070000Y-78740000D02*
X53340000Y-77470000D01*
X40640000Y-91440000D02*
X50800000Y-91440000D01*
X52070000Y-90170000D02*
X52070000Y-78740000D01*
X35560000Y-99060000D02*
X36830000Y-97790000D01*
X50800000Y-91440000D02*
X52070000Y-90170000D01*
X35560000Y-104140000D02*
X35560000Y-99060000D01*
X36830000Y-97790000D02*
X38100000Y-97790000D01*
X38100000Y-97790000D02*
X39370000Y-96520000D01*
X39370000Y-92710000D02*
X40640000Y-91440000D01*
X39370000Y-96520000D02*
X39370000Y-92710000D01*
X33020000Y-129540000D02*
X33020000Y-111760000D01*
X33020000Y-111760000D02*
X35560000Y-109220000D01*
X62230000Y-132080000D02*
X62230000Y-130810000D01*
X66040000Y-135890000D02*
X62230000Y-132080000D01*
X62230000Y-130810000D02*
X60960000Y-129540000D01*
X49530000Y-107950000D02*
X57150000Y-100330000D01*
X57150000Y-100330000D02*
X69850000Y-100330000D01*
X69850000Y-95250000D02*
X69850000Y-80010000D01*
X53340000Y-128270000D02*
X55880000Y-128270000D01*
X55880000Y-156210000D02*
X59690000Y-160020000D01*
X59690000Y-160020000D02*
X60960000Y-160020000D01*
X55880000Y-156210000D02*
X55880000Y-139700000D01*
X68580000Y-160020000D02*
X68580000Y-161290000D01*
X68580000Y-161290000D02*
X67310000Y-162560000D01*
X67310000Y-162560000D02*
X67310000Y-163830000D01*
X67310000Y-163830000D02*
X71120000Y-167640000D01*
X73660000Y-173990000D02*
X71120000Y-171450000D01*
X71120000Y-171450000D02*
X71120000Y-170180000D01*
X57150000Y-97790000D02*
X69850000Y-97790000D01*
X72390000Y-95250000D02*
X72390000Y-80010000D01*
X69850000Y-97790000D02*
X72390000Y-95250000D01*
X40640000Y-109220000D02*
X44450000Y-105410000D01*
X44450000Y-105410000D02*
X49530000Y-105410000D01*
X73660000Y-138430000D02*
X72390000Y-138430000D01*
X72390000Y-138430000D02*
X69850000Y-135890000D01*
X68580000Y-116840000D02*
X64770000Y-116840000D01*
X64770000Y-116840000D02*
X62230000Y-114300000D01*
X60960000Y-113030000D02*
X58420000Y-110490000D01*
X49530000Y-105410000D02*
X50800000Y-104140000D01*
X50800000Y-104140000D02*
X57150000Y-97790000D01*
X40640000Y-129540000D02*
X40640000Y-111760000D01*
X40640000Y-111760000D02*
X45720000Y-106680000D01*
X69850000Y-99060000D02*
X71120000Y-97790000D01*
X45720000Y-106680000D02*
X49530000Y-106680000D01*
X49530000Y-106680000D02*
X57150000Y-99060000D01*
X57150000Y-99060000D02*
X69850000Y-99060000D01*
X71120000Y-78740000D02*
X72390000Y-77470000D01*
X71120000Y-95250000D02*
X71120000Y-78740000D01*
X45720000Y-134620000D02*
X40640000Y-129540000D01*
X66040000Y-138430000D02*
X62230000Y-134620000D01*
X62230000Y-134620000D02*
X45720000Y-134620000D01*
X71120000Y-101600000D02*
X71120000Y-99060000D01*
X53340000Y-106680000D02*
X66040000Y-106680000D01*
X88900000Y-81280000D02*
X88900000Y-80010000D01*
X66040000Y-106680000D02*
X71120000Y-101600000D01*
X82550000Y-87630000D02*
X88900000Y-87630000D01*
X71120000Y-99060000D02*
X82550000Y-87630000D01*
X88900000Y-87630000D02*
X90170000Y-86360000D01*
X90170000Y-86360000D02*
X90170000Y-82550000D01*
X90170000Y-82550000D02*
X88900000Y-81280000D01*
X54610000Y-124460000D02*
X54610000Y-118110000D01*
X71120000Y-134620000D02*
X67310000Y-130810000D01*
X60960000Y-128270000D02*
X58420000Y-128270000D01*
X58420000Y-128270000D02*
X54610000Y-124460000D01*
X63500000Y-130810000D02*
X60960000Y-128270000D01*
X77470000Y-144780000D02*
X77470000Y-137160000D01*
X77470000Y-137160000D02*
X74930000Y-134620000D01*
X81280000Y-148590000D02*
X77470000Y-144780000D01*
X74930000Y-134620000D02*
X71120000Y-134620000D01*
X67310000Y-130810000D02*
X63500000Y-130810000D01*
X54610000Y-118110000D02*
X52070000Y-115570000D01*
X52070000Y-115570000D02*
X49530000Y-115570000D01*
X93980000Y-82550000D02*
X91440000Y-80010000D01*
X92710000Y-90170000D02*
X93980000Y-88900000D01*
X44450000Y-109220000D02*
X45720000Y-107950000D01*
X48260000Y-107950000D02*
X49530000Y-109220000D01*
X45720000Y-107950000D02*
X48260000Y-107950000D01*
X44450000Y-110490000D02*
X44450000Y-109220000D01*
X81280000Y-90170000D02*
X92710000Y-90170000D01*
X72390000Y-101600000D02*
X72390000Y-99060000D01*
X72390000Y-99060000D02*
X81280000Y-90170000D01*
X93980000Y-88900000D02*
X93980000Y-82550000D01*
X37465000Y-114935000D02*
X39370000Y-113030000D01*
X37465000Y-135255000D02*
X37465000Y-114935000D01*
X33020000Y-137160000D02*
X35560000Y-137160000D01*
X35560000Y-137160000D02*
X37465000Y-135255000D01*
X66040000Y-128270000D02*
X66040000Y-123190000D01*
X66040000Y-123190000D02*
X59690000Y-116840000D01*
X58024998Y-116840000D02*
X57150000Y-115965002D01*
X59690000Y-116840000D02*
X58024998Y-116840000D01*
X57150000Y-115965002D02*
X57150000Y-111760000D01*
X52070000Y-109220000D02*
X53340000Y-107950000D01*
X49530000Y-109220000D02*
X52070000Y-109220000D01*
X53340000Y-107950000D02*
X55880000Y-107950000D01*
X66040000Y-107950000D02*
X72390000Y-101600000D01*
X57150000Y-111760000D02*
X55880000Y-110490000D01*
X55880000Y-107950000D02*
X66040000Y-107950000D01*
X67310000Y-137160000D02*
X67310000Y-132080000D01*
X73660000Y-143510000D02*
X67310000Y-137160000D01*
X44450000Y-111760000D02*
X54610000Y-111760000D01*
X90170000Y-78740000D02*
X91440000Y-77470000D01*
X54610000Y-104140000D02*
X58420000Y-104140000D01*
X81280000Y-91440000D02*
X87630000Y-91440000D01*
X81280000Y-91440000D02*
X77470000Y-95250000D01*
X85090000Y-88900000D02*
X90170000Y-88900000D01*
X90170000Y-88900000D02*
X91440000Y-87630000D01*
X91440000Y-82550000D02*
X90170000Y-81280000D01*
X91440000Y-87630000D02*
X91440000Y-82550000D01*
X90170000Y-81280000D02*
X90170000Y-78740000D01*
X38100000Y-135890000D02*
X38100000Y-115570000D01*
X38100000Y-115570000D02*
X39370000Y-114300000D01*
X33020000Y-157480000D02*
X33020000Y-140970000D01*
X57150000Y-139700000D02*
X55880000Y-138430000D01*
X55880000Y-138430000D02*
X53340000Y-138430000D01*
X33020000Y-140970000D02*
X38100000Y-135890000D01*
X50800000Y-157480000D02*
X50800000Y-154940000D01*
X50800000Y-154940000D02*
X50800000Y-152400000D01*
X50800000Y-152400000D02*
X50800000Y-149860000D01*
X50800000Y-149860000D02*
X50800000Y-147320000D01*
X50800000Y-147320000D02*
X50800000Y-144780000D01*
X50800000Y-144780000D02*
X50800000Y-142240000D01*
X50800000Y-142240000D02*
X50800000Y-139700000D01*
X100330000Y-173990000D02*
X99060000Y-172720000D01*
X99060000Y-172720000D02*
X92710000Y-172720000D01*
X87630000Y-172720000D02*
X77470000Y-172720000D01*
X77470000Y-172720000D02*
X74930000Y-170180000D01*
X74930000Y-170180000D02*
X72390000Y-170180000D01*
X72390000Y-170180000D02*
X67310000Y-165100000D01*
X67310000Y-165100000D02*
X63500000Y-165100000D01*
X57150000Y-167640000D02*
X57150000Y-160020000D01*
X49530000Y-104140000D02*
X60960000Y-92710000D01*
X60960000Y-92710000D02*
X68580000Y-92710000D01*
X76200000Y-90170000D02*
X82550000Y-83820000D01*
X82550000Y-83820000D02*
X88900000Y-83820000D01*
X106680000Y-81280000D02*
X107950000Y-80010000D01*
X93980000Y-81280000D02*
X106680000Y-81280000D01*
X49530000Y-113030000D02*
X54610000Y-113030000D01*
X55880000Y-120650000D02*
X55880000Y-115570000D01*
X60960000Y-125730000D02*
X55880000Y-120650000D01*
X60960000Y-127000000D02*
X60960000Y-125730000D01*
X64135000Y-130175000D02*
X60960000Y-127000000D01*
X67945000Y-130175000D02*
X64135000Y-130175000D01*
X81280000Y-146050000D02*
X78105000Y-142875000D01*
X71755000Y-133985000D02*
X67945000Y-130175000D01*
X78105000Y-136525000D02*
X75565000Y-133985000D01*
X78105000Y-142875000D02*
X78105000Y-136525000D01*
X75565000Y-133985000D02*
X71755000Y-133985000D01*
X63500000Y-113030000D02*
X64770000Y-114300000D01*
X64770000Y-114300000D02*
X67310000Y-114300000D01*
X68580000Y-115570000D02*
X71120000Y-115570000D01*
X71120000Y-115570000D02*
X72390000Y-116840000D01*
X80010000Y-105410000D02*
X83820000Y-101600000D01*
X83820000Y-101600000D02*
X83820000Y-95250000D01*
X83820000Y-95250000D02*
X86360000Y-92710000D01*
X110490000Y-88900000D02*
X110490000Y-80010000D01*
X44450000Y-114300000D02*
X54610000Y-114300000D01*
X55880000Y-113030000D02*
X55880000Y-111760000D01*
X54610000Y-114300000D02*
X55880000Y-113030000D01*
X38735000Y-116205000D02*
X39370000Y-115570000D01*
X38735000Y-135255000D02*
X38735000Y-116205000D01*
X40640000Y-137160000D02*
X38735000Y-135255000D01*
X73660000Y-146050000D02*
X69850000Y-142240000D01*
X69850000Y-142240000D02*
X69850000Y-140970000D01*
X69850000Y-120650000D02*
X68580000Y-119380000D01*
X68580000Y-119380000D02*
X68580000Y-118110000D01*
X68580000Y-118110000D02*
X69850000Y-116840000D01*
X69850000Y-116840000D02*
X72390000Y-116840000D01*
X106680000Y-92710000D02*
X110490000Y-88900000D01*
X86360000Y-92710000D02*
X106680000Y-92710000D01*
X91440000Y-110490000D02*
X100330000Y-110490000D01*
X100330000Y-104140000D02*
X105410000Y-104140000D01*
X113030000Y-80010000D02*
X110490000Y-77470000D01*
X105410000Y-101600000D02*
X113030000Y-93980000D01*
X113030000Y-93980000D02*
X113030000Y-80010000D01*
X80010000Y-132080000D02*
X73660000Y-132080000D01*
X69850000Y-160020000D02*
X69850000Y-158750000D01*
X69850000Y-158750000D02*
X71120000Y-157480000D01*
X129540000Y-161290000D02*
X129540000Y-157480000D01*
X135890000Y-124460000D02*
X134620000Y-123190000D01*
X135890000Y-147320000D02*
X135890000Y-124460000D01*
X87630000Y-102870000D02*
X90170000Y-105410000D01*
X90170000Y-105410000D02*
X115570000Y-105410000D01*
X115570000Y-110490000D02*
X119380000Y-110490000D01*
X119380000Y-110490000D02*
X123190000Y-106680000D01*
X130810000Y-161290000D02*
X130810000Y-157480000D01*
X132080000Y-132080000D02*
X132080000Y-129540000D01*
X115570000Y-100330000D02*
X119380000Y-100330000D01*
X119380000Y-100330000D02*
X123190000Y-96520000D01*
X123190000Y-96520000D02*
X125730000Y-96520000D01*
X125730000Y-96520000D02*
X127000000Y-95250000D01*
X137160000Y-149860000D02*
X144780000Y-149860000D01*
X144780000Y-149860000D02*
X146050000Y-148590000D01*
X129540000Y-124460000D02*
X129540000Y-125730000D01*
X133350000Y-120650000D02*
X129540000Y-124460000D01*
X134620000Y-118110000D02*
X133350000Y-119380000D01*
X133350000Y-119380000D02*
X133350000Y-120650000D01*
X110490000Y-101600000D02*
X111760000Y-101600000D01*
X111760000Y-101600000D02*
X123190000Y-90170000D01*
X90170000Y-172720000D02*
X88900000Y-171450000D01*
X93980000Y-179070000D02*
X90170000Y-175260000D01*
X90170000Y-175260000D02*
X90170000Y-172720000D01*
X96520000Y-179070000D02*
X93980000Y-179070000D01*
X151130000Y-93980000D02*
X147320000Y-93980000D01*
X146050000Y-96520000D02*
X143510000Y-96520000D01*
X129540000Y-113030000D02*
X129540000Y-114300000D01*
X129540000Y-114300000D02*
X128270000Y-115570000D01*
X128270000Y-115570000D02*
X128270000Y-118110000D01*
X128270000Y-118110000D02*
X130810000Y-120650000D01*
X130810000Y-120650000D02*
X130810000Y-121920000D01*
X130810000Y-121920000D02*
X128270000Y-124460000D01*
X123190000Y-139700000D02*
X123190000Y-140970000D01*
X123190000Y-140970000D02*
X120650000Y-143510000D01*
X120650000Y-143510000D02*
X116840000Y-143510000D01*
X116840000Y-143510000D02*
X115570000Y-144780000D01*
X115570000Y-144780000D02*
X110490000Y-144780000D01*
X110490000Y-152400000D02*
X102870000Y-152400000D01*
X97790000Y-160020000D02*
X92710000Y-165100000D01*
X91440000Y-168910000D02*
X92710000Y-167640000D01*
X92710000Y-167640000D02*
X92710000Y-165100000D01*
X97790000Y-160020000D02*
X90170000Y-160020000D01*
X83820000Y-161290000D02*
X83820000Y-158750000D01*
X77470000Y-152400000D02*
X72390000Y-152400000D01*
X72390000Y-152400000D02*
X68580000Y-148590000D01*
X68580000Y-148590000D02*
X68580000Y-139700000D01*
X60960000Y-130810000D02*
X57150000Y-130810000D01*
X58420000Y-125730000D02*
X58420000Y-124460000D01*
X58420000Y-124460000D02*
X55880000Y-121920000D01*
X53340000Y-121920000D02*
X52070000Y-123190000D01*
X52070000Y-123190000D02*
X52070000Y-124460000D01*
X49530000Y-128270000D02*
X46990000Y-125730000D01*
X46990000Y-125730000D02*
X46990000Y-124460000D01*
X157480000Y-62230000D02*
X158750000Y-60960000D01*
X158750000Y-60960000D02*
X158750000Y-58420000D01*
X161290000Y-60960000D02*
X170180000Y-69850000D01*
X170180000Y-69850000D02*
X170180000Y-73660000D01*
X191770000Y-102870000D02*
X191770000Y-109220000D01*
X193040000Y-116840000D02*
X190500000Y-116840000D01*
X190500000Y-116840000D02*
X187960000Y-119380000D01*
X187960000Y-119380000D02*
X187960000Y-125730000D01*
X187960000Y-125730000D02*
X190500000Y-128270000D01*
X190500000Y-128270000D02*
X190500000Y-133350000D01*
X190500000Y-133350000D02*
X189230000Y-134620000D01*
X175260000Y-149860000D02*
X171450000Y-149860000D01*
X171450000Y-149860000D02*
X170180000Y-151130000D01*
X170180000Y-151130000D02*
X170180000Y-152400000D01*
X152400000Y-148590000D02*
X152400000Y-152400000D01*
X152400000Y-152400000D02*
X151130000Y-153670000D01*
X151130000Y-153670000D02*
X149860000Y-153670000D01*
X151130000Y-157480000D02*
X146050000Y-162560000D01*
X146050000Y-162560000D02*
X144780000Y-162560000D01*
X133350000Y-165100000D02*
X118110000Y-165100000D01*
X118110000Y-165100000D02*
X113030000Y-170180000D01*
X113030000Y-170180000D02*
X110490000Y-170180000D01*
X110490000Y-165100000D02*
X110490000Y-166370000D01*
X110490000Y-166370000D02*
X106680000Y-170180000D01*
X106680000Y-170180000D02*
X105410000Y-170180000D01*
X99060000Y-166370000D02*
X97790000Y-165100000D01*
X97790000Y-165100000D02*
X93980000Y-165100000D01*
X91440000Y-166370000D02*
X91440000Y-163830000D01*
X189230000Y-93980000D02*
X190500000Y-95250000D01*
X177800000Y-90170000D02*
X179070000Y-91440000D01*
X179070000Y-91440000D02*
X182880000Y-91440000D01*
X182880000Y-91440000D02*
X185420000Y-93980000D01*
X170180000Y-90170000D02*
X177800000Y-90170000D01*
X185420000Y-93980000D02*
X189230000Y-93980000D01*
X190500000Y-95250000D02*
X190500000Y-101600000D01*
X175260000Y-139700000D02*
X175260000Y-137160000D01*
X175260000Y-137160000D02*
X176530000Y-135890000D01*
X175260000Y-144780000D02*
X175260000Y-149860000D01*
X88900000Y-176530000D02*
X85090000Y-180340000D01*
X85090000Y-180340000D02*
X63500000Y-180340000D01*
X63500000Y-180340000D02*
X62230000Y-179070000D01*
X54610000Y-177800000D02*
X52070000Y-177800000D01*
X48260000Y-177800000D02*
X41910000Y-177800000D01*
X41910000Y-177800000D02*
X40640000Y-176530000D01*
X40640000Y-176530000D02*
X40640000Y-161290000D01*
X40640000Y-161290000D02*
X43180000Y-158750000D01*
X43180000Y-158750000D02*
X43180000Y-140970000D01*
X43180000Y-140970000D02*
X46990000Y-137160000D01*
X46990000Y-137160000D02*
X46990000Y-135890000D01*
X48260000Y-130810000D02*
X46990000Y-132080000D01*
X49530000Y-130810000D02*
X48260000Y-130810000D01*
X172720000Y-74930000D02*
X171450000Y-73660000D01*
X171450000Y-73660000D02*
X171450000Y-55880000D01*
X157480000Y-41910000D02*
X171450000Y-55880000D01*
X183515000Y-132715000D02*
X183515000Y-137795000D01*
X180340000Y-129540000D02*
X183515000Y-132715000D01*
X186690000Y-140970000D02*
X187960000Y-140970000D01*
X183515000Y-137795000D02*
X186690000Y-140970000D01*
X170180000Y-129540000D02*
X180340000Y-129540000D01*
X168910000Y-128270000D02*
X170180000Y-129540000D01*
X173990000Y-92710000D02*
X175260000Y-93980000D01*
X175260000Y-93980000D02*
X175260000Y-96520000D01*
X173990000Y-74930000D02*
X172720000Y-73660000D01*
X172720000Y-73660000D02*
X172720000Y-54610000D01*
X157480000Y-39370000D02*
X172720000Y-54610000D01*
X185420000Y-143510000D02*
X182880000Y-140970000D01*
X180340000Y-130810000D02*
X168910000Y-130810000D01*
X182880000Y-140970000D02*
X182880000Y-133350000D01*
X187960000Y-143510000D02*
X185420000Y-143510000D01*
X182880000Y-133350000D02*
X180340000Y-130810000D01*
X168910000Y-130810000D02*
X166370000Y-128270000D01*
X175260000Y-91440000D02*
X173990000Y-91440000D01*
X173990000Y-91440000D02*
X172720000Y-92710000D01*
X172720000Y-92710000D02*
X172720000Y-93980000D01*
X172720000Y-93980000D02*
X173990000Y-95250000D01*
X173990000Y-95250000D02*
X173990000Y-96520000D01*
X175260000Y-74930000D02*
X173990000Y-73660000D01*
X173990000Y-73660000D02*
X173990000Y-53340000D01*
X157480000Y-36830000D02*
X173990000Y-53340000D01*
X184150000Y-146050000D02*
X187960000Y-146050000D01*
X167640000Y-132080000D02*
X180340000Y-132080000D01*
X180340000Y-132080000D02*
X182245000Y-133985000D01*
X182245000Y-133985000D02*
X182245000Y-144145000D01*
X163830000Y-128270000D02*
X167640000Y-132080000D01*
X182245000Y-144145000D02*
X184150000Y-146050000D01*
X176530000Y-95250000D02*
X176530000Y-96520000D01*
X176530000Y-96520000D02*
X175260000Y-97790000D01*
X175260000Y-97790000D02*
X173990000Y-97790000D01*
X173990000Y-97790000D02*
X172720000Y-96520000D01*
X161290000Y-128270000D02*
X166370000Y-133350000D01*
X166370000Y-133350000D02*
X180340000Y-133350000D01*
X180340000Y-133350000D02*
X181610000Y-134620000D01*
X181610000Y-134620000D02*
X181610000Y-147320000D01*
X182880000Y-148590000D02*
X187960000Y-148590000D01*
X181610000Y-147320000D02*
X182880000Y-148590000D01*
X176530000Y-74930000D02*
X175260000Y-73660000D01*
X175260000Y-73660000D02*
X175260000Y-52070000D01*
X157480000Y-34290000D02*
X175260000Y-52070000D01*
X149860000Y-39370000D02*
X146685000Y-42545000D01*
X146685000Y-64135000D02*
X149860000Y-67310000D01*
X146685000Y-42545000D02*
X146685000Y-64135000D01*
X157480000Y-100330000D02*
X163830000Y-100330000D01*
X171450000Y-107950000D02*
X184150000Y-107950000D01*
X163830000Y-100330000D02*
X171450000Y-107950000D01*
X149860000Y-41910000D02*
X147320000Y-44450000D01*
X147320000Y-62230000D02*
X149860000Y-64770000D01*
X147320000Y-44450000D02*
X147320000Y-62230000D01*
X157480000Y-97790000D02*
X162560000Y-97790000D01*
X162560000Y-97790000D02*
X167640000Y-102870000D01*
X172720000Y-101600000D02*
X171450000Y-102870000D01*
X184150000Y-101600000D02*
X172720000Y-101600000D01*
X187960000Y-105410000D02*
X184150000Y-101600000D01*
X149860000Y-44450000D02*
X149860000Y-54610000D01*
X149860000Y-54610000D02*
X148590000Y-55880000D01*
X148590000Y-60960000D02*
X149860000Y-62230000D01*
X148590000Y-55880000D02*
X148590000Y-60960000D01*
X170180000Y-101600000D02*
X170180000Y-102870000D01*
X170180000Y-102870000D02*
X171450000Y-104140000D01*
X184150000Y-104140000D02*
X187960000Y-107950000D01*
X171450000Y-104140000D02*
X184150000Y-104140000D01*
X157480000Y-95250000D02*
X162560000Y-95250000D01*
X167640000Y-100330000D02*
X167640000Y-101600000D01*
X162560000Y-95250000D02*
X167640000Y-100330000D01*
X158750000Y-91440000D02*
X162560000Y-91440000D01*
X149860000Y-97790000D02*
X143510000Y-104140000D01*
X143510000Y-104140000D02*
X143510000Y-118110000D01*
X143510000Y-118110000D02*
X141605000Y-120015000D01*
X141605000Y-120015000D02*
X141605000Y-123825000D01*
X141605000Y-123825000D02*
X143510000Y-125730000D01*
X143510000Y-144780000D02*
X149860000Y-151130000D01*
X143510000Y-125730000D02*
X143510000Y-144780000D01*
X168910000Y-102870000D02*
X171450000Y-105410000D01*
X171450000Y-105410000D02*
X182880000Y-105410000D01*
X157480000Y-92710000D02*
X162560000Y-92710000D01*
X162560000Y-92710000D02*
X168910000Y-99060000D01*
X168910000Y-99060000D02*
X168910000Y-102870000D01*
X182880000Y-105410000D02*
X187960000Y-110490000D01*
X158750000Y-93980000D02*
X162560000Y-93980000D01*
X144145000Y-142875000D02*
X149860000Y-148590000D01*
X149860000Y-100330000D02*
X144145000Y-106045000D01*
X144145000Y-118745000D02*
X142240000Y-120650000D01*
X144145000Y-125095000D02*
X144145000Y-142875000D01*
X144145000Y-106045000D02*
X144145000Y-118745000D01*
X142240000Y-120650000D02*
X142240000Y-123190000D01*
X142240000Y-123190000D02*
X144145000Y-125095000D01*
X157480000Y-90170000D02*
X156210000Y-91440000D01*
X156210000Y-91440000D02*
X156210000Y-109220000D01*
X156210000Y-109220000D02*
X162560000Y-115570000D01*
X162560000Y-115570000D02*
X166370000Y-115570000D01*
X166370000Y-115570000D02*
X167640000Y-116840000D01*
X185420000Y-130810000D02*
X180340000Y-125730000D01*
X187960000Y-135890000D02*
X185420000Y-133350000D01*
X180340000Y-125730000D02*
X179070000Y-125730000D01*
X185420000Y-133350000D02*
X185420000Y-130810000D01*
X158750000Y-96520000D02*
X162560000Y-96520000D01*
X149860000Y-102870000D02*
X144780000Y-107950000D01*
X144780000Y-140970000D02*
X149860000Y-146050000D01*
X144780000Y-107950000D02*
X144780000Y-140970000D01*
X154940000Y-91440000D02*
X154940000Y-109220000D01*
X154940000Y-109220000D02*
X162560000Y-116840000D01*
X162560000Y-116840000D02*
X166370000Y-116840000D01*
X186690000Y-130810000D02*
X186690000Y-132080000D01*
X180340000Y-124460000D02*
X186690000Y-130810000D01*
X186690000Y-132080000D02*
X187960000Y-133350000D01*
X179070000Y-124460000D02*
X180340000Y-124460000D01*
X158750000Y-99060000D02*
X162560000Y-99060000D01*
X149860000Y-105410000D02*
X145415000Y-109855000D01*
X145415000Y-139065000D02*
X149860000Y-143510000D01*
X145415000Y-109855000D02*
X145415000Y-139065000D01*
X153670000Y-92710000D02*
X153670000Y-109220000D01*
X153670000Y-109220000D02*
X157480000Y-113030000D01*
X160020000Y-111760000D02*
X162560000Y-114300000D01*
X162560000Y-114300000D02*
X166370000Y-114300000D01*
X187960000Y-130810000D02*
X180340000Y-123190000D01*
X180340000Y-123190000D02*
X179070000Y-123190000D01*
X158750000Y-101600000D02*
X162560000Y-101600000D01*
X149860000Y-107950000D02*
X146050000Y-111760000D01*
X146050000Y-137160000D02*
X149860000Y-140970000D01*
X146050000Y-111760000D02*
X146050000Y-137160000D01*
X157480000Y-82550000D02*
X156210000Y-82550000D01*
X156210000Y-82550000D02*
X151130000Y-87630000D01*
X151130000Y-87630000D02*
X142240000Y-87630000D01*
X142240000Y-87630000D02*
X139700000Y-85090000D01*
X125730000Y-80010000D02*
X119380000Y-80010000D01*
X120650000Y-73660000D02*
X120650000Y-69850000D01*
X120650000Y-69850000D02*
X119380000Y-68580000D01*
X111760000Y-45720000D02*
X46990000Y-45720000D01*
X46990000Y-87630000D02*
X45720000Y-88900000D01*
X45720000Y-88900000D02*
X39370000Y-88900000D01*
X33020000Y-92710000D02*
X33020000Y-95250000D01*
X33020000Y-95250000D02*
X31750000Y-96520000D01*
X35560000Y-115570000D02*
X35560000Y-127000000D01*
X40640000Y-132080000D02*
X43180000Y-134620000D01*
X43180000Y-134620000D02*
X43180000Y-138430000D01*
X43180000Y-138430000D02*
X38100000Y-143510000D01*
X46990000Y-175260000D02*
X53340000Y-175260000D01*
X53340000Y-175260000D02*
X54610000Y-176530000D01*
X60960000Y-172720000D02*
X62230000Y-171450000D01*
X62230000Y-171450000D02*
X66040000Y-171450000D01*
X158750000Y-102870000D02*
X162560000Y-102870000D01*
X149860000Y-110490000D02*
X146685000Y-113665000D01*
X146685000Y-135255000D02*
X149860000Y-138430000D01*
X146685000Y-113665000D02*
X146685000Y-135255000D01*
X158750000Y-104140000D02*
X162560000Y-104140000D01*
X149860000Y-113030000D02*
X147320000Y-115570000D01*
X147320000Y-133350000D02*
X149860000Y-135890000D01*
X147320000Y-115570000D02*
X147320000Y-133350000D01*
X158750000Y-105410000D02*
X162560000Y-105410000D01*
X162560000Y-105410000D02*
X163830000Y-104140000D01*
X149860000Y-115570000D02*
X149860000Y-125730000D01*
X149860000Y-133350000D02*
X151130000Y-132080000D01*
X151130000Y-132080000D02*
X151130000Y-127000000D01*
X151130000Y-127000000D02*
X149860000Y-125730000D01*
X176530000Y-152400000D02*
X175260000Y-153670000D01*
X175260000Y-153670000D02*
X171450000Y-153670000D01*
X161290000Y-153670000D02*
X161290000Y-158750000D01*
X134620000Y-158750000D02*
X132080000Y-161290000D01*
X119380000Y-166370000D02*
X114300000Y-171450000D01*
X114300000Y-176530000D02*
X118110000Y-180340000D01*
X132080000Y-167640000D02*
X135890000Y-171450000D01*
X135890000Y-171450000D02*
X135890000Y-172720000D01*
X135890000Y-172720000D02*
X134620000Y-173990000D01*
X118110000Y-180340000D02*
X128270000Y-180340000D01*
X128270000Y-180340000D02*
X129540000Y-179070000D01*
X157480000Y-72390000D02*
X168910000Y-72390000D01*
X170180000Y-99060000D02*
X176530000Y-99060000D01*
X176530000Y-99060000D02*
X179070000Y-96520000D01*
X179070000Y-96520000D02*
X182880000Y-96520000D01*
X181610000Y-102870000D02*
X179070000Y-102870000D01*
X177800000Y-113030000D02*
X180340000Y-113030000D01*
X181610000Y-129540000D02*
X184150000Y-132080000D01*
X184150000Y-132080000D02*
X184150000Y-135890000D01*
X184150000Y-135890000D02*
X185420000Y-137160000D01*
X180340000Y-140970000D02*
X177800000Y-140970000D01*
X177800000Y-140970000D02*
X176530000Y-142240000D01*
X176530000Y-152400000D02*
X176530000Y-144780000D01*
X182245000Y-29845000D02*
X187960000Y-24130000D01*
X180340000Y-52070000D02*
X182245000Y-50165000D01*
X182245000Y-50165000D02*
X182245000Y-29845000D01*
X182880000Y-31750000D02*
X187960000Y-26670000D01*
X180340000Y-54610000D02*
X182880000Y-52070000D01*
X182880000Y-52070000D02*
X182880000Y-31750000D01*
X183515000Y-33655000D02*
X187960000Y-29210000D01*
X180340000Y-57150000D02*
X183515000Y-53975000D01*
X183515000Y-53975000D02*
X183515000Y-33655000D01*
X184150000Y-35560000D02*
X187960000Y-31750000D01*
X180340000Y-62230000D02*
X184150000Y-58420000D01*
X184150000Y-58420000D02*
X184150000Y-35560000D01*
X184785000Y-37465000D02*
X187960000Y-34290000D01*
X180340000Y-64770000D02*
X184785000Y-60325000D01*
X184785000Y-60325000D02*
X184785000Y-37465000D01*
X180340000Y-67310000D02*
X185420000Y-62230000D01*
X185420000Y-39370000D02*
X187960000Y-36830000D01*
X185420000Y-62230000D02*
X185420000Y-39370000D01*
X186690000Y-40640000D02*
X187960000Y-39370000D01*
X186690000Y-53340000D02*
X186690000Y-40640000D01*
X187960000Y-54610000D02*
X190500000Y-52070000D01*
X190500000Y-44450000D02*
X187960000Y-41910000D01*
X190500000Y-52070000D02*
X190500000Y-44450000D01*
X157480000Y-44450000D02*
X158750000Y-45720000D01*
X135255000Y-92075000D02*
X125730000Y-101600000D01*
X135255000Y-85725000D02*
X135255000Y-92075000D01*
X137160000Y-83820000D02*
X135255000Y-85725000D01*
X152400000Y-83820000D02*
X137160000Y-83820000D01*
X125730000Y-101600000D02*
X125730000Y-109220000D01*
X125730000Y-109220000D02*
X123190000Y-111760000D01*
X123190000Y-111760000D02*
X87630000Y-111760000D01*
X87630000Y-111760000D02*
X85090000Y-114300000D01*
X85090000Y-114300000D02*
X85090000Y-115570000D01*
X83820000Y-116840000D02*
X86360000Y-119380000D01*
X86360000Y-129540000D02*
X87630000Y-130810000D01*
X87630000Y-130810000D02*
X87630000Y-133350000D01*
X87630000Y-133350000D02*
X86360000Y-134620000D01*
X86360000Y-163830000D02*
X86360000Y-157480000D01*
X77470000Y-165100000D02*
X85090000Y-165100000D01*
X85090000Y-165100000D02*
X86360000Y-163830000D01*
X158750000Y-45720000D02*
X158750000Y-53340000D01*
X158750000Y-63500000D02*
X160020000Y-62230000D01*
X160020000Y-62230000D02*
X160020000Y-54610000D01*
X160020000Y-54610000D02*
X158750000Y-53340000D01*
X149860000Y-26670000D02*
X154940000Y-26670000D01*
X144849315Y-30549315D02*
X144849315Y-29140685D01*
X143510000Y-31888630D02*
X144849315Y-30549315D01*
X143510000Y-46990000D02*
X143510000Y-31888630D01*
X147320000Y-26670000D02*
X149860000Y-26670000D01*
X141605000Y-48895000D02*
X143510000Y-46990000D01*
X141605000Y-52705000D02*
X141605000Y-48895000D01*
X144849315Y-29140685D02*
X147320000Y-26670000D01*
X143510000Y-78740000D02*
X143510000Y-54610000D01*
X143510000Y-54610000D02*
X141605000Y-52705000D01*
X144780000Y-80010000D02*
X143510000Y-78740000D01*
X149860000Y-80010000D02*
X144780000Y-80010000D01*
X149860000Y-29210000D02*
X157480000Y-29210000D01*
X144145000Y-47625000D02*
X144145000Y-33655000D01*
X144145000Y-71755000D02*
X144145000Y-53975000D01*
X149860000Y-77470000D02*
X144145000Y-71755000D01*
X144145000Y-53975000D02*
X142240000Y-52070000D01*
X142240000Y-49530000D02*
X144145000Y-47625000D01*
X142240000Y-52070000D02*
X142240000Y-49530000D01*
X146050000Y-31750000D02*
X146050000Y-30480000D01*
X144145000Y-33655000D02*
X146050000Y-31750000D01*
X147320000Y-29210000D02*
X149860000Y-29210000D01*
X146050000Y-30480000D02*
X147320000Y-29210000D01*
X180340000Y-95250000D02*
X187960000Y-95250000D01*
X156210000Y-27940000D02*
X157480000Y-26670000D01*
X151130000Y-27940000D02*
X156210000Y-27940000D01*
X148728630Y-31750000D02*
X144780000Y-35698630D01*
X149860000Y-31750000D02*
X148728630Y-31750000D01*
X144780000Y-69850000D02*
X149860000Y-74930000D01*
X144780000Y-35698630D02*
X144780000Y-69850000D01*
X180340000Y-97790000D02*
X187960000Y-97790000D01*
X157480000Y-24130000D02*
X153670000Y-24130000D01*
X153670000Y-24130000D02*
X152400000Y-25400000D01*
X148728630Y-34290000D02*
X145415000Y-37603630D01*
X149860000Y-34290000D02*
X148728630Y-34290000D01*
X145415000Y-67945000D02*
X149860000Y-72390000D01*
X145415000Y-37603630D02*
X145415000Y-67945000D01*
X180340000Y-100330000D02*
X187960000Y-100330000D01*
X148728630Y-36830000D02*
X146050000Y-39508630D01*
X149860000Y-36830000D02*
X148728630Y-36830000D01*
X146050000Y-66040000D02*
X149860000Y-69850000D01*
X146050000Y-39508630D02*
X146050000Y-66040000D01*
X166370000Y-177800000D02*
X161290000Y-177800000D01*
X196850000Y-170180000D02*
X196850000Y-179465002D01*
X195580000Y-168910000D02*
X196850000Y-170180000D01*
X195975002Y-180340000D02*
X168910000Y-180340000D01*
X196850000Y-179465002D02*
X195975002Y-180340000D01*
X168910000Y-180340000D02*
X166370000Y-177800000D01*
X160020000Y-176530000D02*
X160020000Y-175260000D01*
X161290000Y-177800000D02*
X160020000Y-176530000D01*
X160020000Y-175260000D02*
X158750000Y-173990000D01*
X158750000Y-173990000D02*
X157480000Y-173990000D01*
X157480000Y-171450000D02*
X162560000Y-171450000D01*
X162560000Y-171450000D02*
X163830000Y-170180000D01*
X163830000Y-170180000D02*
X181610000Y-170180000D01*
X181610000Y-170180000D02*
X182880000Y-168910000D01*
X191770000Y-176530000D02*
X195580000Y-176530000D01*
X149860000Y-171450000D02*
X151130000Y-172720000D01*
X151130000Y-172720000D02*
X162560000Y-172720000D01*
X163830000Y-173990000D02*
X165100000Y-173990000D01*
X162560000Y-172720000D02*
X163830000Y-173990000D01*
X157480000Y-168910000D02*
X158750000Y-168910000D01*
X158750000Y-168910000D02*
X162560000Y-165100000D01*
X162560000Y-165100000D02*
X162560000Y-163830000D01*
X173990000Y-152400000D02*
X171450000Y-152400000D01*
X173990000Y-152400000D02*
X175260000Y-151130000D01*
X171450000Y-152400000D02*
X170180000Y-153670000D01*
X170180000Y-153670000D02*
X170180000Y-156210000D01*
X162560000Y-163830000D02*
X170180000Y-156210000D01*
X193040000Y-173990000D02*
X195580000Y-171450000D01*
X187960000Y-173990000D02*
X193040000Y-173990000D01*
X187960000Y-173990000D02*
X184150000Y-173990000D01*
X179070000Y-172720000D02*
X180340000Y-171450000D01*
X165100000Y-176530000D02*
X167640000Y-176530000D01*
X167640000Y-176530000D02*
X171450000Y-172720000D01*
X171450000Y-172720000D02*
X179070000Y-172720000D01*
X161290000Y-165100000D02*
X160020000Y-166370000D01*
X160020000Y-166370000D02*
X157480000Y-166370000D01*
X171450000Y-148590000D02*
X168910000Y-151130000D01*
X172720000Y-148590000D02*
X171450000Y-148590000D01*
X168910000Y-151130000D02*
X168910000Y-154940000D01*
X161290000Y-162560000D02*
X161290000Y-165100000D01*
X168910000Y-154940000D02*
X161290000Y-162560000D01*
X102870000Y-181610000D02*
X105410000Y-181610000D01*
X107950000Y-182880000D02*
X110490000Y-182880000D01*
X49530000Y-177800000D02*
X50800000Y-176530000D01*
X51435000Y-182245000D02*
X49530000Y-180340000D01*
X95250000Y-181610000D02*
X94615000Y-182245000D01*
X49530000Y-180340000D02*
X49530000Y-177800000D01*
X94615000Y-182245000D02*
X51435000Y-182245000D01*
X111760000Y-173990000D02*
X119380000Y-173990000D01*
X144780000Y-152400000D02*
X143510000Y-153670000D01*
X143510000Y-153670000D02*
X140970000Y-153670000D01*
X140970000Y-157480000D02*
X140970000Y-167640000D01*
X119380000Y-173990000D02*
X121920000Y-173990000D01*
X132080000Y-138430000D02*
X133350000Y-139700000D01*
X127000000Y-138430000D02*
X132080000Y-138430000D01*
X132080000Y-171450000D02*
X132080000Y-170180000D01*
X130810000Y-172720000D02*
X132080000Y-171450000D01*
X121920000Y-171450000D02*
X123190000Y-172720000D01*
X123190000Y-172720000D02*
X130810000Y-172720000D01*
X96520000Y-176530000D02*
X93980000Y-173990000D01*
X93980000Y-173990000D02*
X92710000Y-173990000D01*
X97790000Y-175260000D02*
X96520000Y-176530000D01*
X100330000Y-175260000D02*
X97790000Y-175260000D01*
X127000000Y-173990000D02*
X123190000Y-173990000D01*
X123190000Y-173990000D02*
X121920000Y-172720000D01*
X105410000Y-175260000D02*
X107950000Y-175260000D01*
X107950000Y-175260000D02*
X110490000Y-172720000D01*
X110490000Y-172720000D02*
X121920000Y-172720000D01*
X104140000Y-138430000D02*
X97790000Y-138430000D01*
X97790000Y-138430000D02*
X96520000Y-137160000D01*
X96520000Y-137160000D02*
X87630000Y-137160000D01*
X88900000Y-157480000D02*
X88900000Y-161290000D01*
X102870000Y-184150000D02*
X104140000Y-182880000D01*
X104140000Y-182880000D02*
X105410000Y-182880000D01*
X107950000Y-184150000D02*
X111760000Y-184150000D01*
X111760000Y-179070000D02*
X114300000Y-181610000D01*
X114300000Y-181610000D02*
X115570000Y-181610000D01*
X91440000Y-170180000D02*
X90170000Y-168910000D01*
X91440000Y-170180000D02*
X91440000Y-175260000D01*
X90170000Y-168910000D02*
X90170000Y-162560000D01*
X88900000Y-161290000D02*
X90170000Y-162560000D01*
X92710000Y-180340000D02*
X95250000Y-180340000D01*
X104535002Y-180340000D02*
X105410000Y-179465002D01*
X102870000Y-180340000D02*
X104535002Y-180340000D01*
X105410000Y-179465002D02*
X105410000Y-177800000D01*
X120650000Y-175260000D02*
X138430000Y-175260000D01*
X171450000Y-157480000D02*
X172720000Y-156210000D01*
X172720000Y-156210000D02*
X175260000Y-156210000D01*
X182880000Y-163830000D02*
X182880000Y-156210000D01*
X146050000Y-167640000D02*
X151130000Y-167640000D01*
X162560000Y-158750000D02*
X160020000Y-161290000D01*
X160020000Y-161290000D02*
X160020000Y-163830000D01*
X158750000Y-165100000D02*
X153670000Y-165100000D01*
X160020000Y-163830000D02*
X158750000Y-165100000D01*
X151130000Y-167640000D02*
X153670000Y-165100000D01*
X106680000Y-176530000D02*
X109220000Y-176530000D01*
X105410000Y-177800000D02*
X106680000Y-176530000D01*
X109220000Y-176530000D02*
X110490000Y-175260000D01*
X110490000Y-175260000D02*
X120650000Y-175260000D01*
X91440000Y-179070000D02*
X89535000Y-180975000D01*
X52070000Y-172720000D02*
X52070000Y-160020000D01*
X89535000Y-180975000D02*
X62865000Y-180975000D01*
X59690000Y-177800000D02*
X57150000Y-177800000D01*
X62865000Y-180975000D02*
X59690000Y-177800000D01*
X57150000Y-177800000D02*
X52070000Y-172720000D01*
X118110000Y-163830000D02*
X119380000Y-163830000D01*
X106680000Y-171450000D02*
X110490000Y-167640000D01*
X114300000Y-167640000D02*
X118110000Y-163830000D01*
X110490000Y-167640000D02*
X114300000Y-167640000D01*
X104140000Y-171450000D02*
X106680000Y-171450000D01*
X175260000Y-182880000D02*
X173990000Y-184150000D01*
X173990000Y-184150000D02*
X152400000Y-184150000D01*
X152400000Y-179070000D02*
X153670000Y-177800000D01*
X153670000Y-177800000D02*
X153670000Y-176530000D01*
X154940000Y-173990000D02*
X152400000Y-173990000D01*
X152400000Y-163830000D02*
X152400000Y-160020000D01*
X152400000Y-160020000D02*
X156210000Y-156210000D01*
X195580000Y-26670000D02*
X200025000Y-31115000D01*
X200025000Y-31115000D02*
X200025000Y-164465000D01*
X200025000Y-164465000D02*
X196850000Y-167640000D01*
X196850000Y-167640000D02*
X194310000Y-167640000D01*
X194310000Y-167640000D02*
X189230000Y-172720000D01*
X189230000Y-172720000D02*
X186690000Y-172720000D01*
X53340000Y-160020000D02*
X53340000Y-172720000D01*
X49530000Y-181610000D02*
X43180000Y-181610000D01*
X151130000Y-180340000D02*
X160020000Y-180340000D01*
X161290000Y-176530000D02*
X162560000Y-175260000D01*
X162560000Y-175260000D02*
X167640000Y-175260000D01*
X167640000Y-175260000D02*
X170180000Y-172720000D01*
X175260000Y-171450000D02*
X177800000Y-171450000D01*
X142240000Y-181610000D02*
X143510000Y-180340000D01*
X143510000Y-180340000D02*
X148590000Y-180340000D01*
X127000000Y-133350000D02*
X120650000Y-133350000D01*
X120650000Y-133350000D02*
X119380000Y-132080000D01*
X107950000Y-133350000D02*
X109220000Y-132080000D01*
X109220000Y-132080000D02*
X119380000Y-132080000D01*
X172720000Y-171450000D02*
X167640000Y-171450000D01*
X167640000Y-171450000D02*
X166370000Y-172720000D01*
X166370000Y-172720000D02*
X163830000Y-172720000D01*
X105410000Y-165100000D02*
X104140000Y-166370000D01*
X105410000Y-164026998D02*
X105410000Y-165100000D01*
X113030000Y-165100000D02*
X113030000Y-163434998D01*
X112155002Y-162560000D02*
X106876998Y-162560000D01*
X113030000Y-163434998D02*
X112155002Y-162560000D01*
X106876998Y-162560000D02*
X105410000Y-164026998D01*
X104140000Y-133350000D02*
X97790000Y-133350000D01*
X97790000Y-133350000D02*
X96520000Y-132080000D01*
X96520000Y-132080000D02*
X91440000Y-132080000D01*
X91440000Y-142240000D02*
X91440000Y-146050000D01*
X91440000Y-146050000D02*
X96520000Y-151130000D01*
X96520000Y-157480000D02*
X100330000Y-161290000D01*
X100330000Y-161290000D02*
X100330000Y-166370000D01*
X163830000Y-180340000D02*
X161290000Y-180340000D01*
X158750000Y-177800000D02*
X158750000Y-176134998D01*
X161290000Y-180340000D02*
X158750000Y-177800000D01*
X158750000Y-176134998D02*
X157875002Y-175260000D01*
X157875002Y-175260000D02*
X140970000Y-175260000D01*
X121920000Y-166370000D02*
X124460000Y-166370000D01*
X121920000Y-166370000D02*
X120650000Y-167640000D01*
X124460000Y-166370000D02*
X125730000Y-167640000D01*
X125730000Y-167640000D02*
X128270000Y-167640000D01*
X128270000Y-167640000D02*
X129540000Y-166370000D01*
X129540000Y-166370000D02*
X132080000Y-166370000D01*
X140970000Y-175260000D02*
X132080000Y-166370000D01*
X190500000Y-134620000D02*
X191770000Y-135890000D01*
X184150000Y-153670000D02*
X181610000Y-156210000D01*
X181610000Y-156210000D02*
X181610000Y-158750000D01*
X181610000Y-158750000D02*
X176530000Y-163830000D01*
X172720000Y-168910000D02*
X175260000Y-168910000D01*
X191770000Y-143510000D02*
X190500000Y-144780000D01*
X190500000Y-144780000D02*
X190500000Y-151130000D01*
X190500000Y-151130000D02*
X189230000Y-152400000D01*
X189230000Y-152400000D02*
X186690000Y-152400000D01*
X186690000Y-152400000D02*
X185420000Y-151130000D01*
X185420000Y-151130000D02*
X184150000Y-151130000D01*
X193040000Y-124460000D02*
X193040000Y-129540000D01*
X191770000Y-118110000D02*
X191770000Y-123190000D01*
X191770000Y-123190000D02*
X193040000Y-124460000D01*
X190500000Y-110490000D02*
X191770000Y-110490000D01*
X188355002Y-99060000D02*
X189230000Y-99934998D01*
X189230000Y-109220000D02*
X190500000Y-110490000D01*
X189230000Y-99934998D02*
X189230000Y-109220000D01*
X172720000Y-100330000D02*
X177800000Y-100330000D01*
X171450000Y-101600000D02*
X172720000Y-100330000D01*
X177800000Y-100330000D02*
X179070000Y-99060000D01*
X179070000Y-99060000D02*
X188355002Y-99060000D01*
X160020000Y-73660000D02*
X167640000Y-73660000D01*
X167640000Y-73660000D02*
X168910000Y-74930000D01*
X171450000Y-74930000D02*
X168910000Y-74930000D01*
X85090000Y-157480000D02*
X85090000Y-163830000D01*
X99060000Y-167640000D02*
X93980000Y-167640000D01*
X92710000Y-176530000D02*
X93980000Y-177800000D01*
X93980000Y-177800000D02*
X95250000Y-177800000D01*
X95250000Y-170180000D02*
X99060000Y-170180000D01*
X99060000Y-170180000D02*
X100330000Y-171450000D01*
X100330000Y-171450000D02*
X100330000Y-172720000D01*
X106680000Y-172720000D02*
X110490000Y-168910000D01*
X105410000Y-172720000D02*
X106680000Y-172720000D01*
X110490000Y-168910000D02*
X111760000Y-168910000D01*
X90170000Y-181610000D02*
X92710000Y-179070000D01*
X50800000Y-179070000D02*
X53340000Y-181610000D01*
X53340000Y-181610000D02*
X90170000Y-181610000D01*
X113030000Y-182880000D02*
X110490000Y-180340000D01*
X110490000Y-180340000D02*
X110490000Y-177800000D01*
X140970000Y-182880000D02*
X113030000Y-182880000D01*
X123190000Y-177800000D02*
X140970000Y-177800000D01*
X146050000Y-184150000D02*
X149860000Y-184150000D01*
X152400000Y-185420000D02*
X153670000Y-186690000D01*
X153670000Y-186690000D02*
X166370000Y-186690000D01*
X166370000Y-186690000D02*
X167640000Y-185420000D01*
X168910000Y-176530000D02*
X170180000Y-175260000D01*
X186690000Y-153670000D02*
X190500000Y-153670000D01*
X185420000Y-152400000D02*
X186690000Y-153670000D01*
X181610000Y-152400000D02*
X185420000Y-152400000D01*
X171450000Y-162560000D02*
X176530000Y-162560000D01*
X170180000Y-163830000D02*
X171450000Y-162560000D01*
X176530000Y-162560000D02*
X180340000Y-158750000D01*
X180340000Y-158750000D02*
X180340000Y-153670000D01*
X180340000Y-153670000D02*
X181610000Y-152400000D01*
X113030000Y-160020000D02*
X120650000Y-160020000D01*
X104140000Y-168910000D02*
X106680000Y-168910000D01*
X109220000Y-166370000D02*
X109220000Y-163830000D01*
X106680000Y-168910000D02*
X109220000Y-166370000D01*
X193040000Y-181610000D02*
X196850000Y-181610000D01*
X138430000Y-185420000D02*
X133350000Y-185420000D01*
X116840000Y-181610000D02*
X111760000Y-176530000D01*
X125730000Y-181610000D02*
X116840000Y-181610000D01*
X191770000Y-137160000D02*
X195580000Y-133350000D01*
X186690000Y-137160000D02*
X191770000Y-137160000D01*
X195580000Y-135890000D02*
X191770000Y-139700000D01*
X191770000Y-139700000D02*
X186690000Y-139700000D01*
X179070000Y-139700000D02*
X177800000Y-139700000D01*
X177800000Y-139700000D02*
X176530000Y-138430000D01*
X176530000Y-138430000D02*
X176530000Y-137160000D01*
X176530000Y-137160000D02*
X177800000Y-135890000D01*
X195580000Y-138430000D02*
X191770000Y-142240000D01*
X191770000Y-142240000D02*
X186690000Y-142240000D01*
X172720000Y-135890000D02*
X171450000Y-135890000D01*
X171450000Y-135890000D02*
X170180000Y-137160000D01*
X170180000Y-137160000D02*
X170180000Y-138430000D01*
X171450000Y-139700000D02*
X173990000Y-139700000D01*
X170180000Y-138430000D02*
X171450000Y-139700000D01*
X179070000Y-142240000D02*
X177800000Y-143510000D01*
X177800000Y-143510000D02*
X176530000Y-143510000D01*
X176530000Y-143510000D02*
X175260000Y-142240000D01*
X175260000Y-142240000D02*
X175260000Y-140970000D01*
X175260000Y-140970000D02*
X173990000Y-139700000D01*
X66040000Y-173990000D02*
X67310000Y-173990000D01*
X67310000Y-173990000D02*
X68580000Y-172720000D01*
X68580000Y-172720000D02*
X68580000Y-170180000D01*
X73660000Y-148590000D02*
X76200000Y-148590000D01*
X69850000Y-163830000D02*
X72390000Y-161290000D01*
X74930000Y-161290000D02*
X77470000Y-158750000D01*
X72390000Y-161290000D02*
X74930000Y-161290000D01*
X58420000Y-173990000D02*
X55880000Y-171450000D01*
X55880000Y-171450000D02*
X55880000Y-157480000D01*
X66040000Y-161290000D02*
X64770000Y-161290000D01*
X69850000Y-157480000D02*
X66040000Y-161290000D01*
X64770000Y-161290000D02*
X59690000Y-166370000D01*
X59690000Y-166370000D02*
X59690000Y-170180000D01*
X59690000Y-170180000D02*
X58420000Y-171450000D01*
X66040000Y-176530000D02*
X69850000Y-176530000D01*
X69850000Y-176530000D02*
X71120000Y-175260000D01*
X69850000Y-173990000D02*
X69850000Y-171450000D01*
X80010000Y-149860000D02*
X77470000Y-149860000D01*
X73660000Y-140970000D02*
X76200000Y-140970000D01*
X72390000Y-162560000D02*
X71120000Y-163830000D01*
X82550000Y-157480000D02*
X77470000Y-162560000D01*
X77470000Y-162560000D02*
X72390000Y-162560000D01*
X66040000Y-160020000D02*
X68580000Y-157480000D01*
X64770000Y-160020000D02*
X66040000Y-160020000D01*
X58420000Y-166370000D02*
X64770000Y-160020000D01*
X73660000Y-153670000D02*
X78740000Y-153670000D01*
X78740000Y-153670000D02*
X81280000Y-151130000D01*
X72390000Y-158750000D02*
X72390000Y-157480000D01*
X68580000Y-163830000D02*
X68580000Y-162560000D01*
X68580000Y-162560000D02*
X72390000Y-158750000D01*
X66040000Y-158750000D02*
X67310000Y-157480000D01*
X58420000Y-163830000D02*
X63500000Y-158750000D01*
X63500000Y-158750000D02*
X66040000Y-158750000D01*
X58420000Y-118110000D02*
X59690000Y-118110000D01*
X59690000Y-118110000D02*
X64770000Y-123190000D01*
X67310000Y-125730000D02*
X72390000Y-130810000D01*
X82550000Y-132080000D02*
X86360000Y-135890000D01*
X82550000Y-129540000D02*
X82550000Y-132080000D01*
X73660000Y-128270000D02*
X81280000Y-128270000D01*
X81280000Y-128270000D02*
X82550000Y-129540000D01*
X86360000Y-135890000D02*
X86360000Y-152400000D01*
X88900000Y-163830000D02*
X87630000Y-162560000D01*
X87630000Y-162560000D02*
X87630000Y-157480000D01*
X88900000Y-168910000D02*
X87630000Y-167640000D01*
X87630000Y-167640000D02*
X87630000Y-165100000D01*
X87630000Y-165100000D02*
X88900000Y-163830000D01*
X50800000Y-160020000D02*
X50800000Y-161290000D01*
X50800000Y-160020000D02*
X48260000Y-157480000D01*
X50800000Y-161290000D02*
X49530000Y-162560000D01*
X49530000Y-162560000D02*
X49530000Y-165100000D01*
X49530000Y-165100000D02*
X50800000Y-166370000D01*
X50800000Y-168910000D02*
X48260000Y-166370000D01*
X48260000Y-166370000D02*
X48260000Y-161290000D01*
X48260000Y-161290000D02*
X49530000Y-160020000D01*
X50800000Y-171450000D02*
X46990000Y-167640000D01*
X46990000Y-153670000D02*
X48260000Y-152400000D01*
X46990000Y-167640000D02*
X46990000Y-153670000D01*
X50800000Y-173990000D02*
X46355000Y-169545000D01*
X46355000Y-169545000D02*
X46355000Y-151765000D01*
X46355000Y-151765000D02*
X48260000Y-149860000D01*
X48260000Y-147320000D02*
X45720000Y-149860000D01*
X45720000Y-173990000D02*
X43180000Y-176530000D01*
X45720000Y-149860000D02*
X45720000Y-173990000D01*
X43180000Y-173990000D02*
X45085000Y-172085000D01*
X45085000Y-147955000D02*
X48260000Y-144780000D01*
X45085000Y-172085000D02*
X45085000Y-147955000D01*
X48260000Y-142240000D02*
X44450000Y-146050000D01*
X44450000Y-146050000D02*
X44450000Y-170180000D01*
X44450000Y-170180000D02*
X43180000Y-171450000D01*
X41910000Y-167640000D02*
X41910000Y-162560000D01*
X43180000Y-168910000D02*
X41910000Y-167640000D01*
X43815000Y-160655000D02*
X43815000Y-142875000D01*
X46990000Y-139700000D02*
X48260000Y-139700000D01*
X41910000Y-162560000D02*
X43815000Y-160655000D01*
X43815000Y-142875000D02*
X46990000Y-139700000D01*
X190500000Y-172720000D02*
X191770000Y-172720000D01*
X191770000Y-172720000D02*
X194310000Y-170180000D01*
X161290000Y-139700000D02*
X162560000Y-140970000D01*
X142240000Y-163830000D02*
X146050000Y-163830000D01*
X155575000Y-140970000D02*
X156845000Y-139700000D01*
X156845000Y-139700000D02*
X161290000Y-139700000D01*
X146050000Y-163830000D02*
X155575000Y-154305000D01*
X162560000Y-140970000D02*
X165100000Y-140970000D01*
X155575000Y-154305000D02*
X155575000Y-140970000D01*
X156210000Y-149860000D02*
X157480000Y-148590000D01*
X156210000Y-154940000D02*
X156210000Y-149860000D01*
X144780000Y-166370000D02*
X156210000Y-154940000D01*
X142240000Y-166370000D02*
X144780000Y-166370000D01*
X142240000Y-168910000D02*
X140970000Y-168910000D01*
X140970000Y-168910000D02*
X139700000Y-167640000D01*
X139700000Y-167640000D02*
X139700000Y-157480000D01*
X88900000Y-114300000D02*
X115570000Y-114300000D01*
X139700000Y-151130000D02*
X137160000Y-151130000D01*
X137160000Y-151130000D02*
X135255000Y-153035000D01*
X135255000Y-153035000D02*
X125730000Y-153035000D01*
X124460000Y-151765000D02*
X124460000Y-142240000D01*
X125730000Y-153035000D02*
X124460000Y-151765000D01*
X121920000Y-140970000D02*
X116840000Y-140970000D01*
X116840000Y-140970000D02*
X115570000Y-142240000D01*
X142240000Y-171450000D02*
X138430000Y-167640000D01*
X138430000Y-167640000D02*
X138430000Y-157480000D01*
X138430000Y-152400000D02*
X137160000Y-152400000D01*
X137160000Y-152400000D02*
X135890000Y-153670000D01*
X135890000Y-153670000D02*
X86360000Y-153670000D01*
X86360000Y-153670000D02*
X83820000Y-151130000D01*
X83820000Y-151130000D02*
X83820000Y-134620000D01*
X83820000Y-134620000D02*
X80010000Y-130810000D01*
X80010000Y-130810000D02*
X73660000Y-130810000D01*
X73660000Y-130810000D02*
X71120000Y-128270000D01*
X71120000Y-128270000D02*
X71120000Y-125730000D01*
X73660000Y-120650000D02*
X72390000Y-120650000D01*
X72390000Y-120650000D02*
X71120000Y-121920000D01*
X71120000Y-121920000D02*
X71120000Y-123190000D01*
X142240000Y-173990000D02*
X137160000Y-168910000D01*
X137160000Y-168910000D02*
X137160000Y-157480000D01*
X137160000Y-153670000D02*
X136525000Y-154305000D01*
X136525000Y-154305000D02*
X85725000Y-154305000D01*
X85725000Y-154305000D02*
X82550000Y-151130000D01*
X82550000Y-151130000D02*
X82550000Y-134620000D01*
X82550000Y-134620000D02*
X81280000Y-133350000D01*
X82550000Y-128270000D02*
X82550000Y-127000000D01*
X82550000Y-127000000D02*
X81280000Y-125730000D01*
X85090000Y-130810000D02*
X82550000Y-128270000D01*
X85090000Y-133350000D02*
X85090000Y-130810000D01*
X186690000Y-163830000D02*
X185420000Y-165100000D01*
X187960000Y-163830000D02*
X186690000Y-163830000D01*
X185420000Y-165100000D02*
X163830000Y-165100000D01*
X163830000Y-165100000D02*
X158750000Y-170180000D01*
X149860000Y-168910000D02*
X153670000Y-168910000D01*
X153670000Y-168910000D02*
X154940000Y-170180000D01*
X158750000Y-170180000D02*
X154940000Y-170180000D01*
X187960000Y-166370000D02*
X184150000Y-166370000D01*
X143510000Y-177800000D02*
X142240000Y-176530000D01*
X148590000Y-177800000D02*
X143510000Y-177800000D01*
X163830000Y-167640000D02*
X161290000Y-170180000D01*
X177800000Y-168910000D02*
X176530000Y-167640000D01*
X176530000Y-167640000D02*
X163830000Y-167640000D01*
X157480000Y-154940000D02*
X161290000Y-151130000D01*
X149860000Y-166370000D02*
X151130000Y-166370000D01*
X153670000Y-161290000D02*
X157480000Y-157480000D01*
X153670000Y-163830000D02*
X153670000Y-161290000D01*
X151130000Y-166370000D02*
X153670000Y-163830000D01*
X157480000Y-157480000D02*
X157480000Y-154940000D01*
X77470000Y-163830000D02*
X83820000Y-157480000D01*
X76200000Y-163830000D02*
X77470000Y-163830000D01*
X81280000Y-173990000D02*
X77470000Y-173990000D01*
X77470000Y-173990000D02*
X76200000Y-175260000D01*
X76200000Y-175260000D02*
X72390000Y-175260000D01*
X72390000Y-175260000D02*
X69850000Y-177800000D01*
X58420000Y-176530000D02*
X60960000Y-176530000D01*
X60960000Y-176530000D02*
X62230000Y-177800000D01*
X69850000Y-177800000D02*
X62230000Y-177800000D01*
X62230000Y-172720000D02*
X67310000Y-172720000D01*
X77470000Y-176530000D02*
X81280000Y-176530000D01*
X66040000Y-179070000D02*
X71120000Y-179070000D01*
X71120000Y-179070000D02*
X72390000Y-177800000D01*
X80010000Y-177800000D02*
X72390000Y-177800000D01*
X81280000Y-171450000D02*
X73660000Y-163830000D01*
M02*
