%TF.GenerationSoftware,KiCad,Pcbnew,5.1.8*%
%TF.CreationDate,2021-01-02T17:16:27+03:00*%
%TF.ProjectId,motherboard,6d6f7468-6572-4626-9f61-72642e6b6963,rev?*%
%TF.SameCoordinates,Original*%
%TF.FileFunction,Soldermask,Top*%
%TF.FilePolarity,Negative*%
%FSLAX46Y46*%
G04 Gerber Fmt 4.6, Leading zero omitted, Abs format (unit mm)*
G04 Created by KiCad (PCBNEW 5.1.8) date 2021-01-02 17:16:27*
%MOMM*%
%LPD*%
G01*
G04 APERTURE LIST*
%ADD10C,7.000000*%
%ADD11R,1.600000X1.600000*%
%ADD12O,1.600000X1.600000*%
%ADD13C,1.600000*%
%ADD14C,1.200000*%
%ADD15R,1.200000X1.200000*%
%ADD16O,1.700000X1.700000*%
%ADD17R,1.700000X1.700000*%
%ADD18O,1.905000X2.000000*%
%ADD19R,1.905000X2.000000*%
%ADD20O,3.500000X3.500000*%
%ADD21O,2.400000X2.400000*%
%ADD22C,2.400000*%
%ADD23R,3.500000X3.500000*%
%ADD24C,1.800000*%
%ADD25R,1.800000X1.800000*%
%ADD26O,2.200000X2.200000*%
%ADD27R,2.200000X2.200000*%
G04 APERTURE END LIST*
D10*
%TO.C,HOLE4*%
X21590000Y-21590000D03*
%TD*%
%TO.C,HOLE3*%
X21590000Y-185420000D03*
%TD*%
%TO.C,HOLE2*%
X205740000Y-185420000D03*
%TD*%
%TO.C,HOLE1*%
X205740000Y-21590000D03*
%TD*%
D11*
%TO.C,U8*%
X172720000Y-135890000D03*
D12*
X180340000Y-151130000D03*
X172720000Y-138430000D03*
X180340000Y-148590000D03*
X172720000Y-140970000D03*
X180340000Y-146050000D03*
X172720000Y-143510000D03*
X180340000Y-143510000D03*
X172720000Y-146050000D03*
X180340000Y-140970000D03*
X172720000Y-148590000D03*
X180340000Y-138430000D03*
X172720000Y-151130000D03*
X180340000Y-135890000D03*
%TD*%
%TO.C,U22*%
X96520000Y-163830000D03*
X88900000Y-179070000D03*
X96520000Y-166370000D03*
X88900000Y-176530000D03*
X96520000Y-168910000D03*
X88900000Y-173990000D03*
X96520000Y-171450000D03*
X88900000Y-171450000D03*
X96520000Y-173990000D03*
X88900000Y-168910000D03*
X96520000Y-176530000D03*
X88900000Y-166370000D03*
X96520000Y-179070000D03*
D11*
X88900000Y-163830000D03*
%TD*%
%TO.C,U7*%
X104140000Y-163830000D03*
D12*
X111760000Y-179070000D03*
X104140000Y-166370000D03*
X111760000Y-176530000D03*
X104140000Y-168910000D03*
X111760000Y-173990000D03*
X104140000Y-171450000D03*
X111760000Y-171450000D03*
X104140000Y-173990000D03*
X111760000Y-168910000D03*
X104140000Y-176530000D03*
X111760000Y-166370000D03*
X104140000Y-179070000D03*
X111760000Y-163830000D03*
%TD*%
D11*
%TO.C,U23*%
X58420000Y-133350000D03*
D12*
X66040000Y-151130000D03*
X58420000Y-135890000D03*
X66040000Y-148590000D03*
X58420000Y-138430000D03*
X66040000Y-146050000D03*
X58420000Y-140970000D03*
X66040000Y-143510000D03*
X58420000Y-143510000D03*
X66040000Y-140970000D03*
X58420000Y-146050000D03*
X66040000Y-138430000D03*
X58420000Y-148590000D03*
X66040000Y-135890000D03*
X58420000Y-151130000D03*
X66040000Y-133350000D03*
%TD*%
%TO.C,U1*%
X180340000Y-21590000D03*
X157480000Y-100330000D03*
X180340000Y-24130000D03*
X157480000Y-97790000D03*
X180340000Y-26670000D03*
X157480000Y-95250000D03*
X180340000Y-29210000D03*
X157480000Y-92710000D03*
X180340000Y-31750000D03*
X157480000Y-90170000D03*
X180340000Y-34290000D03*
X157480000Y-87630000D03*
X180340000Y-36830000D03*
X157480000Y-85090000D03*
X180340000Y-39370000D03*
X157480000Y-82550000D03*
X180340000Y-41910000D03*
X157480000Y-80010000D03*
X180340000Y-44450000D03*
X157480000Y-77470000D03*
X180340000Y-46990000D03*
X157480000Y-74930000D03*
X180340000Y-49530000D03*
X157480000Y-72390000D03*
X180340000Y-52070000D03*
X157480000Y-69850000D03*
X180340000Y-54610000D03*
X157480000Y-67310000D03*
X180340000Y-57150000D03*
X157480000Y-64770000D03*
X180340000Y-59690000D03*
X157480000Y-62230000D03*
X180340000Y-62230000D03*
X157480000Y-59690000D03*
X180340000Y-64770000D03*
X157480000Y-57150000D03*
X180340000Y-67310000D03*
X157480000Y-54610000D03*
X180340000Y-69850000D03*
X157480000Y-52070000D03*
X180340000Y-72390000D03*
X157480000Y-49530000D03*
X180340000Y-74930000D03*
X157480000Y-46990000D03*
X180340000Y-77470000D03*
X157480000Y-44450000D03*
X180340000Y-80010000D03*
X157480000Y-41910000D03*
X180340000Y-82550000D03*
X157480000Y-39370000D03*
X180340000Y-85090000D03*
X157480000Y-36830000D03*
X180340000Y-87630000D03*
X157480000Y-34290000D03*
X180340000Y-90170000D03*
X157480000Y-31750000D03*
X180340000Y-92710000D03*
X157480000Y-29210000D03*
X180340000Y-95250000D03*
X157480000Y-26670000D03*
X180340000Y-97790000D03*
X157480000Y-24130000D03*
X180340000Y-100330000D03*
D11*
X157480000Y-21590000D03*
%TD*%
D12*
%TO.C,U16*%
X127000000Y-118110000D03*
X111760000Y-151130000D03*
X127000000Y-120650000D03*
X111760000Y-148590000D03*
X127000000Y-123190000D03*
X111760000Y-146050000D03*
X127000000Y-125730000D03*
X111760000Y-143510000D03*
X127000000Y-128270000D03*
X111760000Y-140970000D03*
X127000000Y-130810000D03*
X111760000Y-138430000D03*
X127000000Y-133350000D03*
X111760000Y-135890000D03*
X127000000Y-135890000D03*
X111760000Y-133350000D03*
X127000000Y-138430000D03*
X111760000Y-130810000D03*
X127000000Y-140970000D03*
X111760000Y-128270000D03*
X127000000Y-143510000D03*
X111760000Y-125730000D03*
X127000000Y-146050000D03*
X111760000Y-123190000D03*
X127000000Y-148590000D03*
X111760000Y-120650000D03*
X127000000Y-151130000D03*
D11*
X111760000Y-118110000D03*
%TD*%
%TO.C,U17*%
X73660000Y-135890000D03*
D12*
X81280000Y-151130000D03*
X73660000Y-138430000D03*
X81280000Y-148590000D03*
X73660000Y-140970000D03*
X81280000Y-146050000D03*
X73660000Y-143510000D03*
X81280000Y-143510000D03*
X73660000Y-146050000D03*
X81280000Y-140970000D03*
X73660000Y-148590000D03*
X81280000Y-138430000D03*
X73660000Y-151130000D03*
X81280000Y-135890000D03*
%TD*%
D11*
%TO.C,U15*%
X142240000Y-92710000D03*
D12*
X149860000Y-115570000D03*
X142240000Y-95250000D03*
X149860000Y-113030000D03*
X142240000Y-97790000D03*
X149860000Y-110490000D03*
X142240000Y-100330000D03*
X149860000Y-107950000D03*
X142240000Y-102870000D03*
X149860000Y-105410000D03*
X142240000Y-105410000D03*
X149860000Y-102870000D03*
X142240000Y-107950000D03*
X149860000Y-100330000D03*
X142240000Y-110490000D03*
X149860000Y-97790000D03*
X142240000Y-113030000D03*
X149860000Y-95250000D03*
X142240000Y-115570000D03*
X149860000Y-92710000D03*
%TD*%
D11*
%TO.C,U14*%
X187960000Y-57150000D03*
D12*
X195580000Y-80010000D03*
X187960000Y-59690000D03*
X195580000Y-77470000D03*
X187960000Y-62230000D03*
X195580000Y-74930000D03*
X187960000Y-64770000D03*
X195580000Y-72390000D03*
X187960000Y-67310000D03*
X195580000Y-69850000D03*
X187960000Y-69850000D03*
X195580000Y-67310000D03*
X187960000Y-72390000D03*
X195580000Y-64770000D03*
X187960000Y-74930000D03*
X195580000Y-62230000D03*
X187960000Y-77470000D03*
X195580000Y-59690000D03*
X187960000Y-80010000D03*
X195580000Y-57150000D03*
%TD*%
D11*
%TO.C,U12*%
X73660000Y-107950000D03*
D12*
X81280000Y-123190000D03*
X73660000Y-110490000D03*
X81280000Y-120650000D03*
X73660000Y-113030000D03*
X81280000Y-118110000D03*
X73660000Y-115570000D03*
X81280000Y-115570000D03*
X73660000Y-118110000D03*
X81280000Y-113030000D03*
X73660000Y-120650000D03*
X81280000Y-110490000D03*
X73660000Y-123190000D03*
X81280000Y-107950000D03*
%TD*%
D11*
%TO.C,U11*%
X157480000Y-135890000D03*
D12*
X165100000Y-151130000D03*
X157480000Y-138430000D03*
X165100000Y-148590000D03*
X157480000Y-140970000D03*
X165100000Y-146050000D03*
X157480000Y-143510000D03*
X165100000Y-143510000D03*
X157480000Y-146050000D03*
X165100000Y-140970000D03*
X157480000Y-148590000D03*
X165100000Y-138430000D03*
X157480000Y-151130000D03*
X165100000Y-135890000D03*
%TD*%
D11*
%TO.C,U6*%
X142240000Y-21590000D03*
D12*
X149860000Y-44450000D03*
X142240000Y-24130000D03*
X149860000Y-41910000D03*
X142240000Y-26670000D03*
X149860000Y-39370000D03*
X142240000Y-29210000D03*
X149860000Y-36830000D03*
X142240000Y-31750000D03*
X149860000Y-34290000D03*
X142240000Y-34290000D03*
X149860000Y-31750000D03*
X142240000Y-36830000D03*
X149860000Y-29210000D03*
X142240000Y-39370000D03*
X149860000Y-26670000D03*
X142240000Y-41910000D03*
X149860000Y-24130000D03*
X142240000Y-44450000D03*
X149860000Y-21590000D03*
%TD*%
%TO.C,U5*%
X195580000Y-92710000D03*
X187960000Y-115570000D03*
X195580000Y-95250000D03*
X187960000Y-113030000D03*
X195580000Y-97790000D03*
X187960000Y-110490000D03*
X195580000Y-100330000D03*
X187960000Y-107950000D03*
X195580000Y-102870000D03*
X187960000Y-105410000D03*
X195580000Y-105410000D03*
X187960000Y-102870000D03*
X195580000Y-107950000D03*
X187960000Y-100330000D03*
X195580000Y-110490000D03*
X187960000Y-97790000D03*
X195580000Y-113030000D03*
X187960000Y-95250000D03*
X195580000Y-115570000D03*
D11*
X187960000Y-92710000D03*
%TD*%
D13*
%TO.C,C37*%
X34250000Y-101600000D03*
D11*
X31750000Y-101600000D03*
%TD*%
D14*
%TO.C,C34*%
X41656000Y-101600000D03*
D15*
X39656000Y-101600000D03*
%TD*%
D12*
%TO.C,U26*%
X50800000Y-163830000D03*
X43180000Y-179070000D03*
X50800000Y-166370000D03*
X43180000Y-176530000D03*
X50800000Y-168910000D03*
X43180000Y-173990000D03*
X50800000Y-171450000D03*
X43180000Y-171450000D03*
X50800000Y-173990000D03*
X43180000Y-168910000D03*
X50800000Y-176530000D03*
X43180000Y-166370000D03*
X50800000Y-179070000D03*
D11*
X43180000Y-163830000D03*
%TD*%
D16*
%TO.C,J6*%
X50800000Y-157480000D03*
X48260000Y-157480000D03*
X50800000Y-154940000D03*
X48260000Y-154940000D03*
X50800000Y-152400000D03*
X48260000Y-152400000D03*
X50800000Y-149860000D03*
X48260000Y-149860000D03*
X50800000Y-147320000D03*
X48260000Y-147320000D03*
X50800000Y-144780000D03*
X48260000Y-144780000D03*
X50800000Y-142240000D03*
X48260000Y-142240000D03*
X50800000Y-139700000D03*
D17*
X48260000Y-139700000D03*
%TD*%
D16*
%TO.C,J5*%
X110490000Y-80010000D03*
X107950000Y-80010000D03*
X110490000Y-77470000D03*
X107950000Y-77470000D03*
X110490000Y-74930000D03*
X107950000Y-74930000D03*
X110490000Y-72390000D03*
X107950000Y-72390000D03*
X110490000Y-69850000D03*
X107950000Y-69850000D03*
X110490000Y-67310000D03*
X107950000Y-67310000D03*
X110490000Y-64770000D03*
X107950000Y-64770000D03*
X110490000Y-62230000D03*
X107950000Y-62230000D03*
X110490000Y-59690000D03*
X107950000Y-59690000D03*
X110490000Y-57150000D03*
X107950000Y-57150000D03*
X110490000Y-54610000D03*
X107950000Y-54610000D03*
X110490000Y-52070000D03*
X107950000Y-52070000D03*
X110490000Y-49530000D03*
X107950000Y-49530000D03*
X110490000Y-46990000D03*
X107950000Y-46990000D03*
X110490000Y-44450000D03*
X107950000Y-44450000D03*
X110490000Y-41910000D03*
X107950000Y-41910000D03*
X110490000Y-39370000D03*
X107950000Y-39370000D03*
X110490000Y-36830000D03*
X107950000Y-36830000D03*
X110490000Y-34290000D03*
X107950000Y-34290000D03*
X110490000Y-31750000D03*
X107950000Y-31750000D03*
X110490000Y-29210000D03*
X107950000Y-29210000D03*
X110490000Y-26670000D03*
X107950000Y-26670000D03*
X110490000Y-24130000D03*
X107950000Y-24130000D03*
X110490000Y-21590000D03*
D17*
X107950000Y-21590000D03*
%TD*%
D13*
%TO.C,X1*%
X123190000Y-102870000D03*
X123190000Y-95250000D03*
X115570000Y-95250000D03*
D11*
X115570000Y-102870000D03*
%TD*%
D18*
%TO.C,U28*%
X125730000Y-58420000D03*
X123190000Y-58420000D03*
D19*
X120650000Y-58420000D03*
D20*
X123190000Y-41760000D03*
%TD*%
D12*
%TO.C,U27*%
X66040000Y-113030000D03*
X58420000Y-120650000D03*
X66040000Y-115570000D03*
X58420000Y-118110000D03*
X66040000Y-118110000D03*
X58420000Y-115570000D03*
X66040000Y-120650000D03*
D11*
X58420000Y-113030000D03*
%TD*%
%TO.C,U25*%
X142240000Y-128270000D03*
D12*
X149860000Y-151130000D03*
X142240000Y-130810000D03*
X149860000Y-148590000D03*
X142240000Y-133350000D03*
X149860000Y-146050000D03*
X142240000Y-135890000D03*
X149860000Y-143510000D03*
X142240000Y-138430000D03*
X149860000Y-140970000D03*
X142240000Y-140970000D03*
X149860000Y-138430000D03*
X142240000Y-143510000D03*
X149860000Y-135890000D03*
X142240000Y-146050000D03*
X149860000Y-133350000D03*
X142240000Y-148590000D03*
X149860000Y-130810000D03*
X142240000Y-151130000D03*
X149860000Y-128270000D03*
%TD*%
%TO.C,U24*%
X195580000Y-128270000D03*
X187960000Y-151130000D03*
X195580000Y-130810000D03*
X187960000Y-148590000D03*
X195580000Y-133350000D03*
X187960000Y-146050000D03*
X195580000Y-135890000D03*
X187960000Y-143510000D03*
X195580000Y-138430000D03*
X187960000Y-140970000D03*
X195580000Y-140970000D03*
X187960000Y-138430000D03*
X195580000Y-143510000D03*
X187960000Y-135890000D03*
X195580000Y-146050000D03*
X187960000Y-133350000D03*
X195580000Y-148590000D03*
X187960000Y-130810000D03*
X195580000Y-151130000D03*
D11*
X187960000Y-128270000D03*
%TD*%
%TO.C,U21*%
X142240000Y-57150000D03*
D12*
X149860000Y-80010000D03*
X142240000Y-59690000D03*
X149860000Y-77470000D03*
X142240000Y-62230000D03*
X149860000Y-74930000D03*
X142240000Y-64770000D03*
X149860000Y-72390000D03*
X142240000Y-67310000D03*
X149860000Y-69850000D03*
X142240000Y-69850000D03*
X149860000Y-67310000D03*
X142240000Y-72390000D03*
X149860000Y-64770000D03*
X142240000Y-74930000D03*
X149860000Y-62230000D03*
X142240000Y-77470000D03*
X149860000Y-59690000D03*
X142240000Y-80010000D03*
X149860000Y-57150000D03*
%TD*%
D11*
%TO.C,U20*%
X187960000Y-21590000D03*
D12*
X195580000Y-44450000D03*
X187960000Y-24130000D03*
X195580000Y-41910000D03*
X187960000Y-26670000D03*
X195580000Y-39370000D03*
X187960000Y-29210000D03*
X195580000Y-36830000D03*
X187960000Y-31750000D03*
X195580000Y-34290000D03*
X187960000Y-34290000D03*
X195580000Y-31750000D03*
X187960000Y-36830000D03*
X195580000Y-29210000D03*
X187960000Y-39370000D03*
X195580000Y-26670000D03*
X187960000Y-41910000D03*
X195580000Y-24130000D03*
X187960000Y-44450000D03*
X195580000Y-21590000D03*
%TD*%
D11*
%TO.C,U19*%
X73660000Y-163830000D03*
D12*
X81280000Y-179070000D03*
X73660000Y-166370000D03*
X81280000Y-176530000D03*
X73660000Y-168910000D03*
X81280000Y-173990000D03*
X73660000Y-171450000D03*
X81280000Y-171450000D03*
X73660000Y-173990000D03*
X81280000Y-168910000D03*
X73660000Y-176530000D03*
X81280000Y-166370000D03*
X73660000Y-179070000D03*
X81280000Y-163830000D03*
%TD*%
D11*
%TO.C,U18*%
X58420000Y-163830000D03*
D12*
X66040000Y-179070000D03*
X58420000Y-166370000D03*
X66040000Y-176530000D03*
X58420000Y-168910000D03*
X66040000Y-173990000D03*
X58420000Y-171450000D03*
X66040000Y-171450000D03*
X58420000Y-173990000D03*
X66040000Y-168910000D03*
X58420000Y-176530000D03*
X66040000Y-166370000D03*
X58420000Y-179070000D03*
X66040000Y-163830000D03*
%TD*%
D11*
%TO.C,U13*%
X187960000Y-163830000D03*
D12*
X195580000Y-179070000D03*
X187960000Y-166370000D03*
X195580000Y-176530000D03*
X187960000Y-168910000D03*
X195580000Y-173990000D03*
X187960000Y-171450000D03*
X195580000Y-171450000D03*
X187960000Y-173990000D03*
X195580000Y-168910000D03*
X187960000Y-176530000D03*
X195580000Y-166370000D03*
X187960000Y-179070000D03*
X195580000Y-163830000D03*
%TD*%
%TO.C,U10*%
X104140000Y-118110000D03*
X88900000Y-151130000D03*
X104140000Y-120650000D03*
X88900000Y-148590000D03*
X104140000Y-123190000D03*
X88900000Y-146050000D03*
X104140000Y-125730000D03*
X88900000Y-143510000D03*
X104140000Y-128270000D03*
X88900000Y-140970000D03*
X104140000Y-130810000D03*
X88900000Y-138430000D03*
X104140000Y-133350000D03*
X88900000Y-135890000D03*
X104140000Y-135890000D03*
X88900000Y-133350000D03*
X104140000Y-138430000D03*
X88900000Y-130810000D03*
X104140000Y-140970000D03*
X88900000Y-128270000D03*
X104140000Y-143510000D03*
X88900000Y-125730000D03*
X104140000Y-146050000D03*
X88900000Y-123190000D03*
X104140000Y-148590000D03*
X88900000Y-120650000D03*
X104140000Y-151130000D03*
D11*
X88900000Y-118110000D03*
%TD*%
%TO.C,U9*%
X142240000Y-163830000D03*
D12*
X149860000Y-179070000D03*
X142240000Y-166370000D03*
X149860000Y-176530000D03*
X142240000Y-168910000D03*
X149860000Y-173990000D03*
X142240000Y-171450000D03*
X149860000Y-171450000D03*
X142240000Y-173990000D03*
X149860000Y-168910000D03*
X142240000Y-176530000D03*
X149860000Y-166370000D03*
X142240000Y-179070000D03*
X149860000Y-163830000D03*
%TD*%
D11*
%TO.C,U4*%
X172720000Y-163830000D03*
D12*
X180340000Y-179070000D03*
X172720000Y-166370000D03*
X180340000Y-176530000D03*
X172720000Y-168910000D03*
X180340000Y-173990000D03*
X172720000Y-171450000D03*
X180340000Y-171450000D03*
X172720000Y-173990000D03*
X180340000Y-168910000D03*
X172720000Y-176530000D03*
X180340000Y-166370000D03*
X172720000Y-179070000D03*
X180340000Y-163830000D03*
%TD*%
D11*
%TO.C,U3*%
X119380000Y-163830000D03*
D12*
X127000000Y-179070000D03*
X119380000Y-166370000D03*
X127000000Y-176530000D03*
X119380000Y-168910000D03*
X127000000Y-173990000D03*
X119380000Y-171450000D03*
X127000000Y-171450000D03*
X119380000Y-173990000D03*
X127000000Y-168910000D03*
X119380000Y-176530000D03*
X127000000Y-166370000D03*
X119380000Y-179070000D03*
X127000000Y-163830000D03*
%TD*%
%TO.C,U2*%
X165100000Y-163830000D03*
X157480000Y-179070000D03*
X165100000Y-166370000D03*
X157480000Y-176530000D03*
X165100000Y-168910000D03*
X157480000Y-173990000D03*
X165100000Y-171450000D03*
X157480000Y-171450000D03*
X165100000Y-173990000D03*
X157480000Y-168910000D03*
X165100000Y-176530000D03*
X157480000Y-166370000D03*
X165100000Y-179070000D03*
D11*
X157480000Y-163830000D03*
%TD*%
D12*
%TO.C,RN4*%
X179070000Y-128270000D03*
X176530000Y-128270000D03*
X173990000Y-128270000D03*
X171450000Y-128270000D03*
X168910000Y-128270000D03*
X166370000Y-128270000D03*
X163830000Y-128270000D03*
X161290000Y-128270000D03*
D11*
X158750000Y-128270000D03*
%TD*%
D12*
%TO.C,RN3*%
X134620000Y-130810000D03*
X134620000Y-133350000D03*
X134620000Y-135890000D03*
X134620000Y-138430000D03*
X134620000Y-140970000D03*
X134620000Y-143510000D03*
X134620000Y-146050000D03*
X134620000Y-148590000D03*
D11*
X134620000Y-151130000D03*
%TD*%
D12*
%TO.C,RN2*%
X49530000Y-113030000D03*
X49530000Y-115570000D03*
X49530000Y-118110000D03*
X49530000Y-120650000D03*
X49530000Y-123190000D03*
X49530000Y-125730000D03*
X49530000Y-128270000D03*
X49530000Y-130810000D03*
D11*
X49530000Y-133350000D03*
%TD*%
D12*
%TO.C,RN1*%
X134620000Y-59690000D03*
X134620000Y-62230000D03*
X134620000Y-64770000D03*
X134620000Y-67310000D03*
X134620000Y-69850000D03*
X134620000Y-72390000D03*
X134620000Y-74930000D03*
X134620000Y-77470000D03*
D11*
X134620000Y-80010000D03*
%TD*%
D21*
%TO.C,R10*%
X179070000Y-120650000D03*
D22*
X158750000Y-120650000D03*
%TD*%
D21*
%TO.C,R9*%
X67310000Y-102870000D03*
D22*
X46990000Y-102870000D03*
%TD*%
D21*
%TO.C,R8*%
X107950000Y-102870000D03*
D22*
X87630000Y-102870000D03*
%TD*%
D21*
%TO.C,R7*%
X107950000Y-95250000D03*
D22*
X87630000Y-95250000D03*
%TD*%
D21*
%TO.C,R6*%
X67310000Y-95250000D03*
D22*
X46990000Y-95250000D03*
%TD*%
D21*
%TO.C,R5*%
X40640000Y-137160000D03*
D22*
X40640000Y-157480000D03*
%TD*%
D21*
%TO.C,R4*%
X33020000Y-137160000D03*
D22*
X33020000Y-157480000D03*
%TD*%
D21*
%TO.C,R3*%
X40640000Y-109220000D03*
D22*
X40640000Y-129540000D03*
%TD*%
D21*
%TO.C,R2*%
X33020000Y-109220000D03*
D22*
X33020000Y-129540000D03*
%TD*%
D21*
%TO.C,R1*%
X33020000Y-165100000D03*
D22*
X33020000Y-185420000D03*
%TD*%
D16*
%TO.C,J10*%
X109220000Y-110490000D03*
D17*
X106680000Y-110490000D03*
%TD*%
D16*
%TO.C,J9*%
X134620000Y-24130000D03*
D17*
X134620000Y-21590000D03*
%TD*%
%TO.C,J8*%
G36*
G01*
X117615000Y-28270000D02*
X119365000Y-28270000D01*
G75*
G02*
X120240000Y-29145000I0J-875000D01*
G01*
X120240000Y-30895000D01*
G75*
G02*
X119365000Y-31770000I-875000J0D01*
G01*
X117615000Y-31770000D01*
G75*
G02*
X116740000Y-30895000I0J875000D01*
G01*
X116740000Y-29145000D01*
G75*
G02*
X117615000Y-28270000I875000J0D01*
G01*
G37*
G36*
G01*
X122190000Y-25520000D02*
X124190000Y-25520000D01*
G75*
G02*
X124940000Y-26270000I0J-750000D01*
G01*
X124940000Y-27770000D01*
G75*
G02*
X124190000Y-28520000I-750000J0D01*
G01*
X122190000Y-28520000D01*
G75*
G02*
X121440000Y-27770000I0J750000D01*
G01*
X121440000Y-26270000D01*
G75*
G02*
X122190000Y-25520000I750000J0D01*
G01*
G37*
D23*
X123190000Y-33020000D03*
%TD*%
D16*
%TO.C,J7*%
X134620000Y-123190000D03*
X134620000Y-120650000D03*
D17*
X134620000Y-118110000D03*
%TD*%
D16*
%TO.C,J4*%
X91440000Y-80010000D03*
X88900000Y-80010000D03*
X91440000Y-77470000D03*
X88900000Y-77470000D03*
X91440000Y-74930000D03*
X88900000Y-74930000D03*
X91440000Y-72390000D03*
X88900000Y-72390000D03*
X91440000Y-69850000D03*
X88900000Y-69850000D03*
X91440000Y-67310000D03*
X88900000Y-67310000D03*
X91440000Y-64770000D03*
X88900000Y-64770000D03*
X91440000Y-62230000D03*
X88900000Y-62230000D03*
X91440000Y-59690000D03*
X88900000Y-59690000D03*
X91440000Y-57150000D03*
X88900000Y-57150000D03*
X91440000Y-54610000D03*
X88900000Y-54610000D03*
X91440000Y-52070000D03*
X88900000Y-52070000D03*
X91440000Y-49530000D03*
X88900000Y-49530000D03*
X91440000Y-46990000D03*
X88900000Y-46990000D03*
X91440000Y-44450000D03*
X88900000Y-44450000D03*
X91440000Y-41910000D03*
X88900000Y-41910000D03*
X91440000Y-39370000D03*
X88900000Y-39370000D03*
X91440000Y-36830000D03*
X88900000Y-36830000D03*
X91440000Y-34290000D03*
X88900000Y-34290000D03*
X91440000Y-31750000D03*
X88900000Y-31750000D03*
X91440000Y-29210000D03*
X88900000Y-29210000D03*
X91440000Y-26670000D03*
X88900000Y-26670000D03*
X91440000Y-24130000D03*
X88900000Y-24130000D03*
X91440000Y-21590000D03*
D17*
X88900000Y-21590000D03*
%TD*%
D16*
%TO.C,J3*%
X72390000Y-80010000D03*
X69850000Y-80010000D03*
X72390000Y-77470000D03*
X69850000Y-77470000D03*
X72390000Y-74930000D03*
X69850000Y-74930000D03*
X72390000Y-72390000D03*
X69850000Y-72390000D03*
X72390000Y-69850000D03*
X69850000Y-69850000D03*
X72390000Y-67310000D03*
X69850000Y-67310000D03*
X72390000Y-64770000D03*
X69850000Y-64770000D03*
X72390000Y-62230000D03*
X69850000Y-62230000D03*
X72390000Y-59690000D03*
X69850000Y-59690000D03*
X72390000Y-57150000D03*
X69850000Y-57150000D03*
X72390000Y-54610000D03*
X69850000Y-54610000D03*
X72390000Y-52070000D03*
X69850000Y-52070000D03*
X72390000Y-49530000D03*
X69850000Y-49530000D03*
X72390000Y-46990000D03*
X69850000Y-46990000D03*
X72390000Y-44450000D03*
X69850000Y-44450000D03*
X72390000Y-41910000D03*
X69850000Y-41910000D03*
X72390000Y-39370000D03*
X69850000Y-39370000D03*
X72390000Y-36830000D03*
X69850000Y-36830000D03*
X72390000Y-34290000D03*
X69850000Y-34290000D03*
X72390000Y-31750000D03*
X69850000Y-31750000D03*
X72390000Y-29210000D03*
X69850000Y-29210000D03*
X72390000Y-26670000D03*
X69850000Y-26670000D03*
X72390000Y-24130000D03*
X69850000Y-24130000D03*
X72390000Y-21590000D03*
D17*
X69850000Y-21590000D03*
%TD*%
D16*
%TO.C,J2*%
X53340000Y-80010000D03*
X50800000Y-80010000D03*
X53340000Y-77470000D03*
X50800000Y-77470000D03*
X53340000Y-74930000D03*
X50800000Y-74930000D03*
X53340000Y-72390000D03*
X50800000Y-72390000D03*
X53340000Y-69850000D03*
X50800000Y-69850000D03*
X53340000Y-67310000D03*
X50800000Y-67310000D03*
X53340000Y-64770000D03*
X50800000Y-64770000D03*
X53340000Y-62230000D03*
X50800000Y-62230000D03*
X53340000Y-59690000D03*
X50800000Y-59690000D03*
X53340000Y-57150000D03*
X50800000Y-57150000D03*
X53340000Y-54610000D03*
X50800000Y-54610000D03*
X53340000Y-52070000D03*
X50800000Y-52070000D03*
X53340000Y-49530000D03*
X50800000Y-49530000D03*
X53340000Y-46990000D03*
X50800000Y-46990000D03*
X53340000Y-44450000D03*
X50800000Y-44450000D03*
X53340000Y-41910000D03*
X50800000Y-41910000D03*
X53340000Y-39370000D03*
X50800000Y-39370000D03*
X53340000Y-36830000D03*
X50800000Y-36830000D03*
X53340000Y-34290000D03*
X50800000Y-34290000D03*
X53340000Y-31750000D03*
X50800000Y-31750000D03*
X53340000Y-29210000D03*
X50800000Y-29210000D03*
X53340000Y-26670000D03*
X50800000Y-26670000D03*
X53340000Y-24130000D03*
X50800000Y-24130000D03*
X53340000Y-21590000D03*
D17*
X50800000Y-21590000D03*
%TD*%
D16*
%TO.C,J1*%
X34290000Y-85090000D03*
X31750000Y-85090000D03*
X34290000Y-82550000D03*
X31750000Y-82550000D03*
X34290000Y-80010000D03*
X31750000Y-80010000D03*
X34290000Y-77470000D03*
X31750000Y-77470000D03*
X34290000Y-74930000D03*
X31750000Y-74930000D03*
X34290000Y-72390000D03*
X31750000Y-72390000D03*
X34290000Y-69850000D03*
X31750000Y-69850000D03*
X34290000Y-67310000D03*
X31750000Y-67310000D03*
X34290000Y-64770000D03*
X31750000Y-64770000D03*
X34290000Y-62230000D03*
X31750000Y-62230000D03*
X34290000Y-59690000D03*
X31750000Y-59690000D03*
X34290000Y-57150000D03*
X31750000Y-57150000D03*
X34290000Y-54610000D03*
X31750000Y-54610000D03*
X34290000Y-52070000D03*
X31750000Y-52070000D03*
X34290000Y-49530000D03*
X31750000Y-49530000D03*
X34290000Y-46990000D03*
X31750000Y-46990000D03*
X34290000Y-44450000D03*
X31750000Y-44450000D03*
X34290000Y-41910000D03*
X31750000Y-41910000D03*
X34290000Y-39370000D03*
X31750000Y-39370000D03*
X34290000Y-36830000D03*
X31750000Y-36830000D03*
X34290000Y-34290000D03*
X31750000Y-34290000D03*
X34290000Y-31750000D03*
X31750000Y-31750000D03*
X34290000Y-29210000D03*
X31750000Y-29210000D03*
X34290000Y-26670000D03*
X31750000Y-26670000D03*
X34290000Y-24130000D03*
X31750000Y-24130000D03*
X34290000Y-21590000D03*
D17*
X31750000Y-21590000D03*
%TD*%
D24*
%TO.C,D2*%
X170180000Y-111760000D03*
D25*
X167640000Y-111760000D03*
%TD*%
D26*
%TO.C,D1*%
X134620000Y-34290000D03*
D27*
X134620000Y-44450000D03*
%TD*%
D14*
%TO.C,C40*%
X124174000Y-76200000D03*
D15*
X122174000Y-76200000D03*
%TD*%
D13*
%TO.C,C39*%
X125650000Y-86360000D03*
X120650000Y-86360000D03*
%TD*%
%TO.C,C38*%
X137080000Y-86360000D03*
X132080000Y-86360000D03*
%TD*%
%TO.C,C36*%
X124420000Y-67310000D03*
D11*
X121920000Y-67310000D03*
%TD*%
D13*
%TO.C,C35*%
X79930000Y-99060000D03*
X74930000Y-99060000D03*
%TD*%
%TO.C,C33*%
X121840000Y-157480000D03*
X116840000Y-157480000D03*
%TD*%
%TO.C,C32*%
X125650000Y-185420000D03*
X120650000Y-185420000D03*
%TD*%
%TO.C,C31*%
X79930000Y-157480000D03*
X74930000Y-157480000D03*
%TD*%
%TO.C,C30*%
X49450000Y-185420000D03*
X44450000Y-185420000D03*
%TD*%
%TO.C,C29*%
X148510000Y-185420000D03*
X143510000Y-185420000D03*
%TD*%
%TO.C,C28*%
X95170000Y-185420000D03*
X90170000Y-185420000D03*
%TD*%
%TO.C,C27*%
X163750000Y-185420000D03*
X158750000Y-185420000D03*
%TD*%
%TO.C,C26*%
X79930000Y-185420000D03*
X74930000Y-185420000D03*
%TD*%
%TO.C,C25*%
X178990000Y-157480000D03*
X173990000Y-157480000D03*
%TD*%
%TO.C,C24*%
X73580000Y-86360000D03*
X68580000Y-86360000D03*
%TD*%
%TO.C,C23*%
X148510000Y-86360000D03*
X143510000Y-86360000D03*
%TD*%
%TO.C,C22*%
X194230000Y-157480000D03*
X189230000Y-157480000D03*
%TD*%
%TO.C,C21*%
X111680000Y-86360000D03*
X106680000Y-86360000D03*
%TD*%
%TO.C,C20*%
X194230000Y-86360000D03*
X189230000Y-86360000D03*
%TD*%
%TO.C,C19*%
X64690000Y-127000000D03*
X59690000Y-127000000D03*
%TD*%
%TO.C,C18*%
X92630000Y-86360000D03*
X87630000Y-86360000D03*
%TD*%
%TO.C,C17*%
X64690000Y-157480000D03*
X59690000Y-157480000D03*
%TD*%
%TO.C,C16*%
X194230000Y-185420000D03*
X189230000Y-185420000D03*
%TD*%
%TO.C,C15*%
X35810000Y-91960000D03*
X30810000Y-91960000D03*
%TD*%
%TO.C,C14*%
X64690000Y-185420000D03*
X59690000Y-185420000D03*
%TD*%
%TO.C,C13*%
X178990000Y-185420000D03*
X173990000Y-185420000D03*
%TD*%
%TO.C,C12*%
X194230000Y-50800000D03*
X189230000Y-50800000D03*
%TD*%
%TO.C,C11*%
X98980000Y-157480000D03*
X93980000Y-157480000D03*
%TD*%
%TO.C,C10*%
X79930000Y-129540000D03*
X74930000Y-129540000D03*
%TD*%
%TO.C,C9*%
X163750000Y-157480000D03*
X158750000Y-157480000D03*
%TD*%
%TO.C,C8*%
X194230000Y-121920000D03*
X189230000Y-121920000D03*
%TD*%
%TO.C,C7*%
X54530000Y-86360000D03*
X49530000Y-86360000D03*
%TD*%
%TO.C,C6*%
X148510000Y-50800000D03*
X143510000Y-50800000D03*
%TD*%
%TO.C,C5*%
X148510000Y-157480000D03*
X143510000Y-157480000D03*
%TD*%
%TO.C,C4*%
X110410000Y-185420000D03*
X105410000Y-185420000D03*
%TD*%
%TO.C,C3*%
X148510000Y-121920000D03*
X143510000Y-121920000D03*
%TD*%
%TO.C,C2*%
X180260000Y-106680000D03*
X175260000Y-106680000D03*
%TD*%
%TO.C,C1*%
X162480000Y-106680000D03*
X157480000Y-106680000D03*
%TD*%
M02*
