G04 #@! TF.GenerationSoftware,KiCad,Pcbnew,5.1.5*
G04 #@! TF.CreationDate,2020-09-25T13:07:15+03:00*
G04 #@! TF.ProjectId,motherboard,6d6f7468-6572-4626-9f61-72642e6b6963,rev?*
G04 #@! TF.SameCoordinates,Original*
G04 #@! TF.FileFunction,Legend,Top*
G04 #@! TF.FilePolarity,Positive*
%FSLAX46Y46*%
G04 Gerber Fmt 4.6, Leading zero omitted, Abs format (unit mm)*
G04 Created by KiCad (PCBNEW 5.1.5) date 2020-09-25 13:07:15*
%MOMM*%
%LPD*%
G04 APERTURE LIST*
%ADD10C,0.120000*%
%ADD11C,0.150000*%
G04 APERTURE END LIST*
D10*
X204470000Y-92075000D02*
X208915000Y-92075000D01*
X204470000Y-98425000D02*
X208915000Y-98425000D01*
X204470000Y-98425000D02*
G75*
G02X204470000Y-92075000I0J3175000D01*
G01*
X205740000Y-104775000D02*
X201295000Y-104775000D01*
X205740000Y-111125000D02*
X201295000Y-111125000D01*
X205740000Y-104775000D02*
G75*
G02X205740000Y-111125000I0J-3175000D01*
G01*
X208915000Y-101600000D02*
X208915000Y-99695000D01*
X205105000Y-101600000D02*
X205105000Y-99695000D01*
X201295000Y-101600000D02*
X201295000Y-99695000D01*
X208915000Y-101600000D02*
G75*
G02X205105000Y-101600000I-1905000J0D01*
G01*
X205105000Y-101600000D02*
G75*
G02X201295000Y-101600000I-1905000J0D01*
G01*
X208915000Y-114300000D02*
X208915000Y-116205000D01*
X201295000Y-114300000D02*
X201295000Y-112395000D01*
X205105000Y-114300000D02*
G75*
G02X208915000Y-114300000I1905000J0D01*
G01*
X205105000Y-114300000D02*
G75*
G02X201295000Y-114300000I-1905000J0D01*
G01*
D11*
X131699047Y-24201428D02*
X132460952Y-24201428D01*
X131699047Y-21661428D02*
X132460952Y-21661428D01*
X132080000Y-22042380D02*
X132080000Y-21280476D01*
X45386666Y-156932380D02*
X46053333Y-156932380D01*
X45624761Y-157932380D01*
X45910476Y-154392380D02*
X45720000Y-154392380D01*
X45624761Y-154440000D01*
X45577142Y-154487619D01*
X45481904Y-154630476D01*
X45434285Y-154820952D01*
X45434285Y-155201904D01*
X45481904Y-155297142D01*
X45529523Y-155344761D01*
X45624761Y-155392380D01*
X45815238Y-155392380D01*
X45910476Y-155344761D01*
X45958095Y-155297142D01*
X46005714Y-155201904D01*
X46005714Y-154963809D01*
X45958095Y-154868571D01*
X45910476Y-154820952D01*
X45815238Y-154773333D01*
X45624761Y-154773333D01*
X45529523Y-154820952D01*
X45481904Y-154868571D01*
X45434285Y-154963809D01*
X45958095Y-151852380D02*
X45481904Y-151852380D01*
X45434285Y-152328571D01*
X45481904Y-152280952D01*
X45577142Y-152233333D01*
X45815238Y-152233333D01*
X45910476Y-152280952D01*
X45958095Y-152328571D01*
X46005714Y-152423809D01*
X46005714Y-152661904D01*
X45958095Y-152757142D01*
X45910476Y-152804761D01*
X45815238Y-152852380D01*
X45577142Y-152852380D01*
X45481904Y-152804761D01*
X45434285Y-152757142D01*
X45910476Y-149645714D02*
X45910476Y-150312380D01*
X45672380Y-149264761D02*
X45434285Y-149979047D01*
X46053333Y-149979047D01*
X45386666Y-146772380D02*
X46005714Y-146772380D01*
X45672380Y-147153333D01*
X45815238Y-147153333D01*
X45910476Y-147200952D01*
X45958095Y-147248571D01*
X46005714Y-147343809D01*
X46005714Y-147581904D01*
X45958095Y-147677142D01*
X45910476Y-147724761D01*
X45815238Y-147772380D01*
X45529523Y-147772380D01*
X45434285Y-147724761D01*
X45386666Y-147677142D01*
X45434285Y-144327619D02*
X45481904Y-144280000D01*
X45577142Y-144232380D01*
X45815238Y-144232380D01*
X45910476Y-144280000D01*
X45958095Y-144327619D01*
X46005714Y-144422857D01*
X46005714Y-144518095D01*
X45958095Y-144660952D01*
X45386666Y-145232380D01*
X46005714Y-145232380D01*
X46005714Y-142692380D02*
X45434285Y-142692380D01*
X45720000Y-142692380D02*
X45720000Y-141692380D01*
X45624761Y-141835238D01*
X45529523Y-141930476D01*
X45434285Y-141978095D01*
X45672380Y-139152380D02*
X45767619Y-139152380D01*
X45862857Y-139200000D01*
X45910476Y-139247619D01*
X45958095Y-139342857D01*
X46005714Y-139533333D01*
X46005714Y-139771428D01*
X45958095Y-139961904D01*
X45910476Y-140057142D01*
X45862857Y-140104761D01*
X45767619Y-140152380D01*
X45672380Y-140152380D01*
X45577142Y-140104761D01*
X45529523Y-140057142D01*
X45481904Y-139961904D01*
X45434285Y-139771428D01*
X45434285Y-139533333D01*
X45481904Y-139342857D01*
X45529523Y-139247619D01*
X45577142Y-139200000D01*
X45672380Y-139152380D01*
D10*
X181670000Y-134500000D02*
X171390000Y-134500000D01*
X181670000Y-152520000D02*
X181670000Y-134500000D01*
X171390000Y-152520000D02*
X181670000Y-152520000D01*
X171390000Y-134500000D02*
X171390000Y-152520000D01*
X179180000Y-134560000D02*
X177530000Y-134560000D01*
X179180000Y-152460000D02*
X179180000Y-134560000D01*
X173880000Y-152460000D02*
X179180000Y-152460000D01*
X173880000Y-134560000D02*
X173880000Y-152460000D01*
X175530000Y-134560000D02*
X173880000Y-134560000D01*
X177530000Y-134560000D02*
G75*
G02X175530000Y-134560000I-1000000J0D01*
G01*
X97850000Y-162440000D02*
X87570000Y-162440000D01*
X97850000Y-180460000D02*
X97850000Y-162440000D01*
X87570000Y-180460000D02*
X97850000Y-180460000D01*
X87570000Y-162440000D02*
X87570000Y-180460000D01*
X95360000Y-162500000D02*
X93710000Y-162500000D01*
X95360000Y-180400000D02*
X95360000Y-162500000D01*
X90060000Y-180400000D02*
X95360000Y-180400000D01*
X90060000Y-162500000D02*
X90060000Y-180400000D01*
X91710000Y-162500000D02*
X90060000Y-162500000D01*
X93710000Y-162500000D02*
G75*
G02X91710000Y-162500000I-1000000J0D01*
G01*
X113090000Y-162440000D02*
X102810000Y-162440000D01*
X113090000Y-180460000D02*
X113090000Y-162440000D01*
X102810000Y-180460000D02*
X113090000Y-180460000D01*
X102810000Y-162440000D02*
X102810000Y-180460000D01*
X110600000Y-162500000D02*
X108950000Y-162500000D01*
X110600000Y-180400000D02*
X110600000Y-162500000D01*
X105300000Y-180400000D02*
X110600000Y-180400000D01*
X105300000Y-162500000D02*
X105300000Y-180400000D01*
X106950000Y-162500000D02*
X105300000Y-162500000D01*
X108950000Y-162500000D02*
G75*
G02X106950000Y-162500000I-1000000J0D01*
G01*
X67370000Y-131960000D02*
X57090000Y-131960000D01*
X67370000Y-152520000D02*
X67370000Y-131960000D01*
X57090000Y-152520000D02*
X67370000Y-152520000D01*
X57090000Y-131960000D02*
X57090000Y-152520000D01*
X64880000Y-132020000D02*
X63230000Y-132020000D01*
X64880000Y-152460000D02*
X64880000Y-132020000D01*
X59580000Y-152460000D02*
X64880000Y-152460000D01*
X59580000Y-132020000D02*
X59580000Y-152460000D01*
X61230000Y-132020000D02*
X59580000Y-132020000D01*
X63230000Y-132020000D02*
G75*
G02X61230000Y-132020000I-1000000J0D01*
G01*
X181670000Y-20200000D02*
X156150000Y-20200000D01*
X181670000Y-101720000D02*
X181670000Y-20200000D01*
X156150000Y-101720000D02*
X181670000Y-101720000D01*
X156150000Y-20200000D02*
X156150000Y-101720000D01*
X179180000Y-20260000D02*
X169910000Y-20260000D01*
X179180000Y-101660000D02*
X179180000Y-20260000D01*
X158640000Y-101660000D02*
X179180000Y-101660000D01*
X158640000Y-20260000D02*
X158640000Y-101660000D01*
X167910000Y-20260000D02*
X158640000Y-20260000D01*
X169910000Y-20260000D02*
G75*
G02X167910000Y-20260000I-1000000J0D01*
G01*
X128330000Y-116720000D02*
X110430000Y-116720000D01*
X128330000Y-152520000D02*
X128330000Y-116720000D01*
X110430000Y-152520000D02*
X128330000Y-152520000D01*
X110430000Y-116720000D02*
X110430000Y-152520000D01*
X125840000Y-116780000D02*
X120380000Y-116780000D01*
X125840000Y-152460000D02*
X125840000Y-116780000D01*
X112920000Y-152460000D02*
X125840000Y-152460000D01*
X112920000Y-116780000D02*
X112920000Y-152460000D01*
X118380000Y-116780000D02*
X112920000Y-116780000D01*
X120380000Y-116780000D02*
G75*
G02X118380000Y-116780000I-1000000J0D01*
G01*
X82610000Y-134500000D02*
X72330000Y-134500000D01*
X82610000Y-152520000D02*
X82610000Y-134500000D01*
X72330000Y-152520000D02*
X82610000Y-152520000D01*
X72330000Y-134500000D02*
X72330000Y-152520000D01*
X80120000Y-134560000D02*
X78470000Y-134560000D01*
X80120000Y-152460000D02*
X80120000Y-134560000D01*
X74820000Y-152460000D02*
X80120000Y-152460000D01*
X74820000Y-134560000D02*
X74820000Y-152460000D01*
X76470000Y-134560000D02*
X74820000Y-134560000D01*
X78470000Y-134560000D02*
G75*
G02X76470000Y-134560000I-1000000J0D01*
G01*
X151190000Y-91320000D02*
X140910000Y-91320000D01*
X151190000Y-116960000D02*
X151190000Y-91320000D01*
X140910000Y-116960000D02*
X151190000Y-116960000D01*
X140910000Y-91320000D02*
X140910000Y-116960000D01*
X148700000Y-91380000D02*
X147050000Y-91380000D01*
X148700000Y-116900000D02*
X148700000Y-91380000D01*
X143400000Y-116900000D02*
X148700000Y-116900000D01*
X143400000Y-91380000D02*
X143400000Y-116900000D01*
X145050000Y-91380000D02*
X143400000Y-91380000D01*
X147050000Y-91380000D02*
G75*
G02X145050000Y-91380000I-1000000J0D01*
G01*
X196910000Y-55760000D02*
X186630000Y-55760000D01*
X196910000Y-81400000D02*
X196910000Y-55760000D01*
X186630000Y-81400000D02*
X196910000Y-81400000D01*
X186630000Y-55760000D02*
X186630000Y-81400000D01*
X194420000Y-55820000D02*
X192770000Y-55820000D01*
X194420000Y-81340000D02*
X194420000Y-55820000D01*
X189120000Y-81340000D02*
X194420000Y-81340000D01*
X189120000Y-55820000D02*
X189120000Y-81340000D01*
X190770000Y-55820000D02*
X189120000Y-55820000D01*
X192770000Y-55820000D02*
G75*
G02X190770000Y-55820000I-1000000J0D01*
G01*
X82610000Y-106560000D02*
X72330000Y-106560000D01*
X82610000Y-124580000D02*
X82610000Y-106560000D01*
X72330000Y-124580000D02*
X82610000Y-124580000D01*
X72330000Y-106560000D02*
X72330000Y-124580000D01*
X80120000Y-106620000D02*
X78470000Y-106620000D01*
X80120000Y-124520000D02*
X80120000Y-106620000D01*
X74820000Y-124520000D02*
X80120000Y-124520000D01*
X74820000Y-106620000D02*
X74820000Y-124520000D01*
X76470000Y-106620000D02*
X74820000Y-106620000D01*
X78470000Y-106620000D02*
G75*
G02X76470000Y-106620000I-1000000J0D01*
G01*
X166430000Y-134500000D02*
X156150000Y-134500000D01*
X166430000Y-152520000D02*
X166430000Y-134500000D01*
X156150000Y-152520000D02*
X166430000Y-152520000D01*
X156150000Y-134500000D02*
X156150000Y-152520000D01*
X163940000Y-134560000D02*
X162290000Y-134560000D01*
X163940000Y-152460000D02*
X163940000Y-134560000D01*
X158640000Y-152460000D02*
X163940000Y-152460000D01*
X158640000Y-134560000D02*
X158640000Y-152460000D01*
X160290000Y-134560000D02*
X158640000Y-134560000D01*
X162290000Y-134560000D02*
G75*
G02X160290000Y-134560000I-1000000J0D01*
G01*
X151190000Y-20200000D02*
X140910000Y-20200000D01*
X151190000Y-45840000D02*
X151190000Y-20200000D01*
X140910000Y-45840000D02*
X151190000Y-45840000D01*
X140910000Y-20200000D02*
X140910000Y-45840000D01*
X148700000Y-20260000D02*
X147050000Y-20260000D01*
X148700000Y-45780000D02*
X148700000Y-20260000D01*
X143400000Y-45780000D02*
X148700000Y-45780000D01*
X143400000Y-20260000D02*
X143400000Y-45780000D01*
X145050000Y-20260000D02*
X143400000Y-20260000D01*
X147050000Y-20260000D02*
G75*
G02X145050000Y-20260000I-1000000J0D01*
G01*
X196910000Y-91320000D02*
X186630000Y-91320000D01*
X196910000Y-116960000D02*
X196910000Y-91320000D01*
X186630000Y-116960000D02*
X196910000Y-116960000D01*
X186630000Y-91320000D02*
X186630000Y-116960000D01*
X194420000Y-91380000D02*
X192770000Y-91380000D01*
X194420000Y-116900000D02*
X194420000Y-91380000D01*
X189120000Y-116900000D02*
X194420000Y-116900000D01*
X189120000Y-91380000D02*
X189120000Y-116900000D01*
X190770000Y-91380000D02*
X189120000Y-91380000D01*
X192770000Y-91380000D02*
G75*
G02X190770000Y-91380000I-1000000J0D01*
G01*
X30445225Y-99875000D02*
X30445225Y-100375000D01*
X30195225Y-100125000D02*
X30695225Y-100125000D01*
X35601000Y-101316000D02*
X35601000Y-101884000D01*
X35561000Y-101082000D02*
X35561000Y-102118000D01*
X35521000Y-100923000D02*
X35521000Y-102277000D01*
X35481000Y-100795000D02*
X35481000Y-102405000D01*
X35441000Y-100685000D02*
X35441000Y-102515000D01*
X35401000Y-100589000D02*
X35401000Y-102611000D01*
X35361000Y-100502000D02*
X35361000Y-102698000D01*
X35321000Y-100422000D02*
X35321000Y-102778000D01*
X35281000Y-102640000D02*
X35281000Y-102851000D01*
X35281000Y-100349000D02*
X35281000Y-100560000D01*
X35241000Y-102640000D02*
X35241000Y-102919000D01*
X35241000Y-100281000D02*
X35241000Y-100560000D01*
X35201000Y-102640000D02*
X35201000Y-102983000D01*
X35201000Y-100217000D02*
X35201000Y-100560000D01*
X35161000Y-102640000D02*
X35161000Y-103043000D01*
X35161000Y-100157000D02*
X35161000Y-100560000D01*
X35121000Y-102640000D02*
X35121000Y-103100000D01*
X35121000Y-100100000D02*
X35121000Y-100560000D01*
X35081000Y-102640000D02*
X35081000Y-103154000D01*
X35081000Y-100046000D02*
X35081000Y-100560000D01*
X35041000Y-102640000D02*
X35041000Y-103205000D01*
X35041000Y-99995000D02*
X35041000Y-100560000D01*
X35001000Y-102640000D02*
X35001000Y-103253000D01*
X35001000Y-99947000D02*
X35001000Y-100560000D01*
X34961000Y-102640000D02*
X34961000Y-103299000D01*
X34961000Y-99901000D02*
X34961000Y-100560000D01*
X34921000Y-102640000D02*
X34921000Y-103343000D01*
X34921000Y-99857000D02*
X34921000Y-100560000D01*
X34881000Y-102640000D02*
X34881000Y-103385000D01*
X34881000Y-99815000D02*
X34881000Y-100560000D01*
X34841000Y-102640000D02*
X34841000Y-103426000D01*
X34841000Y-99774000D02*
X34841000Y-100560000D01*
X34801000Y-102640000D02*
X34801000Y-103464000D01*
X34801000Y-99736000D02*
X34801000Y-100560000D01*
X34761000Y-102640000D02*
X34761000Y-103501000D01*
X34761000Y-99699000D02*
X34761000Y-100560000D01*
X34721000Y-102640000D02*
X34721000Y-103537000D01*
X34721000Y-99663000D02*
X34721000Y-100560000D01*
X34681000Y-102640000D02*
X34681000Y-103571000D01*
X34681000Y-99629000D02*
X34681000Y-100560000D01*
X34641000Y-102640000D02*
X34641000Y-103604000D01*
X34641000Y-99596000D02*
X34641000Y-100560000D01*
X34601000Y-102640000D02*
X34601000Y-103635000D01*
X34601000Y-99565000D02*
X34601000Y-100560000D01*
X34561000Y-102640000D02*
X34561000Y-103665000D01*
X34561000Y-99535000D02*
X34561000Y-100560000D01*
X34521000Y-102640000D02*
X34521000Y-103695000D01*
X34521000Y-99505000D02*
X34521000Y-100560000D01*
X34481000Y-102640000D02*
X34481000Y-103722000D01*
X34481000Y-99478000D02*
X34481000Y-100560000D01*
X34441000Y-102640000D02*
X34441000Y-103749000D01*
X34441000Y-99451000D02*
X34441000Y-100560000D01*
X34401000Y-102640000D02*
X34401000Y-103775000D01*
X34401000Y-99425000D02*
X34401000Y-100560000D01*
X34361000Y-102640000D02*
X34361000Y-103800000D01*
X34361000Y-99400000D02*
X34361000Y-100560000D01*
X34321000Y-102640000D02*
X34321000Y-103824000D01*
X34321000Y-99376000D02*
X34321000Y-100560000D01*
X34281000Y-102640000D02*
X34281000Y-103847000D01*
X34281000Y-99353000D02*
X34281000Y-100560000D01*
X34241000Y-102640000D02*
X34241000Y-103868000D01*
X34241000Y-99332000D02*
X34241000Y-100560000D01*
X34201000Y-102640000D02*
X34201000Y-103890000D01*
X34201000Y-99310000D02*
X34201000Y-100560000D01*
X34161000Y-102640000D02*
X34161000Y-103910000D01*
X34161000Y-99290000D02*
X34161000Y-100560000D01*
X34121000Y-102640000D02*
X34121000Y-103929000D01*
X34121000Y-99271000D02*
X34121000Y-100560000D01*
X34081000Y-102640000D02*
X34081000Y-103948000D01*
X34081000Y-99252000D02*
X34081000Y-100560000D01*
X34041000Y-102640000D02*
X34041000Y-103965000D01*
X34041000Y-99235000D02*
X34041000Y-100560000D01*
X34001000Y-102640000D02*
X34001000Y-103982000D01*
X34001000Y-99218000D02*
X34001000Y-100560000D01*
X33961000Y-102640000D02*
X33961000Y-103998000D01*
X33961000Y-99202000D02*
X33961000Y-100560000D01*
X33921000Y-102640000D02*
X33921000Y-104014000D01*
X33921000Y-99186000D02*
X33921000Y-100560000D01*
X33881000Y-102640000D02*
X33881000Y-104028000D01*
X33881000Y-99172000D02*
X33881000Y-100560000D01*
X33841000Y-102640000D02*
X33841000Y-104042000D01*
X33841000Y-99158000D02*
X33841000Y-100560000D01*
X33801000Y-102640000D02*
X33801000Y-104055000D01*
X33801000Y-99145000D02*
X33801000Y-100560000D01*
X33761000Y-102640000D02*
X33761000Y-104068000D01*
X33761000Y-99132000D02*
X33761000Y-100560000D01*
X33721000Y-102640000D02*
X33721000Y-104080000D01*
X33721000Y-99120000D02*
X33721000Y-100560000D01*
X33680000Y-102640000D02*
X33680000Y-104091000D01*
X33680000Y-99109000D02*
X33680000Y-100560000D01*
X33640000Y-102640000D02*
X33640000Y-104101000D01*
X33640000Y-99099000D02*
X33640000Y-100560000D01*
X33600000Y-102640000D02*
X33600000Y-104111000D01*
X33600000Y-99089000D02*
X33600000Y-100560000D01*
X33560000Y-102640000D02*
X33560000Y-104120000D01*
X33560000Y-99080000D02*
X33560000Y-100560000D01*
X33520000Y-102640000D02*
X33520000Y-104128000D01*
X33520000Y-99072000D02*
X33520000Y-100560000D01*
X33480000Y-102640000D02*
X33480000Y-104136000D01*
X33480000Y-99064000D02*
X33480000Y-100560000D01*
X33440000Y-102640000D02*
X33440000Y-104143000D01*
X33440000Y-99057000D02*
X33440000Y-100560000D01*
X33400000Y-102640000D02*
X33400000Y-104150000D01*
X33400000Y-99050000D02*
X33400000Y-100560000D01*
X33360000Y-102640000D02*
X33360000Y-104156000D01*
X33360000Y-99044000D02*
X33360000Y-100560000D01*
X33320000Y-102640000D02*
X33320000Y-104161000D01*
X33320000Y-99039000D02*
X33320000Y-100560000D01*
X33280000Y-102640000D02*
X33280000Y-104165000D01*
X33280000Y-99035000D02*
X33280000Y-100560000D01*
X33240000Y-102640000D02*
X33240000Y-104169000D01*
X33240000Y-99031000D02*
X33240000Y-100560000D01*
X33200000Y-99027000D02*
X33200000Y-104173000D01*
X33160000Y-99024000D02*
X33160000Y-104176000D01*
X33120000Y-99022000D02*
X33120000Y-104178000D01*
X33080000Y-99021000D02*
X33080000Y-104179000D01*
X33040000Y-99020000D02*
X33040000Y-104180000D01*
X33000000Y-99020000D02*
X33000000Y-104180000D01*
X35620000Y-101600000D02*
G75*
G03X35620000Y-101600000I-2620000J0D01*
G01*
X38586199Y-100205000D02*
X38586199Y-100605000D01*
X38386199Y-100405000D02*
X38786199Y-100405000D01*
X42737000Y-101230000D02*
X42737000Y-101970000D01*
X42697000Y-101063000D02*
X42697000Y-102137000D01*
X42657000Y-100936000D02*
X42657000Y-102264000D01*
X42617000Y-100832000D02*
X42617000Y-102368000D01*
X42577000Y-100741000D02*
X42577000Y-102459000D01*
X42537000Y-100660000D02*
X42537000Y-102540000D01*
X42497000Y-100587000D02*
X42497000Y-102613000D01*
X42457000Y-102440000D02*
X42457000Y-102680000D01*
X42457000Y-100520000D02*
X42457000Y-100760000D01*
X42417000Y-102440000D02*
X42417000Y-102742000D01*
X42417000Y-100458000D02*
X42417000Y-100760000D01*
X42377000Y-102440000D02*
X42377000Y-102800000D01*
X42377000Y-100400000D02*
X42377000Y-100760000D01*
X42337000Y-102440000D02*
X42337000Y-102854000D01*
X42337000Y-100346000D02*
X42337000Y-100760000D01*
X42297000Y-102440000D02*
X42297000Y-102904000D01*
X42297000Y-100296000D02*
X42297000Y-100760000D01*
X42257000Y-102440000D02*
X42257000Y-102951000D01*
X42257000Y-100249000D02*
X42257000Y-100760000D01*
X42217000Y-102440000D02*
X42217000Y-102996000D01*
X42217000Y-100204000D02*
X42217000Y-100760000D01*
X42177000Y-102440000D02*
X42177000Y-103038000D01*
X42177000Y-100162000D02*
X42177000Y-100760000D01*
X42137000Y-102440000D02*
X42137000Y-103078000D01*
X42137000Y-100122000D02*
X42137000Y-100760000D01*
X42097000Y-102440000D02*
X42097000Y-103116000D01*
X42097000Y-100084000D02*
X42097000Y-100760000D01*
X42057000Y-102440000D02*
X42057000Y-103152000D01*
X42057000Y-100048000D02*
X42057000Y-100760000D01*
X42017000Y-102440000D02*
X42017000Y-103187000D01*
X42017000Y-100013000D02*
X42017000Y-100760000D01*
X41977000Y-102440000D02*
X41977000Y-103219000D01*
X41977000Y-99981000D02*
X41977000Y-100760000D01*
X41937000Y-102440000D02*
X41937000Y-103250000D01*
X41937000Y-99950000D02*
X41937000Y-100760000D01*
X41897000Y-102440000D02*
X41897000Y-103280000D01*
X41897000Y-99920000D02*
X41897000Y-100760000D01*
X41857000Y-102440000D02*
X41857000Y-103308000D01*
X41857000Y-99892000D02*
X41857000Y-100760000D01*
X41817000Y-102440000D02*
X41817000Y-103335000D01*
X41817000Y-99865000D02*
X41817000Y-100760000D01*
X41777000Y-102440000D02*
X41777000Y-103360000D01*
X41777000Y-99840000D02*
X41777000Y-100760000D01*
X41737000Y-102440000D02*
X41737000Y-103385000D01*
X41737000Y-99815000D02*
X41737000Y-100760000D01*
X41697000Y-102440000D02*
X41697000Y-103408000D01*
X41697000Y-99792000D02*
X41697000Y-100760000D01*
X41657000Y-102440000D02*
X41657000Y-103430000D01*
X41657000Y-99770000D02*
X41657000Y-100760000D01*
X41617000Y-102440000D02*
X41617000Y-103451000D01*
X41617000Y-99749000D02*
X41617000Y-100760000D01*
X41577000Y-102440000D02*
X41577000Y-103470000D01*
X41577000Y-99730000D02*
X41577000Y-100760000D01*
X41537000Y-102440000D02*
X41537000Y-103489000D01*
X41537000Y-99711000D02*
X41537000Y-100760000D01*
X41497000Y-102440000D02*
X41497000Y-103507000D01*
X41497000Y-99693000D02*
X41497000Y-100760000D01*
X41457000Y-102440000D02*
X41457000Y-103524000D01*
X41457000Y-99676000D02*
X41457000Y-100760000D01*
X41417000Y-102440000D02*
X41417000Y-103540000D01*
X41417000Y-99660000D02*
X41417000Y-100760000D01*
X41377000Y-102440000D02*
X41377000Y-103554000D01*
X41377000Y-99646000D02*
X41377000Y-100760000D01*
X41336000Y-102440000D02*
X41336000Y-103568000D01*
X41336000Y-99632000D02*
X41336000Y-100760000D01*
X41296000Y-102440000D02*
X41296000Y-103582000D01*
X41296000Y-99618000D02*
X41296000Y-100760000D01*
X41256000Y-102440000D02*
X41256000Y-103594000D01*
X41256000Y-99606000D02*
X41256000Y-100760000D01*
X41216000Y-102440000D02*
X41216000Y-103605000D01*
X41216000Y-99595000D02*
X41216000Y-100760000D01*
X41176000Y-102440000D02*
X41176000Y-103616000D01*
X41176000Y-99584000D02*
X41176000Y-100760000D01*
X41136000Y-102440000D02*
X41136000Y-103625000D01*
X41136000Y-99575000D02*
X41136000Y-100760000D01*
X41096000Y-102440000D02*
X41096000Y-103634000D01*
X41096000Y-99566000D02*
X41096000Y-100760000D01*
X41056000Y-102440000D02*
X41056000Y-103642000D01*
X41056000Y-99558000D02*
X41056000Y-100760000D01*
X41016000Y-102440000D02*
X41016000Y-103650000D01*
X41016000Y-99550000D02*
X41016000Y-100760000D01*
X40976000Y-102440000D02*
X40976000Y-103656000D01*
X40976000Y-99544000D02*
X40976000Y-100760000D01*
X40936000Y-102440000D02*
X40936000Y-103662000D01*
X40936000Y-99538000D02*
X40936000Y-100760000D01*
X40896000Y-102440000D02*
X40896000Y-103667000D01*
X40896000Y-99533000D02*
X40896000Y-100760000D01*
X40856000Y-102440000D02*
X40856000Y-103671000D01*
X40856000Y-99529000D02*
X40856000Y-100760000D01*
X40816000Y-99526000D02*
X40816000Y-103674000D01*
X40776000Y-99523000D02*
X40776000Y-103677000D01*
X40736000Y-99521000D02*
X40736000Y-103679000D01*
X40696000Y-99520000D02*
X40696000Y-103680000D01*
X40656000Y-99520000D02*
X40656000Y-103680000D01*
X42776000Y-101600000D02*
G75*
G03X42776000Y-101600000I-2120000J0D01*
G01*
X52130000Y-162440000D02*
X41850000Y-162440000D01*
X52130000Y-180460000D02*
X52130000Y-162440000D01*
X41850000Y-180460000D02*
X52130000Y-180460000D01*
X41850000Y-162440000D02*
X41850000Y-180460000D01*
X49640000Y-162500000D02*
X47990000Y-162500000D01*
X49640000Y-180400000D02*
X49640000Y-162500000D01*
X44340000Y-180400000D02*
X49640000Y-180400000D01*
X44340000Y-162500000D02*
X44340000Y-180400000D01*
X45990000Y-162500000D02*
X44340000Y-162500000D01*
X47990000Y-162500000D02*
G75*
G02X45990000Y-162500000I-1000000J0D01*
G01*
X46930000Y-138370000D02*
X48260000Y-138370000D01*
X46930000Y-139700000D02*
X46930000Y-138370000D01*
X49530000Y-138370000D02*
X52130000Y-138370000D01*
X49530000Y-140970000D02*
X49530000Y-138370000D01*
X46930000Y-140970000D02*
X49530000Y-140970000D01*
X52130000Y-138370000D02*
X52130000Y-158810000D01*
X46930000Y-140970000D02*
X46930000Y-158810000D01*
X46930000Y-158810000D02*
X52130000Y-158810000D01*
X106620000Y-20260000D02*
X107950000Y-20260000D01*
X106620000Y-21590000D02*
X106620000Y-20260000D01*
X109220000Y-20260000D02*
X111820000Y-20260000D01*
X109220000Y-22860000D02*
X109220000Y-20260000D01*
X106620000Y-22860000D02*
X109220000Y-22860000D01*
X111820000Y-20260000D02*
X111820000Y-81340000D01*
X106620000Y-22860000D02*
X106620000Y-81340000D01*
X106620000Y-81340000D02*
X111820000Y-81340000D01*
X113680000Y-92610000D02*
G75*
G03X112930000Y-93360000I0J-750000D01*
G01*
X125830000Y-93360000D02*
G75*
G03X125080000Y-92610000I-750000J0D01*
G01*
X125080000Y-105510000D02*
G75*
G03X125830000Y-104760000I0J750000D01*
G01*
X112930000Y-105510000D02*
X125080000Y-105510000D01*
X125830000Y-104760000D02*
X125830000Y-93360000D01*
X125080000Y-92610000D02*
X113680000Y-92610000D01*
X112930000Y-93360000D02*
X112930000Y-105510000D01*
X125730000Y-54730000D02*
X125730000Y-57270000D01*
X123190000Y-54730000D02*
X123190000Y-57270000D01*
X120650000Y-54730000D02*
X120650000Y-57270000D01*
X128310000Y-38840000D02*
X128310000Y-54730000D01*
X118070000Y-38840000D02*
X118070000Y-54730000D01*
X118070000Y-38840000D02*
X128310000Y-38840000D01*
X118070000Y-54730000D02*
X128310000Y-54730000D01*
X67370000Y-111640000D02*
X57090000Y-111640000D01*
X67370000Y-122040000D02*
X67370000Y-111640000D01*
X57090000Y-122040000D02*
X67370000Y-122040000D01*
X57090000Y-111640000D02*
X57090000Y-122040000D01*
X64880000Y-111700000D02*
X63230000Y-111700000D01*
X64880000Y-121980000D02*
X64880000Y-111700000D01*
X59580000Y-121980000D02*
X64880000Y-121980000D01*
X59580000Y-111700000D02*
X59580000Y-121980000D01*
X61230000Y-111700000D02*
X59580000Y-111700000D01*
X63230000Y-111700000D02*
G75*
G02X61230000Y-111700000I-1000000J0D01*
G01*
X151190000Y-126880000D02*
X140910000Y-126880000D01*
X151190000Y-152520000D02*
X151190000Y-126880000D01*
X140910000Y-152520000D02*
X151190000Y-152520000D01*
X140910000Y-126880000D02*
X140910000Y-152520000D01*
X148700000Y-126940000D02*
X147050000Y-126940000D01*
X148700000Y-152460000D02*
X148700000Y-126940000D01*
X143400000Y-152460000D02*
X148700000Y-152460000D01*
X143400000Y-126940000D02*
X143400000Y-152460000D01*
X145050000Y-126940000D02*
X143400000Y-126940000D01*
X147050000Y-126940000D02*
G75*
G02X145050000Y-126940000I-1000000J0D01*
G01*
X196910000Y-126880000D02*
X186630000Y-126880000D01*
X196910000Y-152520000D02*
X196910000Y-126880000D01*
X186630000Y-152520000D02*
X196910000Y-152520000D01*
X186630000Y-126880000D02*
X186630000Y-152520000D01*
X194420000Y-126940000D02*
X192770000Y-126940000D01*
X194420000Y-152460000D02*
X194420000Y-126940000D01*
X189120000Y-152460000D02*
X194420000Y-152460000D01*
X189120000Y-126940000D02*
X189120000Y-152460000D01*
X190770000Y-126940000D02*
X189120000Y-126940000D01*
X192770000Y-126940000D02*
G75*
G02X190770000Y-126940000I-1000000J0D01*
G01*
X151190000Y-55760000D02*
X140910000Y-55760000D01*
X151190000Y-81400000D02*
X151190000Y-55760000D01*
X140910000Y-81400000D02*
X151190000Y-81400000D01*
X140910000Y-55760000D02*
X140910000Y-81400000D01*
X148700000Y-55820000D02*
X147050000Y-55820000D01*
X148700000Y-81340000D02*
X148700000Y-55820000D01*
X143400000Y-81340000D02*
X148700000Y-81340000D01*
X143400000Y-55820000D02*
X143400000Y-81340000D01*
X145050000Y-55820000D02*
X143400000Y-55820000D01*
X147050000Y-55820000D02*
G75*
G02X145050000Y-55820000I-1000000J0D01*
G01*
X196910000Y-20200000D02*
X186630000Y-20200000D01*
X196910000Y-45840000D02*
X196910000Y-20200000D01*
X186630000Y-45840000D02*
X196910000Y-45840000D01*
X186630000Y-20200000D02*
X186630000Y-45840000D01*
X194420000Y-20260000D02*
X192770000Y-20260000D01*
X194420000Y-45780000D02*
X194420000Y-20260000D01*
X189120000Y-45780000D02*
X194420000Y-45780000D01*
X189120000Y-20260000D02*
X189120000Y-45780000D01*
X190770000Y-20260000D02*
X189120000Y-20260000D01*
X192770000Y-20260000D02*
G75*
G02X190770000Y-20260000I-1000000J0D01*
G01*
X82610000Y-162440000D02*
X72330000Y-162440000D01*
X82610000Y-180460000D02*
X82610000Y-162440000D01*
X72330000Y-180460000D02*
X82610000Y-180460000D01*
X72330000Y-162440000D02*
X72330000Y-180460000D01*
X80120000Y-162500000D02*
X78470000Y-162500000D01*
X80120000Y-180400000D02*
X80120000Y-162500000D01*
X74820000Y-180400000D02*
X80120000Y-180400000D01*
X74820000Y-162500000D02*
X74820000Y-180400000D01*
X76470000Y-162500000D02*
X74820000Y-162500000D01*
X78470000Y-162500000D02*
G75*
G02X76470000Y-162500000I-1000000J0D01*
G01*
X67370000Y-162440000D02*
X57090000Y-162440000D01*
X67370000Y-180460000D02*
X67370000Y-162440000D01*
X57090000Y-180460000D02*
X67370000Y-180460000D01*
X57090000Y-162440000D02*
X57090000Y-180460000D01*
X64880000Y-162500000D02*
X63230000Y-162500000D01*
X64880000Y-180400000D02*
X64880000Y-162500000D01*
X59580000Y-180400000D02*
X64880000Y-180400000D01*
X59580000Y-162500000D02*
X59580000Y-180400000D01*
X61230000Y-162500000D02*
X59580000Y-162500000D01*
X63230000Y-162500000D02*
G75*
G02X61230000Y-162500000I-1000000J0D01*
G01*
X196910000Y-162440000D02*
X186630000Y-162440000D01*
X196910000Y-180460000D02*
X196910000Y-162440000D01*
X186630000Y-180460000D02*
X196910000Y-180460000D01*
X186630000Y-162440000D02*
X186630000Y-180460000D01*
X194420000Y-162500000D02*
X192770000Y-162500000D01*
X194420000Y-180400000D02*
X194420000Y-162500000D01*
X189120000Y-180400000D02*
X194420000Y-180400000D01*
X189120000Y-162500000D02*
X189120000Y-180400000D01*
X190770000Y-162500000D02*
X189120000Y-162500000D01*
X192770000Y-162500000D02*
G75*
G02X190770000Y-162500000I-1000000J0D01*
G01*
X105470000Y-116720000D02*
X87570000Y-116720000D01*
X105470000Y-152520000D02*
X105470000Y-116720000D01*
X87570000Y-152520000D02*
X105470000Y-152520000D01*
X87570000Y-116720000D02*
X87570000Y-152520000D01*
X102980000Y-116780000D02*
X97520000Y-116780000D01*
X102980000Y-152460000D02*
X102980000Y-116780000D01*
X90060000Y-152460000D02*
X102980000Y-152460000D01*
X90060000Y-116780000D02*
X90060000Y-152460000D01*
X95520000Y-116780000D02*
X90060000Y-116780000D01*
X97520000Y-116780000D02*
G75*
G02X95520000Y-116780000I-1000000J0D01*
G01*
X151190000Y-162440000D02*
X140910000Y-162440000D01*
X151190000Y-180460000D02*
X151190000Y-162440000D01*
X140910000Y-180460000D02*
X151190000Y-180460000D01*
X140910000Y-162440000D02*
X140910000Y-180460000D01*
X148700000Y-162500000D02*
X147050000Y-162500000D01*
X148700000Y-180400000D02*
X148700000Y-162500000D01*
X143400000Y-180400000D02*
X148700000Y-180400000D01*
X143400000Y-162500000D02*
X143400000Y-180400000D01*
X145050000Y-162500000D02*
X143400000Y-162500000D01*
X147050000Y-162500000D02*
G75*
G02X145050000Y-162500000I-1000000J0D01*
G01*
X181670000Y-162440000D02*
X171390000Y-162440000D01*
X181670000Y-180460000D02*
X181670000Y-162440000D01*
X171390000Y-180460000D02*
X181670000Y-180460000D01*
X171390000Y-162440000D02*
X171390000Y-180460000D01*
X179180000Y-162500000D02*
X177530000Y-162500000D01*
X179180000Y-180400000D02*
X179180000Y-162500000D01*
X173880000Y-180400000D02*
X179180000Y-180400000D01*
X173880000Y-162500000D02*
X173880000Y-180400000D01*
X175530000Y-162500000D02*
X173880000Y-162500000D01*
X177530000Y-162500000D02*
G75*
G02X175530000Y-162500000I-1000000J0D01*
G01*
X128330000Y-162440000D02*
X118050000Y-162440000D01*
X128330000Y-180460000D02*
X128330000Y-162440000D01*
X118050000Y-180460000D02*
X128330000Y-180460000D01*
X118050000Y-162440000D02*
X118050000Y-180460000D01*
X125840000Y-162500000D02*
X124190000Y-162500000D01*
X125840000Y-180400000D02*
X125840000Y-162500000D01*
X120540000Y-180400000D02*
X125840000Y-180400000D01*
X120540000Y-162500000D02*
X120540000Y-180400000D01*
X122190000Y-162500000D02*
X120540000Y-162500000D01*
X124190000Y-162500000D02*
G75*
G02X122190000Y-162500000I-1000000J0D01*
G01*
X166430000Y-162440000D02*
X156150000Y-162440000D01*
X166430000Y-180460000D02*
X166430000Y-162440000D01*
X156150000Y-180460000D02*
X166430000Y-180460000D01*
X156150000Y-162440000D02*
X156150000Y-180460000D01*
X163940000Y-162500000D02*
X162290000Y-162500000D01*
X163940000Y-180400000D02*
X163940000Y-162500000D01*
X158640000Y-180400000D02*
X163940000Y-180400000D01*
X158640000Y-162500000D02*
X158640000Y-180400000D01*
X160290000Y-162500000D02*
X158640000Y-162500000D01*
X162290000Y-162500000D02*
G75*
G02X160290000Y-162500000I-1000000J0D01*
G01*
X160020000Y-126870000D02*
X160020000Y-129670000D01*
X180510000Y-126870000D02*
X157310000Y-126870000D01*
X180510000Y-129670000D02*
X180510000Y-126870000D01*
X157310000Y-129670000D02*
X180510000Y-129670000D01*
X157310000Y-126870000D02*
X157310000Y-129670000D01*
X133220000Y-149860000D02*
X136020000Y-149860000D01*
X133220000Y-129370000D02*
X133220000Y-152570000D01*
X136020000Y-129370000D02*
X133220000Y-129370000D01*
X136020000Y-152570000D02*
X136020000Y-129370000D01*
X133220000Y-152570000D02*
X136020000Y-152570000D01*
X48130000Y-132080000D02*
X50930000Y-132080000D01*
X48130000Y-111590000D02*
X48130000Y-134790000D01*
X50930000Y-111590000D02*
X48130000Y-111590000D01*
X50930000Y-134790000D02*
X50930000Y-111590000D01*
X48130000Y-134790000D02*
X50930000Y-134790000D01*
X133220000Y-78740000D02*
X136020000Y-78740000D01*
X133220000Y-58250000D02*
X133220000Y-81450000D01*
X136020000Y-58250000D02*
X133220000Y-58250000D01*
X136020000Y-81450000D02*
X136020000Y-58250000D01*
X133220000Y-81450000D02*
X136020000Y-81450000D01*
X177630000Y-120650000D02*
X174980000Y-120650000D01*
X160190000Y-120650000D02*
X162840000Y-120650000D01*
X174980000Y-118280000D02*
X162840000Y-118280000D01*
X174980000Y-123020000D02*
X174980000Y-118280000D01*
X162840000Y-123020000D02*
X174980000Y-123020000D01*
X162840000Y-118280000D02*
X162840000Y-123020000D01*
X65870000Y-102870000D02*
X63220000Y-102870000D01*
X48430000Y-102870000D02*
X51080000Y-102870000D01*
X63220000Y-100500000D02*
X51080000Y-100500000D01*
X63220000Y-105240000D02*
X63220000Y-100500000D01*
X51080000Y-105240000D02*
X63220000Y-105240000D01*
X51080000Y-100500000D02*
X51080000Y-105240000D01*
X106510000Y-102870000D02*
X103860000Y-102870000D01*
X89070000Y-102870000D02*
X91720000Y-102870000D01*
X103860000Y-100500000D02*
X91720000Y-100500000D01*
X103860000Y-105240000D02*
X103860000Y-100500000D01*
X91720000Y-105240000D02*
X103860000Y-105240000D01*
X91720000Y-100500000D02*
X91720000Y-105240000D01*
X106510000Y-95250000D02*
X103860000Y-95250000D01*
X89070000Y-95250000D02*
X91720000Y-95250000D01*
X103860000Y-92880000D02*
X91720000Y-92880000D01*
X103860000Y-97620000D02*
X103860000Y-92880000D01*
X91720000Y-97620000D02*
X103860000Y-97620000D01*
X91720000Y-92880000D02*
X91720000Y-97620000D01*
X65870000Y-95250000D02*
X63220000Y-95250000D01*
X48430000Y-95250000D02*
X51080000Y-95250000D01*
X63220000Y-92880000D02*
X51080000Y-92880000D01*
X63220000Y-97620000D02*
X63220000Y-92880000D01*
X51080000Y-97620000D02*
X63220000Y-97620000D01*
X51080000Y-92880000D02*
X51080000Y-97620000D01*
X40640000Y-138600000D02*
X40640000Y-141250000D01*
X40640000Y-156040000D02*
X40640000Y-153390000D01*
X38270000Y-141250000D02*
X38270000Y-153390000D01*
X43010000Y-141250000D02*
X38270000Y-141250000D01*
X43010000Y-153390000D02*
X43010000Y-141250000D01*
X38270000Y-153390000D02*
X43010000Y-153390000D01*
X33020000Y-138600000D02*
X33020000Y-141250000D01*
X33020000Y-156040000D02*
X33020000Y-153390000D01*
X30650000Y-141250000D02*
X30650000Y-153390000D01*
X35390000Y-141250000D02*
X30650000Y-141250000D01*
X35390000Y-153390000D02*
X35390000Y-141250000D01*
X30650000Y-153390000D02*
X35390000Y-153390000D01*
X40640000Y-110660000D02*
X40640000Y-113310000D01*
X40640000Y-128100000D02*
X40640000Y-125450000D01*
X38270000Y-113310000D02*
X38270000Y-125450000D01*
X43010000Y-113310000D02*
X38270000Y-113310000D01*
X43010000Y-125450000D02*
X43010000Y-113310000D01*
X38270000Y-125450000D02*
X43010000Y-125450000D01*
X33020000Y-110660000D02*
X33020000Y-113310000D01*
X33020000Y-128100000D02*
X33020000Y-125450000D01*
X30650000Y-113310000D02*
X30650000Y-125450000D01*
X35390000Y-113310000D02*
X30650000Y-113310000D01*
X35390000Y-125450000D02*
X35390000Y-113310000D01*
X30650000Y-125450000D02*
X35390000Y-125450000D01*
X33020000Y-166540000D02*
X33020000Y-169190000D01*
X33020000Y-183980000D02*
X33020000Y-181330000D01*
X30650000Y-169190000D02*
X30650000Y-181330000D01*
X35390000Y-169190000D02*
X30650000Y-169190000D01*
X35390000Y-181330000D02*
X35390000Y-169190000D01*
X30650000Y-181330000D02*
X35390000Y-181330000D01*
X105350000Y-111820000D02*
X105350000Y-110490000D01*
X106680000Y-111820000D02*
X105350000Y-111820000D01*
X107950000Y-111820000D02*
X107950000Y-109160000D01*
X107950000Y-109160000D02*
X110550000Y-109160000D01*
X107950000Y-111820000D02*
X110550000Y-111820000D01*
X110550000Y-111820000D02*
X110550000Y-109160000D01*
X133290000Y-20260000D02*
X134620000Y-20260000D01*
X133290000Y-21590000D02*
X133290000Y-20260000D01*
X133290000Y-22860000D02*
X135950000Y-22860000D01*
X135950000Y-22860000D02*
X135950000Y-25460000D01*
X133290000Y-22860000D02*
X133290000Y-25460000D01*
X133290000Y-25460000D02*
X135950000Y-25460000D01*
X127790000Y-33920000D02*
X125190000Y-33920000D01*
X127790000Y-19220000D02*
X127790000Y-33920000D01*
X118590000Y-33920000D02*
X118590000Y-32020000D01*
X121290000Y-33920000D02*
X118590000Y-33920000D01*
X118590000Y-19220000D02*
X127790000Y-19220000D01*
X118590000Y-28020000D02*
X118590000Y-19220000D01*
X127990000Y-33070000D02*
X127990000Y-34120000D01*
X126940000Y-34120000D02*
X127990000Y-34120000D01*
X133290000Y-116780000D02*
X134620000Y-116780000D01*
X133290000Y-118110000D02*
X133290000Y-116780000D01*
X133290000Y-119380000D02*
X135950000Y-119380000D01*
X135950000Y-119380000D02*
X135950000Y-124520000D01*
X133290000Y-119380000D02*
X133290000Y-124520000D01*
X133290000Y-124520000D02*
X135950000Y-124520000D01*
X87570000Y-20260000D02*
X88900000Y-20260000D01*
X87570000Y-21590000D02*
X87570000Y-20260000D01*
X90170000Y-20260000D02*
X92770000Y-20260000D01*
X90170000Y-22860000D02*
X90170000Y-20260000D01*
X87570000Y-22860000D02*
X90170000Y-22860000D01*
X92770000Y-20260000D02*
X92770000Y-81340000D01*
X87570000Y-22860000D02*
X87570000Y-81340000D01*
X87570000Y-81340000D02*
X92770000Y-81340000D01*
X68520000Y-20260000D02*
X69850000Y-20260000D01*
X68520000Y-21590000D02*
X68520000Y-20260000D01*
X71120000Y-20260000D02*
X73720000Y-20260000D01*
X71120000Y-22860000D02*
X71120000Y-20260000D01*
X68520000Y-22860000D02*
X71120000Y-22860000D01*
X73720000Y-20260000D02*
X73720000Y-81340000D01*
X68520000Y-22860000D02*
X68520000Y-81340000D01*
X68520000Y-81340000D02*
X73720000Y-81340000D01*
X49470000Y-20260000D02*
X50800000Y-20260000D01*
X49470000Y-21590000D02*
X49470000Y-20260000D01*
X52070000Y-20260000D02*
X54670000Y-20260000D01*
X52070000Y-22860000D02*
X52070000Y-20260000D01*
X49470000Y-22860000D02*
X52070000Y-22860000D01*
X54670000Y-20260000D02*
X54670000Y-81340000D01*
X49470000Y-22860000D02*
X49470000Y-81340000D01*
X49470000Y-81340000D02*
X54670000Y-81340000D01*
X30420000Y-20260000D02*
X31750000Y-20260000D01*
X30420000Y-21590000D02*
X30420000Y-20260000D01*
X33020000Y-20260000D02*
X35620000Y-20260000D01*
X33020000Y-22860000D02*
X33020000Y-20260000D01*
X30420000Y-22860000D02*
X33020000Y-22860000D01*
X35620000Y-20260000D02*
X35620000Y-86420000D01*
X30420000Y-22860000D02*
X30420000Y-86420000D01*
X30420000Y-86420000D02*
X35620000Y-86420000D01*
X166350000Y-110215000D02*
X166350000Y-113305000D01*
X171410000Y-111760000D02*
G75*
G03X171410000Y-111760000I-2500000J0D01*
G01*
X171900000Y-111759538D02*
G75*
G02X166350000Y-113304830I-2990000J-462D01*
G01*
X171900000Y-111760462D02*
G75*
G03X166350000Y-110215170I-2990000J462D01*
G01*
X133150000Y-41310000D02*
X136090000Y-41310000D01*
X133150000Y-41070000D02*
X136090000Y-41070000D01*
X133150000Y-41190000D02*
X136090000Y-41190000D01*
X134620000Y-35630000D02*
X134620000Y-36650000D01*
X134620000Y-43110000D02*
X134620000Y-42090000D01*
X133150000Y-36650000D02*
X133150000Y-42090000D01*
X136090000Y-36650000D02*
X133150000Y-36650000D01*
X136090000Y-42090000D02*
X136090000Y-36650000D01*
X133150000Y-42090000D02*
X136090000Y-42090000D01*
X121104199Y-74805000D02*
X121104199Y-75205000D01*
X120904199Y-75005000D02*
X121304199Y-75005000D01*
X125255000Y-75830000D02*
X125255000Y-76570000D01*
X125215000Y-75663000D02*
X125215000Y-76737000D01*
X125175000Y-75536000D02*
X125175000Y-76864000D01*
X125135000Y-75432000D02*
X125135000Y-76968000D01*
X125095000Y-75341000D02*
X125095000Y-77059000D01*
X125055000Y-75260000D02*
X125055000Y-77140000D01*
X125015000Y-75187000D02*
X125015000Y-77213000D01*
X124975000Y-77040000D02*
X124975000Y-77280000D01*
X124975000Y-75120000D02*
X124975000Y-75360000D01*
X124935000Y-77040000D02*
X124935000Y-77342000D01*
X124935000Y-75058000D02*
X124935000Y-75360000D01*
X124895000Y-77040000D02*
X124895000Y-77400000D01*
X124895000Y-75000000D02*
X124895000Y-75360000D01*
X124855000Y-77040000D02*
X124855000Y-77454000D01*
X124855000Y-74946000D02*
X124855000Y-75360000D01*
X124815000Y-77040000D02*
X124815000Y-77504000D01*
X124815000Y-74896000D02*
X124815000Y-75360000D01*
X124775000Y-77040000D02*
X124775000Y-77551000D01*
X124775000Y-74849000D02*
X124775000Y-75360000D01*
X124735000Y-77040000D02*
X124735000Y-77596000D01*
X124735000Y-74804000D02*
X124735000Y-75360000D01*
X124695000Y-77040000D02*
X124695000Y-77638000D01*
X124695000Y-74762000D02*
X124695000Y-75360000D01*
X124655000Y-77040000D02*
X124655000Y-77678000D01*
X124655000Y-74722000D02*
X124655000Y-75360000D01*
X124615000Y-77040000D02*
X124615000Y-77716000D01*
X124615000Y-74684000D02*
X124615000Y-75360000D01*
X124575000Y-77040000D02*
X124575000Y-77752000D01*
X124575000Y-74648000D02*
X124575000Y-75360000D01*
X124535000Y-77040000D02*
X124535000Y-77787000D01*
X124535000Y-74613000D02*
X124535000Y-75360000D01*
X124495000Y-77040000D02*
X124495000Y-77819000D01*
X124495000Y-74581000D02*
X124495000Y-75360000D01*
X124455000Y-77040000D02*
X124455000Y-77850000D01*
X124455000Y-74550000D02*
X124455000Y-75360000D01*
X124415000Y-77040000D02*
X124415000Y-77880000D01*
X124415000Y-74520000D02*
X124415000Y-75360000D01*
X124375000Y-77040000D02*
X124375000Y-77908000D01*
X124375000Y-74492000D02*
X124375000Y-75360000D01*
X124335000Y-77040000D02*
X124335000Y-77935000D01*
X124335000Y-74465000D02*
X124335000Y-75360000D01*
X124295000Y-77040000D02*
X124295000Y-77960000D01*
X124295000Y-74440000D02*
X124295000Y-75360000D01*
X124255000Y-77040000D02*
X124255000Y-77985000D01*
X124255000Y-74415000D02*
X124255000Y-75360000D01*
X124215000Y-77040000D02*
X124215000Y-78008000D01*
X124215000Y-74392000D02*
X124215000Y-75360000D01*
X124175000Y-77040000D02*
X124175000Y-78030000D01*
X124175000Y-74370000D02*
X124175000Y-75360000D01*
X124135000Y-77040000D02*
X124135000Y-78051000D01*
X124135000Y-74349000D02*
X124135000Y-75360000D01*
X124095000Y-77040000D02*
X124095000Y-78070000D01*
X124095000Y-74330000D02*
X124095000Y-75360000D01*
X124055000Y-77040000D02*
X124055000Y-78089000D01*
X124055000Y-74311000D02*
X124055000Y-75360000D01*
X124015000Y-77040000D02*
X124015000Y-78107000D01*
X124015000Y-74293000D02*
X124015000Y-75360000D01*
X123975000Y-77040000D02*
X123975000Y-78124000D01*
X123975000Y-74276000D02*
X123975000Y-75360000D01*
X123935000Y-77040000D02*
X123935000Y-78140000D01*
X123935000Y-74260000D02*
X123935000Y-75360000D01*
X123895000Y-77040000D02*
X123895000Y-78154000D01*
X123895000Y-74246000D02*
X123895000Y-75360000D01*
X123854000Y-77040000D02*
X123854000Y-78168000D01*
X123854000Y-74232000D02*
X123854000Y-75360000D01*
X123814000Y-77040000D02*
X123814000Y-78182000D01*
X123814000Y-74218000D02*
X123814000Y-75360000D01*
X123774000Y-77040000D02*
X123774000Y-78194000D01*
X123774000Y-74206000D02*
X123774000Y-75360000D01*
X123734000Y-77040000D02*
X123734000Y-78205000D01*
X123734000Y-74195000D02*
X123734000Y-75360000D01*
X123694000Y-77040000D02*
X123694000Y-78216000D01*
X123694000Y-74184000D02*
X123694000Y-75360000D01*
X123654000Y-77040000D02*
X123654000Y-78225000D01*
X123654000Y-74175000D02*
X123654000Y-75360000D01*
X123614000Y-77040000D02*
X123614000Y-78234000D01*
X123614000Y-74166000D02*
X123614000Y-75360000D01*
X123574000Y-77040000D02*
X123574000Y-78242000D01*
X123574000Y-74158000D02*
X123574000Y-75360000D01*
X123534000Y-77040000D02*
X123534000Y-78250000D01*
X123534000Y-74150000D02*
X123534000Y-75360000D01*
X123494000Y-77040000D02*
X123494000Y-78256000D01*
X123494000Y-74144000D02*
X123494000Y-75360000D01*
X123454000Y-77040000D02*
X123454000Y-78262000D01*
X123454000Y-74138000D02*
X123454000Y-75360000D01*
X123414000Y-77040000D02*
X123414000Y-78267000D01*
X123414000Y-74133000D02*
X123414000Y-75360000D01*
X123374000Y-77040000D02*
X123374000Y-78271000D01*
X123374000Y-74129000D02*
X123374000Y-75360000D01*
X123334000Y-74126000D02*
X123334000Y-78274000D01*
X123294000Y-74123000D02*
X123294000Y-78277000D01*
X123254000Y-74121000D02*
X123254000Y-78279000D01*
X123214000Y-74120000D02*
X123214000Y-78280000D01*
X123174000Y-74120000D02*
X123174000Y-78280000D01*
X125294000Y-76200000D02*
G75*
G03X125294000Y-76200000I-2120000J0D01*
G01*
X126770000Y-83990000D02*
X126770000Y-88730000D01*
X119530000Y-83990000D02*
X119530000Y-88730000D01*
X119530000Y-88730000D02*
X126770000Y-88730000D01*
X119530000Y-83990000D02*
X126770000Y-83990000D01*
X138200000Y-83990000D02*
X138200000Y-88730000D01*
X130960000Y-83990000D02*
X130960000Y-88730000D01*
X130960000Y-88730000D02*
X138200000Y-88730000D01*
X130960000Y-83990000D02*
X138200000Y-83990000D01*
X120615225Y-65585000D02*
X120615225Y-66085000D01*
X120365225Y-65835000D02*
X120865225Y-65835000D01*
X125771000Y-67026000D02*
X125771000Y-67594000D01*
X125731000Y-66792000D02*
X125731000Y-67828000D01*
X125691000Y-66633000D02*
X125691000Y-67987000D01*
X125651000Y-66505000D02*
X125651000Y-68115000D01*
X125611000Y-66395000D02*
X125611000Y-68225000D01*
X125571000Y-66299000D02*
X125571000Y-68321000D01*
X125531000Y-66212000D02*
X125531000Y-68408000D01*
X125491000Y-66132000D02*
X125491000Y-68488000D01*
X125451000Y-68350000D02*
X125451000Y-68561000D01*
X125451000Y-66059000D02*
X125451000Y-66270000D01*
X125411000Y-68350000D02*
X125411000Y-68629000D01*
X125411000Y-65991000D02*
X125411000Y-66270000D01*
X125371000Y-68350000D02*
X125371000Y-68693000D01*
X125371000Y-65927000D02*
X125371000Y-66270000D01*
X125331000Y-68350000D02*
X125331000Y-68753000D01*
X125331000Y-65867000D02*
X125331000Y-66270000D01*
X125291000Y-68350000D02*
X125291000Y-68810000D01*
X125291000Y-65810000D02*
X125291000Y-66270000D01*
X125251000Y-68350000D02*
X125251000Y-68864000D01*
X125251000Y-65756000D02*
X125251000Y-66270000D01*
X125211000Y-68350000D02*
X125211000Y-68915000D01*
X125211000Y-65705000D02*
X125211000Y-66270000D01*
X125171000Y-68350000D02*
X125171000Y-68963000D01*
X125171000Y-65657000D02*
X125171000Y-66270000D01*
X125131000Y-68350000D02*
X125131000Y-69009000D01*
X125131000Y-65611000D02*
X125131000Y-66270000D01*
X125091000Y-68350000D02*
X125091000Y-69053000D01*
X125091000Y-65567000D02*
X125091000Y-66270000D01*
X125051000Y-68350000D02*
X125051000Y-69095000D01*
X125051000Y-65525000D02*
X125051000Y-66270000D01*
X125011000Y-68350000D02*
X125011000Y-69136000D01*
X125011000Y-65484000D02*
X125011000Y-66270000D01*
X124971000Y-68350000D02*
X124971000Y-69174000D01*
X124971000Y-65446000D02*
X124971000Y-66270000D01*
X124931000Y-68350000D02*
X124931000Y-69211000D01*
X124931000Y-65409000D02*
X124931000Y-66270000D01*
X124891000Y-68350000D02*
X124891000Y-69247000D01*
X124891000Y-65373000D02*
X124891000Y-66270000D01*
X124851000Y-68350000D02*
X124851000Y-69281000D01*
X124851000Y-65339000D02*
X124851000Y-66270000D01*
X124811000Y-68350000D02*
X124811000Y-69314000D01*
X124811000Y-65306000D02*
X124811000Y-66270000D01*
X124771000Y-68350000D02*
X124771000Y-69345000D01*
X124771000Y-65275000D02*
X124771000Y-66270000D01*
X124731000Y-68350000D02*
X124731000Y-69375000D01*
X124731000Y-65245000D02*
X124731000Y-66270000D01*
X124691000Y-68350000D02*
X124691000Y-69405000D01*
X124691000Y-65215000D02*
X124691000Y-66270000D01*
X124651000Y-68350000D02*
X124651000Y-69432000D01*
X124651000Y-65188000D02*
X124651000Y-66270000D01*
X124611000Y-68350000D02*
X124611000Y-69459000D01*
X124611000Y-65161000D02*
X124611000Y-66270000D01*
X124571000Y-68350000D02*
X124571000Y-69485000D01*
X124571000Y-65135000D02*
X124571000Y-66270000D01*
X124531000Y-68350000D02*
X124531000Y-69510000D01*
X124531000Y-65110000D02*
X124531000Y-66270000D01*
X124491000Y-68350000D02*
X124491000Y-69534000D01*
X124491000Y-65086000D02*
X124491000Y-66270000D01*
X124451000Y-68350000D02*
X124451000Y-69557000D01*
X124451000Y-65063000D02*
X124451000Y-66270000D01*
X124411000Y-68350000D02*
X124411000Y-69578000D01*
X124411000Y-65042000D02*
X124411000Y-66270000D01*
X124371000Y-68350000D02*
X124371000Y-69600000D01*
X124371000Y-65020000D02*
X124371000Y-66270000D01*
X124331000Y-68350000D02*
X124331000Y-69620000D01*
X124331000Y-65000000D02*
X124331000Y-66270000D01*
X124291000Y-68350000D02*
X124291000Y-69639000D01*
X124291000Y-64981000D02*
X124291000Y-66270000D01*
X124251000Y-68350000D02*
X124251000Y-69658000D01*
X124251000Y-64962000D02*
X124251000Y-66270000D01*
X124211000Y-68350000D02*
X124211000Y-69675000D01*
X124211000Y-64945000D02*
X124211000Y-66270000D01*
X124171000Y-68350000D02*
X124171000Y-69692000D01*
X124171000Y-64928000D02*
X124171000Y-66270000D01*
X124131000Y-68350000D02*
X124131000Y-69708000D01*
X124131000Y-64912000D02*
X124131000Y-66270000D01*
X124091000Y-68350000D02*
X124091000Y-69724000D01*
X124091000Y-64896000D02*
X124091000Y-66270000D01*
X124051000Y-68350000D02*
X124051000Y-69738000D01*
X124051000Y-64882000D02*
X124051000Y-66270000D01*
X124011000Y-68350000D02*
X124011000Y-69752000D01*
X124011000Y-64868000D02*
X124011000Y-66270000D01*
X123971000Y-68350000D02*
X123971000Y-69765000D01*
X123971000Y-64855000D02*
X123971000Y-66270000D01*
X123931000Y-68350000D02*
X123931000Y-69778000D01*
X123931000Y-64842000D02*
X123931000Y-66270000D01*
X123891000Y-68350000D02*
X123891000Y-69790000D01*
X123891000Y-64830000D02*
X123891000Y-66270000D01*
X123850000Y-68350000D02*
X123850000Y-69801000D01*
X123850000Y-64819000D02*
X123850000Y-66270000D01*
X123810000Y-68350000D02*
X123810000Y-69811000D01*
X123810000Y-64809000D02*
X123810000Y-66270000D01*
X123770000Y-68350000D02*
X123770000Y-69821000D01*
X123770000Y-64799000D02*
X123770000Y-66270000D01*
X123730000Y-68350000D02*
X123730000Y-69830000D01*
X123730000Y-64790000D02*
X123730000Y-66270000D01*
X123690000Y-68350000D02*
X123690000Y-69838000D01*
X123690000Y-64782000D02*
X123690000Y-66270000D01*
X123650000Y-68350000D02*
X123650000Y-69846000D01*
X123650000Y-64774000D02*
X123650000Y-66270000D01*
X123610000Y-68350000D02*
X123610000Y-69853000D01*
X123610000Y-64767000D02*
X123610000Y-66270000D01*
X123570000Y-68350000D02*
X123570000Y-69860000D01*
X123570000Y-64760000D02*
X123570000Y-66270000D01*
X123530000Y-68350000D02*
X123530000Y-69866000D01*
X123530000Y-64754000D02*
X123530000Y-66270000D01*
X123490000Y-68350000D02*
X123490000Y-69871000D01*
X123490000Y-64749000D02*
X123490000Y-66270000D01*
X123450000Y-68350000D02*
X123450000Y-69875000D01*
X123450000Y-64745000D02*
X123450000Y-66270000D01*
X123410000Y-68350000D02*
X123410000Y-69879000D01*
X123410000Y-64741000D02*
X123410000Y-66270000D01*
X123370000Y-64737000D02*
X123370000Y-69883000D01*
X123330000Y-64734000D02*
X123330000Y-69886000D01*
X123290000Y-64732000D02*
X123290000Y-69888000D01*
X123250000Y-64731000D02*
X123250000Y-69889000D01*
X123210000Y-64730000D02*
X123210000Y-69890000D01*
X123170000Y-64730000D02*
X123170000Y-69890000D01*
X125790000Y-67310000D02*
G75*
G03X125790000Y-67310000I-2620000J0D01*
G01*
X81050000Y-96690000D02*
X81050000Y-101430000D01*
X73810000Y-96690000D02*
X73810000Y-101430000D01*
X73810000Y-101430000D02*
X81050000Y-101430000D01*
X73810000Y-96690000D02*
X81050000Y-96690000D01*
X122960000Y-155110000D02*
X122960000Y-159850000D01*
X115720000Y-155110000D02*
X115720000Y-159850000D01*
X115720000Y-159850000D02*
X122960000Y-159850000D01*
X115720000Y-155110000D02*
X122960000Y-155110000D01*
X126770000Y-183050000D02*
X126770000Y-187790000D01*
X119530000Y-183050000D02*
X119530000Y-187790000D01*
X119530000Y-187790000D02*
X126770000Y-187790000D01*
X119530000Y-183050000D02*
X126770000Y-183050000D01*
X81050000Y-155110000D02*
X81050000Y-159850000D01*
X73810000Y-155110000D02*
X73810000Y-159850000D01*
X73810000Y-159850000D02*
X81050000Y-159850000D01*
X73810000Y-155110000D02*
X81050000Y-155110000D01*
X50570000Y-183050000D02*
X50570000Y-187790000D01*
X43330000Y-183050000D02*
X43330000Y-187790000D01*
X43330000Y-187790000D02*
X50570000Y-187790000D01*
X43330000Y-183050000D02*
X50570000Y-183050000D01*
X149630000Y-183050000D02*
X149630000Y-187790000D01*
X142390000Y-183050000D02*
X142390000Y-187790000D01*
X142390000Y-187790000D02*
X149630000Y-187790000D01*
X142390000Y-183050000D02*
X149630000Y-183050000D01*
X96290000Y-183050000D02*
X96290000Y-187790000D01*
X89050000Y-183050000D02*
X89050000Y-187790000D01*
X89050000Y-187790000D02*
X96290000Y-187790000D01*
X89050000Y-183050000D02*
X96290000Y-183050000D01*
X164870000Y-183050000D02*
X164870000Y-187790000D01*
X157630000Y-183050000D02*
X157630000Y-187790000D01*
X157630000Y-187790000D02*
X164870000Y-187790000D01*
X157630000Y-183050000D02*
X164870000Y-183050000D01*
X81050000Y-183050000D02*
X81050000Y-187790000D01*
X73810000Y-183050000D02*
X73810000Y-187790000D01*
X73810000Y-187790000D02*
X81050000Y-187790000D01*
X73810000Y-183050000D02*
X81050000Y-183050000D01*
X180110000Y-155110000D02*
X180110000Y-159850000D01*
X172870000Y-155110000D02*
X172870000Y-159850000D01*
X172870000Y-159850000D02*
X180110000Y-159850000D01*
X172870000Y-155110000D02*
X180110000Y-155110000D01*
X74700000Y-83990000D02*
X74700000Y-88730000D01*
X67460000Y-83990000D02*
X67460000Y-88730000D01*
X67460000Y-88730000D02*
X74700000Y-88730000D01*
X67460000Y-83990000D02*
X74700000Y-83990000D01*
X149630000Y-83990000D02*
X149630000Y-88730000D01*
X142390000Y-83990000D02*
X142390000Y-88730000D01*
X142390000Y-88730000D02*
X149630000Y-88730000D01*
X142390000Y-83990000D02*
X149630000Y-83990000D01*
X195350000Y-155110000D02*
X195350000Y-159850000D01*
X188110000Y-155110000D02*
X188110000Y-159850000D01*
X188110000Y-159850000D02*
X195350000Y-159850000D01*
X188110000Y-155110000D02*
X195350000Y-155110000D01*
X112800000Y-83990000D02*
X112800000Y-88730000D01*
X105560000Y-83990000D02*
X105560000Y-88730000D01*
X105560000Y-88730000D02*
X112800000Y-88730000D01*
X105560000Y-83990000D02*
X112800000Y-83990000D01*
X195350000Y-83990000D02*
X195350000Y-88730000D01*
X188110000Y-83990000D02*
X188110000Y-88730000D01*
X188110000Y-88730000D02*
X195350000Y-88730000D01*
X188110000Y-83990000D02*
X195350000Y-83990000D01*
X65810000Y-124630000D02*
X65810000Y-129370000D01*
X58570000Y-124630000D02*
X58570000Y-129370000D01*
X58570000Y-129370000D02*
X65810000Y-129370000D01*
X58570000Y-124630000D02*
X65810000Y-124630000D01*
X93750000Y-83990000D02*
X93750000Y-88730000D01*
X86510000Y-83990000D02*
X86510000Y-88730000D01*
X86510000Y-88730000D02*
X93750000Y-88730000D01*
X86510000Y-83990000D02*
X93750000Y-83990000D01*
X65810000Y-155110000D02*
X65810000Y-159850000D01*
X58570000Y-155110000D02*
X58570000Y-159850000D01*
X58570000Y-159850000D02*
X65810000Y-159850000D01*
X58570000Y-155110000D02*
X65810000Y-155110000D01*
X195350000Y-183050000D02*
X195350000Y-187790000D01*
X188110000Y-183050000D02*
X188110000Y-187790000D01*
X188110000Y-187790000D02*
X195350000Y-187790000D01*
X188110000Y-183050000D02*
X195350000Y-183050000D01*
X36930000Y-89590000D02*
X36930000Y-94330000D01*
X29690000Y-89590000D02*
X29690000Y-94330000D01*
X29690000Y-94330000D02*
X36930000Y-94330000D01*
X29690000Y-89590000D02*
X36930000Y-89590000D01*
X65810000Y-183050000D02*
X65810000Y-187790000D01*
X58570000Y-183050000D02*
X58570000Y-187790000D01*
X58570000Y-187790000D02*
X65810000Y-187790000D01*
X58570000Y-183050000D02*
X65810000Y-183050000D01*
X180110000Y-183050000D02*
X180110000Y-187790000D01*
X172870000Y-183050000D02*
X172870000Y-187790000D01*
X172870000Y-187790000D02*
X180110000Y-187790000D01*
X172870000Y-183050000D02*
X180110000Y-183050000D01*
X195350000Y-48430000D02*
X195350000Y-53170000D01*
X188110000Y-48430000D02*
X188110000Y-53170000D01*
X188110000Y-53170000D02*
X195350000Y-53170000D01*
X188110000Y-48430000D02*
X195350000Y-48430000D01*
X100100000Y-155110000D02*
X100100000Y-159850000D01*
X92860000Y-155110000D02*
X92860000Y-159850000D01*
X92860000Y-159850000D02*
X100100000Y-159850000D01*
X92860000Y-155110000D02*
X100100000Y-155110000D01*
X81050000Y-127170000D02*
X81050000Y-131910000D01*
X73810000Y-127170000D02*
X73810000Y-131910000D01*
X73810000Y-131910000D02*
X81050000Y-131910000D01*
X73810000Y-127170000D02*
X81050000Y-127170000D01*
X164870000Y-155110000D02*
X164870000Y-159850000D01*
X157630000Y-155110000D02*
X157630000Y-159850000D01*
X157630000Y-159850000D02*
X164870000Y-159850000D01*
X157630000Y-155110000D02*
X164870000Y-155110000D01*
X195350000Y-119550000D02*
X195350000Y-124290000D01*
X188110000Y-119550000D02*
X188110000Y-124290000D01*
X188110000Y-124290000D02*
X195350000Y-124290000D01*
X188110000Y-119550000D02*
X195350000Y-119550000D01*
X55650000Y-83990000D02*
X55650000Y-88730000D01*
X48410000Y-83990000D02*
X48410000Y-88730000D01*
X48410000Y-88730000D02*
X55650000Y-88730000D01*
X48410000Y-83990000D02*
X55650000Y-83990000D01*
X149630000Y-48430000D02*
X149630000Y-53170000D01*
X142390000Y-48430000D02*
X142390000Y-53170000D01*
X142390000Y-53170000D02*
X149630000Y-53170000D01*
X142390000Y-48430000D02*
X149630000Y-48430000D01*
X149630000Y-155110000D02*
X149630000Y-159850000D01*
X142390000Y-155110000D02*
X142390000Y-159850000D01*
X142390000Y-159850000D02*
X149630000Y-159850000D01*
X142390000Y-155110000D02*
X149630000Y-155110000D01*
X111530000Y-183050000D02*
X111530000Y-187790000D01*
X104290000Y-183050000D02*
X104290000Y-187790000D01*
X104290000Y-187790000D02*
X111530000Y-187790000D01*
X104290000Y-183050000D02*
X111530000Y-183050000D01*
X149630000Y-119550000D02*
X149630000Y-124290000D01*
X142390000Y-119550000D02*
X142390000Y-124290000D01*
X142390000Y-124290000D02*
X149630000Y-124290000D01*
X142390000Y-119550000D02*
X149630000Y-119550000D01*
X181380000Y-104310000D02*
X181380000Y-109050000D01*
X174140000Y-104310000D02*
X174140000Y-109050000D01*
X174140000Y-109050000D02*
X181380000Y-109050000D01*
X174140000Y-104310000D02*
X181380000Y-104310000D01*
X163600000Y-104310000D02*
X163600000Y-109050000D01*
X156360000Y-104310000D02*
X156360000Y-109050000D01*
X156360000Y-109050000D02*
X163600000Y-109050000D01*
X156360000Y-104310000D02*
X163600000Y-104310000D01*
D11*
X19447142Y-27122380D02*
X19447142Y-26122380D01*
X19447142Y-26598571D02*
X20018571Y-26598571D01*
X20018571Y-27122380D02*
X20018571Y-26122380D01*
X20685238Y-26122380D02*
X20875714Y-26122380D01*
X20970952Y-26170000D01*
X21066190Y-26265238D01*
X21113809Y-26455714D01*
X21113809Y-26789047D01*
X21066190Y-26979523D01*
X20970952Y-27074761D01*
X20875714Y-27122380D01*
X20685238Y-27122380D01*
X20590000Y-27074761D01*
X20494761Y-26979523D01*
X20447142Y-26789047D01*
X20447142Y-26455714D01*
X20494761Y-26265238D01*
X20590000Y-26170000D01*
X20685238Y-26122380D01*
X22018571Y-27122380D02*
X21542380Y-27122380D01*
X21542380Y-26122380D01*
X22351904Y-26598571D02*
X22685238Y-26598571D01*
X22828095Y-27122380D02*
X22351904Y-27122380D01*
X22351904Y-26122380D01*
X22828095Y-26122380D01*
X23685238Y-26455714D02*
X23685238Y-27122380D01*
X23447142Y-26074761D02*
X23209047Y-26789047D01*
X23828095Y-26789047D01*
X19447142Y-180792380D02*
X19447142Y-179792380D01*
X19447142Y-180268571D02*
X20018571Y-180268571D01*
X20018571Y-180792380D02*
X20018571Y-179792380D01*
X20685238Y-179792380D02*
X20875714Y-179792380D01*
X20970952Y-179840000D01*
X21066190Y-179935238D01*
X21113809Y-180125714D01*
X21113809Y-180459047D01*
X21066190Y-180649523D01*
X20970952Y-180744761D01*
X20875714Y-180792380D01*
X20685238Y-180792380D01*
X20590000Y-180744761D01*
X20494761Y-180649523D01*
X20447142Y-180459047D01*
X20447142Y-180125714D01*
X20494761Y-179935238D01*
X20590000Y-179840000D01*
X20685238Y-179792380D01*
X22018571Y-180792380D02*
X21542380Y-180792380D01*
X21542380Y-179792380D01*
X22351904Y-180268571D02*
X22685238Y-180268571D01*
X22828095Y-180792380D02*
X22351904Y-180792380D01*
X22351904Y-179792380D01*
X22828095Y-179792380D01*
X23161428Y-179792380D02*
X23780476Y-179792380D01*
X23447142Y-180173333D01*
X23590000Y-180173333D01*
X23685238Y-180220952D01*
X23732857Y-180268571D01*
X23780476Y-180363809D01*
X23780476Y-180601904D01*
X23732857Y-180697142D01*
X23685238Y-180744761D01*
X23590000Y-180792380D01*
X23304285Y-180792380D01*
X23209047Y-180744761D01*
X23161428Y-180697142D01*
X203597142Y-180792380D02*
X203597142Y-179792380D01*
X203597142Y-180268571D02*
X204168571Y-180268571D01*
X204168571Y-180792380D02*
X204168571Y-179792380D01*
X204835238Y-179792380D02*
X205025714Y-179792380D01*
X205120952Y-179840000D01*
X205216190Y-179935238D01*
X205263809Y-180125714D01*
X205263809Y-180459047D01*
X205216190Y-180649523D01*
X205120952Y-180744761D01*
X205025714Y-180792380D01*
X204835238Y-180792380D01*
X204740000Y-180744761D01*
X204644761Y-180649523D01*
X204597142Y-180459047D01*
X204597142Y-180125714D01*
X204644761Y-179935238D01*
X204740000Y-179840000D01*
X204835238Y-179792380D01*
X206168571Y-180792380D02*
X205692380Y-180792380D01*
X205692380Y-179792380D01*
X206501904Y-180268571D02*
X206835238Y-180268571D01*
X206978095Y-180792380D02*
X206501904Y-180792380D01*
X206501904Y-179792380D01*
X206978095Y-179792380D01*
X207359047Y-179887619D02*
X207406666Y-179840000D01*
X207501904Y-179792380D01*
X207740000Y-179792380D01*
X207835238Y-179840000D01*
X207882857Y-179887619D01*
X207930476Y-179982857D01*
X207930476Y-180078095D01*
X207882857Y-180220952D01*
X207311428Y-180792380D01*
X207930476Y-180792380D01*
X203597142Y-27122380D02*
X203597142Y-26122380D01*
X203597142Y-26598571D02*
X204168571Y-26598571D01*
X204168571Y-27122380D02*
X204168571Y-26122380D01*
X204835238Y-26122380D02*
X205025714Y-26122380D01*
X205120952Y-26170000D01*
X205216190Y-26265238D01*
X205263809Y-26455714D01*
X205263809Y-26789047D01*
X205216190Y-26979523D01*
X205120952Y-27074761D01*
X205025714Y-27122380D01*
X204835238Y-27122380D01*
X204740000Y-27074761D01*
X204644761Y-26979523D01*
X204597142Y-26789047D01*
X204597142Y-26455714D01*
X204644761Y-26265238D01*
X204740000Y-26170000D01*
X204835238Y-26122380D01*
X206168571Y-27122380D02*
X205692380Y-27122380D01*
X205692380Y-26122380D01*
X206501904Y-26598571D02*
X206835238Y-26598571D01*
X206978095Y-27122380D02*
X206501904Y-27122380D01*
X206501904Y-26122380D01*
X206978095Y-26122380D01*
X207930476Y-27122380D02*
X207359047Y-27122380D01*
X207644761Y-27122380D02*
X207644761Y-26122380D01*
X207549523Y-26265238D01*
X207454285Y-26360476D01*
X207359047Y-26408095D01*
X175768095Y-133012380D02*
X175768095Y-133821904D01*
X175815714Y-133917142D01*
X175863333Y-133964761D01*
X175958571Y-134012380D01*
X176149047Y-134012380D01*
X176244285Y-133964761D01*
X176291904Y-133917142D01*
X176339523Y-133821904D01*
X176339523Y-133012380D01*
X176958571Y-133440952D02*
X176863333Y-133393333D01*
X176815714Y-133345714D01*
X176768095Y-133250476D01*
X176768095Y-133202857D01*
X176815714Y-133107619D01*
X176863333Y-133060000D01*
X176958571Y-133012380D01*
X177149047Y-133012380D01*
X177244285Y-133060000D01*
X177291904Y-133107619D01*
X177339523Y-133202857D01*
X177339523Y-133250476D01*
X177291904Y-133345714D01*
X177244285Y-133393333D01*
X177149047Y-133440952D01*
X176958571Y-133440952D01*
X176863333Y-133488571D01*
X176815714Y-133536190D01*
X176768095Y-133631428D01*
X176768095Y-133821904D01*
X176815714Y-133917142D01*
X176863333Y-133964761D01*
X176958571Y-134012380D01*
X177149047Y-134012380D01*
X177244285Y-133964761D01*
X177291904Y-133917142D01*
X177339523Y-133821904D01*
X177339523Y-133631428D01*
X177291904Y-133536190D01*
X177244285Y-133488571D01*
X177149047Y-133440952D01*
X91471904Y-160952380D02*
X91471904Y-161761904D01*
X91519523Y-161857142D01*
X91567142Y-161904761D01*
X91662380Y-161952380D01*
X91852857Y-161952380D01*
X91948095Y-161904761D01*
X91995714Y-161857142D01*
X92043333Y-161761904D01*
X92043333Y-160952380D01*
X92471904Y-161047619D02*
X92519523Y-161000000D01*
X92614761Y-160952380D01*
X92852857Y-160952380D01*
X92948095Y-161000000D01*
X92995714Y-161047619D01*
X93043333Y-161142857D01*
X93043333Y-161238095D01*
X92995714Y-161380952D01*
X92424285Y-161952380D01*
X93043333Y-161952380D01*
X93424285Y-161047619D02*
X93471904Y-161000000D01*
X93567142Y-160952380D01*
X93805238Y-160952380D01*
X93900476Y-161000000D01*
X93948095Y-161047619D01*
X93995714Y-161142857D01*
X93995714Y-161238095D01*
X93948095Y-161380952D01*
X93376666Y-161952380D01*
X93995714Y-161952380D01*
X107188095Y-160952380D02*
X107188095Y-161761904D01*
X107235714Y-161857142D01*
X107283333Y-161904761D01*
X107378571Y-161952380D01*
X107569047Y-161952380D01*
X107664285Y-161904761D01*
X107711904Y-161857142D01*
X107759523Y-161761904D01*
X107759523Y-160952380D01*
X108140476Y-160952380D02*
X108807142Y-160952380D01*
X108378571Y-161952380D01*
X60991904Y-130472380D02*
X60991904Y-131281904D01*
X61039523Y-131377142D01*
X61087142Y-131424761D01*
X61182380Y-131472380D01*
X61372857Y-131472380D01*
X61468095Y-131424761D01*
X61515714Y-131377142D01*
X61563333Y-131281904D01*
X61563333Y-130472380D01*
X61991904Y-130567619D02*
X62039523Y-130520000D01*
X62134761Y-130472380D01*
X62372857Y-130472380D01*
X62468095Y-130520000D01*
X62515714Y-130567619D01*
X62563333Y-130662857D01*
X62563333Y-130758095D01*
X62515714Y-130900952D01*
X61944285Y-131472380D01*
X62563333Y-131472380D01*
X62896666Y-130472380D02*
X63515714Y-130472380D01*
X63182380Y-130853333D01*
X63325238Y-130853333D01*
X63420476Y-130900952D01*
X63468095Y-130948571D01*
X63515714Y-131043809D01*
X63515714Y-131281904D01*
X63468095Y-131377142D01*
X63420476Y-131424761D01*
X63325238Y-131472380D01*
X63039523Y-131472380D01*
X62944285Y-131424761D01*
X62896666Y-131377142D01*
X168148095Y-18712380D02*
X168148095Y-19521904D01*
X168195714Y-19617142D01*
X168243333Y-19664761D01*
X168338571Y-19712380D01*
X168529047Y-19712380D01*
X168624285Y-19664761D01*
X168671904Y-19617142D01*
X168719523Y-19521904D01*
X168719523Y-18712380D01*
X169719523Y-19712380D02*
X169148095Y-19712380D01*
X169433809Y-19712380D02*
X169433809Y-18712380D01*
X169338571Y-18855238D01*
X169243333Y-18950476D01*
X169148095Y-18998095D01*
X118141904Y-115232380D02*
X118141904Y-116041904D01*
X118189523Y-116137142D01*
X118237142Y-116184761D01*
X118332380Y-116232380D01*
X118522857Y-116232380D01*
X118618095Y-116184761D01*
X118665714Y-116137142D01*
X118713333Y-116041904D01*
X118713333Y-115232380D01*
X119713333Y-116232380D02*
X119141904Y-116232380D01*
X119427619Y-116232380D02*
X119427619Y-115232380D01*
X119332380Y-115375238D01*
X119237142Y-115470476D01*
X119141904Y-115518095D01*
X120570476Y-115232380D02*
X120380000Y-115232380D01*
X120284761Y-115280000D01*
X120237142Y-115327619D01*
X120141904Y-115470476D01*
X120094285Y-115660952D01*
X120094285Y-116041904D01*
X120141904Y-116137142D01*
X120189523Y-116184761D01*
X120284761Y-116232380D01*
X120475238Y-116232380D01*
X120570476Y-116184761D01*
X120618095Y-116137142D01*
X120665714Y-116041904D01*
X120665714Y-115803809D01*
X120618095Y-115708571D01*
X120570476Y-115660952D01*
X120475238Y-115613333D01*
X120284761Y-115613333D01*
X120189523Y-115660952D01*
X120141904Y-115708571D01*
X120094285Y-115803809D01*
X76231904Y-133012380D02*
X76231904Y-133821904D01*
X76279523Y-133917142D01*
X76327142Y-133964761D01*
X76422380Y-134012380D01*
X76612857Y-134012380D01*
X76708095Y-133964761D01*
X76755714Y-133917142D01*
X76803333Y-133821904D01*
X76803333Y-133012380D01*
X77803333Y-134012380D02*
X77231904Y-134012380D01*
X77517619Y-134012380D02*
X77517619Y-133012380D01*
X77422380Y-133155238D01*
X77327142Y-133250476D01*
X77231904Y-133298095D01*
X78136666Y-133012380D02*
X78803333Y-133012380D01*
X78374761Y-134012380D01*
X144811904Y-89832380D02*
X144811904Y-90641904D01*
X144859523Y-90737142D01*
X144907142Y-90784761D01*
X145002380Y-90832380D01*
X145192857Y-90832380D01*
X145288095Y-90784761D01*
X145335714Y-90737142D01*
X145383333Y-90641904D01*
X145383333Y-89832380D01*
X146383333Y-90832380D02*
X145811904Y-90832380D01*
X146097619Y-90832380D02*
X146097619Y-89832380D01*
X146002380Y-89975238D01*
X145907142Y-90070476D01*
X145811904Y-90118095D01*
X147288095Y-89832380D02*
X146811904Y-89832380D01*
X146764285Y-90308571D01*
X146811904Y-90260952D01*
X146907142Y-90213333D01*
X147145238Y-90213333D01*
X147240476Y-90260952D01*
X147288095Y-90308571D01*
X147335714Y-90403809D01*
X147335714Y-90641904D01*
X147288095Y-90737142D01*
X147240476Y-90784761D01*
X147145238Y-90832380D01*
X146907142Y-90832380D01*
X146811904Y-90784761D01*
X146764285Y-90737142D01*
X190531904Y-54272380D02*
X190531904Y-55081904D01*
X190579523Y-55177142D01*
X190627142Y-55224761D01*
X190722380Y-55272380D01*
X190912857Y-55272380D01*
X191008095Y-55224761D01*
X191055714Y-55177142D01*
X191103333Y-55081904D01*
X191103333Y-54272380D01*
X192103333Y-55272380D02*
X191531904Y-55272380D01*
X191817619Y-55272380D02*
X191817619Y-54272380D01*
X191722380Y-54415238D01*
X191627142Y-54510476D01*
X191531904Y-54558095D01*
X192960476Y-54605714D02*
X192960476Y-55272380D01*
X192722380Y-54224761D02*
X192484285Y-54939047D01*
X193103333Y-54939047D01*
X76231904Y-105072380D02*
X76231904Y-105881904D01*
X76279523Y-105977142D01*
X76327142Y-106024761D01*
X76422380Y-106072380D01*
X76612857Y-106072380D01*
X76708095Y-106024761D01*
X76755714Y-105977142D01*
X76803333Y-105881904D01*
X76803333Y-105072380D01*
X77803333Y-106072380D02*
X77231904Y-106072380D01*
X77517619Y-106072380D02*
X77517619Y-105072380D01*
X77422380Y-105215238D01*
X77327142Y-105310476D01*
X77231904Y-105358095D01*
X78184285Y-105167619D02*
X78231904Y-105120000D01*
X78327142Y-105072380D01*
X78565238Y-105072380D01*
X78660476Y-105120000D01*
X78708095Y-105167619D01*
X78755714Y-105262857D01*
X78755714Y-105358095D01*
X78708095Y-105500952D01*
X78136666Y-106072380D01*
X78755714Y-106072380D01*
X160051904Y-133012380D02*
X160051904Y-133821904D01*
X160099523Y-133917142D01*
X160147142Y-133964761D01*
X160242380Y-134012380D01*
X160432857Y-134012380D01*
X160528095Y-133964761D01*
X160575714Y-133917142D01*
X160623333Y-133821904D01*
X160623333Y-133012380D01*
X161623333Y-134012380D02*
X161051904Y-134012380D01*
X161337619Y-134012380D02*
X161337619Y-133012380D01*
X161242380Y-133155238D01*
X161147142Y-133250476D01*
X161051904Y-133298095D01*
X162575714Y-134012380D02*
X162004285Y-134012380D01*
X162290000Y-134012380D02*
X162290000Y-133012380D01*
X162194761Y-133155238D01*
X162099523Y-133250476D01*
X162004285Y-133298095D01*
X145288095Y-18712380D02*
X145288095Y-19521904D01*
X145335714Y-19617142D01*
X145383333Y-19664761D01*
X145478571Y-19712380D01*
X145669047Y-19712380D01*
X145764285Y-19664761D01*
X145811904Y-19617142D01*
X145859523Y-19521904D01*
X145859523Y-18712380D01*
X146764285Y-18712380D02*
X146573809Y-18712380D01*
X146478571Y-18760000D01*
X146430952Y-18807619D01*
X146335714Y-18950476D01*
X146288095Y-19140952D01*
X146288095Y-19521904D01*
X146335714Y-19617142D01*
X146383333Y-19664761D01*
X146478571Y-19712380D01*
X146669047Y-19712380D01*
X146764285Y-19664761D01*
X146811904Y-19617142D01*
X146859523Y-19521904D01*
X146859523Y-19283809D01*
X146811904Y-19188571D01*
X146764285Y-19140952D01*
X146669047Y-19093333D01*
X146478571Y-19093333D01*
X146383333Y-19140952D01*
X146335714Y-19188571D01*
X146288095Y-19283809D01*
X191008095Y-89832380D02*
X191008095Y-90641904D01*
X191055714Y-90737142D01*
X191103333Y-90784761D01*
X191198571Y-90832380D01*
X191389047Y-90832380D01*
X191484285Y-90784761D01*
X191531904Y-90737142D01*
X191579523Y-90641904D01*
X191579523Y-89832380D01*
X192531904Y-89832380D02*
X192055714Y-89832380D01*
X192008095Y-90308571D01*
X192055714Y-90260952D01*
X192150952Y-90213333D01*
X192389047Y-90213333D01*
X192484285Y-90260952D01*
X192531904Y-90308571D01*
X192579523Y-90403809D01*
X192579523Y-90641904D01*
X192531904Y-90737142D01*
X192484285Y-90784761D01*
X192389047Y-90832380D01*
X192150952Y-90832380D01*
X192055714Y-90784761D01*
X192008095Y-90737142D01*
X32357142Y-98207142D02*
X32309523Y-98254761D01*
X32166666Y-98302380D01*
X32071428Y-98302380D01*
X31928571Y-98254761D01*
X31833333Y-98159523D01*
X31785714Y-98064285D01*
X31738095Y-97873809D01*
X31738095Y-97730952D01*
X31785714Y-97540476D01*
X31833333Y-97445238D01*
X31928571Y-97350000D01*
X32071428Y-97302380D01*
X32166666Y-97302380D01*
X32309523Y-97350000D01*
X32357142Y-97397619D01*
X32690476Y-97302380D02*
X33309523Y-97302380D01*
X32976190Y-97683333D01*
X33119047Y-97683333D01*
X33214285Y-97730952D01*
X33261904Y-97778571D01*
X33309523Y-97873809D01*
X33309523Y-98111904D01*
X33261904Y-98207142D01*
X33214285Y-98254761D01*
X33119047Y-98302380D01*
X32833333Y-98302380D01*
X32738095Y-98254761D01*
X32690476Y-98207142D01*
X33642857Y-97302380D02*
X34309523Y-97302380D01*
X33880952Y-98302380D01*
X40013142Y-98707142D02*
X39965523Y-98754761D01*
X39822666Y-98802380D01*
X39727428Y-98802380D01*
X39584571Y-98754761D01*
X39489333Y-98659523D01*
X39441714Y-98564285D01*
X39394095Y-98373809D01*
X39394095Y-98230952D01*
X39441714Y-98040476D01*
X39489333Y-97945238D01*
X39584571Y-97850000D01*
X39727428Y-97802380D01*
X39822666Y-97802380D01*
X39965523Y-97850000D01*
X40013142Y-97897619D01*
X40346476Y-97802380D02*
X40965523Y-97802380D01*
X40632190Y-98183333D01*
X40775047Y-98183333D01*
X40870285Y-98230952D01*
X40917904Y-98278571D01*
X40965523Y-98373809D01*
X40965523Y-98611904D01*
X40917904Y-98707142D01*
X40870285Y-98754761D01*
X40775047Y-98802380D01*
X40489333Y-98802380D01*
X40394095Y-98754761D01*
X40346476Y-98707142D01*
X41822666Y-98135714D02*
X41822666Y-98802380D01*
X41584571Y-97754761D02*
X41346476Y-98469047D01*
X41965523Y-98469047D01*
X45751904Y-160952380D02*
X45751904Y-161761904D01*
X45799523Y-161857142D01*
X45847142Y-161904761D01*
X45942380Y-161952380D01*
X46132857Y-161952380D01*
X46228095Y-161904761D01*
X46275714Y-161857142D01*
X46323333Y-161761904D01*
X46323333Y-160952380D01*
X46751904Y-161047619D02*
X46799523Y-161000000D01*
X46894761Y-160952380D01*
X47132857Y-160952380D01*
X47228095Y-161000000D01*
X47275714Y-161047619D01*
X47323333Y-161142857D01*
X47323333Y-161238095D01*
X47275714Y-161380952D01*
X46704285Y-161952380D01*
X47323333Y-161952380D01*
X48180476Y-160952380D02*
X47990000Y-160952380D01*
X47894761Y-161000000D01*
X47847142Y-161047619D01*
X47751904Y-161190476D01*
X47704285Y-161380952D01*
X47704285Y-161761904D01*
X47751904Y-161857142D01*
X47799523Y-161904761D01*
X47894761Y-161952380D01*
X48085238Y-161952380D01*
X48180476Y-161904761D01*
X48228095Y-161857142D01*
X48275714Y-161761904D01*
X48275714Y-161523809D01*
X48228095Y-161428571D01*
X48180476Y-161380952D01*
X48085238Y-161333333D01*
X47894761Y-161333333D01*
X47799523Y-161380952D01*
X47751904Y-161428571D01*
X47704285Y-161523809D01*
X49196666Y-136822380D02*
X49196666Y-137536666D01*
X49149047Y-137679523D01*
X49053809Y-137774761D01*
X48910952Y-137822380D01*
X48815714Y-137822380D01*
X50101428Y-136822380D02*
X49910952Y-136822380D01*
X49815714Y-136870000D01*
X49768095Y-136917619D01*
X49672857Y-137060476D01*
X49625238Y-137250952D01*
X49625238Y-137631904D01*
X49672857Y-137727142D01*
X49720476Y-137774761D01*
X49815714Y-137822380D01*
X50006190Y-137822380D01*
X50101428Y-137774761D01*
X50149047Y-137727142D01*
X50196666Y-137631904D01*
X50196666Y-137393809D01*
X50149047Y-137298571D01*
X50101428Y-137250952D01*
X50006190Y-137203333D01*
X49815714Y-137203333D01*
X49720476Y-137250952D01*
X49672857Y-137298571D01*
X49625238Y-137393809D01*
X108886666Y-18712380D02*
X108886666Y-19426666D01*
X108839047Y-19569523D01*
X108743809Y-19664761D01*
X108600952Y-19712380D01*
X108505714Y-19712380D01*
X109839047Y-18712380D02*
X109362857Y-18712380D01*
X109315238Y-19188571D01*
X109362857Y-19140952D01*
X109458095Y-19093333D01*
X109696190Y-19093333D01*
X109791428Y-19140952D01*
X109839047Y-19188571D01*
X109886666Y-19283809D01*
X109886666Y-19521904D01*
X109839047Y-19617142D01*
X109791428Y-19664761D01*
X109696190Y-19712380D01*
X109458095Y-19712380D01*
X109362857Y-19664761D01*
X109315238Y-19617142D01*
X118570476Y-91062380D02*
X119237142Y-92062380D01*
X119237142Y-91062380D02*
X118570476Y-92062380D01*
X120141904Y-92062380D02*
X119570476Y-92062380D01*
X119856190Y-92062380D02*
X119856190Y-91062380D01*
X119760952Y-91205238D01*
X119665714Y-91300476D01*
X119570476Y-91348095D01*
X121951904Y-37292380D02*
X121951904Y-38101904D01*
X121999523Y-38197142D01*
X122047142Y-38244761D01*
X122142380Y-38292380D01*
X122332857Y-38292380D01*
X122428095Y-38244761D01*
X122475714Y-38197142D01*
X122523333Y-38101904D01*
X122523333Y-37292380D01*
X122951904Y-37387619D02*
X122999523Y-37340000D01*
X123094761Y-37292380D01*
X123332857Y-37292380D01*
X123428095Y-37340000D01*
X123475714Y-37387619D01*
X123523333Y-37482857D01*
X123523333Y-37578095D01*
X123475714Y-37720952D01*
X122904285Y-38292380D01*
X123523333Y-38292380D01*
X124094761Y-37720952D02*
X123999523Y-37673333D01*
X123951904Y-37625714D01*
X123904285Y-37530476D01*
X123904285Y-37482857D01*
X123951904Y-37387619D01*
X123999523Y-37340000D01*
X124094761Y-37292380D01*
X124285238Y-37292380D01*
X124380476Y-37340000D01*
X124428095Y-37387619D01*
X124475714Y-37482857D01*
X124475714Y-37530476D01*
X124428095Y-37625714D01*
X124380476Y-37673333D01*
X124285238Y-37720952D01*
X124094761Y-37720952D01*
X123999523Y-37768571D01*
X123951904Y-37816190D01*
X123904285Y-37911428D01*
X123904285Y-38101904D01*
X123951904Y-38197142D01*
X123999523Y-38244761D01*
X124094761Y-38292380D01*
X124285238Y-38292380D01*
X124380476Y-38244761D01*
X124428095Y-38197142D01*
X124475714Y-38101904D01*
X124475714Y-37911428D01*
X124428095Y-37816190D01*
X124380476Y-37768571D01*
X124285238Y-37720952D01*
X60991904Y-110152380D02*
X60991904Y-110961904D01*
X61039523Y-111057142D01*
X61087142Y-111104761D01*
X61182380Y-111152380D01*
X61372857Y-111152380D01*
X61468095Y-111104761D01*
X61515714Y-111057142D01*
X61563333Y-110961904D01*
X61563333Y-110152380D01*
X61991904Y-110247619D02*
X62039523Y-110200000D01*
X62134761Y-110152380D01*
X62372857Y-110152380D01*
X62468095Y-110200000D01*
X62515714Y-110247619D01*
X62563333Y-110342857D01*
X62563333Y-110438095D01*
X62515714Y-110580952D01*
X61944285Y-111152380D01*
X62563333Y-111152380D01*
X62896666Y-110152380D02*
X63563333Y-110152380D01*
X63134761Y-111152380D01*
X144811904Y-125392380D02*
X144811904Y-126201904D01*
X144859523Y-126297142D01*
X144907142Y-126344761D01*
X145002380Y-126392380D01*
X145192857Y-126392380D01*
X145288095Y-126344761D01*
X145335714Y-126297142D01*
X145383333Y-126201904D01*
X145383333Y-125392380D01*
X145811904Y-125487619D02*
X145859523Y-125440000D01*
X145954761Y-125392380D01*
X146192857Y-125392380D01*
X146288095Y-125440000D01*
X146335714Y-125487619D01*
X146383333Y-125582857D01*
X146383333Y-125678095D01*
X146335714Y-125820952D01*
X145764285Y-126392380D01*
X146383333Y-126392380D01*
X147288095Y-125392380D02*
X146811904Y-125392380D01*
X146764285Y-125868571D01*
X146811904Y-125820952D01*
X146907142Y-125773333D01*
X147145238Y-125773333D01*
X147240476Y-125820952D01*
X147288095Y-125868571D01*
X147335714Y-125963809D01*
X147335714Y-126201904D01*
X147288095Y-126297142D01*
X147240476Y-126344761D01*
X147145238Y-126392380D01*
X146907142Y-126392380D01*
X146811904Y-126344761D01*
X146764285Y-126297142D01*
X190531904Y-125392380D02*
X190531904Y-126201904D01*
X190579523Y-126297142D01*
X190627142Y-126344761D01*
X190722380Y-126392380D01*
X190912857Y-126392380D01*
X191008095Y-126344761D01*
X191055714Y-126297142D01*
X191103333Y-126201904D01*
X191103333Y-125392380D01*
X191531904Y-125487619D02*
X191579523Y-125440000D01*
X191674761Y-125392380D01*
X191912857Y-125392380D01*
X192008095Y-125440000D01*
X192055714Y-125487619D01*
X192103333Y-125582857D01*
X192103333Y-125678095D01*
X192055714Y-125820952D01*
X191484285Y-126392380D01*
X192103333Y-126392380D01*
X192960476Y-125725714D02*
X192960476Y-126392380D01*
X192722380Y-125344761D02*
X192484285Y-126059047D01*
X193103333Y-126059047D01*
X144811904Y-54272380D02*
X144811904Y-55081904D01*
X144859523Y-55177142D01*
X144907142Y-55224761D01*
X145002380Y-55272380D01*
X145192857Y-55272380D01*
X145288095Y-55224761D01*
X145335714Y-55177142D01*
X145383333Y-55081904D01*
X145383333Y-54272380D01*
X145811904Y-54367619D02*
X145859523Y-54320000D01*
X145954761Y-54272380D01*
X146192857Y-54272380D01*
X146288095Y-54320000D01*
X146335714Y-54367619D01*
X146383333Y-54462857D01*
X146383333Y-54558095D01*
X146335714Y-54700952D01*
X145764285Y-55272380D01*
X146383333Y-55272380D01*
X147335714Y-55272380D02*
X146764285Y-55272380D01*
X147050000Y-55272380D02*
X147050000Y-54272380D01*
X146954761Y-54415238D01*
X146859523Y-54510476D01*
X146764285Y-54558095D01*
X190531904Y-18712380D02*
X190531904Y-19521904D01*
X190579523Y-19617142D01*
X190627142Y-19664761D01*
X190722380Y-19712380D01*
X190912857Y-19712380D01*
X191008095Y-19664761D01*
X191055714Y-19617142D01*
X191103333Y-19521904D01*
X191103333Y-18712380D01*
X191531904Y-18807619D02*
X191579523Y-18760000D01*
X191674761Y-18712380D01*
X191912857Y-18712380D01*
X192008095Y-18760000D01*
X192055714Y-18807619D01*
X192103333Y-18902857D01*
X192103333Y-18998095D01*
X192055714Y-19140952D01*
X191484285Y-19712380D01*
X192103333Y-19712380D01*
X192722380Y-18712380D02*
X192817619Y-18712380D01*
X192912857Y-18760000D01*
X192960476Y-18807619D01*
X193008095Y-18902857D01*
X193055714Y-19093333D01*
X193055714Y-19331428D01*
X193008095Y-19521904D01*
X192960476Y-19617142D01*
X192912857Y-19664761D01*
X192817619Y-19712380D01*
X192722380Y-19712380D01*
X192627142Y-19664761D01*
X192579523Y-19617142D01*
X192531904Y-19521904D01*
X192484285Y-19331428D01*
X192484285Y-19093333D01*
X192531904Y-18902857D01*
X192579523Y-18807619D01*
X192627142Y-18760000D01*
X192722380Y-18712380D01*
X76231904Y-160952380D02*
X76231904Y-161761904D01*
X76279523Y-161857142D01*
X76327142Y-161904761D01*
X76422380Y-161952380D01*
X76612857Y-161952380D01*
X76708095Y-161904761D01*
X76755714Y-161857142D01*
X76803333Y-161761904D01*
X76803333Y-160952380D01*
X77803333Y-161952380D02*
X77231904Y-161952380D01*
X77517619Y-161952380D02*
X77517619Y-160952380D01*
X77422380Y-161095238D01*
X77327142Y-161190476D01*
X77231904Y-161238095D01*
X78279523Y-161952380D02*
X78470000Y-161952380D01*
X78565238Y-161904761D01*
X78612857Y-161857142D01*
X78708095Y-161714285D01*
X78755714Y-161523809D01*
X78755714Y-161142857D01*
X78708095Y-161047619D01*
X78660476Y-161000000D01*
X78565238Y-160952380D01*
X78374761Y-160952380D01*
X78279523Y-161000000D01*
X78231904Y-161047619D01*
X78184285Y-161142857D01*
X78184285Y-161380952D01*
X78231904Y-161476190D01*
X78279523Y-161523809D01*
X78374761Y-161571428D01*
X78565238Y-161571428D01*
X78660476Y-161523809D01*
X78708095Y-161476190D01*
X78755714Y-161380952D01*
X60991904Y-160952380D02*
X60991904Y-161761904D01*
X61039523Y-161857142D01*
X61087142Y-161904761D01*
X61182380Y-161952380D01*
X61372857Y-161952380D01*
X61468095Y-161904761D01*
X61515714Y-161857142D01*
X61563333Y-161761904D01*
X61563333Y-160952380D01*
X62563333Y-161952380D02*
X61991904Y-161952380D01*
X62277619Y-161952380D02*
X62277619Y-160952380D01*
X62182380Y-161095238D01*
X62087142Y-161190476D01*
X61991904Y-161238095D01*
X63134761Y-161380952D02*
X63039523Y-161333333D01*
X62991904Y-161285714D01*
X62944285Y-161190476D01*
X62944285Y-161142857D01*
X62991904Y-161047619D01*
X63039523Y-161000000D01*
X63134761Y-160952380D01*
X63325238Y-160952380D01*
X63420476Y-161000000D01*
X63468095Y-161047619D01*
X63515714Y-161142857D01*
X63515714Y-161190476D01*
X63468095Y-161285714D01*
X63420476Y-161333333D01*
X63325238Y-161380952D01*
X63134761Y-161380952D01*
X63039523Y-161428571D01*
X62991904Y-161476190D01*
X62944285Y-161571428D01*
X62944285Y-161761904D01*
X62991904Y-161857142D01*
X63039523Y-161904761D01*
X63134761Y-161952380D01*
X63325238Y-161952380D01*
X63420476Y-161904761D01*
X63468095Y-161857142D01*
X63515714Y-161761904D01*
X63515714Y-161571428D01*
X63468095Y-161476190D01*
X63420476Y-161428571D01*
X63325238Y-161380952D01*
X190531904Y-160952380D02*
X190531904Y-161761904D01*
X190579523Y-161857142D01*
X190627142Y-161904761D01*
X190722380Y-161952380D01*
X190912857Y-161952380D01*
X191008095Y-161904761D01*
X191055714Y-161857142D01*
X191103333Y-161761904D01*
X191103333Y-160952380D01*
X192103333Y-161952380D02*
X191531904Y-161952380D01*
X191817619Y-161952380D02*
X191817619Y-160952380D01*
X191722380Y-161095238D01*
X191627142Y-161190476D01*
X191531904Y-161238095D01*
X192436666Y-160952380D02*
X193055714Y-160952380D01*
X192722380Y-161333333D01*
X192865238Y-161333333D01*
X192960476Y-161380952D01*
X193008095Y-161428571D01*
X193055714Y-161523809D01*
X193055714Y-161761904D01*
X193008095Y-161857142D01*
X192960476Y-161904761D01*
X192865238Y-161952380D01*
X192579523Y-161952380D01*
X192484285Y-161904761D01*
X192436666Y-161857142D01*
X95281904Y-115232380D02*
X95281904Y-116041904D01*
X95329523Y-116137142D01*
X95377142Y-116184761D01*
X95472380Y-116232380D01*
X95662857Y-116232380D01*
X95758095Y-116184761D01*
X95805714Y-116137142D01*
X95853333Y-116041904D01*
X95853333Y-115232380D01*
X96853333Y-116232380D02*
X96281904Y-116232380D01*
X96567619Y-116232380D02*
X96567619Y-115232380D01*
X96472380Y-115375238D01*
X96377142Y-115470476D01*
X96281904Y-115518095D01*
X97472380Y-115232380D02*
X97567619Y-115232380D01*
X97662857Y-115280000D01*
X97710476Y-115327619D01*
X97758095Y-115422857D01*
X97805714Y-115613333D01*
X97805714Y-115851428D01*
X97758095Y-116041904D01*
X97710476Y-116137142D01*
X97662857Y-116184761D01*
X97567619Y-116232380D01*
X97472380Y-116232380D01*
X97377142Y-116184761D01*
X97329523Y-116137142D01*
X97281904Y-116041904D01*
X97234285Y-115851428D01*
X97234285Y-115613333D01*
X97281904Y-115422857D01*
X97329523Y-115327619D01*
X97377142Y-115280000D01*
X97472380Y-115232380D01*
X145288095Y-160952380D02*
X145288095Y-161761904D01*
X145335714Y-161857142D01*
X145383333Y-161904761D01*
X145478571Y-161952380D01*
X145669047Y-161952380D01*
X145764285Y-161904761D01*
X145811904Y-161857142D01*
X145859523Y-161761904D01*
X145859523Y-160952380D01*
X146383333Y-161952380D02*
X146573809Y-161952380D01*
X146669047Y-161904761D01*
X146716666Y-161857142D01*
X146811904Y-161714285D01*
X146859523Y-161523809D01*
X146859523Y-161142857D01*
X146811904Y-161047619D01*
X146764285Y-161000000D01*
X146669047Y-160952380D01*
X146478571Y-160952380D01*
X146383333Y-161000000D01*
X146335714Y-161047619D01*
X146288095Y-161142857D01*
X146288095Y-161380952D01*
X146335714Y-161476190D01*
X146383333Y-161523809D01*
X146478571Y-161571428D01*
X146669047Y-161571428D01*
X146764285Y-161523809D01*
X146811904Y-161476190D01*
X146859523Y-161380952D01*
X175768095Y-160952380D02*
X175768095Y-161761904D01*
X175815714Y-161857142D01*
X175863333Y-161904761D01*
X175958571Y-161952380D01*
X176149047Y-161952380D01*
X176244285Y-161904761D01*
X176291904Y-161857142D01*
X176339523Y-161761904D01*
X176339523Y-160952380D01*
X177244285Y-161285714D02*
X177244285Y-161952380D01*
X177006190Y-160904761D02*
X176768095Y-161619047D01*
X177387142Y-161619047D01*
X122428095Y-160952380D02*
X122428095Y-161761904D01*
X122475714Y-161857142D01*
X122523333Y-161904761D01*
X122618571Y-161952380D01*
X122809047Y-161952380D01*
X122904285Y-161904761D01*
X122951904Y-161857142D01*
X122999523Y-161761904D01*
X122999523Y-160952380D01*
X123380476Y-160952380D02*
X123999523Y-160952380D01*
X123666190Y-161333333D01*
X123809047Y-161333333D01*
X123904285Y-161380952D01*
X123951904Y-161428571D01*
X123999523Y-161523809D01*
X123999523Y-161761904D01*
X123951904Y-161857142D01*
X123904285Y-161904761D01*
X123809047Y-161952380D01*
X123523333Y-161952380D01*
X123428095Y-161904761D01*
X123380476Y-161857142D01*
X160528095Y-160952380D02*
X160528095Y-161761904D01*
X160575714Y-161857142D01*
X160623333Y-161904761D01*
X160718571Y-161952380D01*
X160909047Y-161952380D01*
X161004285Y-161904761D01*
X161051904Y-161857142D01*
X161099523Y-161761904D01*
X161099523Y-160952380D01*
X161528095Y-161047619D02*
X161575714Y-161000000D01*
X161670952Y-160952380D01*
X161909047Y-160952380D01*
X162004285Y-161000000D01*
X162051904Y-161047619D01*
X162099523Y-161142857D01*
X162099523Y-161238095D01*
X162051904Y-161380952D01*
X161480476Y-161952380D01*
X162099523Y-161952380D01*
X168219523Y-126322380D02*
X167886190Y-125846190D01*
X167648095Y-126322380D02*
X167648095Y-125322380D01*
X168029047Y-125322380D01*
X168124285Y-125370000D01*
X168171904Y-125417619D01*
X168219523Y-125512857D01*
X168219523Y-125655714D01*
X168171904Y-125750952D01*
X168124285Y-125798571D01*
X168029047Y-125846190D01*
X167648095Y-125846190D01*
X168648095Y-126322380D02*
X168648095Y-125322380D01*
X169219523Y-126322380D01*
X169219523Y-125322380D01*
X170124285Y-125655714D02*
X170124285Y-126322380D01*
X169886190Y-125274761D02*
X169648095Y-125989047D01*
X170267142Y-125989047D01*
X132672380Y-140390476D02*
X132196190Y-140723809D01*
X132672380Y-140961904D02*
X131672380Y-140961904D01*
X131672380Y-140580952D01*
X131720000Y-140485714D01*
X131767619Y-140438095D01*
X131862857Y-140390476D01*
X132005714Y-140390476D01*
X132100952Y-140438095D01*
X132148571Y-140485714D01*
X132196190Y-140580952D01*
X132196190Y-140961904D01*
X132672380Y-139961904D02*
X131672380Y-139961904D01*
X132672380Y-139390476D01*
X131672380Y-139390476D01*
X131672380Y-139009523D02*
X131672380Y-138390476D01*
X132053333Y-138723809D01*
X132053333Y-138580952D01*
X132100952Y-138485714D01*
X132148571Y-138438095D01*
X132243809Y-138390476D01*
X132481904Y-138390476D01*
X132577142Y-138438095D01*
X132624761Y-138485714D01*
X132672380Y-138580952D01*
X132672380Y-138866666D01*
X132624761Y-138961904D01*
X132577142Y-139009523D01*
X47582380Y-122610476D02*
X47106190Y-122943809D01*
X47582380Y-123181904D02*
X46582380Y-123181904D01*
X46582380Y-122800952D01*
X46630000Y-122705714D01*
X46677619Y-122658095D01*
X46772857Y-122610476D01*
X46915714Y-122610476D01*
X47010952Y-122658095D01*
X47058571Y-122705714D01*
X47106190Y-122800952D01*
X47106190Y-123181904D01*
X47582380Y-122181904D02*
X46582380Y-122181904D01*
X47582380Y-121610476D01*
X46582380Y-121610476D01*
X46677619Y-121181904D02*
X46630000Y-121134285D01*
X46582380Y-121039047D01*
X46582380Y-120800952D01*
X46630000Y-120705714D01*
X46677619Y-120658095D01*
X46772857Y-120610476D01*
X46868095Y-120610476D01*
X47010952Y-120658095D01*
X47582380Y-121229523D01*
X47582380Y-120610476D01*
X132672380Y-69270476D02*
X132196190Y-69603809D01*
X132672380Y-69841904D02*
X131672380Y-69841904D01*
X131672380Y-69460952D01*
X131720000Y-69365714D01*
X131767619Y-69318095D01*
X131862857Y-69270476D01*
X132005714Y-69270476D01*
X132100952Y-69318095D01*
X132148571Y-69365714D01*
X132196190Y-69460952D01*
X132196190Y-69841904D01*
X132672380Y-68841904D02*
X131672380Y-68841904D01*
X132672380Y-68270476D01*
X131672380Y-68270476D01*
X132672380Y-67270476D02*
X132672380Y-67841904D01*
X132672380Y-67556190D02*
X131672380Y-67556190D01*
X131815238Y-67651428D01*
X131910476Y-67746666D01*
X131958095Y-67841904D01*
X168267142Y-117732380D02*
X167933809Y-117256190D01*
X167695714Y-117732380D02*
X167695714Y-116732380D01*
X168076666Y-116732380D01*
X168171904Y-116780000D01*
X168219523Y-116827619D01*
X168267142Y-116922857D01*
X168267142Y-117065714D01*
X168219523Y-117160952D01*
X168171904Y-117208571D01*
X168076666Y-117256190D01*
X167695714Y-117256190D01*
X169219523Y-117732380D02*
X168648095Y-117732380D01*
X168933809Y-117732380D02*
X168933809Y-116732380D01*
X168838571Y-116875238D01*
X168743333Y-116970476D01*
X168648095Y-117018095D01*
X169838571Y-116732380D02*
X169933809Y-116732380D01*
X170029047Y-116780000D01*
X170076666Y-116827619D01*
X170124285Y-116922857D01*
X170171904Y-117113333D01*
X170171904Y-117351428D01*
X170124285Y-117541904D01*
X170076666Y-117637142D01*
X170029047Y-117684761D01*
X169933809Y-117732380D01*
X169838571Y-117732380D01*
X169743333Y-117684761D01*
X169695714Y-117637142D01*
X169648095Y-117541904D01*
X169600476Y-117351428D01*
X169600476Y-117113333D01*
X169648095Y-116922857D01*
X169695714Y-116827619D01*
X169743333Y-116780000D01*
X169838571Y-116732380D01*
X56983333Y-99952380D02*
X56650000Y-99476190D01*
X56411904Y-99952380D02*
X56411904Y-98952380D01*
X56792857Y-98952380D01*
X56888095Y-99000000D01*
X56935714Y-99047619D01*
X56983333Y-99142857D01*
X56983333Y-99285714D01*
X56935714Y-99380952D01*
X56888095Y-99428571D01*
X56792857Y-99476190D01*
X56411904Y-99476190D01*
X57459523Y-99952380D02*
X57650000Y-99952380D01*
X57745238Y-99904761D01*
X57792857Y-99857142D01*
X57888095Y-99714285D01*
X57935714Y-99523809D01*
X57935714Y-99142857D01*
X57888095Y-99047619D01*
X57840476Y-99000000D01*
X57745238Y-98952380D01*
X57554761Y-98952380D01*
X57459523Y-99000000D01*
X57411904Y-99047619D01*
X57364285Y-99142857D01*
X57364285Y-99380952D01*
X57411904Y-99476190D01*
X57459523Y-99523809D01*
X57554761Y-99571428D01*
X57745238Y-99571428D01*
X57840476Y-99523809D01*
X57888095Y-99476190D01*
X57935714Y-99380952D01*
X97623333Y-99952380D02*
X97290000Y-99476190D01*
X97051904Y-99952380D02*
X97051904Y-98952380D01*
X97432857Y-98952380D01*
X97528095Y-99000000D01*
X97575714Y-99047619D01*
X97623333Y-99142857D01*
X97623333Y-99285714D01*
X97575714Y-99380952D01*
X97528095Y-99428571D01*
X97432857Y-99476190D01*
X97051904Y-99476190D01*
X98194761Y-99380952D02*
X98099523Y-99333333D01*
X98051904Y-99285714D01*
X98004285Y-99190476D01*
X98004285Y-99142857D01*
X98051904Y-99047619D01*
X98099523Y-99000000D01*
X98194761Y-98952380D01*
X98385238Y-98952380D01*
X98480476Y-99000000D01*
X98528095Y-99047619D01*
X98575714Y-99142857D01*
X98575714Y-99190476D01*
X98528095Y-99285714D01*
X98480476Y-99333333D01*
X98385238Y-99380952D01*
X98194761Y-99380952D01*
X98099523Y-99428571D01*
X98051904Y-99476190D01*
X98004285Y-99571428D01*
X98004285Y-99761904D01*
X98051904Y-99857142D01*
X98099523Y-99904761D01*
X98194761Y-99952380D01*
X98385238Y-99952380D01*
X98480476Y-99904761D01*
X98528095Y-99857142D01*
X98575714Y-99761904D01*
X98575714Y-99571428D01*
X98528095Y-99476190D01*
X98480476Y-99428571D01*
X98385238Y-99380952D01*
X97623333Y-92332380D02*
X97290000Y-91856190D01*
X97051904Y-92332380D02*
X97051904Y-91332380D01*
X97432857Y-91332380D01*
X97528095Y-91380000D01*
X97575714Y-91427619D01*
X97623333Y-91522857D01*
X97623333Y-91665714D01*
X97575714Y-91760952D01*
X97528095Y-91808571D01*
X97432857Y-91856190D01*
X97051904Y-91856190D01*
X97956666Y-91332380D02*
X98623333Y-91332380D01*
X98194761Y-92332380D01*
X56983333Y-92332380D02*
X56650000Y-91856190D01*
X56411904Y-92332380D02*
X56411904Y-91332380D01*
X56792857Y-91332380D01*
X56888095Y-91380000D01*
X56935714Y-91427619D01*
X56983333Y-91522857D01*
X56983333Y-91665714D01*
X56935714Y-91760952D01*
X56888095Y-91808571D01*
X56792857Y-91856190D01*
X56411904Y-91856190D01*
X57840476Y-91332380D02*
X57650000Y-91332380D01*
X57554761Y-91380000D01*
X57507142Y-91427619D01*
X57411904Y-91570476D01*
X57364285Y-91760952D01*
X57364285Y-92141904D01*
X57411904Y-92237142D01*
X57459523Y-92284761D01*
X57554761Y-92332380D01*
X57745238Y-92332380D01*
X57840476Y-92284761D01*
X57888095Y-92237142D01*
X57935714Y-92141904D01*
X57935714Y-91903809D01*
X57888095Y-91808571D01*
X57840476Y-91760952D01*
X57745238Y-91713333D01*
X57554761Y-91713333D01*
X57459523Y-91760952D01*
X57411904Y-91808571D01*
X57364285Y-91903809D01*
X37722380Y-147486666D02*
X37246190Y-147820000D01*
X37722380Y-148058095D02*
X36722380Y-148058095D01*
X36722380Y-147677142D01*
X36770000Y-147581904D01*
X36817619Y-147534285D01*
X36912857Y-147486666D01*
X37055714Y-147486666D01*
X37150952Y-147534285D01*
X37198571Y-147581904D01*
X37246190Y-147677142D01*
X37246190Y-148058095D01*
X36722380Y-146581904D02*
X36722380Y-147058095D01*
X37198571Y-147105714D01*
X37150952Y-147058095D01*
X37103333Y-146962857D01*
X37103333Y-146724761D01*
X37150952Y-146629523D01*
X37198571Y-146581904D01*
X37293809Y-146534285D01*
X37531904Y-146534285D01*
X37627142Y-146581904D01*
X37674761Y-146629523D01*
X37722380Y-146724761D01*
X37722380Y-146962857D01*
X37674761Y-147058095D01*
X37627142Y-147105714D01*
X30102380Y-147486666D02*
X29626190Y-147820000D01*
X30102380Y-148058095D02*
X29102380Y-148058095D01*
X29102380Y-147677142D01*
X29150000Y-147581904D01*
X29197619Y-147534285D01*
X29292857Y-147486666D01*
X29435714Y-147486666D01*
X29530952Y-147534285D01*
X29578571Y-147581904D01*
X29626190Y-147677142D01*
X29626190Y-148058095D01*
X29435714Y-146629523D02*
X30102380Y-146629523D01*
X29054761Y-146867619D02*
X29769047Y-147105714D01*
X29769047Y-146486666D01*
X37722380Y-119546666D02*
X37246190Y-119880000D01*
X37722380Y-120118095D02*
X36722380Y-120118095D01*
X36722380Y-119737142D01*
X36770000Y-119641904D01*
X36817619Y-119594285D01*
X36912857Y-119546666D01*
X37055714Y-119546666D01*
X37150952Y-119594285D01*
X37198571Y-119641904D01*
X37246190Y-119737142D01*
X37246190Y-120118095D01*
X36722380Y-119213333D02*
X36722380Y-118594285D01*
X37103333Y-118927619D01*
X37103333Y-118784761D01*
X37150952Y-118689523D01*
X37198571Y-118641904D01*
X37293809Y-118594285D01*
X37531904Y-118594285D01*
X37627142Y-118641904D01*
X37674761Y-118689523D01*
X37722380Y-118784761D01*
X37722380Y-119070476D01*
X37674761Y-119165714D01*
X37627142Y-119213333D01*
X30102380Y-119546666D02*
X29626190Y-119880000D01*
X30102380Y-120118095D02*
X29102380Y-120118095D01*
X29102380Y-119737142D01*
X29150000Y-119641904D01*
X29197619Y-119594285D01*
X29292857Y-119546666D01*
X29435714Y-119546666D01*
X29530952Y-119594285D01*
X29578571Y-119641904D01*
X29626190Y-119737142D01*
X29626190Y-120118095D01*
X29197619Y-119165714D02*
X29150000Y-119118095D01*
X29102380Y-119022857D01*
X29102380Y-118784761D01*
X29150000Y-118689523D01*
X29197619Y-118641904D01*
X29292857Y-118594285D01*
X29388095Y-118594285D01*
X29530952Y-118641904D01*
X30102380Y-119213333D01*
X30102380Y-118594285D01*
X30102380Y-175426666D02*
X29626190Y-175760000D01*
X30102380Y-175998095D02*
X29102380Y-175998095D01*
X29102380Y-175617142D01*
X29150000Y-175521904D01*
X29197619Y-175474285D01*
X29292857Y-175426666D01*
X29435714Y-175426666D01*
X29530952Y-175474285D01*
X29578571Y-175521904D01*
X29626190Y-175617142D01*
X29626190Y-175998095D01*
X30102380Y-174474285D02*
X30102380Y-175045714D01*
X30102380Y-174760000D02*
X29102380Y-174760000D01*
X29245238Y-174855238D01*
X29340476Y-174950476D01*
X29388095Y-175045714D01*
X103802380Y-111299523D02*
X104516666Y-111299523D01*
X104659523Y-111347142D01*
X104754761Y-111442380D01*
X104802380Y-111585238D01*
X104802380Y-111680476D01*
X104802380Y-110299523D02*
X104802380Y-110870952D01*
X104802380Y-110585238D02*
X103802380Y-110585238D01*
X103945238Y-110680476D01*
X104040476Y-110775714D01*
X104088095Y-110870952D01*
X103802380Y-109680476D02*
X103802380Y-109585238D01*
X103850000Y-109490000D01*
X103897619Y-109442380D01*
X103992857Y-109394761D01*
X104183333Y-109347142D01*
X104421428Y-109347142D01*
X104611904Y-109394761D01*
X104707142Y-109442380D01*
X104754761Y-109490000D01*
X104802380Y-109585238D01*
X104802380Y-109680476D01*
X104754761Y-109775714D01*
X104707142Y-109823333D01*
X104611904Y-109870952D01*
X104421428Y-109918571D01*
X104183333Y-109918571D01*
X103992857Y-109870952D01*
X103897619Y-109823333D01*
X103850000Y-109775714D01*
X103802380Y-109680476D01*
X134286666Y-18712380D02*
X134286666Y-19426666D01*
X134239047Y-19569523D01*
X134143809Y-19664761D01*
X134000952Y-19712380D01*
X133905714Y-19712380D01*
X134810476Y-19712380D02*
X135000952Y-19712380D01*
X135096190Y-19664761D01*
X135143809Y-19617142D01*
X135239047Y-19474285D01*
X135286666Y-19283809D01*
X135286666Y-18902857D01*
X135239047Y-18807619D01*
X135191428Y-18760000D01*
X135096190Y-18712380D01*
X134905714Y-18712380D01*
X134810476Y-18760000D01*
X134762857Y-18807619D01*
X134715238Y-18902857D01*
X134715238Y-19140952D01*
X134762857Y-19236190D01*
X134810476Y-19283809D01*
X134905714Y-19331428D01*
X135096190Y-19331428D01*
X135191428Y-19283809D01*
X135239047Y-19236190D01*
X135286666Y-19140952D01*
X116892380Y-24903333D02*
X117606666Y-24903333D01*
X117749523Y-24950952D01*
X117844761Y-25046190D01*
X117892380Y-25189047D01*
X117892380Y-25284285D01*
X117320952Y-24284285D02*
X117273333Y-24379523D01*
X117225714Y-24427142D01*
X117130476Y-24474761D01*
X117082857Y-24474761D01*
X116987619Y-24427142D01*
X116940000Y-24379523D01*
X116892380Y-24284285D01*
X116892380Y-24093809D01*
X116940000Y-23998571D01*
X116987619Y-23950952D01*
X117082857Y-23903333D01*
X117130476Y-23903333D01*
X117225714Y-23950952D01*
X117273333Y-23998571D01*
X117320952Y-24093809D01*
X117320952Y-24284285D01*
X117368571Y-24379523D01*
X117416190Y-24427142D01*
X117511428Y-24474761D01*
X117701904Y-24474761D01*
X117797142Y-24427142D01*
X117844761Y-24379523D01*
X117892380Y-24284285D01*
X117892380Y-24093809D01*
X117844761Y-23998571D01*
X117797142Y-23950952D01*
X117701904Y-23903333D01*
X117511428Y-23903333D01*
X117416190Y-23950952D01*
X117368571Y-23998571D01*
X117320952Y-24093809D01*
X134286666Y-115232380D02*
X134286666Y-115946666D01*
X134239047Y-116089523D01*
X134143809Y-116184761D01*
X134000952Y-116232380D01*
X133905714Y-116232380D01*
X134667619Y-115232380D02*
X135334285Y-115232380D01*
X134905714Y-116232380D01*
X89836666Y-18712380D02*
X89836666Y-19426666D01*
X89789047Y-19569523D01*
X89693809Y-19664761D01*
X89550952Y-19712380D01*
X89455714Y-19712380D01*
X90741428Y-19045714D02*
X90741428Y-19712380D01*
X90503333Y-18664761D02*
X90265238Y-19379047D01*
X90884285Y-19379047D01*
X70786666Y-18712380D02*
X70786666Y-19426666D01*
X70739047Y-19569523D01*
X70643809Y-19664761D01*
X70500952Y-19712380D01*
X70405714Y-19712380D01*
X71167619Y-18712380D02*
X71786666Y-18712380D01*
X71453333Y-19093333D01*
X71596190Y-19093333D01*
X71691428Y-19140952D01*
X71739047Y-19188571D01*
X71786666Y-19283809D01*
X71786666Y-19521904D01*
X71739047Y-19617142D01*
X71691428Y-19664761D01*
X71596190Y-19712380D01*
X71310476Y-19712380D01*
X71215238Y-19664761D01*
X71167619Y-19617142D01*
X51736666Y-18712380D02*
X51736666Y-19426666D01*
X51689047Y-19569523D01*
X51593809Y-19664761D01*
X51450952Y-19712380D01*
X51355714Y-19712380D01*
X52165238Y-18807619D02*
X52212857Y-18760000D01*
X52308095Y-18712380D01*
X52546190Y-18712380D01*
X52641428Y-18760000D01*
X52689047Y-18807619D01*
X52736666Y-18902857D01*
X52736666Y-18998095D01*
X52689047Y-19140952D01*
X52117619Y-19712380D01*
X52736666Y-19712380D01*
X32686666Y-18712380D02*
X32686666Y-19426666D01*
X32639047Y-19569523D01*
X32543809Y-19664761D01*
X32400952Y-19712380D01*
X32305714Y-19712380D01*
X33686666Y-19712380D02*
X33115238Y-19712380D01*
X33400952Y-19712380D02*
X33400952Y-18712380D01*
X33305714Y-18855238D01*
X33210476Y-18950476D01*
X33115238Y-18998095D01*
X168171904Y-108252380D02*
X168171904Y-107252380D01*
X168410000Y-107252380D01*
X168552857Y-107300000D01*
X168648095Y-107395238D01*
X168695714Y-107490476D01*
X168743333Y-107680952D01*
X168743333Y-107823809D01*
X168695714Y-108014285D01*
X168648095Y-108109523D01*
X168552857Y-108204761D01*
X168410000Y-108252380D01*
X168171904Y-108252380D01*
X169124285Y-107347619D02*
X169171904Y-107300000D01*
X169267142Y-107252380D01*
X169505238Y-107252380D01*
X169600476Y-107300000D01*
X169648095Y-107347619D01*
X169695714Y-107442857D01*
X169695714Y-107538095D01*
X169648095Y-107680952D01*
X169076666Y-108252380D01*
X169695714Y-108252380D01*
X132602380Y-40108095D02*
X131602380Y-40108095D01*
X131602380Y-39870000D01*
X131650000Y-39727142D01*
X131745238Y-39631904D01*
X131840476Y-39584285D01*
X132030952Y-39536666D01*
X132173809Y-39536666D01*
X132364285Y-39584285D01*
X132459523Y-39631904D01*
X132554761Y-39727142D01*
X132602380Y-39870000D01*
X132602380Y-40108095D01*
X132602380Y-38584285D02*
X132602380Y-39155714D01*
X132602380Y-38870000D02*
X131602380Y-38870000D01*
X131745238Y-38965238D01*
X131840476Y-39060476D01*
X131888095Y-39155714D01*
X122531142Y-73307142D02*
X122483523Y-73354761D01*
X122340666Y-73402380D01*
X122245428Y-73402380D01*
X122102571Y-73354761D01*
X122007333Y-73259523D01*
X121959714Y-73164285D01*
X121912095Y-72973809D01*
X121912095Y-72830952D01*
X121959714Y-72640476D01*
X122007333Y-72545238D01*
X122102571Y-72450000D01*
X122245428Y-72402380D01*
X122340666Y-72402380D01*
X122483523Y-72450000D01*
X122531142Y-72497619D01*
X123388285Y-72735714D02*
X123388285Y-73402380D01*
X123150190Y-72354761D02*
X122912095Y-73069047D01*
X123531142Y-73069047D01*
X124102571Y-72402380D02*
X124197809Y-72402380D01*
X124293047Y-72450000D01*
X124340666Y-72497619D01*
X124388285Y-72592857D01*
X124435904Y-72783333D01*
X124435904Y-73021428D01*
X124388285Y-73211904D01*
X124340666Y-73307142D01*
X124293047Y-73354761D01*
X124197809Y-73402380D01*
X124102571Y-73402380D01*
X124007333Y-73354761D01*
X123959714Y-73307142D01*
X123912095Y-73211904D01*
X123864476Y-73021428D01*
X123864476Y-72783333D01*
X123912095Y-72592857D01*
X123959714Y-72497619D01*
X124007333Y-72450000D01*
X124102571Y-72402380D01*
X122507142Y-83217142D02*
X122459523Y-83264761D01*
X122316666Y-83312380D01*
X122221428Y-83312380D01*
X122078571Y-83264761D01*
X121983333Y-83169523D01*
X121935714Y-83074285D01*
X121888095Y-82883809D01*
X121888095Y-82740952D01*
X121935714Y-82550476D01*
X121983333Y-82455238D01*
X122078571Y-82360000D01*
X122221428Y-82312380D01*
X122316666Y-82312380D01*
X122459523Y-82360000D01*
X122507142Y-82407619D01*
X122840476Y-82312380D02*
X123459523Y-82312380D01*
X123126190Y-82693333D01*
X123269047Y-82693333D01*
X123364285Y-82740952D01*
X123411904Y-82788571D01*
X123459523Y-82883809D01*
X123459523Y-83121904D01*
X123411904Y-83217142D01*
X123364285Y-83264761D01*
X123269047Y-83312380D01*
X122983333Y-83312380D01*
X122888095Y-83264761D01*
X122840476Y-83217142D01*
X123935714Y-83312380D02*
X124126190Y-83312380D01*
X124221428Y-83264761D01*
X124269047Y-83217142D01*
X124364285Y-83074285D01*
X124411904Y-82883809D01*
X124411904Y-82502857D01*
X124364285Y-82407619D01*
X124316666Y-82360000D01*
X124221428Y-82312380D01*
X124030952Y-82312380D01*
X123935714Y-82360000D01*
X123888095Y-82407619D01*
X123840476Y-82502857D01*
X123840476Y-82740952D01*
X123888095Y-82836190D01*
X123935714Y-82883809D01*
X124030952Y-82931428D01*
X124221428Y-82931428D01*
X124316666Y-82883809D01*
X124364285Y-82836190D01*
X124411904Y-82740952D01*
X133937142Y-83217142D02*
X133889523Y-83264761D01*
X133746666Y-83312380D01*
X133651428Y-83312380D01*
X133508571Y-83264761D01*
X133413333Y-83169523D01*
X133365714Y-83074285D01*
X133318095Y-82883809D01*
X133318095Y-82740952D01*
X133365714Y-82550476D01*
X133413333Y-82455238D01*
X133508571Y-82360000D01*
X133651428Y-82312380D01*
X133746666Y-82312380D01*
X133889523Y-82360000D01*
X133937142Y-82407619D01*
X134270476Y-82312380D02*
X134889523Y-82312380D01*
X134556190Y-82693333D01*
X134699047Y-82693333D01*
X134794285Y-82740952D01*
X134841904Y-82788571D01*
X134889523Y-82883809D01*
X134889523Y-83121904D01*
X134841904Y-83217142D01*
X134794285Y-83264761D01*
X134699047Y-83312380D01*
X134413333Y-83312380D01*
X134318095Y-83264761D01*
X134270476Y-83217142D01*
X135460952Y-82740952D02*
X135365714Y-82693333D01*
X135318095Y-82645714D01*
X135270476Y-82550476D01*
X135270476Y-82502857D01*
X135318095Y-82407619D01*
X135365714Y-82360000D01*
X135460952Y-82312380D01*
X135651428Y-82312380D01*
X135746666Y-82360000D01*
X135794285Y-82407619D01*
X135841904Y-82502857D01*
X135841904Y-82550476D01*
X135794285Y-82645714D01*
X135746666Y-82693333D01*
X135651428Y-82740952D01*
X135460952Y-82740952D01*
X135365714Y-82788571D01*
X135318095Y-82836190D01*
X135270476Y-82931428D01*
X135270476Y-83121904D01*
X135318095Y-83217142D01*
X135365714Y-83264761D01*
X135460952Y-83312380D01*
X135651428Y-83312380D01*
X135746666Y-83264761D01*
X135794285Y-83217142D01*
X135841904Y-83121904D01*
X135841904Y-82931428D01*
X135794285Y-82836190D01*
X135746666Y-82788571D01*
X135651428Y-82740952D01*
X122527142Y-63917142D02*
X122479523Y-63964761D01*
X122336666Y-64012380D01*
X122241428Y-64012380D01*
X122098571Y-63964761D01*
X122003333Y-63869523D01*
X121955714Y-63774285D01*
X121908095Y-63583809D01*
X121908095Y-63440952D01*
X121955714Y-63250476D01*
X122003333Y-63155238D01*
X122098571Y-63060000D01*
X122241428Y-63012380D01*
X122336666Y-63012380D01*
X122479523Y-63060000D01*
X122527142Y-63107619D01*
X122860476Y-63012380D02*
X123479523Y-63012380D01*
X123146190Y-63393333D01*
X123289047Y-63393333D01*
X123384285Y-63440952D01*
X123431904Y-63488571D01*
X123479523Y-63583809D01*
X123479523Y-63821904D01*
X123431904Y-63917142D01*
X123384285Y-63964761D01*
X123289047Y-64012380D01*
X123003333Y-64012380D01*
X122908095Y-63964761D01*
X122860476Y-63917142D01*
X124336666Y-63012380D02*
X124146190Y-63012380D01*
X124050952Y-63060000D01*
X124003333Y-63107619D01*
X123908095Y-63250476D01*
X123860476Y-63440952D01*
X123860476Y-63821904D01*
X123908095Y-63917142D01*
X123955714Y-63964761D01*
X124050952Y-64012380D01*
X124241428Y-64012380D01*
X124336666Y-63964761D01*
X124384285Y-63917142D01*
X124431904Y-63821904D01*
X124431904Y-63583809D01*
X124384285Y-63488571D01*
X124336666Y-63440952D01*
X124241428Y-63393333D01*
X124050952Y-63393333D01*
X123955714Y-63440952D01*
X123908095Y-63488571D01*
X123860476Y-63583809D01*
X76787142Y-95917142D02*
X76739523Y-95964761D01*
X76596666Y-96012380D01*
X76501428Y-96012380D01*
X76358571Y-95964761D01*
X76263333Y-95869523D01*
X76215714Y-95774285D01*
X76168095Y-95583809D01*
X76168095Y-95440952D01*
X76215714Y-95250476D01*
X76263333Y-95155238D01*
X76358571Y-95060000D01*
X76501428Y-95012380D01*
X76596666Y-95012380D01*
X76739523Y-95060000D01*
X76787142Y-95107619D01*
X77120476Y-95012380D02*
X77739523Y-95012380D01*
X77406190Y-95393333D01*
X77549047Y-95393333D01*
X77644285Y-95440952D01*
X77691904Y-95488571D01*
X77739523Y-95583809D01*
X77739523Y-95821904D01*
X77691904Y-95917142D01*
X77644285Y-95964761D01*
X77549047Y-96012380D01*
X77263333Y-96012380D01*
X77168095Y-95964761D01*
X77120476Y-95917142D01*
X78644285Y-95012380D02*
X78168095Y-95012380D01*
X78120476Y-95488571D01*
X78168095Y-95440952D01*
X78263333Y-95393333D01*
X78501428Y-95393333D01*
X78596666Y-95440952D01*
X78644285Y-95488571D01*
X78691904Y-95583809D01*
X78691904Y-95821904D01*
X78644285Y-95917142D01*
X78596666Y-95964761D01*
X78501428Y-96012380D01*
X78263333Y-96012380D01*
X78168095Y-95964761D01*
X78120476Y-95917142D01*
X118697142Y-154337142D02*
X118649523Y-154384761D01*
X118506666Y-154432380D01*
X118411428Y-154432380D01*
X118268571Y-154384761D01*
X118173333Y-154289523D01*
X118125714Y-154194285D01*
X118078095Y-154003809D01*
X118078095Y-153860952D01*
X118125714Y-153670476D01*
X118173333Y-153575238D01*
X118268571Y-153480000D01*
X118411428Y-153432380D01*
X118506666Y-153432380D01*
X118649523Y-153480000D01*
X118697142Y-153527619D01*
X119030476Y-153432380D02*
X119649523Y-153432380D01*
X119316190Y-153813333D01*
X119459047Y-153813333D01*
X119554285Y-153860952D01*
X119601904Y-153908571D01*
X119649523Y-154003809D01*
X119649523Y-154241904D01*
X119601904Y-154337142D01*
X119554285Y-154384761D01*
X119459047Y-154432380D01*
X119173333Y-154432380D01*
X119078095Y-154384761D01*
X119030476Y-154337142D01*
X119982857Y-153432380D02*
X120601904Y-153432380D01*
X120268571Y-153813333D01*
X120411428Y-153813333D01*
X120506666Y-153860952D01*
X120554285Y-153908571D01*
X120601904Y-154003809D01*
X120601904Y-154241904D01*
X120554285Y-154337142D01*
X120506666Y-154384761D01*
X120411428Y-154432380D01*
X120125714Y-154432380D01*
X120030476Y-154384761D01*
X119982857Y-154337142D01*
X122507142Y-182277142D02*
X122459523Y-182324761D01*
X122316666Y-182372380D01*
X122221428Y-182372380D01*
X122078571Y-182324761D01*
X121983333Y-182229523D01*
X121935714Y-182134285D01*
X121888095Y-181943809D01*
X121888095Y-181800952D01*
X121935714Y-181610476D01*
X121983333Y-181515238D01*
X122078571Y-181420000D01*
X122221428Y-181372380D01*
X122316666Y-181372380D01*
X122459523Y-181420000D01*
X122507142Y-181467619D01*
X122840476Y-181372380D02*
X123459523Y-181372380D01*
X123126190Y-181753333D01*
X123269047Y-181753333D01*
X123364285Y-181800952D01*
X123411904Y-181848571D01*
X123459523Y-181943809D01*
X123459523Y-182181904D01*
X123411904Y-182277142D01*
X123364285Y-182324761D01*
X123269047Y-182372380D01*
X122983333Y-182372380D01*
X122888095Y-182324761D01*
X122840476Y-182277142D01*
X123840476Y-181467619D02*
X123888095Y-181420000D01*
X123983333Y-181372380D01*
X124221428Y-181372380D01*
X124316666Y-181420000D01*
X124364285Y-181467619D01*
X124411904Y-181562857D01*
X124411904Y-181658095D01*
X124364285Y-181800952D01*
X123792857Y-182372380D01*
X124411904Y-182372380D01*
X76787142Y-154337142D02*
X76739523Y-154384761D01*
X76596666Y-154432380D01*
X76501428Y-154432380D01*
X76358571Y-154384761D01*
X76263333Y-154289523D01*
X76215714Y-154194285D01*
X76168095Y-154003809D01*
X76168095Y-153860952D01*
X76215714Y-153670476D01*
X76263333Y-153575238D01*
X76358571Y-153480000D01*
X76501428Y-153432380D01*
X76596666Y-153432380D01*
X76739523Y-153480000D01*
X76787142Y-153527619D01*
X77120476Y-153432380D02*
X77739523Y-153432380D01*
X77406190Y-153813333D01*
X77549047Y-153813333D01*
X77644285Y-153860952D01*
X77691904Y-153908571D01*
X77739523Y-154003809D01*
X77739523Y-154241904D01*
X77691904Y-154337142D01*
X77644285Y-154384761D01*
X77549047Y-154432380D01*
X77263333Y-154432380D01*
X77168095Y-154384761D01*
X77120476Y-154337142D01*
X78691904Y-154432380D02*
X78120476Y-154432380D01*
X78406190Y-154432380D02*
X78406190Y-153432380D01*
X78310952Y-153575238D01*
X78215714Y-153670476D01*
X78120476Y-153718095D01*
X46307142Y-182277142D02*
X46259523Y-182324761D01*
X46116666Y-182372380D01*
X46021428Y-182372380D01*
X45878571Y-182324761D01*
X45783333Y-182229523D01*
X45735714Y-182134285D01*
X45688095Y-181943809D01*
X45688095Y-181800952D01*
X45735714Y-181610476D01*
X45783333Y-181515238D01*
X45878571Y-181420000D01*
X46021428Y-181372380D01*
X46116666Y-181372380D01*
X46259523Y-181420000D01*
X46307142Y-181467619D01*
X46640476Y-181372380D02*
X47259523Y-181372380D01*
X46926190Y-181753333D01*
X47069047Y-181753333D01*
X47164285Y-181800952D01*
X47211904Y-181848571D01*
X47259523Y-181943809D01*
X47259523Y-182181904D01*
X47211904Y-182277142D01*
X47164285Y-182324761D01*
X47069047Y-182372380D01*
X46783333Y-182372380D01*
X46688095Y-182324761D01*
X46640476Y-182277142D01*
X47878571Y-181372380D02*
X47973809Y-181372380D01*
X48069047Y-181420000D01*
X48116666Y-181467619D01*
X48164285Y-181562857D01*
X48211904Y-181753333D01*
X48211904Y-181991428D01*
X48164285Y-182181904D01*
X48116666Y-182277142D01*
X48069047Y-182324761D01*
X47973809Y-182372380D01*
X47878571Y-182372380D01*
X47783333Y-182324761D01*
X47735714Y-182277142D01*
X47688095Y-182181904D01*
X47640476Y-181991428D01*
X47640476Y-181753333D01*
X47688095Y-181562857D01*
X47735714Y-181467619D01*
X47783333Y-181420000D01*
X47878571Y-181372380D01*
X145367142Y-182277142D02*
X145319523Y-182324761D01*
X145176666Y-182372380D01*
X145081428Y-182372380D01*
X144938571Y-182324761D01*
X144843333Y-182229523D01*
X144795714Y-182134285D01*
X144748095Y-181943809D01*
X144748095Y-181800952D01*
X144795714Y-181610476D01*
X144843333Y-181515238D01*
X144938571Y-181420000D01*
X145081428Y-181372380D01*
X145176666Y-181372380D01*
X145319523Y-181420000D01*
X145367142Y-181467619D01*
X145748095Y-181467619D02*
X145795714Y-181420000D01*
X145890952Y-181372380D01*
X146129047Y-181372380D01*
X146224285Y-181420000D01*
X146271904Y-181467619D01*
X146319523Y-181562857D01*
X146319523Y-181658095D01*
X146271904Y-181800952D01*
X145700476Y-182372380D01*
X146319523Y-182372380D01*
X146795714Y-182372380D02*
X146986190Y-182372380D01*
X147081428Y-182324761D01*
X147129047Y-182277142D01*
X147224285Y-182134285D01*
X147271904Y-181943809D01*
X147271904Y-181562857D01*
X147224285Y-181467619D01*
X147176666Y-181420000D01*
X147081428Y-181372380D01*
X146890952Y-181372380D01*
X146795714Y-181420000D01*
X146748095Y-181467619D01*
X146700476Y-181562857D01*
X146700476Y-181800952D01*
X146748095Y-181896190D01*
X146795714Y-181943809D01*
X146890952Y-181991428D01*
X147081428Y-181991428D01*
X147176666Y-181943809D01*
X147224285Y-181896190D01*
X147271904Y-181800952D01*
X92027142Y-182277142D02*
X91979523Y-182324761D01*
X91836666Y-182372380D01*
X91741428Y-182372380D01*
X91598571Y-182324761D01*
X91503333Y-182229523D01*
X91455714Y-182134285D01*
X91408095Y-181943809D01*
X91408095Y-181800952D01*
X91455714Y-181610476D01*
X91503333Y-181515238D01*
X91598571Y-181420000D01*
X91741428Y-181372380D01*
X91836666Y-181372380D01*
X91979523Y-181420000D01*
X92027142Y-181467619D01*
X92408095Y-181467619D02*
X92455714Y-181420000D01*
X92550952Y-181372380D01*
X92789047Y-181372380D01*
X92884285Y-181420000D01*
X92931904Y-181467619D01*
X92979523Y-181562857D01*
X92979523Y-181658095D01*
X92931904Y-181800952D01*
X92360476Y-182372380D01*
X92979523Y-182372380D01*
X93550952Y-181800952D02*
X93455714Y-181753333D01*
X93408095Y-181705714D01*
X93360476Y-181610476D01*
X93360476Y-181562857D01*
X93408095Y-181467619D01*
X93455714Y-181420000D01*
X93550952Y-181372380D01*
X93741428Y-181372380D01*
X93836666Y-181420000D01*
X93884285Y-181467619D01*
X93931904Y-181562857D01*
X93931904Y-181610476D01*
X93884285Y-181705714D01*
X93836666Y-181753333D01*
X93741428Y-181800952D01*
X93550952Y-181800952D01*
X93455714Y-181848571D01*
X93408095Y-181896190D01*
X93360476Y-181991428D01*
X93360476Y-182181904D01*
X93408095Y-182277142D01*
X93455714Y-182324761D01*
X93550952Y-182372380D01*
X93741428Y-182372380D01*
X93836666Y-182324761D01*
X93884285Y-182277142D01*
X93931904Y-182181904D01*
X93931904Y-181991428D01*
X93884285Y-181896190D01*
X93836666Y-181848571D01*
X93741428Y-181800952D01*
X160607142Y-182277142D02*
X160559523Y-182324761D01*
X160416666Y-182372380D01*
X160321428Y-182372380D01*
X160178571Y-182324761D01*
X160083333Y-182229523D01*
X160035714Y-182134285D01*
X159988095Y-181943809D01*
X159988095Y-181800952D01*
X160035714Y-181610476D01*
X160083333Y-181515238D01*
X160178571Y-181420000D01*
X160321428Y-181372380D01*
X160416666Y-181372380D01*
X160559523Y-181420000D01*
X160607142Y-181467619D01*
X160988095Y-181467619D02*
X161035714Y-181420000D01*
X161130952Y-181372380D01*
X161369047Y-181372380D01*
X161464285Y-181420000D01*
X161511904Y-181467619D01*
X161559523Y-181562857D01*
X161559523Y-181658095D01*
X161511904Y-181800952D01*
X160940476Y-182372380D01*
X161559523Y-182372380D01*
X161892857Y-181372380D02*
X162559523Y-181372380D01*
X162130952Y-182372380D01*
X76787142Y-182277142D02*
X76739523Y-182324761D01*
X76596666Y-182372380D01*
X76501428Y-182372380D01*
X76358571Y-182324761D01*
X76263333Y-182229523D01*
X76215714Y-182134285D01*
X76168095Y-181943809D01*
X76168095Y-181800952D01*
X76215714Y-181610476D01*
X76263333Y-181515238D01*
X76358571Y-181420000D01*
X76501428Y-181372380D01*
X76596666Y-181372380D01*
X76739523Y-181420000D01*
X76787142Y-181467619D01*
X77168095Y-181467619D02*
X77215714Y-181420000D01*
X77310952Y-181372380D01*
X77549047Y-181372380D01*
X77644285Y-181420000D01*
X77691904Y-181467619D01*
X77739523Y-181562857D01*
X77739523Y-181658095D01*
X77691904Y-181800952D01*
X77120476Y-182372380D01*
X77739523Y-182372380D01*
X78596666Y-181372380D02*
X78406190Y-181372380D01*
X78310952Y-181420000D01*
X78263333Y-181467619D01*
X78168095Y-181610476D01*
X78120476Y-181800952D01*
X78120476Y-182181904D01*
X78168095Y-182277142D01*
X78215714Y-182324761D01*
X78310952Y-182372380D01*
X78501428Y-182372380D01*
X78596666Y-182324761D01*
X78644285Y-182277142D01*
X78691904Y-182181904D01*
X78691904Y-181943809D01*
X78644285Y-181848571D01*
X78596666Y-181800952D01*
X78501428Y-181753333D01*
X78310952Y-181753333D01*
X78215714Y-181800952D01*
X78168095Y-181848571D01*
X78120476Y-181943809D01*
X175847142Y-154337142D02*
X175799523Y-154384761D01*
X175656666Y-154432380D01*
X175561428Y-154432380D01*
X175418571Y-154384761D01*
X175323333Y-154289523D01*
X175275714Y-154194285D01*
X175228095Y-154003809D01*
X175228095Y-153860952D01*
X175275714Y-153670476D01*
X175323333Y-153575238D01*
X175418571Y-153480000D01*
X175561428Y-153432380D01*
X175656666Y-153432380D01*
X175799523Y-153480000D01*
X175847142Y-153527619D01*
X176228095Y-153527619D02*
X176275714Y-153480000D01*
X176370952Y-153432380D01*
X176609047Y-153432380D01*
X176704285Y-153480000D01*
X176751904Y-153527619D01*
X176799523Y-153622857D01*
X176799523Y-153718095D01*
X176751904Y-153860952D01*
X176180476Y-154432380D01*
X176799523Y-154432380D01*
X177704285Y-153432380D02*
X177228095Y-153432380D01*
X177180476Y-153908571D01*
X177228095Y-153860952D01*
X177323333Y-153813333D01*
X177561428Y-153813333D01*
X177656666Y-153860952D01*
X177704285Y-153908571D01*
X177751904Y-154003809D01*
X177751904Y-154241904D01*
X177704285Y-154337142D01*
X177656666Y-154384761D01*
X177561428Y-154432380D01*
X177323333Y-154432380D01*
X177228095Y-154384761D01*
X177180476Y-154337142D01*
X70437142Y-83217142D02*
X70389523Y-83264761D01*
X70246666Y-83312380D01*
X70151428Y-83312380D01*
X70008571Y-83264761D01*
X69913333Y-83169523D01*
X69865714Y-83074285D01*
X69818095Y-82883809D01*
X69818095Y-82740952D01*
X69865714Y-82550476D01*
X69913333Y-82455238D01*
X70008571Y-82360000D01*
X70151428Y-82312380D01*
X70246666Y-82312380D01*
X70389523Y-82360000D01*
X70437142Y-82407619D01*
X70818095Y-82407619D02*
X70865714Y-82360000D01*
X70960952Y-82312380D01*
X71199047Y-82312380D01*
X71294285Y-82360000D01*
X71341904Y-82407619D01*
X71389523Y-82502857D01*
X71389523Y-82598095D01*
X71341904Y-82740952D01*
X70770476Y-83312380D01*
X71389523Y-83312380D01*
X72246666Y-82645714D02*
X72246666Y-83312380D01*
X72008571Y-82264761D02*
X71770476Y-82979047D01*
X72389523Y-82979047D01*
X145367142Y-83217142D02*
X145319523Y-83264761D01*
X145176666Y-83312380D01*
X145081428Y-83312380D01*
X144938571Y-83264761D01*
X144843333Y-83169523D01*
X144795714Y-83074285D01*
X144748095Y-82883809D01*
X144748095Y-82740952D01*
X144795714Y-82550476D01*
X144843333Y-82455238D01*
X144938571Y-82360000D01*
X145081428Y-82312380D01*
X145176666Y-82312380D01*
X145319523Y-82360000D01*
X145367142Y-82407619D01*
X145748095Y-82407619D02*
X145795714Y-82360000D01*
X145890952Y-82312380D01*
X146129047Y-82312380D01*
X146224285Y-82360000D01*
X146271904Y-82407619D01*
X146319523Y-82502857D01*
X146319523Y-82598095D01*
X146271904Y-82740952D01*
X145700476Y-83312380D01*
X146319523Y-83312380D01*
X146652857Y-82312380D02*
X147271904Y-82312380D01*
X146938571Y-82693333D01*
X147081428Y-82693333D01*
X147176666Y-82740952D01*
X147224285Y-82788571D01*
X147271904Y-82883809D01*
X147271904Y-83121904D01*
X147224285Y-83217142D01*
X147176666Y-83264761D01*
X147081428Y-83312380D01*
X146795714Y-83312380D01*
X146700476Y-83264761D01*
X146652857Y-83217142D01*
X191087142Y-154337142D02*
X191039523Y-154384761D01*
X190896666Y-154432380D01*
X190801428Y-154432380D01*
X190658571Y-154384761D01*
X190563333Y-154289523D01*
X190515714Y-154194285D01*
X190468095Y-154003809D01*
X190468095Y-153860952D01*
X190515714Y-153670476D01*
X190563333Y-153575238D01*
X190658571Y-153480000D01*
X190801428Y-153432380D01*
X190896666Y-153432380D01*
X191039523Y-153480000D01*
X191087142Y-153527619D01*
X191468095Y-153527619D02*
X191515714Y-153480000D01*
X191610952Y-153432380D01*
X191849047Y-153432380D01*
X191944285Y-153480000D01*
X191991904Y-153527619D01*
X192039523Y-153622857D01*
X192039523Y-153718095D01*
X191991904Y-153860952D01*
X191420476Y-154432380D01*
X192039523Y-154432380D01*
X192420476Y-153527619D02*
X192468095Y-153480000D01*
X192563333Y-153432380D01*
X192801428Y-153432380D01*
X192896666Y-153480000D01*
X192944285Y-153527619D01*
X192991904Y-153622857D01*
X192991904Y-153718095D01*
X192944285Y-153860952D01*
X192372857Y-154432380D01*
X192991904Y-154432380D01*
X108537142Y-83217142D02*
X108489523Y-83264761D01*
X108346666Y-83312380D01*
X108251428Y-83312380D01*
X108108571Y-83264761D01*
X108013333Y-83169523D01*
X107965714Y-83074285D01*
X107918095Y-82883809D01*
X107918095Y-82740952D01*
X107965714Y-82550476D01*
X108013333Y-82455238D01*
X108108571Y-82360000D01*
X108251428Y-82312380D01*
X108346666Y-82312380D01*
X108489523Y-82360000D01*
X108537142Y-82407619D01*
X108918095Y-82407619D02*
X108965714Y-82360000D01*
X109060952Y-82312380D01*
X109299047Y-82312380D01*
X109394285Y-82360000D01*
X109441904Y-82407619D01*
X109489523Y-82502857D01*
X109489523Y-82598095D01*
X109441904Y-82740952D01*
X108870476Y-83312380D01*
X109489523Y-83312380D01*
X110441904Y-83312380D02*
X109870476Y-83312380D01*
X110156190Y-83312380D02*
X110156190Y-82312380D01*
X110060952Y-82455238D01*
X109965714Y-82550476D01*
X109870476Y-82598095D01*
X191087142Y-83217142D02*
X191039523Y-83264761D01*
X190896666Y-83312380D01*
X190801428Y-83312380D01*
X190658571Y-83264761D01*
X190563333Y-83169523D01*
X190515714Y-83074285D01*
X190468095Y-82883809D01*
X190468095Y-82740952D01*
X190515714Y-82550476D01*
X190563333Y-82455238D01*
X190658571Y-82360000D01*
X190801428Y-82312380D01*
X190896666Y-82312380D01*
X191039523Y-82360000D01*
X191087142Y-82407619D01*
X191468095Y-82407619D02*
X191515714Y-82360000D01*
X191610952Y-82312380D01*
X191849047Y-82312380D01*
X191944285Y-82360000D01*
X191991904Y-82407619D01*
X192039523Y-82502857D01*
X192039523Y-82598095D01*
X191991904Y-82740952D01*
X191420476Y-83312380D01*
X192039523Y-83312380D01*
X192658571Y-82312380D02*
X192753809Y-82312380D01*
X192849047Y-82360000D01*
X192896666Y-82407619D01*
X192944285Y-82502857D01*
X192991904Y-82693333D01*
X192991904Y-82931428D01*
X192944285Y-83121904D01*
X192896666Y-83217142D01*
X192849047Y-83264761D01*
X192753809Y-83312380D01*
X192658571Y-83312380D01*
X192563333Y-83264761D01*
X192515714Y-83217142D01*
X192468095Y-83121904D01*
X192420476Y-82931428D01*
X192420476Y-82693333D01*
X192468095Y-82502857D01*
X192515714Y-82407619D01*
X192563333Y-82360000D01*
X192658571Y-82312380D01*
X61547142Y-123857142D02*
X61499523Y-123904761D01*
X61356666Y-123952380D01*
X61261428Y-123952380D01*
X61118571Y-123904761D01*
X61023333Y-123809523D01*
X60975714Y-123714285D01*
X60928095Y-123523809D01*
X60928095Y-123380952D01*
X60975714Y-123190476D01*
X61023333Y-123095238D01*
X61118571Y-123000000D01*
X61261428Y-122952380D01*
X61356666Y-122952380D01*
X61499523Y-123000000D01*
X61547142Y-123047619D01*
X62499523Y-123952380D02*
X61928095Y-123952380D01*
X62213809Y-123952380D02*
X62213809Y-122952380D01*
X62118571Y-123095238D01*
X62023333Y-123190476D01*
X61928095Y-123238095D01*
X62975714Y-123952380D02*
X63166190Y-123952380D01*
X63261428Y-123904761D01*
X63309047Y-123857142D01*
X63404285Y-123714285D01*
X63451904Y-123523809D01*
X63451904Y-123142857D01*
X63404285Y-123047619D01*
X63356666Y-123000000D01*
X63261428Y-122952380D01*
X63070952Y-122952380D01*
X62975714Y-123000000D01*
X62928095Y-123047619D01*
X62880476Y-123142857D01*
X62880476Y-123380952D01*
X62928095Y-123476190D01*
X62975714Y-123523809D01*
X63070952Y-123571428D01*
X63261428Y-123571428D01*
X63356666Y-123523809D01*
X63404285Y-123476190D01*
X63451904Y-123380952D01*
X89487142Y-83217142D02*
X89439523Y-83264761D01*
X89296666Y-83312380D01*
X89201428Y-83312380D01*
X89058571Y-83264761D01*
X88963333Y-83169523D01*
X88915714Y-83074285D01*
X88868095Y-82883809D01*
X88868095Y-82740952D01*
X88915714Y-82550476D01*
X88963333Y-82455238D01*
X89058571Y-82360000D01*
X89201428Y-82312380D01*
X89296666Y-82312380D01*
X89439523Y-82360000D01*
X89487142Y-82407619D01*
X90439523Y-83312380D02*
X89868095Y-83312380D01*
X90153809Y-83312380D02*
X90153809Y-82312380D01*
X90058571Y-82455238D01*
X89963333Y-82550476D01*
X89868095Y-82598095D01*
X91010952Y-82740952D02*
X90915714Y-82693333D01*
X90868095Y-82645714D01*
X90820476Y-82550476D01*
X90820476Y-82502857D01*
X90868095Y-82407619D01*
X90915714Y-82360000D01*
X91010952Y-82312380D01*
X91201428Y-82312380D01*
X91296666Y-82360000D01*
X91344285Y-82407619D01*
X91391904Y-82502857D01*
X91391904Y-82550476D01*
X91344285Y-82645714D01*
X91296666Y-82693333D01*
X91201428Y-82740952D01*
X91010952Y-82740952D01*
X90915714Y-82788571D01*
X90868095Y-82836190D01*
X90820476Y-82931428D01*
X90820476Y-83121904D01*
X90868095Y-83217142D01*
X90915714Y-83264761D01*
X91010952Y-83312380D01*
X91201428Y-83312380D01*
X91296666Y-83264761D01*
X91344285Y-83217142D01*
X91391904Y-83121904D01*
X91391904Y-82931428D01*
X91344285Y-82836190D01*
X91296666Y-82788571D01*
X91201428Y-82740952D01*
X61547142Y-154337142D02*
X61499523Y-154384761D01*
X61356666Y-154432380D01*
X61261428Y-154432380D01*
X61118571Y-154384761D01*
X61023333Y-154289523D01*
X60975714Y-154194285D01*
X60928095Y-154003809D01*
X60928095Y-153860952D01*
X60975714Y-153670476D01*
X61023333Y-153575238D01*
X61118571Y-153480000D01*
X61261428Y-153432380D01*
X61356666Y-153432380D01*
X61499523Y-153480000D01*
X61547142Y-153527619D01*
X62499523Y-154432380D02*
X61928095Y-154432380D01*
X62213809Y-154432380D02*
X62213809Y-153432380D01*
X62118571Y-153575238D01*
X62023333Y-153670476D01*
X61928095Y-153718095D01*
X62832857Y-153432380D02*
X63499523Y-153432380D01*
X63070952Y-154432380D01*
X191087142Y-182277142D02*
X191039523Y-182324761D01*
X190896666Y-182372380D01*
X190801428Y-182372380D01*
X190658571Y-182324761D01*
X190563333Y-182229523D01*
X190515714Y-182134285D01*
X190468095Y-181943809D01*
X190468095Y-181800952D01*
X190515714Y-181610476D01*
X190563333Y-181515238D01*
X190658571Y-181420000D01*
X190801428Y-181372380D01*
X190896666Y-181372380D01*
X191039523Y-181420000D01*
X191087142Y-181467619D01*
X192039523Y-182372380D02*
X191468095Y-182372380D01*
X191753809Y-182372380D02*
X191753809Y-181372380D01*
X191658571Y-181515238D01*
X191563333Y-181610476D01*
X191468095Y-181658095D01*
X192896666Y-181372380D02*
X192706190Y-181372380D01*
X192610952Y-181420000D01*
X192563333Y-181467619D01*
X192468095Y-181610476D01*
X192420476Y-181800952D01*
X192420476Y-182181904D01*
X192468095Y-182277142D01*
X192515714Y-182324761D01*
X192610952Y-182372380D01*
X192801428Y-182372380D01*
X192896666Y-182324761D01*
X192944285Y-182277142D01*
X192991904Y-182181904D01*
X192991904Y-181943809D01*
X192944285Y-181848571D01*
X192896666Y-181800952D01*
X192801428Y-181753333D01*
X192610952Y-181753333D01*
X192515714Y-181800952D01*
X192468095Y-181848571D01*
X192420476Y-181943809D01*
X32667142Y-88817142D02*
X32619523Y-88864761D01*
X32476666Y-88912380D01*
X32381428Y-88912380D01*
X32238571Y-88864761D01*
X32143333Y-88769523D01*
X32095714Y-88674285D01*
X32048095Y-88483809D01*
X32048095Y-88340952D01*
X32095714Y-88150476D01*
X32143333Y-88055238D01*
X32238571Y-87960000D01*
X32381428Y-87912380D01*
X32476666Y-87912380D01*
X32619523Y-87960000D01*
X32667142Y-88007619D01*
X33619523Y-88912380D02*
X33048095Y-88912380D01*
X33333809Y-88912380D02*
X33333809Y-87912380D01*
X33238571Y-88055238D01*
X33143333Y-88150476D01*
X33048095Y-88198095D01*
X34524285Y-87912380D02*
X34048095Y-87912380D01*
X34000476Y-88388571D01*
X34048095Y-88340952D01*
X34143333Y-88293333D01*
X34381428Y-88293333D01*
X34476666Y-88340952D01*
X34524285Y-88388571D01*
X34571904Y-88483809D01*
X34571904Y-88721904D01*
X34524285Y-88817142D01*
X34476666Y-88864761D01*
X34381428Y-88912380D01*
X34143333Y-88912380D01*
X34048095Y-88864761D01*
X34000476Y-88817142D01*
X61547142Y-182277142D02*
X61499523Y-182324761D01*
X61356666Y-182372380D01*
X61261428Y-182372380D01*
X61118571Y-182324761D01*
X61023333Y-182229523D01*
X60975714Y-182134285D01*
X60928095Y-181943809D01*
X60928095Y-181800952D01*
X60975714Y-181610476D01*
X61023333Y-181515238D01*
X61118571Y-181420000D01*
X61261428Y-181372380D01*
X61356666Y-181372380D01*
X61499523Y-181420000D01*
X61547142Y-181467619D01*
X62499523Y-182372380D02*
X61928095Y-182372380D01*
X62213809Y-182372380D02*
X62213809Y-181372380D01*
X62118571Y-181515238D01*
X62023333Y-181610476D01*
X61928095Y-181658095D01*
X63356666Y-181705714D02*
X63356666Y-182372380D01*
X63118571Y-181324761D02*
X62880476Y-182039047D01*
X63499523Y-182039047D01*
X175847142Y-182277142D02*
X175799523Y-182324761D01*
X175656666Y-182372380D01*
X175561428Y-182372380D01*
X175418571Y-182324761D01*
X175323333Y-182229523D01*
X175275714Y-182134285D01*
X175228095Y-181943809D01*
X175228095Y-181800952D01*
X175275714Y-181610476D01*
X175323333Y-181515238D01*
X175418571Y-181420000D01*
X175561428Y-181372380D01*
X175656666Y-181372380D01*
X175799523Y-181420000D01*
X175847142Y-181467619D01*
X176799523Y-182372380D02*
X176228095Y-182372380D01*
X176513809Y-182372380D02*
X176513809Y-181372380D01*
X176418571Y-181515238D01*
X176323333Y-181610476D01*
X176228095Y-181658095D01*
X177132857Y-181372380D02*
X177751904Y-181372380D01*
X177418571Y-181753333D01*
X177561428Y-181753333D01*
X177656666Y-181800952D01*
X177704285Y-181848571D01*
X177751904Y-181943809D01*
X177751904Y-182181904D01*
X177704285Y-182277142D01*
X177656666Y-182324761D01*
X177561428Y-182372380D01*
X177275714Y-182372380D01*
X177180476Y-182324761D01*
X177132857Y-182277142D01*
X191087142Y-47657142D02*
X191039523Y-47704761D01*
X190896666Y-47752380D01*
X190801428Y-47752380D01*
X190658571Y-47704761D01*
X190563333Y-47609523D01*
X190515714Y-47514285D01*
X190468095Y-47323809D01*
X190468095Y-47180952D01*
X190515714Y-46990476D01*
X190563333Y-46895238D01*
X190658571Y-46800000D01*
X190801428Y-46752380D01*
X190896666Y-46752380D01*
X191039523Y-46800000D01*
X191087142Y-46847619D01*
X192039523Y-47752380D02*
X191468095Y-47752380D01*
X191753809Y-47752380D02*
X191753809Y-46752380D01*
X191658571Y-46895238D01*
X191563333Y-46990476D01*
X191468095Y-47038095D01*
X192420476Y-46847619D02*
X192468095Y-46800000D01*
X192563333Y-46752380D01*
X192801428Y-46752380D01*
X192896666Y-46800000D01*
X192944285Y-46847619D01*
X192991904Y-46942857D01*
X192991904Y-47038095D01*
X192944285Y-47180952D01*
X192372857Y-47752380D01*
X192991904Y-47752380D01*
X95837142Y-154337142D02*
X95789523Y-154384761D01*
X95646666Y-154432380D01*
X95551428Y-154432380D01*
X95408571Y-154384761D01*
X95313333Y-154289523D01*
X95265714Y-154194285D01*
X95218095Y-154003809D01*
X95218095Y-153860952D01*
X95265714Y-153670476D01*
X95313333Y-153575238D01*
X95408571Y-153480000D01*
X95551428Y-153432380D01*
X95646666Y-153432380D01*
X95789523Y-153480000D01*
X95837142Y-153527619D01*
X96789523Y-154432380D02*
X96218095Y-154432380D01*
X96503809Y-154432380D02*
X96503809Y-153432380D01*
X96408571Y-153575238D01*
X96313333Y-153670476D01*
X96218095Y-153718095D01*
X97741904Y-154432380D02*
X97170476Y-154432380D01*
X97456190Y-154432380D02*
X97456190Y-153432380D01*
X97360952Y-153575238D01*
X97265714Y-153670476D01*
X97170476Y-153718095D01*
X76787142Y-126397142D02*
X76739523Y-126444761D01*
X76596666Y-126492380D01*
X76501428Y-126492380D01*
X76358571Y-126444761D01*
X76263333Y-126349523D01*
X76215714Y-126254285D01*
X76168095Y-126063809D01*
X76168095Y-125920952D01*
X76215714Y-125730476D01*
X76263333Y-125635238D01*
X76358571Y-125540000D01*
X76501428Y-125492380D01*
X76596666Y-125492380D01*
X76739523Y-125540000D01*
X76787142Y-125587619D01*
X77739523Y-126492380D02*
X77168095Y-126492380D01*
X77453809Y-126492380D02*
X77453809Y-125492380D01*
X77358571Y-125635238D01*
X77263333Y-125730476D01*
X77168095Y-125778095D01*
X78358571Y-125492380D02*
X78453809Y-125492380D01*
X78549047Y-125540000D01*
X78596666Y-125587619D01*
X78644285Y-125682857D01*
X78691904Y-125873333D01*
X78691904Y-126111428D01*
X78644285Y-126301904D01*
X78596666Y-126397142D01*
X78549047Y-126444761D01*
X78453809Y-126492380D01*
X78358571Y-126492380D01*
X78263333Y-126444761D01*
X78215714Y-126397142D01*
X78168095Y-126301904D01*
X78120476Y-126111428D01*
X78120476Y-125873333D01*
X78168095Y-125682857D01*
X78215714Y-125587619D01*
X78263333Y-125540000D01*
X78358571Y-125492380D01*
X161083333Y-154337142D02*
X161035714Y-154384761D01*
X160892857Y-154432380D01*
X160797619Y-154432380D01*
X160654761Y-154384761D01*
X160559523Y-154289523D01*
X160511904Y-154194285D01*
X160464285Y-154003809D01*
X160464285Y-153860952D01*
X160511904Y-153670476D01*
X160559523Y-153575238D01*
X160654761Y-153480000D01*
X160797619Y-153432380D01*
X160892857Y-153432380D01*
X161035714Y-153480000D01*
X161083333Y-153527619D01*
X161559523Y-154432380D02*
X161750000Y-154432380D01*
X161845238Y-154384761D01*
X161892857Y-154337142D01*
X161988095Y-154194285D01*
X162035714Y-154003809D01*
X162035714Y-153622857D01*
X161988095Y-153527619D01*
X161940476Y-153480000D01*
X161845238Y-153432380D01*
X161654761Y-153432380D01*
X161559523Y-153480000D01*
X161511904Y-153527619D01*
X161464285Y-153622857D01*
X161464285Y-153860952D01*
X161511904Y-153956190D01*
X161559523Y-154003809D01*
X161654761Y-154051428D01*
X161845238Y-154051428D01*
X161940476Y-154003809D01*
X161988095Y-153956190D01*
X162035714Y-153860952D01*
X191563333Y-118777142D02*
X191515714Y-118824761D01*
X191372857Y-118872380D01*
X191277619Y-118872380D01*
X191134761Y-118824761D01*
X191039523Y-118729523D01*
X190991904Y-118634285D01*
X190944285Y-118443809D01*
X190944285Y-118300952D01*
X190991904Y-118110476D01*
X191039523Y-118015238D01*
X191134761Y-117920000D01*
X191277619Y-117872380D01*
X191372857Y-117872380D01*
X191515714Y-117920000D01*
X191563333Y-117967619D01*
X192134761Y-118300952D02*
X192039523Y-118253333D01*
X191991904Y-118205714D01*
X191944285Y-118110476D01*
X191944285Y-118062857D01*
X191991904Y-117967619D01*
X192039523Y-117920000D01*
X192134761Y-117872380D01*
X192325238Y-117872380D01*
X192420476Y-117920000D01*
X192468095Y-117967619D01*
X192515714Y-118062857D01*
X192515714Y-118110476D01*
X192468095Y-118205714D01*
X192420476Y-118253333D01*
X192325238Y-118300952D01*
X192134761Y-118300952D01*
X192039523Y-118348571D01*
X191991904Y-118396190D01*
X191944285Y-118491428D01*
X191944285Y-118681904D01*
X191991904Y-118777142D01*
X192039523Y-118824761D01*
X192134761Y-118872380D01*
X192325238Y-118872380D01*
X192420476Y-118824761D01*
X192468095Y-118777142D01*
X192515714Y-118681904D01*
X192515714Y-118491428D01*
X192468095Y-118396190D01*
X192420476Y-118348571D01*
X192325238Y-118300952D01*
X51863333Y-83217142D02*
X51815714Y-83264761D01*
X51672857Y-83312380D01*
X51577619Y-83312380D01*
X51434761Y-83264761D01*
X51339523Y-83169523D01*
X51291904Y-83074285D01*
X51244285Y-82883809D01*
X51244285Y-82740952D01*
X51291904Y-82550476D01*
X51339523Y-82455238D01*
X51434761Y-82360000D01*
X51577619Y-82312380D01*
X51672857Y-82312380D01*
X51815714Y-82360000D01*
X51863333Y-82407619D01*
X52196666Y-82312380D02*
X52863333Y-82312380D01*
X52434761Y-83312380D01*
X145843333Y-47657142D02*
X145795714Y-47704761D01*
X145652857Y-47752380D01*
X145557619Y-47752380D01*
X145414761Y-47704761D01*
X145319523Y-47609523D01*
X145271904Y-47514285D01*
X145224285Y-47323809D01*
X145224285Y-47180952D01*
X145271904Y-46990476D01*
X145319523Y-46895238D01*
X145414761Y-46800000D01*
X145557619Y-46752380D01*
X145652857Y-46752380D01*
X145795714Y-46800000D01*
X145843333Y-46847619D01*
X146700476Y-46752380D02*
X146510000Y-46752380D01*
X146414761Y-46800000D01*
X146367142Y-46847619D01*
X146271904Y-46990476D01*
X146224285Y-47180952D01*
X146224285Y-47561904D01*
X146271904Y-47657142D01*
X146319523Y-47704761D01*
X146414761Y-47752380D01*
X146605238Y-47752380D01*
X146700476Y-47704761D01*
X146748095Y-47657142D01*
X146795714Y-47561904D01*
X146795714Y-47323809D01*
X146748095Y-47228571D01*
X146700476Y-47180952D01*
X146605238Y-47133333D01*
X146414761Y-47133333D01*
X146319523Y-47180952D01*
X146271904Y-47228571D01*
X146224285Y-47323809D01*
X145843333Y-154337142D02*
X145795714Y-154384761D01*
X145652857Y-154432380D01*
X145557619Y-154432380D01*
X145414761Y-154384761D01*
X145319523Y-154289523D01*
X145271904Y-154194285D01*
X145224285Y-154003809D01*
X145224285Y-153860952D01*
X145271904Y-153670476D01*
X145319523Y-153575238D01*
X145414761Y-153480000D01*
X145557619Y-153432380D01*
X145652857Y-153432380D01*
X145795714Y-153480000D01*
X145843333Y-153527619D01*
X146748095Y-153432380D02*
X146271904Y-153432380D01*
X146224285Y-153908571D01*
X146271904Y-153860952D01*
X146367142Y-153813333D01*
X146605238Y-153813333D01*
X146700476Y-153860952D01*
X146748095Y-153908571D01*
X146795714Y-154003809D01*
X146795714Y-154241904D01*
X146748095Y-154337142D01*
X146700476Y-154384761D01*
X146605238Y-154432380D01*
X146367142Y-154432380D01*
X146271904Y-154384761D01*
X146224285Y-154337142D01*
X107743333Y-182277142D02*
X107695714Y-182324761D01*
X107552857Y-182372380D01*
X107457619Y-182372380D01*
X107314761Y-182324761D01*
X107219523Y-182229523D01*
X107171904Y-182134285D01*
X107124285Y-181943809D01*
X107124285Y-181800952D01*
X107171904Y-181610476D01*
X107219523Y-181515238D01*
X107314761Y-181420000D01*
X107457619Y-181372380D01*
X107552857Y-181372380D01*
X107695714Y-181420000D01*
X107743333Y-181467619D01*
X108600476Y-181705714D02*
X108600476Y-182372380D01*
X108362380Y-181324761D02*
X108124285Y-182039047D01*
X108743333Y-182039047D01*
X145843333Y-118777142D02*
X145795714Y-118824761D01*
X145652857Y-118872380D01*
X145557619Y-118872380D01*
X145414761Y-118824761D01*
X145319523Y-118729523D01*
X145271904Y-118634285D01*
X145224285Y-118443809D01*
X145224285Y-118300952D01*
X145271904Y-118110476D01*
X145319523Y-118015238D01*
X145414761Y-117920000D01*
X145557619Y-117872380D01*
X145652857Y-117872380D01*
X145795714Y-117920000D01*
X145843333Y-117967619D01*
X146176666Y-117872380D02*
X146795714Y-117872380D01*
X146462380Y-118253333D01*
X146605238Y-118253333D01*
X146700476Y-118300952D01*
X146748095Y-118348571D01*
X146795714Y-118443809D01*
X146795714Y-118681904D01*
X146748095Y-118777142D01*
X146700476Y-118824761D01*
X146605238Y-118872380D01*
X146319523Y-118872380D01*
X146224285Y-118824761D01*
X146176666Y-118777142D01*
X177593333Y-103537142D02*
X177545714Y-103584761D01*
X177402857Y-103632380D01*
X177307619Y-103632380D01*
X177164761Y-103584761D01*
X177069523Y-103489523D01*
X177021904Y-103394285D01*
X176974285Y-103203809D01*
X176974285Y-103060952D01*
X177021904Y-102870476D01*
X177069523Y-102775238D01*
X177164761Y-102680000D01*
X177307619Y-102632380D01*
X177402857Y-102632380D01*
X177545714Y-102680000D01*
X177593333Y-102727619D01*
X177974285Y-102727619D02*
X178021904Y-102680000D01*
X178117142Y-102632380D01*
X178355238Y-102632380D01*
X178450476Y-102680000D01*
X178498095Y-102727619D01*
X178545714Y-102822857D01*
X178545714Y-102918095D01*
X178498095Y-103060952D01*
X177926666Y-103632380D01*
X178545714Y-103632380D01*
X159813333Y-103537142D02*
X159765714Y-103584761D01*
X159622857Y-103632380D01*
X159527619Y-103632380D01*
X159384761Y-103584761D01*
X159289523Y-103489523D01*
X159241904Y-103394285D01*
X159194285Y-103203809D01*
X159194285Y-103060952D01*
X159241904Y-102870476D01*
X159289523Y-102775238D01*
X159384761Y-102680000D01*
X159527619Y-102632380D01*
X159622857Y-102632380D01*
X159765714Y-102680000D01*
X159813333Y-102727619D01*
X160765714Y-103632380D02*
X160194285Y-103632380D01*
X160480000Y-103632380D02*
X160480000Y-102632380D01*
X160384761Y-102775238D01*
X160289523Y-102870476D01*
X160194285Y-102918095D01*
M02*
