M48
; DRILL file {KiCad 5.1.8} date Wed Feb  3 00:48:30 2021
; FORMAT={-:-/ absolute / inch / decimal}
; #@! TF.CreationDate,2021-02-03T00:48:30+03:00
; #@! TF.GenerationSoftware,Kicad,Pcbnew,5.1.8
FMAT,2
INCH
T1C0.0157
T2C0.0236
T3C0.0315
T4C0.0354
T5C0.0394
T6C0.0433
T7C0.0472
T8C0.1299
T9C0.1378
%
G90
G05
T1
X1.2Y-3.8
X1.2Y-4.5
X1.2Y-4.55
X1.2Y-5.0
X1.2Y-5.15
X1.2Y-5.2
X1.2Y-5.25
X1.25Y-3.8
X1.25Y-4.7
X1.3Y-3.65
X1.3Y-4.2
X1.3Y-5.55
X1.3Y-7.1
X1.35Y-4.8
X1.4Y-3.5
X1.4Y-4.1
X1.4Y-4.3
X1.4Y-4.55
X1.4Y-5.0
X1.4Y-5.2
X1.4Y-5.25
X1.4Y-5.3
X1.4Y-5.65
X1.45Y-3.5
X1.45Y-3.75
X1.45Y-3.9
X1.45Y-4.1
X1.45Y-4.25
X1.45Y-5.6
X1.5Y-3.05
X1.5Y-3.8
X1.5Y-4.1
X1.5Y-4.4
X1.5Y-5.65
X1.55Y-0.85
X1.55Y-0.95
X1.55Y-1.05
X1.55Y-1.15
X1.55Y-1.25
X1.55Y-1.35
X1.55Y-1.45
X1.55Y-1.55
X1.55Y-1.65
X1.55Y-1.75
X1.55Y-1.85
X1.55Y-1.95
X1.55Y-2.05
X1.55Y-2.15
X1.55Y-2.25
X1.55Y-2.35
X1.55Y-2.45
X1.55Y-2.55
X1.55Y-2.65
X1.55Y-2.75
X1.55Y-2.85
X1.55Y-2.95
X1.55Y-3.1
X1.55Y-3.5
X1.55Y-4.1
X1.55Y-4.2
X1.55Y-4.45
X1.55Y-4.5
X1.55Y-4.55
X1.6Y-3.65
X1.6Y-4.15
X1.6Y-5.2
X1.65Y-1.65
X1.65Y-3.05
X1.65Y-3.35
X1.65Y-3.65
X1.65Y-4.6
X1.65Y-4.65
X1.65Y-4.7
X1.65Y-4.9
X1.65Y-4.95
X1.65Y-5.2
X1.7Y-1.6
X1.7Y-3.1
X1.7Y-3.65
X1.7Y-3.8
X1.7Y-4.35
X1.7Y-4.55
X1.7Y-7.15
X1.75Y-1.7
X1.75Y-3.35
X1.75Y-3.65
X1.75Y-3.8
X1.75Y-4.35
X1.75Y-4.4
X1.75Y-4.5
X1.75Y-4.65
X1.75Y-5.1
X1.8Y-1.75
X1.8Y-3.85
X1.8Y-4.3
X1.8Y-5.15
X1.85Y-1.8
X1.85Y-3.45
X1.85Y-3.55
X1.85Y-4.9
X1.85Y-5.15
X1.85Y-5.2
X1.85Y-5.35
X1.85Y-6.9
X1.9Y-7.0
X1.95Y-1.9
X1.95Y-2.8
X1.95Y-4.1
X1.95Y-4.25
X1.95Y-6.3
X1.95Y-7.15
X2.0Y-4.1
X2.0Y-4.6
X2.05Y-3.7
X2.05Y-4.9
X2.05Y-5.0
X2.05Y-6.3
X2.05Y-7.0
X2.1Y-4.2
X2.1Y-4.7
X2.1Y-4.8
X2.1Y-5.05
X2.1Y-5.1
X2.1Y-5.35
X2.1Y-5.4
X2.1Y-5.45
X2.1Y-6.3
X2.1Y-6.8
X2.15Y-4.1
X2.15Y-4.4
X2.15Y-4.45
X2.15Y-5.2
X2.15Y-5.5
X2.15Y-6.95
X2.15Y-7.0
X2.2Y-0.85
X2.2Y-0.95
X2.2Y-1.05
X2.2Y-1.15
X2.2Y-1.25
X2.2Y-1.35
X2.2Y-1.45
X2.2Y-1.55
X2.2Y-1.65
X2.2Y-1.75
X2.2Y-1.85
X2.2Y-1.95
X2.2Y-2.05
X2.2Y-2.15
X2.2Y-2.25
X2.2Y-2.35
X2.2Y-2.45
X2.2Y-2.55
X2.2Y-2.65
X2.2Y-2.75
X2.2Y-2.85
X2.2Y-2.95
X2.2Y-3.05
X2.2Y-4.25
X2.2Y-4.35
X2.2Y-4.4
X2.2Y-4.55
X2.2Y-4.8
X2.2Y-5.0
X2.2Y-5.05
X2.2Y-5.5
X2.2Y-6.2
X2.25Y-4.7
X2.25Y-5.15
X2.25Y-5.5
X2.25Y-6.3
X2.25Y-6.6
X2.3Y-4.1
X2.3Y-4.35
X2.3Y-4.95
X2.35Y-4.85
X2.35Y-5.7
X2.4Y-4.45
X2.4Y-5.15
X2.4Y-5.55
X2.4Y-6.3
X2.4Y-6.8
X2.45Y-4.0
X2.45Y-4.05
X2.45Y-4.5
X2.45Y-5.25
X2.45Y-6.8
X2.45Y-7.05
X2.5Y-4.45
X2.5Y-5.4
X2.5Y-5.7
X2.5Y-6.5
X2.55Y-1.45
X2.55Y-4.0
X2.55Y-4.85
X2.55Y-4.9
X2.55Y-5.7
X2.6Y-1.5
X2.6Y-4.3
X2.6Y-5.05
X2.65Y-1.55
X2.65Y-4.25
X2.65Y-4.5
X2.65Y-4.95
X2.65Y-5.2
X2.65Y-6.2
X2.65Y-6.8
X2.7Y-1.9
X2.7Y-2.8
X2.7Y-3.65
X2.7Y-4.3
X2.7Y-4.55
X2.7Y-4.6
X2.7Y-5.25
X2.7Y-5.5
X2.7Y-6.2
X2.7Y-6.3
X2.7Y-6.45
X2.7Y-6.7
X2.75Y-3.75
X2.75Y-3.95
X2.75Y-4.15
X2.75Y-4.35
X2.75Y-4.7
X2.75Y-4.75
X2.75Y-5.35
X2.75Y-5.55
X2.75Y-6.2
X2.75Y-6.3
X2.75Y-6.45
X2.75Y-6.75
X2.75Y-6.85
X2.8Y-3.75
X2.8Y-3.85
X2.8Y-4.2
X2.8Y-4.85
X2.8Y-4.95
X2.8Y-6.2
X2.8Y-6.45
X2.8Y-6.6
X2.8Y-6.7
X2.8Y-6.8
X2.8Y-6.9
X2.85Y-4.6
X2.85Y-4.7
X2.85Y-5.15
X2.85Y-6.2
X2.9Y-3.5
X2.9Y-3.6
X2.9Y-3.75
X2.9Y-5.05
X2.9Y-5.2
X2.9Y-6.05
X2.95Y-0.85
X2.95Y-0.95
X2.95Y-1.05
X2.95Y-1.15
X2.95Y-1.25
X2.95Y-1.35
X2.95Y-1.45
X2.95Y-1.55
X2.95Y-1.65
X2.95Y-1.75
X2.95Y-1.85
X2.95Y-1.95
X2.95Y-2.05
X2.95Y-2.15
X2.95Y-2.25
X2.95Y-2.35
X2.95Y-2.45
X2.95Y-2.55
X2.95Y-2.65
X2.95Y-2.75
X2.95Y-2.85
X2.95Y-2.95
X2.95Y-3.05
X3.0Y-3.55
X3.0Y-3.65
X3.0Y-3.8
X3.0Y-4.15
X3.0Y-4.3
X3.0Y-4.7
X3.0Y-4.75
X3.0Y-4.9
X3.0Y-5.55
X3.0Y-5.85
X3.0Y-6.45
X3.05Y-2.7
X3.05Y-3.75
X3.05Y-4.35
X3.05Y-4.45
X3.05Y-4.55
X3.05Y-5.9
X3.05Y-6.0
X3.05Y-6.25
X3.05Y-6.5
X3.05Y-6.95
X3.1Y-2.65
X3.1Y-4.0
X3.1Y-6.25
X3.15Y-2.6
X3.15Y-4.15
X3.15Y-4.4
X3.15Y-5.2
X3.15Y-5.9
X3.15Y-7.0
X3.2Y-2.55
X3.2Y-4.95
X3.2Y-5.25
X3.25Y-2.5
X3.25Y-4.3
X3.25Y-4.7
X3.25Y-4.95
X3.25Y-6.2
X3.3Y-2.45
X3.3Y-4.35
X3.3Y-4.5
X3.3Y-4.6
X3.3Y-4.7
X3.3Y-4.85
X3.3Y-5.0
X3.3Y-6.2
X3.3Y-6.25
X3.3Y-6.35
X3.35Y-2.4
X3.35Y-3.5
X3.35Y-4.4
X3.35Y-4.55
X3.35Y-4.85
X3.35Y-5.0
X3.35Y-5.25
X3.35Y-6.2
X3.35Y-6.45
X3.4Y-2.35
X3.4Y-4.7
X3.4Y-4.85
X3.4Y-5.0
X3.4Y-5.1
X3.4Y-5.25
X3.4Y-5.3
X3.4Y-6.0
X3.4Y-6.2
X3.45Y-1.9
X3.45Y-2.8
X3.45Y-3.6
X3.45Y-4.3
X3.45Y-5.3
X3.45Y-5.4
X3.45Y-6.2
X3.45Y-6.8
X3.5Y-3.3
X3.5Y-4.5
X3.5Y-4.55
X3.5Y-6.2
X3.55Y-6.3
X3.6Y-4.35
X3.6Y-5.2
X3.6Y-5.6
X3.6Y-6.45
X3.6Y-6.55
X3.6Y-6.65
X3.6Y-6.9
X3.6Y-7.05
X3.65Y-6.8
X3.65Y-6.85
X3.65Y-6.95
X3.65Y-7.05
X3.65Y-7.1
X3.7Y-0.85
X3.7Y-0.95
X3.7Y-1.05
X3.7Y-1.15
X3.7Y-1.25
X3.7Y-1.35
X3.7Y-1.45
X3.7Y-1.55
X3.7Y-1.65
X3.7Y-1.75
X3.7Y-1.85
X3.7Y-1.95
X3.7Y-2.05
X3.7Y-2.15
X3.7Y-2.25
X3.7Y-2.35
X3.7Y-2.45
X3.7Y-2.55
X3.7Y-2.65
X3.7Y-2.75
X3.7Y-2.85
X3.7Y-2.95
X3.7Y-3.05
X3.7Y-3.2
X3.7Y-6.5
X3.7Y-6.6
X3.75Y-6.7
X3.75Y-7.0
X3.75Y-7.1
X3.75Y-7.15
X3.8Y-2.3
X3.8Y-5.95
X3.8Y-6.2
X3.85Y-2.25
X3.85Y-5.95
X3.85Y-6.3
X3.9Y-2.2
X3.9Y-6.35
X3.9Y-6.45
X3.9Y-6.55
X3.9Y-6.6
X3.95Y-2.15
X3.95Y-4.1
X3.95Y-4.35
X3.95Y-4.65
X3.95Y-5.65
X3.95Y-6.55
X3.95Y-6.8
X3.95Y-6.85
X3.95Y-6.9
X4.0Y-2.1
X4.05Y-2.05
X4.05Y-6.0
X4.05Y-6.35
X4.05Y-7.0
X4.05Y-7.1
X4.05Y-7.15
X4.05Y-7.25
X4.1Y-2.0
X4.15Y-1.95
X4.15Y-3.35
X4.15Y-4.0
X4.15Y-4.1
X4.15Y-5.6
X4.15Y-6.2
X4.15Y-6.7
X4.15Y-6.8
X4.15Y-6.9
X4.15Y-7.15
X4.15Y-7.2
X4.2Y-1.9
X4.2Y-2.8
X4.2Y-5.5
X4.2Y-6.2
X4.2Y-6.45
X4.2Y-6.55
X4.2Y-7.0
X4.25Y-3.35
X4.25Y-4.85
X4.25Y-4.95
X4.25Y-5.05
X4.25Y-5.15
X4.25Y-5.25
X4.25Y-5.35
X4.25Y-5.4
X4.25Y-6.2
X4.25Y-6.45
X4.25Y-6.55
X4.25Y-7.0
X4.25Y-7.1
X4.25Y-7.2
X4.25Y-7.25
X4.3Y-4.7
X4.3Y-5.25
X4.3Y-6.2
X4.3Y-6.3
X4.3Y-6.45
X4.35Y-4.0
X4.35Y-5.7
X4.35Y-6.0
X4.35Y-6.2
X4.35Y-6.3
X4.35Y-6.5
X4.35Y-6.7
X4.35Y-7.0
X4.35Y-7.2
X4.4Y-1.8
X4.4Y-2.3
X4.4Y-2.4
X4.4Y-2.5
X4.4Y-2.6
X4.4Y-2.9
X4.4Y-3.0
X4.4Y-6.3
X4.4Y-7.25
X4.45Y-2.25
X4.45Y-6.0
X4.45Y-6.3
X4.45Y-6.5
X4.5Y-0.85
X4.5Y-1.05
X4.5Y-1.1
X4.5Y-1.15
X4.5Y-2.25
X4.5Y-2.85
X4.5Y-2.95
X4.5Y-5.8
X4.5Y-5.9
X4.5Y-6.45
X4.5Y-6.75
X4.5Y-6.95
X4.55Y-2.7
X4.55Y-2.8
X4.55Y-3.0
X4.55Y-3.95
X4.55Y-4.15
X4.55Y-4.35
X4.55Y-4.5
X4.55Y-5.6
X4.55Y-5.65
X4.55Y-5.9
X4.55Y-6.45
X4.55Y-7.15
X4.6Y-2.7
X4.6Y-2.8
X4.6Y-3.05
X4.6Y-5.95
X4.65Y-3.35
X4.7Y-2.7
X4.7Y-3.15
X4.75Y-2.9
X4.75Y-6.3
X4.75Y-6.6
X4.75Y-6.9
X4.8Y-2.8
X4.8Y-3.1
X4.8Y-5.55
X4.8Y-5.7
X4.8Y-5.8
X4.8Y-5.9
X4.8Y-6.75
X4.8Y-6.85
X4.85Y-3.4
X4.85Y-3.55
X4.85Y-4.2
X4.85Y-5.45
X4.85Y-5.5
X4.85Y-6.6
X4.85Y-7.0
X4.9Y-4.1
X4.9Y-4.7
X4.9Y-4.8
X4.9Y-5.4
X4.9Y-5.6
X4.95Y-2.75
X4.95Y-3.15
X4.95Y-3.5
X4.95Y-4.45
X4.95Y-4.8
X4.95Y-5.5
X4.95Y-5.7
X4.95Y-5.8
X4.95Y-5.9
X4.95Y-7.15
X5.0Y-2.7
X5.0Y-3.05
X5.0Y-3.1
X5.0Y-3.75
X5.05Y-3.35
X5.05Y-4.55
X5.05Y-4.9
X5.05Y-6.3
X5.1Y-4.45
X5.1Y-4.75
X5.1Y-4.8
X5.1Y-4.95
X5.1Y-6.2
X5.1Y-6.35
X5.1Y-7.05
X5.15Y-1.8
X5.15Y-1.85
X5.15Y-1.9
X5.15Y-1.95
X5.15Y-2.0
X5.15Y-2.05
X5.15Y-2.3
X5.15Y-6.2
X5.15Y-6.35
X5.2Y-2.3
X5.2Y-3.5
X5.2Y-4.85
X5.2Y-5.1
X5.2Y-5.2
X5.2Y-6.35
X5.2Y-6.6
X5.2Y-6.7
X5.25Y-2.3
X5.25Y-4.95
X5.25Y-5.0
X5.25Y-5.05
X5.25Y-5.3
X5.25Y-5.5
X5.25Y-6.5
X5.25Y-7.3
X5.3Y-1.85
X5.3Y-1.95
X5.3Y-2.0
X5.3Y-2.05
X5.3Y-2.25
X5.3Y-6.25
X5.3Y-6.75
X5.3Y-6.85
X5.35Y-5.8
X5.35Y-6.3
X5.4Y-1.0
X5.4Y-5.9
X5.4Y-6.05
X5.4Y-6.2
X5.45Y-1.05
X5.45Y-6.0
X5.45Y-6.2
X5.45Y-6.9
X5.45Y-7.3
X5.5Y-3.35
X5.5Y-3.7
X5.5Y-5.95
X5.5Y-6.2
X5.55Y-3.35
X5.55Y-6.05
X5.55Y-6.2
X5.55Y-6.6
X5.55Y-7.0
X5.55Y-7.2
X5.6Y-7.15
X5.65Y-1.0
X5.65Y-1.2
X5.65Y-3.8
X5.65Y-6.7
X5.7Y-3.05
X5.7Y-3.6
X5.7Y-6.0
X5.7Y-6.4
X5.75Y-3.55
X5.75Y-3.8
X5.75Y-5.85
X5.75Y-6.0
X5.75Y-6.6
X5.75Y-7.25
X5.8Y-0.95
X5.8Y-1.2
X5.8Y-3.5
X5.8Y-3.7
X5.85Y-0.9
X5.85Y-1.3
X5.85Y-7.0
X5.85Y-7.1
X5.85Y-7.15
X5.85Y-7.2
X5.9Y-6.05
X5.9Y-7.25
X5.95Y-1.1
X5.95Y-2.1
X5.95Y-2.15
X5.95Y-2.2
X5.95Y-3.0
X5.95Y-3.7
X5.95Y-5.9
X5.95Y-6.2
X5.95Y-7.1
X5.95Y-7.15
X5.95Y-7.2
X6.0Y-1.0
X6.0Y-2.25
X6.0Y-3.3
X6.0Y-4.85
X6.0Y-4.9
X6.0Y-4.95
X6.0Y-5.85
X6.0Y-6.45
X6.0Y-6.85
X6.0Y-7.05
X6.0Y-7.25
X6.0Y-7.3
X6.05Y-3.05
X6.05Y-3.2
X6.05Y-3.65
X6.05Y-6.75
X6.05Y-6.95
X6.1Y-1.05
X6.1Y-2.15
X6.1Y-3.0
X6.1Y-3.1
X6.1Y-3.25
X6.1Y-3.6
X6.1Y-6.45
X6.1Y-6.85
X6.15Y-4.45
X6.15Y-5.0
X6.15Y-6.15
X6.2Y-4.45
X6.2Y-6.05
X6.25Y-2.3
X6.25Y-2.5
X6.25Y-3.6
X6.25Y-3.7
X6.25Y-3.8
X6.25Y-3.9
X6.25Y-4.0
X6.25Y-4.05
X6.25Y-4.1
X6.25Y-4.15
X6.25Y-5.25
X6.3Y-2.9
X6.3Y-4.4
X6.3Y-6.1
X6.3Y-7.1
X6.35Y-2.4
X6.35Y-2.95
X6.35Y-4.3
X6.35Y-5.65
X6.35Y-5.95
X6.35Y-6.05
X6.35Y-6.25
X6.35Y-6.7
X6.35Y-6.95
X6.4Y-3.6
X6.4Y-3.7
X6.4Y-3.8
X6.4Y-3.9
X6.4Y-4.0
X6.4Y-4.05
X6.4Y-4.1
X6.4Y-5.35
X6.4Y-5.8
X6.4Y-6.25
X6.45Y-4.1
X6.45Y-5.8
X6.45Y-6.8
X6.45Y-7.1
X6.55Y-4.5
X6.55Y-4.6
X6.6Y-4.0
X6.6Y-4.05
X6.6Y-4.6
X6.6Y-5.5
X6.6Y-5.55
X6.6Y-6.1
X6.6Y-6.3
X6.6Y-6.35
X6.6Y-6.45
X6.6Y-7.3
X6.65Y-2.85
X6.65Y-5.4
X6.65Y-6.25
X6.65Y-6.95
X6.65Y-7.05
X6.65Y-7.2
X6.7Y-2.9
X6.7Y-3.55
X6.7Y-3.9
X6.7Y-4.0
X6.7Y-5.0
X6.7Y-5.8
X6.7Y-6.0
X6.7Y-6.45
X6.7Y-6.8
X6.7Y-6.9
X6.7Y-7.05
X6.7Y-7.15
X6.75Y-2.95
X6.75Y-4.0
X6.75Y-4.05
X6.75Y-5.8
X6.75Y-6.05
X6.75Y-6.2
X6.8Y-2.95
X6.8Y-3.8
X6.8Y-5.0
X6.8Y-6.1
X6.85Y-2.95
X6.85Y-3.65
X6.85Y-3.8
X6.85Y-4.3
X6.85Y-6.35
X6.9Y-2.95
X6.9Y-3.6
X6.9Y-3.8
X6.9Y-5.0
X6.9Y-5.5
X6.9Y-5.7
X6.9Y-5.9
X6.9Y-5.95
X6.9Y-6.15
X6.9Y-6.3
X6.9Y-6.65
X6.9Y-6.75
X6.9Y-7.2
X6.95Y-2.95
X6.95Y-3.75
X6.95Y-5.35
X6.95Y-5.6
X6.95Y-5.7
X6.95Y-6.1
X6.95Y-6.45
X6.95Y-6.95
X7.0Y-4.45
X7.0Y-4.65
X7.0Y-5.35
X7.0Y-5.7
X7.0Y-6.65
X7.0Y-6.75
X7.05Y-4.05
X7.05Y-4.85
X7.05Y-4.9
X7.05Y-4.95
X7.05Y-5.5
X7.05Y-5.6
X7.1Y-4.45
X7.15Y-4.05
X7.15Y-5.1
X7.2Y-3.8
X7.2Y-4.3
X7.2Y-6.15
X7.2Y-6.45
X7.2Y-6.65
X7.2Y-6.7
X7.25Y-4.25
X7.25Y-4.35
X7.25Y-5.95
X7.25Y-6.05
X7.25Y-6.55
X7.25Y-6.85
X7.3Y-4.4
X7.3Y-4.65
X7.3Y-5.4
X7.3Y-6.6
X7.35Y-2.1
X7.35Y-5.4
X7.35Y-5.5
X7.35Y-5.6
X7.35Y-6.8
X7.4Y-2.15
X7.4Y-6.1
X7.45Y-3.25
X7.45Y-5.3
X7.5Y-4.0
X7.5Y-4.3
X7.5Y-5.3
X7.5Y-5.65
X7.5Y-6.05
X7.5Y-6.5
X7.5Y-6.7
X7.5Y-6.8
X7.55Y-4.05
X7.55Y-4.3
X7.55Y-4.35
X7.55Y-4.65
X7.55Y-5.15
X7.55Y-5.35
X7.55Y-5.65
X7.55Y-6.45
X7.55Y-6.95
X7.6Y-0.9
X7.6Y-3.75
X7.6Y-4.6
X7.6Y-5.1
X7.6Y-5.6
X7.6Y-5.65
X7.6Y-5.95
X7.6Y-6.3
X7.6Y-6.35
X7.6Y-6.6
X7.6Y-7.15
X7.65Y-2.2
X7.65Y-3.6
X7.65Y-6.7
X7.7Y-6.05
X7.75Y-7.15
X7.8Y-6.6
X7.85Y-1.05
X7.85Y-1.15
X7.85Y-6.65
T2
X1.5613Y-4.0
X1.64Y-4.0
X4.81Y-3.0
X4.8887Y-3.0
T3
X5.6Y-2.25
X5.6Y-2.35
X5.6Y-2.45
X5.6Y-2.55
X5.6Y-2.65
X5.6Y-2.75
X5.6Y-2.85
X5.6Y-2.95
X5.6Y-3.05
X5.6Y-3.15
X5.9Y-2.25
X5.9Y-2.35
X5.9Y-2.45
X5.9Y-2.55
X5.9Y-2.65
X5.9Y-2.75
X5.9Y-2.85
X5.9Y-2.95
X5.9Y-3.05
X5.9Y-3.15
X3.7Y-6.2
X3.8969Y-6.2
X2.95Y-6.2
X3.1469Y-6.2
X7.4Y-3.65
X7.4Y-3.75
X7.4Y-3.85
X7.4Y-3.95
X7.4Y-4.05
X7.4Y-4.15
X7.4Y-4.25
X7.4Y-4.35
X7.4Y-4.45
X7.4Y-4.55
X7.7Y-3.65
X7.7Y-3.75
X7.7Y-3.85
X7.7Y-3.95
X7.7Y-4.05
X7.7Y-4.15
X7.7Y-4.25
X7.7Y-4.35
X7.7Y-4.45
X7.7Y-4.55
X3.5Y-4.65
X3.5Y-4.75
X3.5Y-4.85
X3.5Y-4.95
X3.5Y-5.05
X3.5Y-5.15
X3.5Y-5.25
X3.5Y-5.35
X3.5Y-5.45
X3.5Y-5.55
X3.5Y-5.65
X3.5Y-5.75
X3.5Y-5.85
X3.5Y-5.95
X4.1Y-4.65
X4.1Y-4.75
X4.1Y-4.85
X4.1Y-4.95
X4.1Y-5.05
X4.1Y-5.15
X4.1Y-5.25
X4.1Y-5.35
X4.1Y-5.45
X4.1Y-5.55
X4.1Y-5.65
X4.1Y-5.75
X4.1Y-5.85
X4.1Y-5.95
X1.75Y-7.3
X1.9469Y-7.3
X2.35Y-7.3
X2.5469Y-7.3
X7.45Y-7.3
X7.6469Y-7.3
X2.95Y-7.3
X3.1469Y-7.3
X2.3Y-6.45
X2.3Y-6.55
X2.3Y-6.65
X2.3Y-6.75
X2.3Y-6.85
X2.3Y-6.95
X2.3Y-7.05
X2.6Y-6.45
X2.6Y-6.55
X2.6Y-6.65
X2.6Y-6.75
X2.6Y-6.85
X2.6Y-6.95
X2.6Y-7.05
X4.55Y-3.75
X4.55Y-4.05
X4.85Y-3.75
X4.85Y-4.05
X5.65Y-7.3
X5.8469Y-7.3
X4.1Y-6.45
X4.1Y-6.55
X4.1Y-6.65
X4.1Y-6.75
X4.1Y-6.85
X4.1Y-6.95
X4.1Y-7.05
X4.4Y-6.45
X4.4Y-6.55
X4.4Y-6.65
X4.4Y-6.75
X4.4Y-6.85
X4.4Y-6.95
X4.4Y-7.05
X2.9Y-6.45
X2.9Y-6.55
X2.9Y-6.65
X2.9Y-6.75
X2.9Y-6.85
X2.9Y-6.95
X2.9Y-7.05
X3.2Y-6.45
X3.2Y-6.55
X3.2Y-6.65
X3.2Y-6.75
X3.2Y-6.85
X3.2Y-6.95
X3.2Y-7.05
X7.45Y-6.2
X7.6469Y-6.2
X3.45Y-3.4
X3.6469Y-3.4
X6.8Y-6.45
X6.8Y-6.55
X6.8Y-6.65
X6.8Y-6.75
X6.8Y-6.85
X6.8Y-6.95
X6.8Y-7.05
X7.1Y-6.45
X7.1Y-6.55
X7.1Y-6.65
X7.1Y-6.75
X7.1Y-6.85
X7.1Y-6.95
X7.1Y-7.05
X5.3Y-5.15
X5.3Y-5.25
X5.3Y-5.35
X5.3Y-5.45
X5.3Y-5.55
X5.3Y-5.65
X5.3Y-5.75
X5.3Y-5.85
X5.3Y-5.95
X4.6Y-6.2
X4.7969Y-6.2
X5.6Y-0.85
X5.6Y-0.95
X5.6Y-1.05
X5.6Y-1.15
X5.6Y-1.25
X5.6Y-1.35
X5.6Y-1.45
X5.6Y-1.55
X5.6Y-1.65
X5.6Y-1.75
X5.9Y-0.85
X5.9Y-0.95
X5.9Y-1.05
X5.9Y-1.15
X5.9Y-1.25
X5.9Y-1.35
X5.9Y-1.45
X5.9Y-1.55
X5.9Y-1.65
X5.9Y-1.75
X7.4Y-5.05
X7.4Y-5.15
X7.4Y-5.25
X7.4Y-5.35
X7.4Y-5.45
X7.4Y-5.55
X7.4Y-5.65
X7.4Y-5.75
X7.4Y-5.85
X7.4Y-5.95
X7.7Y-5.05
X7.7Y-5.15
X7.7Y-5.25
X7.7Y-5.35
X7.7Y-5.45
X7.7Y-5.55
X7.7Y-5.65
X7.7Y-5.75
X7.7Y-5.85
X7.7Y-5.95
X5.6Y-5.05
X5.6Y-5.15
X5.6Y-5.25
X5.6Y-5.35
X5.6Y-5.45
X5.6Y-5.55
X5.6Y-5.65
X5.6Y-5.75
X5.6Y-5.85
X5.6Y-5.95
X5.9Y-5.05
X5.9Y-5.15
X5.9Y-5.25
X5.9Y-5.35
X5.9Y-5.45
X5.9Y-5.55
X5.9Y-5.65
X5.9Y-5.75
X5.9Y-5.85
X5.9Y-5.95
X6.25Y-7.3
X6.4469Y-7.3
X6.2Y-0.85
X6.2Y-0.95
X6.2Y-1.05
X6.2Y-1.15
X6.2Y-1.25
X6.2Y-1.35
X6.2Y-1.45
X6.2Y-1.55
X6.2Y-1.65
X6.2Y-1.75
X6.2Y-1.85
X6.2Y-1.95
X6.2Y-2.05
X6.2Y-2.15
X6.2Y-2.25
X6.2Y-2.35
X6.2Y-2.45
X6.2Y-2.55
X6.2Y-2.65
X6.2Y-2.75
X6.2Y-2.85
X6.2Y-2.95
X6.2Y-3.05
X6.2Y-3.15
X6.2Y-3.25
X6.2Y-3.35
X6.2Y-3.45
X6.2Y-3.55
X6.2Y-3.65
X6.2Y-3.75
X6.2Y-3.85
X6.2Y-3.95
X7.1Y-0.85
X7.1Y-0.95
X7.1Y-1.05
X7.1Y-1.15
X7.1Y-1.25
X7.1Y-1.35
X7.1Y-1.45
X7.1Y-1.55
X7.1Y-1.65
X7.1Y-1.75
X7.1Y-1.85
X7.1Y-1.95
X7.1Y-2.05
X7.1Y-2.15
X7.1Y-2.25
X7.1Y-2.35
X7.1Y-2.45
X7.1Y-2.55
X7.1Y-2.65
X7.1Y-2.75
X7.1Y-2.85
X7.1Y-2.95
X7.1Y-3.05
X7.1Y-3.15
X7.1Y-3.25
X7.1Y-3.35
X7.1Y-3.45
X7.1Y-3.55
X7.1Y-3.65
X7.1Y-3.75
X7.1Y-3.85
X7.1Y-3.95
X6.25Y-5.05
X6.35Y-5.05
X6.45Y-5.05
X6.55Y-5.05
X6.65Y-5.05
X6.75Y-5.05
X6.85Y-5.05
X6.95Y-5.05
X7.05Y-5.05
X1.25Y-4.0
X1.3484Y-4.0
X3.5Y-6.45
X3.5Y-6.55
X3.5Y-6.65
X3.5Y-6.75
X3.5Y-6.85
X3.5Y-6.95
X3.5Y-7.05
X3.8Y-6.45
X3.8Y-6.55
X3.8Y-6.65
X3.8Y-6.75
X3.8Y-6.85
X3.8Y-6.95
X3.8Y-7.05
X6.9Y-4.2
X7.0969Y-4.2
X7.45Y-2.0
X7.6469Y-2.0
X5.65Y-6.2
X5.8469Y-6.2
X1.7Y-6.45
X1.7Y-6.55
X1.7Y-6.65
X1.7Y-6.75
X1.7Y-6.85
X1.7Y-6.95
X1.7Y-7.05
X2.0Y-6.45
X2.0Y-6.55
X2.0Y-6.65
X2.0Y-6.75
X2.0Y-6.85
X2.0Y-6.95
X2.0Y-7.05
X2.9Y-5.35
X2.9Y-5.45
X2.9Y-5.55
X2.9Y-5.65
X2.9Y-5.75
X2.9Y-5.85
X2.9Y-5.95
X3.2Y-5.35
X3.2Y-5.45
X3.2Y-5.55
X3.2Y-5.65
X3.2Y-5.75
X3.2Y-5.85
X3.2Y-5.95
X2.3Y-5.25
X2.3Y-5.35
X2.3Y-5.45
X2.3Y-5.55
X2.3Y-5.65
X2.3Y-5.75
X2.3Y-5.85
X2.3Y-5.95
X2.6Y-5.25
X2.6Y-5.35
X2.6Y-5.45
X2.6Y-5.55
X2.6Y-5.65
X2.6Y-5.75
X2.6Y-5.85
X2.6Y-5.95
X2.9Y-4.25
X2.9Y-4.35
X2.9Y-4.45
X2.9Y-4.55
X2.9Y-4.65
X2.9Y-4.75
X2.9Y-4.85
X3.2Y-4.25
X3.2Y-4.35
X3.2Y-4.45
X3.2Y-4.55
X3.2Y-4.65
X3.2Y-4.75
X3.2Y-4.85
X6.2Y-4.2
X6.3969Y-4.2
X5.65Y-3.4
X5.8469Y-3.4
X6.2Y-6.45
X6.2Y-6.55
X6.2Y-6.65
X6.2Y-6.75
X6.2Y-6.85
X6.2Y-6.95
X6.2Y-7.05
X6.5Y-6.45
X6.5Y-6.55
X6.5Y-6.65
X6.5Y-6.75
X6.5Y-6.85
X6.5Y-6.95
X6.5Y-7.05
X4.7Y-6.45
X4.7Y-6.55
X4.7Y-6.65
X4.7Y-6.75
X4.7Y-6.85
X4.7Y-6.95
X4.7Y-7.05
X5.0Y-6.45
X5.0Y-6.55
X5.0Y-6.65
X5.0Y-6.75
X5.0Y-6.85
X5.0Y-6.95
X5.0Y-7.05
X2.35Y-5.0
X2.5469Y-5.0
X2.3Y-4.45
X2.3Y-4.55
X2.3Y-4.65
X2.3Y-4.75
X2.6Y-4.45
X2.6Y-4.55
X2.6Y-4.65
X2.6Y-4.75
X7.45Y-4.8
X7.6469Y-4.8
X6.8Y-5.35
X6.8Y-5.45
X6.8Y-5.55
X6.8Y-5.65
X6.8Y-5.75
X6.8Y-5.85
X6.8Y-5.95
X7.1Y-5.35
X7.1Y-5.45
X7.1Y-5.55
X7.1Y-5.65
X7.1Y-5.75
X7.1Y-5.85
X7.1Y-5.95
X2.7Y-3.4
X2.8969Y-3.4
X1.95Y-3.4
X2.1469Y-3.4
X2.95Y-3.9
X3.1469Y-3.9
X5.65Y-4.8
X5.8469Y-4.8
X1.95Y-4.45
X1.95Y-4.55
X1.95Y-4.65
X1.95Y-4.75
X1.95Y-4.85
X1.95Y-4.95
X1.95Y-5.05
X1.95Y-5.15
X1.95Y-5.25
X6.25Y-6.2
X6.4469Y-6.2
X7.45Y-3.4
X7.6469Y-3.4
X5.6Y-6.45
X5.6Y-6.55
X5.6Y-6.65
X5.6Y-6.75
X5.6Y-6.85
X5.6Y-6.95
X5.6Y-7.05
X5.9Y-6.45
X5.9Y-6.55
X5.9Y-6.65
X5.9Y-6.75
X5.9Y-6.85
X5.9Y-6.95
X5.9Y-7.05
X5.6Y-3.65
X5.6Y-3.75
X5.6Y-3.85
X5.6Y-3.95
X5.6Y-4.05
X5.6Y-4.15
X5.6Y-4.25
X5.6Y-4.35
X5.6Y-4.45
X5.6Y-4.55
X5.9Y-3.65
X5.9Y-3.75
X5.9Y-3.85
X5.9Y-3.95
X5.9Y-4.05
X5.9Y-4.15
X5.9Y-4.25
X5.9Y-4.35
X5.9Y-4.45
X5.9Y-4.55
X4.15Y-7.3
X4.3469Y-7.3
X4.2Y-3.4
X4.3969Y-3.4
X4.8Y-2.65
X4.8984Y-2.65
X5.65Y-2.0
X5.8469Y-2.0
X7.4Y-2.25
X7.4Y-2.35
X7.4Y-2.45
X7.4Y-2.55
X7.4Y-2.65
X7.4Y-2.75
X7.4Y-2.85
X7.4Y-2.95
X7.4Y-3.05
X7.4Y-3.15
X7.7Y-2.25
X7.7Y-2.35
X7.7Y-2.45
X7.7Y-2.55
X7.7Y-2.65
X7.7Y-2.75
X7.7Y-2.85
X7.7Y-2.95
X7.7Y-3.05
X7.7Y-3.15
X2.35Y-6.2
X2.5469Y-6.2
X4.4Y-4.65
X4.4Y-4.75
X4.4Y-4.85
X4.4Y-4.95
X4.4Y-5.05
X4.4Y-5.15
X4.4Y-5.25
X4.4Y-5.35
X4.4Y-5.45
X4.4Y-5.55
X4.4Y-5.65
X4.4Y-5.75
X4.4Y-5.85
X4.4Y-5.95
X5.0Y-4.65
X5.0Y-4.75
X5.0Y-4.85
X5.0Y-4.95
X5.0Y-5.05
X5.0Y-5.15
X5.0Y-5.25
X5.0Y-5.35
X5.0Y-5.45
X5.0Y-5.55
X5.0Y-5.65
X5.0Y-5.75
X5.0Y-5.85
X5.0Y-5.95
X4.75Y-3.4
X4.9469Y-3.4
X1.213Y-3.6205
X1.4098Y-3.6205
X7.4Y-0.85
X7.4Y-0.95
X7.4Y-1.05
X7.4Y-1.15
X7.4Y-1.25
X7.4Y-1.35
X7.4Y-1.45
X7.4Y-1.55
X7.4Y-1.65
X7.4Y-1.75
X7.7Y-0.85
X7.7Y-0.95
X7.7Y-1.05
X7.7Y-1.15
X7.7Y-1.25
X7.7Y-1.35
X7.7Y-1.45
X7.7Y-1.55
X7.7Y-1.65
X7.7Y-1.75
X6.85Y-6.2
X7.0469Y-6.2
X6.85Y-7.3
X7.0469Y-7.3
X7.4Y-6.45
X7.4Y-6.55
X7.4Y-6.65
X7.4Y-6.75
X7.4Y-6.85
X7.4Y-6.95
X7.4Y-7.05
X7.7Y-6.45
X7.7Y-6.55
X7.7Y-6.65
X7.7Y-6.75
X7.7Y-6.85
X7.7Y-6.95
X7.7Y-7.05
X6.2Y-5.35
X6.2Y-5.45
X6.2Y-5.55
X6.2Y-5.65
X6.2Y-5.75
X6.2Y-5.85
X6.2Y-5.95
X6.5Y-5.35
X6.5Y-5.45
X6.5Y-5.55
X6.5Y-5.65
X6.5Y-5.75
X6.5Y-5.85
X6.5Y-5.95
X5.3Y-2.35
X5.3Y-2.45
X5.3Y-2.55
X5.3Y-2.65
X5.3Y-2.75
X5.3Y-2.85
X5.3Y-2.95
X5.3Y-3.05
X5.3Y-3.15
X5.2Y-3.4
X5.3969Y-3.4
X2.95Y-5.1
X3.1469Y-5.1
X4.75Y-7.3
X4.9469Y-7.3
X3.55Y-7.3
X3.7469Y-7.3
T4
X6.6Y-4.4
X6.7Y-4.4
T5
X1.25Y-0.85
X1.25Y-0.95
X1.25Y-1.05
X1.25Y-1.15
X1.25Y-1.25
X1.25Y-1.35
X1.25Y-1.45
X1.25Y-1.55
X1.25Y-1.65
X1.25Y-1.75
X1.25Y-1.85
X1.25Y-1.95
X1.25Y-2.05
X1.25Y-2.15
X1.25Y-2.25
X1.25Y-2.35
X1.25Y-2.45
X1.25Y-2.55
X1.25Y-2.65
X1.25Y-2.75
X1.25Y-2.85
X1.25Y-2.95
X1.25Y-3.05
X1.25Y-3.15
X1.25Y-3.25
X1.25Y-3.35
X1.35Y-0.85
X1.35Y-0.95
X1.35Y-1.05
X1.35Y-1.15
X1.35Y-1.25
X1.35Y-1.35
X1.35Y-1.45
X1.35Y-1.55
X1.35Y-1.65
X1.35Y-1.75
X1.35Y-1.85
X1.35Y-1.95
X1.35Y-2.05
X1.35Y-2.15
X1.35Y-2.25
X1.35Y-2.35
X1.35Y-2.45
X1.35Y-2.55
X1.35Y-2.65
X1.35Y-2.75
X1.35Y-2.85
X1.35Y-2.95
X1.35Y-3.05
X1.35Y-3.15
X1.35Y-3.25
X1.35Y-3.35
X5.3Y-4.65
X5.3Y-4.75
X5.3Y-4.85
X5.3Y-0.85
X5.3Y-0.95
X3.5Y-0.85
X3.5Y-0.95
X3.5Y-1.05
X3.5Y-1.15
X3.5Y-1.25
X3.5Y-1.35
X3.5Y-1.45
X3.5Y-1.55
X3.5Y-1.65
X3.5Y-1.75
X3.5Y-1.85
X3.5Y-1.95
X3.5Y-2.05
X3.5Y-2.15
X3.5Y-2.25
X3.5Y-2.35
X3.5Y-2.45
X3.5Y-2.55
X3.5Y-2.65
X3.5Y-2.75
X3.5Y-2.85
X3.5Y-2.95
X3.5Y-3.05
X3.5Y-3.15
X3.6Y-0.85
X3.6Y-0.95
X3.6Y-1.05
X3.6Y-1.15
X3.6Y-1.25
X3.6Y-1.35
X3.6Y-1.45
X3.6Y-1.55
X3.6Y-1.65
X3.6Y-1.75
X3.6Y-1.85
X3.6Y-1.95
X3.6Y-2.05
X3.6Y-2.15
X3.6Y-2.25
X3.6Y-2.35
X3.6Y-2.45
X3.6Y-2.55
X3.6Y-2.65
X3.6Y-2.75
X3.6Y-2.85
X3.6Y-2.95
X3.6Y-3.05
X3.6Y-3.15
X4.25Y-0.85
X4.25Y-0.95
X4.25Y-1.05
X4.25Y-1.15
X4.25Y-1.25
X4.25Y-1.35
X4.25Y-1.45
X4.25Y-1.55
X4.25Y-1.65
X4.25Y-1.75
X4.25Y-1.85
X4.25Y-1.95
X4.25Y-2.05
X4.25Y-2.15
X4.25Y-2.25
X4.25Y-2.35
X4.25Y-2.45
X4.25Y-2.55
X4.25Y-2.65
X4.25Y-2.75
X4.25Y-2.85
X4.25Y-2.95
X4.25Y-3.05
X4.25Y-3.15
X4.35Y-0.85
X4.35Y-0.95
X4.35Y-1.05
X4.35Y-1.15
X4.35Y-1.25
X4.35Y-1.35
X4.35Y-1.45
X4.35Y-1.55
X4.35Y-1.65
X4.35Y-1.75
X4.35Y-1.85
X4.35Y-1.95
X4.35Y-2.05
X4.35Y-2.15
X4.35Y-2.25
X4.35Y-2.35
X4.35Y-2.45
X4.35Y-2.55
X4.35Y-2.65
X4.35Y-2.75
X4.35Y-2.85
X4.35Y-2.95
X4.35Y-3.05
X4.35Y-3.15
X4.2Y-4.35
X4.3Y-4.35
X2.0Y-0.85
X2.0Y-0.95
X2.0Y-1.05
X2.0Y-1.15
X2.0Y-1.25
X2.0Y-1.35
X2.0Y-1.45
X2.0Y-1.55
X2.0Y-1.65
X2.0Y-1.75
X2.0Y-1.85
X2.0Y-1.95
X2.0Y-2.05
X2.0Y-2.15
X2.0Y-2.25
X2.0Y-2.35
X2.0Y-2.45
X2.0Y-2.55
X2.0Y-2.65
X2.0Y-2.75
X2.0Y-2.85
X2.0Y-2.95
X2.0Y-3.05
X2.0Y-3.15
X2.1Y-0.85
X2.1Y-0.95
X2.1Y-1.05
X2.1Y-1.15
X2.1Y-1.25
X2.1Y-1.35
X2.1Y-1.45
X2.1Y-1.55
X2.1Y-1.65
X2.1Y-1.75
X2.1Y-1.85
X2.1Y-1.95
X2.1Y-2.05
X2.1Y-2.15
X2.1Y-2.25
X2.1Y-2.35
X2.1Y-2.45
X2.1Y-2.55
X2.1Y-2.65
X2.1Y-2.75
X2.1Y-2.85
X2.1Y-2.95
X2.1Y-3.05
X2.1Y-3.15
X1.9Y-5.5
X1.9Y-5.6
X1.9Y-5.7
X1.9Y-5.8
X1.9Y-5.9
X1.9Y-6.0
X1.9Y-6.1
X1.9Y-6.2
X2.0Y-5.5
X2.0Y-5.6
X2.0Y-5.7
X2.0Y-5.8
X2.0Y-5.9
X2.0Y-6.0
X2.0Y-6.1
X2.0Y-6.2
X2.75Y-0.85
X2.75Y-0.95
X2.75Y-1.05
X2.75Y-1.15
X2.75Y-1.25
X2.75Y-1.35
X2.75Y-1.45
X2.75Y-1.55
X2.75Y-1.65
X2.75Y-1.75
X2.75Y-1.85
X2.75Y-1.95
X2.75Y-2.05
X2.75Y-2.15
X2.75Y-2.25
X2.75Y-2.35
X2.75Y-2.45
X2.75Y-2.55
X2.75Y-2.65
X2.75Y-2.75
X2.75Y-2.85
X2.75Y-2.95
X2.75Y-3.05
X2.75Y-3.15
X2.85Y-0.85
X2.85Y-0.95
X2.85Y-1.05
X2.85Y-1.15
X2.85Y-1.25
X2.85Y-1.35
X2.85Y-1.45
X2.85Y-1.55
X2.85Y-1.65
X2.85Y-1.75
X2.85Y-1.85
X2.85Y-1.95
X2.85Y-2.05
X2.85Y-2.15
X2.85Y-2.25
X2.85Y-2.35
X2.85Y-2.45
X2.85Y-2.55
X2.85Y-2.65
X2.85Y-2.75
X2.85Y-2.85
X2.85Y-2.95
X2.85Y-3.05
X2.85Y-3.15
T6
X4.75Y-2.3
X4.85Y-2.3
X4.95Y-2.3
X5.3Y-1.35
X5.3Y-1.75
T7
X1.6Y-4.3
X1.6Y-5.1
X6.25Y-4.75
X7.05Y-4.75
X1.85Y-4.05
X2.65Y-4.05
X1.3Y-4.3
X1.3Y-5.1
X1.6Y-5.4
X1.6Y-6.2
X3.45Y-3.75
X4.25Y-3.75
X1.85Y-3.75
X2.65Y-3.75
X1.3Y-5.4
X1.3Y-6.2
X1.3Y-6.5
X1.3Y-7.3
X3.45Y-4.05
X4.25Y-4.05
T8
X0.85Y-7.3
X8.1Y-7.3
X8.1Y-0.85
X0.85Y-0.85
T9
X4.85Y-1.6441
T5
G00X4.665Y-1.1425
M15
G01X4.665Y-1.2213
M16
G05
G00X4.8894Y-1.0638
M15
G01X4.8106Y-1.0638
M16
G05
G00X4.8894Y-1.3
M15
G01X4.8106Y-1.3
M16
G05
T0
M30
