M48
; DRILL file {KiCad 5.1.6} date Tue Oct 27 17:21:05 2020
; FORMAT={-:-/ absolute / metric / decimal}
; #@! TF.CreationDate,2020-10-27T17:21:05+03:00
; #@! TF.GenerationSoftware,Kicad,Pcbnew,5.1.6
FMAT,2
METRIC
T1C0.400
T2C0.600
T3C0.800
T4C0.900
T5C1.000
T6C1.100
T7C1.200
T8C3.300
T9C3.500
%
G90
G05
T1
X30.48Y-96.52
X30.48Y-114.3
X30.48Y-115.57
X30.48Y-127.0
X30.48Y-130.81
X30.48Y-132.08
X30.48Y-133.35
X31.75Y-96.52
X31.75Y-119.38
X33.02Y-92.71
X33.02Y-106.68
X33.02Y-140.97
X33.02Y-180.34
X34.29Y-121.92
X35.56Y-88.9
X35.56Y-104.14
X35.56Y-109.22
X35.56Y-115.57
X35.56Y-127.0
X35.56Y-132.08
X35.56Y-133.35
X35.56Y-134.62
X35.56Y-143.51
X36.83Y-88.9
X36.83Y-95.25
X36.83Y-99.06
X36.83Y-104.14
X36.83Y-107.95
X36.83Y-142.24
X38.1Y-77.47
X38.1Y-96.52
X38.1Y-104.14
X38.1Y-111.76
X38.1Y-143.51
X39.37Y-21.59
X39.37Y-24.13
X39.37Y-26.67
X39.37Y-29.21
X39.37Y-31.75
X39.37Y-34.29
X39.37Y-36.83
X39.37Y-39.37
X39.37Y-41.91
X39.37Y-44.45
X39.37Y-46.99
X39.37Y-49.53
X39.37Y-52.07
X39.37Y-54.61
X39.37Y-57.15
X39.37Y-59.69
X39.37Y-62.23
X39.37Y-64.77
X39.37Y-67.31
X39.37Y-69.85
X39.37Y-72.39
X39.37Y-74.93
X39.37Y-78.74
X39.37Y-88.9
X39.37Y-104.14
X39.37Y-106.68
X39.37Y-113.03
X39.37Y-114.3
X39.37Y-115.57
X40.64Y-92.71
X40.64Y-105.41
X40.64Y-132.08
X41.91Y-41.91
X41.91Y-77.47
X41.91Y-85.09
X41.91Y-92.71
X41.91Y-116.84
X41.91Y-118.11
X41.91Y-119.38
X41.91Y-124.46
X41.91Y-125.73
X41.91Y-132.08
X43.18Y-40.64
X43.18Y-78.74
X43.18Y-92.71
X43.18Y-96.52
X43.18Y-110.49
X43.18Y-115.57
X43.18Y-181.61
X44.45Y-43.18
X44.45Y-85.09
X44.45Y-92.71
X44.45Y-96.52
X44.45Y-110.49
X44.45Y-111.76
X44.45Y-114.3
X44.45Y-118.11
X44.45Y-129.54
X45.72Y-44.45
X45.72Y-97.79
X45.72Y-109.22
X45.72Y-130.81
X46.99Y-45.72
X46.99Y-87.63
X46.99Y-90.17
X46.99Y-124.46
X46.99Y-130.81
X46.99Y-132.08
X46.99Y-135.89
X46.99Y-175.26
X48.26Y-177.8
X49.53Y-48.26
X49.53Y-71.12
X49.53Y-104.14
X49.53Y-107.95
X49.53Y-160.02
X49.53Y-181.61
X50.8Y-104.14
X50.8Y-116.84
X52.07Y-93.98
X52.07Y-124.46
X52.07Y-127.0
X52.07Y-160.02
X52.07Y-177.8
X53.34Y-106.68
X53.34Y-119.38
X53.34Y-121.92
X53.34Y-128.27
X53.34Y-129.54
X53.34Y-135.89
X53.34Y-137.16
X53.34Y-138.43
X53.34Y-160.02
X53.34Y-172.72
X54.61Y-104.14
X54.61Y-111.76
X54.61Y-113.03
X54.61Y-132.08
X54.61Y-139.7
X54.61Y-176.53
X54.61Y-177.8
X55.88Y-21.59
X55.88Y-24.13
X55.88Y-26.67
X55.88Y-29.21
X55.88Y-31.75
X55.88Y-34.29
X55.88Y-36.83
X55.88Y-39.37
X55.88Y-41.91
X55.88Y-44.45
X55.88Y-46.99
X55.88Y-49.53
X55.88Y-52.07
X55.88Y-54.61
X55.88Y-57.15
X55.88Y-59.69
X55.88Y-62.23
X55.88Y-64.77
X55.88Y-67.31
X55.88Y-69.85
X55.88Y-72.39
X55.88Y-74.93
X55.88Y-77.47
X55.88Y-107.95
X55.88Y-110.49
X55.88Y-111.76
X55.88Y-115.57
X55.88Y-121.92
X55.88Y-127.0
X55.88Y-128.27
X55.88Y-139.7
X55.88Y-157.48
X57.15Y-119.38
X57.15Y-130.81
X57.15Y-139.7
X57.15Y-160.02
X57.15Y-167.64
X58.42Y-104.14
X58.42Y-110.49
X58.42Y-125.73
X59.69Y-123.19
X59.69Y-144.78
X60.96Y-113.03
X60.96Y-130.81
X60.96Y-140.97
X60.96Y-160.02
X60.96Y-172.72
X62.23Y-101.6
X62.23Y-102.87
X62.23Y-114.3
X62.23Y-133.35
X62.23Y-172.72
X62.23Y-179.07
X63.5Y-113.03
X63.5Y-137.16
X63.5Y-144.78
X63.5Y-165.1
X64.77Y-36.83
X64.77Y-101.6
X64.77Y-123.19
X64.77Y-124.46
X64.77Y-144.78
X66.04Y-38.1
X66.04Y-109.22
X66.04Y-128.27
X67.31Y-39.37
X67.31Y-107.95
X67.31Y-114.3
X67.31Y-125.73
X67.31Y-132.08
X67.31Y-157.48
X67.31Y-172.72
X68.58Y-48.26
X68.58Y-71.12
X68.58Y-92.71
X68.58Y-109.22
X68.58Y-115.57
X68.58Y-116.84
X68.58Y-133.35
X68.58Y-139.7
X68.58Y-157.48
X68.58Y-160.02
X68.58Y-163.83
X68.58Y-170.18
X69.85Y-95.25
X69.85Y-100.33
X69.85Y-105.41
X69.85Y-110.49
X69.85Y-119.38
X69.85Y-120.65
X69.85Y-135.89
X69.85Y-140.97
X69.85Y-157.48
X69.85Y-160.02
X69.85Y-163.83
X69.85Y-171.45
X69.85Y-173.99
X71.12Y-95.25
X71.12Y-97.79
X71.12Y-106.68
X71.12Y-123.19
X71.12Y-125.73
X71.12Y-157.48
X71.12Y-163.83
X71.12Y-167.64
X71.12Y-170.18
X71.12Y-172.72
X71.12Y-175.26
X72.39Y-116.84
X72.39Y-119.38
X72.39Y-130.81
X72.39Y-157.48
X73.66Y-88.9
X73.66Y-91.44
X73.66Y-95.25
X73.66Y-128.27
X73.66Y-132.08
X73.66Y-153.67
X74.93Y-21.59
X74.93Y-24.13
X74.93Y-26.67
X74.93Y-29.21
X74.93Y-31.75
X74.93Y-34.29
X74.93Y-36.83
X74.93Y-39.37
X74.93Y-41.91
X74.93Y-44.45
X74.93Y-46.99
X74.93Y-49.53
X74.93Y-52.07
X74.93Y-54.61
X74.93Y-57.15
X74.93Y-59.69
X74.93Y-62.23
X74.93Y-64.77
X74.93Y-67.31
X74.93Y-69.85
X74.93Y-72.39
X74.93Y-74.93
X74.93Y-77.47
X76.2Y-90.17
X76.2Y-92.71
X76.2Y-96.52
X76.2Y-105.41
X76.2Y-109.22
X76.2Y-119.38
X76.2Y-120.65
X76.2Y-124.46
X76.2Y-140.97
X76.2Y-148.59
X76.2Y-163.83
X77.47Y-68.58
X77.47Y-95.25
X77.47Y-110.49
X77.47Y-113.03
X77.47Y-115.57
X77.47Y-149.86
X77.47Y-152.4
X77.47Y-158.75
X77.47Y-165.1
X77.47Y-176.53
X78.74Y-67.31
X78.74Y-101.6
X78.74Y-158.75
X80.01Y-66.04
X80.01Y-105.41
X80.01Y-111.76
X80.01Y-132.08
X80.01Y-149.86
X80.01Y-177.8
X81.28Y-64.77
X81.28Y-125.73
X81.28Y-133.35
X82.55Y-63.5
X82.55Y-109.22
X82.55Y-119.38
X82.55Y-125.73
X82.55Y-157.48
X83.82Y-62.23
X83.82Y-110.49
X83.82Y-114.3
X83.82Y-116.84
X83.82Y-119.38
X83.82Y-123.19
X83.82Y-127.0
X83.82Y-157.48
X83.82Y-158.75
X83.82Y-161.29
X85.09Y-60.96
X85.09Y-88.9
X85.09Y-111.76
X85.09Y-115.57
X85.09Y-123.19
X85.09Y-127.0
X85.09Y-133.35
X85.09Y-157.48
X85.09Y-163.83
X86.36Y-59.69
X86.36Y-119.38
X86.36Y-123.19
X86.36Y-127.0
X86.36Y-129.54
X86.36Y-133.35
X86.36Y-134.62
X86.36Y-152.4
X86.36Y-157.48
X87.63Y-48.26
X87.63Y-71.12
X87.63Y-91.44
X87.63Y-109.22
X87.63Y-134.62
X87.63Y-137.16
X87.63Y-157.48
X87.63Y-172.72
X88.9Y-83.82
X88.9Y-114.3
X88.9Y-115.57
X88.9Y-157.48
X90.17Y-160.02
X91.44Y-110.49
X91.44Y-132.08
X91.44Y-142.24
X91.44Y-163.83
X91.44Y-166.37
X91.44Y-168.91
X91.44Y-175.26
X91.44Y-179.07
X92.71Y-172.72
X92.71Y-173.99
X92.71Y-176.53
X92.71Y-179.07
X92.71Y-180.34
X93.98Y-21.59
X93.98Y-24.13
X93.98Y-26.67
X93.98Y-29.21
X93.98Y-31.75
X93.98Y-34.29
X93.98Y-36.83
X93.98Y-39.37
X93.98Y-41.91
X93.98Y-44.45
X93.98Y-46.99
X93.98Y-49.53
X93.98Y-52.07
X93.98Y-54.61
X93.98Y-57.15
X93.98Y-59.69
X93.98Y-62.23
X93.98Y-64.77
X93.98Y-67.31
X93.98Y-69.85
X93.98Y-72.39
X93.98Y-74.93
X93.98Y-77.47
X93.98Y-81.28
X93.98Y-165.1
X93.98Y-167.64
X95.25Y-170.18
X95.25Y-177.8
X95.25Y-180.34
X95.25Y-181.61
X96.52Y-58.42
X96.52Y-151.13
X96.52Y-157.48
X97.79Y-57.15
X97.79Y-151.13
X97.79Y-160.02
X99.06Y-55.88
X99.06Y-161.29
X99.06Y-163.83
X99.06Y-166.37
X99.06Y-167.64
X100.33Y-54.61
X100.33Y-104.14
X100.33Y-110.49
X100.33Y-118.11
X100.33Y-143.51
X100.33Y-166.37
X100.33Y-172.72
X100.33Y-173.99
X100.33Y-175.26
X101.6Y-53.34
X102.87Y-52.07
X102.87Y-152.4
X102.87Y-161.29
X102.87Y-177.8
X102.87Y-180.34
X102.87Y-181.61
X102.87Y-184.15
X104.14Y-50.8
X105.41Y-49.53
X105.41Y-85.09
X105.41Y-101.6
X105.41Y-104.14
X105.41Y-142.24
X105.41Y-157.48
X105.41Y-170.18
X105.41Y-172.72
X105.41Y-175.26
X105.41Y-181.61
X105.41Y-182.88
X106.68Y-48.26
X106.68Y-71.12
X106.68Y-139.7
X106.68Y-157.48
X106.68Y-163.83
X106.68Y-166.37
X106.68Y-177.8
X107.95Y-85.09
X107.95Y-123.19
X107.95Y-125.73
X107.95Y-128.27
X107.95Y-130.81
X107.95Y-133.35
X107.95Y-135.89
X107.95Y-137.16
X107.95Y-157.48
X107.95Y-163.83
X107.95Y-166.37
X107.95Y-177.8
X107.95Y-180.34
X107.95Y-182.88
X107.95Y-184.15
X109.22Y-119.38
X109.22Y-133.35
X109.22Y-157.48
X109.22Y-160.02
X109.22Y-163.83
X110.49Y-101.6
X110.49Y-144.78
X110.49Y-152.4
X110.49Y-157.48
X110.49Y-160.02
X110.49Y-165.1
X110.49Y-170.18
X110.49Y-177.8
X110.49Y-182.88
X111.76Y-45.72
X111.76Y-58.42
X111.76Y-60.96
X111.76Y-63.5
X111.76Y-66.04
X111.76Y-73.66
X111.76Y-76.2
X111.76Y-160.02
X111.76Y-184.15
X113.03Y-57.15
X113.03Y-152.4
X113.03Y-160.02
X113.03Y-165.1
X114.3Y-21.59
X114.3Y-26.67
X114.3Y-27.94
X114.3Y-29.21
X114.3Y-57.15
X114.3Y-72.39
X114.3Y-74.93
X114.3Y-147.32
X114.3Y-149.86
X114.3Y-163.83
X114.3Y-171.45
X114.3Y-176.53
X115.57Y-68.58
X115.57Y-71.12
X115.57Y-76.2
X115.57Y-100.33
X115.57Y-105.41
X115.57Y-110.49
X115.57Y-114.3
X115.57Y-142.24
X115.57Y-143.51
X115.57Y-149.86
X115.57Y-163.83
X115.57Y-181.61
X116.84Y-68.58
X116.84Y-71.12
X116.84Y-77.47
X116.84Y-151.13
X118.11Y-85.09
X119.38Y-68.58
X119.38Y-80.01
X120.65Y-73.66
X120.65Y-160.02
X120.65Y-167.64
X120.65Y-175.26
X121.92Y-71.12
X121.92Y-78.74
X121.92Y-140.97
X121.92Y-144.78
X121.92Y-147.32
X121.92Y-149.86
X121.92Y-171.45
X121.92Y-173.99
X123.19Y-86.36
X123.19Y-90.17
X123.19Y-106.68
X123.19Y-138.43
X123.19Y-139.7
X123.19Y-167.64
X123.19Y-177.8
X124.46Y-104.14
X124.46Y-119.38
X124.46Y-121.92
X124.46Y-137.16
X124.46Y-142.24
X125.73Y-69.85
X125.73Y-80.01
X125.73Y-88.9
X125.73Y-113.03
X125.73Y-121.92
X125.73Y-139.7
X125.73Y-144.78
X125.73Y-147.32
X125.73Y-149.86
X125.73Y-181.61
X127.0Y-68.58
X127.0Y-77.47
X127.0Y-78.74
X127.0Y-95.25
X128.27Y-85.09
X128.27Y-115.57
X128.27Y-124.46
X128.27Y-160.02
X129.54Y-113.03
X129.54Y-120.65
X129.54Y-121.92
X129.54Y-125.73
X129.54Y-157.48
X129.54Y-161.29
X129.54Y-179.07
X130.81Y-45.72
X130.81Y-46.99
X130.81Y-48.26
X130.81Y-49.53
X130.81Y-50.8
X130.81Y-52.07
X130.81Y-58.42
X130.81Y-157.48
X130.81Y-161.29
X132.08Y-58.42
X132.08Y-88.9
X132.08Y-123.19
X132.08Y-129.54
X132.08Y-132.08
X132.08Y-161.29
X132.08Y-167.64
X132.08Y-170.18
X133.35Y-58.42
X133.35Y-125.73
X133.35Y-127.0
X133.35Y-128.27
X133.35Y-134.62
X133.35Y-139.7
X133.35Y-165.1
X133.35Y-185.42
X134.62Y-46.99
X134.62Y-49.53
X134.62Y-50.8
X134.62Y-52.07
X134.62Y-57.15
X134.62Y-158.75
X134.62Y-171.45
X134.62Y-173.99
X135.89Y-147.32
X135.89Y-160.02
X137.16Y-25.4
X137.16Y-149.86
X137.16Y-153.67
X137.16Y-157.48
X138.43Y-26.67
X138.43Y-152.4
X138.43Y-157.48
X138.43Y-175.26
X138.43Y-185.42
X139.7Y-85.09
X139.7Y-93.98
X139.7Y-151.13
X139.7Y-157.48
X140.97Y-85.09
X140.97Y-153.67
X140.97Y-157.48
X140.97Y-167.64
X140.97Y-177.8
X140.97Y-182.88
X142.24Y-181.61
X143.51Y-25.4
X143.51Y-30.48
X143.51Y-96.52
X143.51Y-170.18
X144.78Y-77.47
X144.78Y-91.44
X144.78Y-152.4
X144.78Y-162.56
X146.05Y-90.17
X146.05Y-96.52
X146.05Y-148.59
X146.05Y-152.4
X146.05Y-167.64
X146.05Y-184.15
X147.32Y-24.13
X147.32Y-30.48
X147.32Y-88.9
X147.32Y-93.98
X148.59Y-22.86
X148.59Y-33.02
X148.59Y-177.8
X148.59Y-180.34
X148.59Y-181.61
X148.59Y-182.88
X149.86Y-153.67
X149.86Y-184.15
X151.13Y-27.94
X151.13Y-53.34
X151.13Y-54.61
X151.13Y-55.88
X151.13Y-76.2
X151.13Y-93.98
X151.13Y-149.86
X151.13Y-157.48
X151.13Y-180.34
X151.13Y-181.61
X151.13Y-182.88
X152.4Y-25.4
X152.4Y-57.15
X152.4Y-83.82
X152.4Y-123.19
X152.4Y-124.46
X152.4Y-125.73
X152.4Y-148.59
X152.4Y-163.83
X152.4Y-173.99
X152.4Y-179.07
X152.4Y-184.15
X152.4Y-185.42
X153.67Y-77.47
X153.67Y-81.28
X153.67Y-92.71
X153.67Y-171.45
X153.67Y-176.53
X154.94Y-26.67
X154.94Y-54.61
X154.94Y-76.2
X154.94Y-78.74
X154.94Y-82.55
X154.94Y-91.44
X154.94Y-163.83
X154.94Y-173.99
X156.21Y-113.03
X156.21Y-127.0
X156.21Y-156.21
X157.48Y-113.03
X157.48Y-153.67
X158.75Y-58.42
X158.75Y-63.5
X158.75Y-91.44
X158.75Y-93.98
X158.75Y-96.52
X158.75Y-99.06
X158.75Y-101.6
X158.75Y-102.87
X158.75Y-104.14
X158.75Y-105.41
X158.75Y-133.35
X160.02Y-73.66
X160.02Y-111.76
X160.02Y-154.94
X160.02Y-180.34
X161.29Y-60.96
X161.29Y-74.93
X161.29Y-109.22
X161.29Y-143.51
X161.29Y-151.13
X161.29Y-153.67
X161.29Y-158.75
X161.29Y-170.18
X161.29Y-176.53
X162.56Y-91.44
X162.56Y-93.98
X162.56Y-96.52
X162.56Y-99.06
X162.56Y-101.6
X162.56Y-102.87
X162.56Y-104.14
X162.56Y-135.89
X162.56Y-147.32
X162.56Y-158.75
X163.83Y-104.14
X163.83Y-147.32
X163.83Y-172.72
X163.83Y-180.34
X166.37Y-114.3
X166.37Y-116.84
X167.64Y-101.6
X167.64Y-102.87
X167.64Y-116.84
X167.64Y-139.7
X167.64Y-140.97
X167.64Y-154.94
X167.64Y-160.02
X167.64Y-161.29
X167.64Y-163.83
X167.64Y-185.42
X168.91Y-72.39
X168.91Y-137.16
X168.91Y-158.75
X168.91Y-176.53
X168.91Y-179.07
X168.91Y-182.88
X170.18Y-73.66
X170.18Y-90.17
X170.18Y-99.06
X170.18Y-101.6
X170.18Y-127.0
X170.18Y-147.32
X170.18Y-152.4
X170.18Y-163.83
X170.18Y-172.72
X170.18Y-175.26
X170.18Y-179.07
X170.18Y-181.61
X171.45Y-74.93
X171.45Y-101.6
X171.45Y-102.87
X171.45Y-147.32
X171.45Y-153.67
X171.45Y-157.48
X172.72Y-74.93
X172.72Y-96.52
X172.72Y-127.0
X172.72Y-154.94
X173.99Y-74.93
X173.99Y-92.71
X173.99Y-96.52
X173.99Y-109.22
X173.99Y-161.29
X175.26Y-74.93
X175.26Y-91.44
X175.26Y-96.52
X175.26Y-127.0
X175.26Y-139.7
X175.26Y-144.78
X175.26Y-149.86
X175.26Y-151.13
X175.26Y-156.21
X175.26Y-160.02
X175.26Y-168.91
X175.26Y-171.45
X175.26Y-182.88
X176.53Y-74.93
X176.53Y-95.25
X176.53Y-135.89
X176.53Y-142.24
X176.53Y-144.78
X176.53Y-154.94
X176.53Y-163.83
X176.53Y-176.53
X177.8Y-113.03
X177.8Y-118.11
X177.8Y-135.89
X177.8Y-144.78
X177.8Y-168.91
X177.8Y-171.45
X179.07Y-102.87
X179.07Y-123.19
X179.07Y-124.46
X179.07Y-125.73
X179.07Y-139.7
X179.07Y-142.24
X180.34Y-113.03
X181.61Y-102.87
X181.61Y-129.54
X182.88Y-96.52
X182.88Y-109.22
X182.88Y-156.21
X182.88Y-163.83
X182.88Y-168.91
X182.88Y-170.18
X184.15Y-107.95
X184.15Y-110.49
X184.15Y-151.13
X184.15Y-153.67
X184.15Y-166.37
X184.15Y-173.99
X185.42Y-111.76
X185.42Y-118.11
X185.42Y-137.16
X185.42Y-167.64
X186.69Y-53.34
X186.69Y-137.16
X186.69Y-139.7
X186.69Y-142.24
X186.69Y-172.72
X187.96Y-54.61
X187.96Y-154.94
X189.23Y-82.55
X189.23Y-134.62
X190.5Y-101.6
X190.5Y-109.22
X190.5Y-134.62
X190.5Y-143.51
X190.5Y-153.67
X190.5Y-165.1
X190.5Y-170.18
X190.5Y-172.72
X191.77Y-102.87
X191.77Y-109.22
X191.77Y-110.49
X191.77Y-118.11
X191.77Y-130.81
X191.77Y-135.89
X191.77Y-143.51
X191.77Y-163.83
X191.77Y-176.53
X193.04Y-22.86
X193.04Y-95.25
X193.04Y-116.84
X193.04Y-129.54
X193.04Y-142.24
X193.04Y-143.51
X193.04Y-151.13
X193.04Y-160.02
X193.04Y-161.29
X193.04Y-167.64
X193.04Y-181.61
X194.31Y-55.88
X194.31Y-91.44
X194.31Y-170.18
X195.58Y-153.67
X196.85Y-181.61
X198.12Y-167.64
X199.39Y-26.67
X199.39Y-29.21
X199.39Y-168.91
T2
X122.174Y-76.2
X124.174Y-76.2
X39.656Y-101.6
X41.656Y-101.6
T3
X59.69Y-157.48
X64.69Y-157.48
X120.65Y-86.36
X125.65Y-86.36
X175.26Y-106.68
X180.26Y-106.68
X173.99Y-157.48
X178.99Y-157.48
X157.48Y-135.89
X157.48Y-138.43
X157.48Y-140.97
X157.48Y-143.51
X157.48Y-146.05
X157.48Y-148.59
X157.48Y-151.13
X165.1Y-135.89
X165.1Y-138.43
X165.1Y-140.97
X165.1Y-143.51
X165.1Y-146.05
X165.1Y-148.59
X165.1Y-151.13
X49.53Y-113.03
X49.53Y-115.57
X49.53Y-118.11
X49.53Y-120.65
X49.53Y-123.19
X49.53Y-125.73
X49.53Y-128.27
X49.53Y-130.81
X49.53Y-133.35
X58.42Y-133.35
X58.42Y-135.89
X58.42Y-138.43
X58.42Y-140.97
X58.42Y-143.51
X58.42Y-146.05
X58.42Y-148.59
X58.42Y-151.13
X66.04Y-133.35
X66.04Y-135.89
X66.04Y-138.43
X66.04Y-140.97
X66.04Y-143.51
X66.04Y-146.05
X66.04Y-148.59
X66.04Y-151.13
X187.96Y-21.59
X187.96Y-24.13
X187.96Y-26.67
X187.96Y-29.21
X187.96Y-31.75
X187.96Y-34.29
X187.96Y-36.83
X187.96Y-39.37
X187.96Y-41.91
X187.96Y-44.45
X195.58Y-21.59
X195.58Y-24.13
X195.58Y-26.67
X195.58Y-29.21
X195.58Y-31.75
X195.58Y-34.29
X195.58Y-36.83
X195.58Y-39.37
X195.58Y-41.91
X195.58Y-44.45
X142.24Y-92.71
X142.24Y-95.25
X142.24Y-97.79
X142.24Y-100.33
X142.24Y-102.87
X142.24Y-105.41
X142.24Y-107.95
X142.24Y-110.49
X142.24Y-113.03
X142.24Y-115.57
X149.86Y-92.71
X149.86Y-95.25
X149.86Y-97.79
X149.86Y-100.33
X149.86Y-102.87
X149.86Y-105.41
X149.86Y-107.95
X149.86Y-110.49
X149.86Y-113.03
X149.86Y-115.57
X172.72Y-163.83
X172.72Y-166.37
X172.72Y-168.91
X172.72Y-171.45
X172.72Y-173.99
X172.72Y-176.53
X172.72Y-179.07
X180.34Y-163.83
X180.34Y-166.37
X180.34Y-168.91
X180.34Y-171.45
X180.34Y-173.99
X180.34Y-176.53
X180.34Y-179.07
X88.9Y-118.11
X88.9Y-120.65
X88.9Y-123.19
X88.9Y-125.73
X88.9Y-128.27
X88.9Y-130.81
X88.9Y-133.35
X88.9Y-135.89
X88.9Y-138.43
X88.9Y-140.97
X88.9Y-143.51
X88.9Y-146.05
X88.9Y-148.59
X88.9Y-151.13
X104.14Y-118.11
X104.14Y-120.65
X104.14Y-123.19
X104.14Y-125.73
X104.14Y-128.27
X104.14Y-130.81
X104.14Y-133.35
X104.14Y-135.89
X104.14Y-138.43
X104.14Y-140.97
X104.14Y-143.51
X104.14Y-146.05
X104.14Y-148.59
X104.14Y-151.13
X189.23Y-157.48
X194.23Y-157.48
X158.75Y-185.42
X163.75Y-185.42
X49.53Y-86.36
X54.53Y-86.36
X134.62Y-130.81
X134.62Y-133.35
X134.62Y-135.89
X134.62Y-138.43
X134.62Y-140.97
X134.62Y-143.51
X134.62Y-146.05
X134.62Y-148.59
X134.62Y-151.13
X187.96Y-163.83
X187.96Y-166.37
X187.96Y-168.91
X187.96Y-171.45
X187.96Y-173.99
X187.96Y-176.53
X187.96Y-179.07
X195.58Y-163.83
X195.58Y-166.37
X195.58Y-168.91
X195.58Y-171.45
X195.58Y-173.99
X195.58Y-176.53
X195.58Y-179.07
X73.66Y-163.83
X73.66Y-166.37
X73.66Y-168.91
X73.66Y-171.45
X73.66Y-173.99
X73.66Y-176.53
X73.66Y-179.07
X81.28Y-163.83
X81.28Y-166.37
X81.28Y-168.91
X81.28Y-171.45
X81.28Y-173.99
X81.28Y-176.53
X81.28Y-179.07
X59.69Y-127.0
X64.69Y-127.0
X189.23Y-50.8
X194.23Y-50.8
X104.14Y-163.83
X104.14Y-166.37
X104.14Y-168.91
X104.14Y-171.45
X104.14Y-173.99
X104.14Y-176.53
X104.14Y-179.07
X111.76Y-163.83
X111.76Y-166.37
X111.76Y-168.91
X111.76Y-171.45
X111.76Y-173.99
X111.76Y-176.53
X111.76Y-179.07
X187.96Y-128.27
X187.96Y-130.81
X187.96Y-133.35
X187.96Y-135.89
X187.96Y-138.43
X187.96Y-140.97
X187.96Y-143.51
X187.96Y-146.05
X187.96Y-148.59
X187.96Y-151.13
X195.58Y-128.27
X195.58Y-130.81
X195.58Y-133.35
X195.58Y-135.89
X195.58Y-138.43
X195.58Y-140.97
X195.58Y-143.51
X195.58Y-146.05
X195.58Y-148.59
X195.58Y-151.13
X105.41Y-185.42
X110.41Y-185.42
X143.51Y-185.42
X148.51Y-185.42
X59.69Y-185.42
X64.69Y-185.42
X31.75Y-101.6
X34.25Y-101.6
X158.75Y-157.48
X163.75Y-157.48
X74.93Y-157.48
X79.93Y-157.48
X115.57Y-95.25
X115.57Y-102.87
X123.19Y-95.25
X123.19Y-102.87
X142.24Y-57.15
X142.24Y-59.69
X142.24Y-62.23
X142.24Y-64.77
X142.24Y-67.31
X142.24Y-69.85
X142.24Y-72.39
X142.24Y-74.93
X142.24Y-77.47
X142.24Y-80.01
X149.86Y-57.15
X149.86Y-59.69
X149.86Y-62.23
X149.86Y-64.77
X149.86Y-67.31
X149.86Y-69.85
X149.86Y-72.39
X149.86Y-74.93
X149.86Y-77.47
X149.86Y-80.01
X68.58Y-86.36
X73.58Y-86.36
X172.72Y-135.89
X172.72Y-138.43
X172.72Y-140.97
X172.72Y-143.51
X172.72Y-146.05
X172.72Y-148.59
X172.72Y-151.13
X180.34Y-135.89
X180.34Y-138.43
X180.34Y-140.97
X180.34Y-143.51
X180.34Y-146.05
X180.34Y-148.59
X180.34Y-151.13
X189.23Y-185.42
X194.23Y-185.42
X157.48Y-106.68
X162.48Y-106.68
X119.38Y-163.83
X119.38Y-166.37
X119.38Y-168.91
X119.38Y-171.45
X119.38Y-173.99
X119.38Y-176.53
X119.38Y-179.07
X127.0Y-163.83
X127.0Y-166.37
X127.0Y-168.91
X127.0Y-171.45
X127.0Y-173.99
X127.0Y-176.53
X127.0Y-179.07
X106.68Y-86.36
X111.68Y-86.36
X142.24Y-21.59
X142.24Y-24.13
X142.24Y-26.67
X142.24Y-29.21
X142.24Y-31.75
X142.24Y-34.29
X142.24Y-36.83
X142.24Y-39.37
X142.24Y-41.91
X142.24Y-44.45
X149.86Y-21.59
X149.86Y-24.13
X149.86Y-26.67
X149.86Y-29.21
X149.86Y-31.75
X149.86Y-34.29
X149.86Y-36.83
X149.86Y-39.37
X149.86Y-41.91
X149.86Y-44.45
X87.63Y-86.36
X92.63Y-86.36
X143.51Y-50.8
X148.51Y-50.8
X187.96Y-57.15
X187.96Y-59.69
X187.96Y-62.23
X187.96Y-64.77
X187.96Y-67.31
X187.96Y-69.85
X187.96Y-72.39
X187.96Y-74.93
X187.96Y-77.47
X187.96Y-80.01
X195.58Y-57.15
X195.58Y-59.69
X195.58Y-62.23
X195.58Y-64.77
X195.58Y-67.31
X195.58Y-69.85
X195.58Y-72.39
X195.58Y-74.93
X195.58Y-77.47
X195.58Y-80.01
X111.76Y-118.11
X111.76Y-120.65
X111.76Y-123.19
X111.76Y-125.73
X111.76Y-128.27
X111.76Y-130.81
X111.76Y-133.35
X111.76Y-135.89
X111.76Y-138.43
X111.76Y-140.97
X111.76Y-143.51
X111.76Y-146.05
X111.76Y-148.59
X111.76Y-151.13
X127.0Y-118.11
X127.0Y-120.65
X127.0Y-123.19
X127.0Y-125.73
X127.0Y-128.27
X127.0Y-130.81
X127.0Y-133.35
X127.0Y-135.89
X127.0Y-138.43
X127.0Y-140.97
X127.0Y-143.51
X127.0Y-146.05
X127.0Y-148.59
X127.0Y-151.13
X158.75Y-128.27
X161.29Y-128.27
X163.83Y-128.27
X166.37Y-128.27
X168.91Y-128.27
X171.45Y-128.27
X173.99Y-128.27
X176.53Y-128.27
X179.07Y-128.27
X157.48Y-163.83
X157.48Y-166.37
X157.48Y-168.91
X157.48Y-171.45
X157.48Y-173.99
X157.48Y-176.53
X157.48Y-179.07
X165.1Y-163.83
X165.1Y-166.37
X165.1Y-168.91
X165.1Y-171.45
X165.1Y-173.99
X165.1Y-176.53
X165.1Y-179.07
X121.92Y-67.31
X124.42Y-67.31
X93.98Y-157.48
X98.98Y-157.48
X73.66Y-107.95
X73.66Y-110.49
X73.66Y-113.03
X73.66Y-115.57
X73.66Y-118.11
X73.66Y-120.65
X73.66Y-123.19
X81.28Y-107.95
X81.28Y-110.49
X81.28Y-113.03
X81.28Y-115.57
X81.28Y-118.11
X81.28Y-120.65
X81.28Y-123.19
X143.51Y-121.92
X148.51Y-121.92
X90.17Y-185.42
X95.17Y-185.42
X73.66Y-135.89
X73.66Y-138.43
X73.66Y-140.97
X73.66Y-143.51
X73.66Y-146.05
X73.66Y-148.59
X73.66Y-151.13
X81.28Y-135.89
X81.28Y-138.43
X81.28Y-140.97
X81.28Y-143.51
X81.28Y-146.05
X81.28Y-148.59
X81.28Y-151.13
X74.93Y-185.42
X79.93Y-185.42
X43.18Y-163.83
X43.18Y-166.37
X43.18Y-168.91
X43.18Y-171.45
X43.18Y-173.99
X43.18Y-176.53
X43.18Y-179.07
X50.8Y-163.83
X50.8Y-166.37
X50.8Y-168.91
X50.8Y-171.45
X50.8Y-173.99
X50.8Y-176.53
X50.8Y-179.07
X143.51Y-86.36
X148.51Y-86.36
X173.99Y-185.42
X178.99Y-185.42
X142.24Y-128.27
X142.24Y-130.81
X142.24Y-133.35
X142.24Y-135.89
X142.24Y-138.43
X142.24Y-140.97
X142.24Y-143.51
X142.24Y-146.05
X142.24Y-148.59
X142.24Y-151.13
X149.86Y-128.27
X149.86Y-130.81
X149.86Y-133.35
X149.86Y-135.89
X149.86Y-138.43
X149.86Y-140.97
X149.86Y-143.51
X149.86Y-146.05
X149.86Y-148.59
X149.86Y-151.13
X189.23Y-121.92
X194.23Y-121.92
X157.48Y-21.59
X157.48Y-24.13
X157.48Y-26.67
X157.48Y-29.21
X157.48Y-31.75
X157.48Y-34.29
X157.48Y-36.83
X157.48Y-39.37
X157.48Y-41.91
X157.48Y-44.45
X157.48Y-46.99
X157.48Y-49.53
X157.48Y-52.07
X157.48Y-54.61
X157.48Y-57.15
X157.48Y-59.69
X157.48Y-62.23
X157.48Y-64.77
X157.48Y-67.31
X157.48Y-69.85
X157.48Y-72.39
X157.48Y-74.93
X157.48Y-77.47
X157.48Y-80.01
X157.48Y-82.55
X157.48Y-85.09
X157.48Y-87.63
X157.48Y-90.17
X157.48Y-92.71
X157.48Y-95.25
X157.48Y-97.79
X157.48Y-100.33
X180.34Y-21.59
X180.34Y-24.13
X180.34Y-26.67
X180.34Y-29.21
X180.34Y-31.75
X180.34Y-34.29
X180.34Y-36.83
X180.34Y-39.37
X180.34Y-41.91
X180.34Y-44.45
X180.34Y-46.99
X180.34Y-49.53
X180.34Y-52.07
X180.34Y-54.61
X180.34Y-57.15
X180.34Y-59.69
X180.34Y-62.23
X180.34Y-64.77
X180.34Y-67.31
X180.34Y-69.85
X180.34Y-72.39
X180.34Y-74.93
X180.34Y-77.47
X180.34Y-80.01
X180.34Y-82.55
X180.34Y-85.09
X180.34Y-87.63
X180.34Y-90.17
X180.34Y-92.71
X180.34Y-95.25
X180.34Y-97.79
X180.34Y-100.33
X132.08Y-86.36
X137.08Y-86.36
X44.45Y-185.42
X49.45Y-185.42
X58.42Y-163.83
X58.42Y-166.37
X58.42Y-168.91
X58.42Y-171.45
X58.42Y-173.99
X58.42Y-176.53
X58.42Y-179.07
X66.04Y-163.83
X66.04Y-166.37
X66.04Y-168.91
X66.04Y-171.45
X66.04Y-173.99
X66.04Y-176.53
X66.04Y-179.07
X30.81Y-91.96
X35.81Y-91.96
X58.42Y-113.03
X58.42Y-115.57
X58.42Y-118.11
X58.42Y-120.65
X66.04Y-113.03
X66.04Y-115.57
X66.04Y-118.11
X66.04Y-120.65
X189.23Y-86.36
X194.23Y-86.36
X142.24Y-163.83
X142.24Y-166.37
X142.24Y-168.91
X142.24Y-171.45
X142.24Y-173.99
X142.24Y-176.53
X142.24Y-179.07
X149.86Y-163.83
X149.86Y-166.37
X149.86Y-168.91
X149.86Y-171.45
X149.86Y-173.99
X149.86Y-176.53
X149.86Y-179.07
X74.93Y-99.06
X79.93Y-99.06
X143.51Y-157.48
X148.51Y-157.48
X134.62Y-59.69
X134.62Y-62.23
X134.62Y-64.77
X134.62Y-67.31
X134.62Y-69.85
X134.62Y-72.39
X134.62Y-74.93
X134.62Y-77.47
X134.62Y-80.01
X187.96Y-92.71
X187.96Y-95.25
X187.96Y-97.79
X187.96Y-100.33
X187.96Y-102.87
X187.96Y-105.41
X187.96Y-107.95
X187.96Y-110.49
X187.96Y-113.03
X187.96Y-115.57
X195.58Y-92.71
X195.58Y-95.25
X195.58Y-97.79
X195.58Y-100.33
X195.58Y-102.87
X195.58Y-105.41
X195.58Y-107.95
X195.58Y-110.49
X195.58Y-113.03
X195.58Y-115.57
X88.9Y-163.83
X88.9Y-166.37
X88.9Y-168.91
X88.9Y-171.45
X88.9Y-173.99
X88.9Y-176.53
X88.9Y-179.07
X96.52Y-163.83
X96.52Y-166.37
X96.52Y-168.91
X96.52Y-171.45
X96.52Y-173.99
X96.52Y-176.53
X96.52Y-179.07
X116.84Y-157.48
X121.84Y-157.48
X120.65Y-185.42
X125.65Y-185.42
X74.93Y-129.54
X79.93Y-129.54
T4
X167.64Y-111.76
X170.18Y-111.76
T5
X69.85Y-21.59
X69.85Y-24.13
X69.85Y-26.67
X69.85Y-29.21
X69.85Y-31.75
X69.85Y-34.29
X69.85Y-36.83
X69.85Y-39.37
X69.85Y-41.91
X69.85Y-44.45
X69.85Y-46.99
X69.85Y-49.53
X69.85Y-52.07
X69.85Y-54.61
X69.85Y-57.15
X69.85Y-59.69
X69.85Y-62.23
X69.85Y-64.77
X69.85Y-67.31
X69.85Y-69.85
X69.85Y-72.39
X69.85Y-74.93
X69.85Y-77.47
X69.85Y-80.01
X72.39Y-21.59
X72.39Y-24.13
X72.39Y-26.67
X72.39Y-29.21
X72.39Y-31.75
X72.39Y-34.29
X72.39Y-36.83
X72.39Y-39.37
X72.39Y-41.91
X72.39Y-44.45
X72.39Y-46.99
X72.39Y-49.53
X72.39Y-52.07
X72.39Y-54.61
X72.39Y-57.15
X72.39Y-59.69
X72.39Y-62.23
X72.39Y-64.77
X72.39Y-67.31
X72.39Y-69.85
X72.39Y-72.39
X72.39Y-74.93
X72.39Y-77.47
X72.39Y-80.01
X106.68Y-110.49
X109.22Y-110.49
X48.26Y-139.7
X48.26Y-142.24
X48.26Y-144.78
X48.26Y-147.32
X48.26Y-149.86
X48.26Y-152.4
X48.26Y-154.94
X48.26Y-157.48
X50.8Y-139.7
X50.8Y-142.24
X50.8Y-144.78
X50.8Y-147.32
X50.8Y-149.86
X50.8Y-152.4
X50.8Y-154.94
X50.8Y-157.48
X50.8Y-21.59
X50.8Y-24.13
X50.8Y-26.67
X50.8Y-29.21
X50.8Y-31.75
X50.8Y-34.29
X50.8Y-36.83
X50.8Y-39.37
X50.8Y-41.91
X50.8Y-44.45
X50.8Y-46.99
X50.8Y-49.53
X50.8Y-52.07
X50.8Y-54.61
X50.8Y-57.15
X50.8Y-59.69
X50.8Y-62.23
X50.8Y-64.77
X50.8Y-67.31
X50.8Y-69.85
X50.8Y-72.39
X50.8Y-74.93
X50.8Y-77.47
X50.8Y-80.01
X53.34Y-21.59
X53.34Y-24.13
X53.34Y-26.67
X53.34Y-29.21
X53.34Y-31.75
X53.34Y-34.29
X53.34Y-36.83
X53.34Y-39.37
X53.34Y-41.91
X53.34Y-44.45
X53.34Y-46.99
X53.34Y-49.53
X53.34Y-52.07
X53.34Y-54.61
X53.34Y-57.15
X53.34Y-59.69
X53.34Y-62.23
X53.34Y-64.77
X53.34Y-67.31
X53.34Y-69.85
X53.34Y-72.39
X53.34Y-74.93
X53.34Y-77.47
X53.34Y-80.01
X134.62Y-118.11
X134.62Y-120.65
X134.62Y-123.19
X31.75Y-21.59
X31.75Y-24.13
X31.75Y-26.67
X31.75Y-29.21
X31.75Y-31.75
X31.75Y-34.29
X31.75Y-36.83
X31.75Y-39.37
X31.75Y-41.91
X31.75Y-44.45
X31.75Y-46.99
X31.75Y-49.53
X31.75Y-52.07
X31.75Y-54.61
X31.75Y-57.15
X31.75Y-59.69
X31.75Y-62.23
X31.75Y-64.77
X31.75Y-67.31
X31.75Y-69.85
X31.75Y-72.39
X31.75Y-74.93
X31.75Y-77.47
X31.75Y-80.01
X31.75Y-82.55
X31.75Y-85.09
X34.29Y-21.59
X34.29Y-24.13
X34.29Y-26.67
X34.29Y-29.21
X34.29Y-31.75
X34.29Y-34.29
X34.29Y-36.83
X34.29Y-39.37
X34.29Y-41.91
X34.29Y-44.45
X34.29Y-46.99
X34.29Y-49.53
X34.29Y-52.07
X34.29Y-54.61
X34.29Y-57.15
X34.29Y-59.69
X34.29Y-62.23
X34.29Y-64.77
X34.29Y-67.31
X34.29Y-69.85
X34.29Y-72.39
X34.29Y-74.93
X34.29Y-77.47
X34.29Y-80.01
X34.29Y-82.55
X34.29Y-85.09
X88.9Y-21.59
X88.9Y-24.13
X88.9Y-26.67
X88.9Y-29.21
X88.9Y-31.75
X88.9Y-34.29
X88.9Y-36.83
X88.9Y-39.37
X88.9Y-41.91
X88.9Y-44.45
X88.9Y-46.99
X88.9Y-49.53
X88.9Y-52.07
X88.9Y-54.61
X88.9Y-57.15
X88.9Y-59.69
X88.9Y-62.23
X88.9Y-64.77
X88.9Y-67.31
X88.9Y-69.85
X88.9Y-72.39
X88.9Y-74.93
X88.9Y-77.47
X88.9Y-80.01
X91.44Y-21.59
X91.44Y-24.13
X91.44Y-26.67
X91.44Y-29.21
X91.44Y-31.75
X91.44Y-34.29
X91.44Y-36.83
X91.44Y-39.37
X91.44Y-41.91
X91.44Y-44.45
X91.44Y-46.99
X91.44Y-49.53
X91.44Y-52.07
X91.44Y-54.61
X91.44Y-57.15
X91.44Y-59.69
X91.44Y-62.23
X91.44Y-64.77
X91.44Y-67.31
X91.44Y-69.85
X91.44Y-72.39
X91.44Y-74.93
X91.44Y-77.47
X91.44Y-80.01
X134.62Y-21.59
X134.62Y-24.13
X107.95Y-21.59
X107.95Y-24.13
X107.95Y-26.67
X107.95Y-29.21
X107.95Y-31.75
X107.95Y-34.29
X107.95Y-36.83
X107.95Y-39.37
X107.95Y-41.91
X107.95Y-44.45
X107.95Y-46.99
X107.95Y-49.53
X107.95Y-52.07
X107.95Y-54.61
X107.95Y-57.15
X107.95Y-59.69
X107.95Y-62.23
X107.95Y-64.77
X107.95Y-67.31
X107.95Y-69.85
X107.95Y-72.39
X107.95Y-74.93
X107.95Y-77.47
X107.95Y-80.01
X110.49Y-21.59
X110.49Y-24.13
X110.49Y-26.67
X110.49Y-29.21
X110.49Y-31.75
X110.49Y-34.29
X110.49Y-36.83
X110.49Y-39.37
X110.49Y-41.91
X110.49Y-44.45
X110.49Y-46.99
X110.49Y-49.53
X110.49Y-52.07
X110.49Y-54.61
X110.49Y-57.15
X110.49Y-59.69
X110.49Y-62.23
X110.49Y-64.77
X110.49Y-67.31
X110.49Y-69.85
X110.49Y-72.39
X110.49Y-74.93
X110.49Y-77.47
X110.49Y-80.01
T6
X134.62Y-34.29
X134.62Y-44.45
X120.65Y-58.42
X123.19Y-58.42
X125.73Y-58.42
T7
X46.99Y-102.87
X67.31Y-102.87
X33.02Y-165.1
X33.02Y-185.42
X46.99Y-95.25
X67.31Y-95.25
X40.64Y-109.22
X40.64Y-129.54
X40.64Y-137.16
X40.64Y-157.48
X87.63Y-102.87
X107.95Y-102.87
X33.02Y-109.22
X33.02Y-129.54
X87.63Y-95.25
X107.95Y-95.25
X33.02Y-137.16
X33.02Y-157.48
X158.75Y-120.65
X179.07Y-120.65
T8
X21.59Y-185.42
X205.74Y-185.42
X205.74Y-21.59
X21.59Y-21.59
T9
X123.19Y-41.76
T5
G00X118.49Y-29.02
M15
G01X118.49Y-31.02
M16
G05
G00X124.19Y-27.02
M15
G01X122.19Y-27.02
M16
G05
G00X124.19Y-33.02
M15
G01X122.19Y-33.02
M16
G05
T0
M30
