G04 #@! TF.GenerationSoftware,KiCad,Pcbnew,5.1.6*
G04 #@! TF.CreationDate,2020-10-27T17:21:31+03:00*
G04 #@! TF.ProjectId,motherboard,6d6f7468-6572-4626-9f61-72642e6b6963,rev?*
G04 #@! TF.SameCoordinates,Original*
G04 #@! TF.FileFunction,Copper,L2,Bot*
G04 #@! TF.FilePolarity,Positive*
%FSLAX46Y46*%
G04 Gerber Fmt 4.6, Leading zero omitted, Abs format (unit mm)*
G04 Created by KiCad (PCBNEW 5.1.6) date 2020-10-27 17:21:31*
%MOMM*%
%LPD*%
G01*
G04 APERTURE LIST*
G04 #@! TA.AperFunction,ComponentPad*
%ADD10C,7.000000*%
G04 #@! TD*
G04 #@! TA.AperFunction,ComponentPad*
%ADD11R,1.600000X1.600000*%
G04 #@! TD*
G04 #@! TA.AperFunction,ComponentPad*
%ADD12O,1.600000X1.600000*%
G04 #@! TD*
G04 #@! TA.AperFunction,ComponentPad*
%ADD13C,1.600000*%
G04 #@! TD*
G04 #@! TA.AperFunction,ComponentPad*
%ADD14C,1.200000*%
G04 #@! TD*
G04 #@! TA.AperFunction,ComponentPad*
%ADD15R,1.200000X1.200000*%
G04 #@! TD*
G04 #@! TA.AperFunction,ComponentPad*
%ADD16O,1.700000X1.700000*%
G04 #@! TD*
G04 #@! TA.AperFunction,ComponentPad*
%ADD17R,1.700000X1.700000*%
G04 #@! TD*
G04 #@! TA.AperFunction,ComponentPad*
%ADD18R,1.905000X2.000000*%
G04 #@! TD*
G04 #@! TA.AperFunction,ComponentPad*
%ADD19O,1.905000X2.000000*%
G04 #@! TD*
G04 #@! TA.AperFunction,ComponentPad*
%ADD20O,2.400000X2.400000*%
G04 #@! TD*
G04 #@! TA.AperFunction,ComponentPad*
%ADD21C,2.400000*%
G04 #@! TD*
G04 #@! TA.AperFunction,ComponentPad*
%ADD22R,3.500000X3.500000*%
G04 #@! TD*
G04 #@! TA.AperFunction,ComponentPad*
%ADD23C,1.800000*%
G04 #@! TD*
G04 #@! TA.AperFunction,ComponentPad*
%ADD24R,1.800000X1.800000*%
G04 #@! TD*
G04 #@! TA.AperFunction,ComponentPad*
%ADD25O,2.200000X2.200000*%
G04 #@! TD*
G04 #@! TA.AperFunction,ComponentPad*
%ADD26R,2.200000X2.200000*%
G04 #@! TD*
G04 #@! TA.AperFunction,ViaPad*
%ADD27C,0.800000*%
G04 #@! TD*
G04 #@! TA.AperFunction,Conductor*
%ADD28C,0.250000*%
G04 #@! TD*
G04 APERTURE END LIST*
D10*
X21590000Y-21590000D03*
X21590000Y-185420000D03*
X205740000Y-185420000D03*
X205740000Y-21590000D03*
D11*
X172720000Y-135890000D03*
D12*
X180340000Y-151130000D03*
X172720000Y-138430000D03*
X180340000Y-148590000D03*
X172720000Y-140970000D03*
X180340000Y-146050000D03*
X172720000Y-143510000D03*
X180340000Y-143510000D03*
X172720000Y-146050000D03*
X180340000Y-140970000D03*
X172720000Y-148590000D03*
X180340000Y-138430000D03*
X172720000Y-151130000D03*
X180340000Y-135890000D03*
D11*
X88900000Y-163830000D03*
D12*
X96520000Y-179070000D03*
X88900000Y-166370000D03*
X96520000Y-176530000D03*
X88900000Y-168910000D03*
X96520000Y-173990000D03*
X88900000Y-171450000D03*
X96520000Y-171450000D03*
X88900000Y-173990000D03*
X96520000Y-168910000D03*
X88900000Y-176530000D03*
X96520000Y-166370000D03*
X88900000Y-179070000D03*
X96520000Y-163830000D03*
D11*
X104140000Y-163830000D03*
D12*
X111760000Y-179070000D03*
X104140000Y-166370000D03*
X111760000Y-176530000D03*
X104140000Y-168910000D03*
X111760000Y-173990000D03*
X104140000Y-171450000D03*
X111760000Y-171450000D03*
X104140000Y-173990000D03*
X111760000Y-168910000D03*
X104140000Y-176530000D03*
X111760000Y-166370000D03*
X104140000Y-179070000D03*
X111760000Y-163830000D03*
D11*
X58420000Y-133350000D03*
D12*
X66040000Y-151130000D03*
X58420000Y-135890000D03*
X66040000Y-148590000D03*
X58420000Y-138430000D03*
X66040000Y-146050000D03*
X58420000Y-140970000D03*
X66040000Y-143510000D03*
X58420000Y-143510000D03*
X66040000Y-140970000D03*
X58420000Y-146050000D03*
X66040000Y-138430000D03*
X58420000Y-148590000D03*
X66040000Y-135890000D03*
X58420000Y-151130000D03*
X66040000Y-133350000D03*
D11*
X157480000Y-21590000D03*
D12*
X180340000Y-100330000D03*
X157480000Y-24130000D03*
X180340000Y-97790000D03*
X157480000Y-26670000D03*
X180340000Y-95250000D03*
X157480000Y-29210000D03*
X180340000Y-92710000D03*
X157480000Y-31750000D03*
X180340000Y-90170000D03*
X157480000Y-34290000D03*
X180340000Y-87630000D03*
X157480000Y-36830000D03*
X180340000Y-85090000D03*
X157480000Y-39370000D03*
X180340000Y-82550000D03*
X157480000Y-41910000D03*
X180340000Y-80010000D03*
X157480000Y-44450000D03*
X180340000Y-77470000D03*
X157480000Y-46990000D03*
X180340000Y-74930000D03*
X157480000Y-49530000D03*
X180340000Y-72390000D03*
X157480000Y-52070000D03*
X180340000Y-69850000D03*
X157480000Y-54610000D03*
X180340000Y-67310000D03*
X157480000Y-57150000D03*
X180340000Y-64770000D03*
X157480000Y-59690000D03*
X180340000Y-62230000D03*
X157480000Y-62230000D03*
X180340000Y-59690000D03*
X157480000Y-64770000D03*
X180340000Y-57150000D03*
X157480000Y-67310000D03*
X180340000Y-54610000D03*
X157480000Y-69850000D03*
X180340000Y-52070000D03*
X157480000Y-72390000D03*
X180340000Y-49530000D03*
X157480000Y-74930000D03*
X180340000Y-46990000D03*
X157480000Y-77470000D03*
X180340000Y-44450000D03*
X157480000Y-80010000D03*
X180340000Y-41910000D03*
X157480000Y-82550000D03*
X180340000Y-39370000D03*
X157480000Y-85090000D03*
X180340000Y-36830000D03*
X157480000Y-87630000D03*
X180340000Y-34290000D03*
X157480000Y-90170000D03*
X180340000Y-31750000D03*
X157480000Y-92710000D03*
X180340000Y-29210000D03*
X157480000Y-95250000D03*
X180340000Y-26670000D03*
X157480000Y-97790000D03*
X180340000Y-24130000D03*
X157480000Y-100330000D03*
X180340000Y-21590000D03*
X127000000Y-118110000D03*
X111760000Y-151130000D03*
X127000000Y-120650000D03*
X111760000Y-148590000D03*
X127000000Y-123190000D03*
X111760000Y-146050000D03*
X127000000Y-125730000D03*
X111760000Y-143510000D03*
X127000000Y-128270000D03*
X111760000Y-140970000D03*
X127000000Y-130810000D03*
X111760000Y-138430000D03*
X127000000Y-133350000D03*
X111760000Y-135890000D03*
X127000000Y-135890000D03*
X111760000Y-133350000D03*
X127000000Y-138430000D03*
X111760000Y-130810000D03*
X127000000Y-140970000D03*
X111760000Y-128270000D03*
X127000000Y-143510000D03*
X111760000Y-125730000D03*
X127000000Y-146050000D03*
X111760000Y-123190000D03*
X127000000Y-148590000D03*
X111760000Y-120650000D03*
X127000000Y-151130000D03*
D11*
X111760000Y-118110000D03*
X73660000Y-135890000D03*
D12*
X81280000Y-151130000D03*
X73660000Y-138430000D03*
X81280000Y-148590000D03*
X73660000Y-140970000D03*
X81280000Y-146050000D03*
X73660000Y-143510000D03*
X81280000Y-143510000D03*
X73660000Y-146050000D03*
X81280000Y-140970000D03*
X73660000Y-148590000D03*
X81280000Y-138430000D03*
X73660000Y-151130000D03*
X81280000Y-135890000D03*
D11*
X142240000Y-92710000D03*
D12*
X149860000Y-115570000D03*
X142240000Y-95250000D03*
X149860000Y-113030000D03*
X142240000Y-97790000D03*
X149860000Y-110490000D03*
X142240000Y-100330000D03*
X149860000Y-107950000D03*
X142240000Y-102870000D03*
X149860000Y-105410000D03*
X142240000Y-105410000D03*
X149860000Y-102870000D03*
X142240000Y-107950000D03*
X149860000Y-100330000D03*
X142240000Y-110490000D03*
X149860000Y-97790000D03*
X142240000Y-113030000D03*
X149860000Y-95250000D03*
X142240000Y-115570000D03*
X149860000Y-92710000D03*
D11*
X187960000Y-57150000D03*
D12*
X195580000Y-80010000D03*
X187960000Y-59690000D03*
X195580000Y-77470000D03*
X187960000Y-62230000D03*
X195580000Y-74930000D03*
X187960000Y-64770000D03*
X195580000Y-72390000D03*
X187960000Y-67310000D03*
X195580000Y-69850000D03*
X187960000Y-69850000D03*
X195580000Y-67310000D03*
X187960000Y-72390000D03*
X195580000Y-64770000D03*
X187960000Y-74930000D03*
X195580000Y-62230000D03*
X187960000Y-77470000D03*
X195580000Y-59690000D03*
X187960000Y-80010000D03*
X195580000Y-57150000D03*
D11*
X73660000Y-107950000D03*
D12*
X81280000Y-123190000D03*
X73660000Y-110490000D03*
X81280000Y-120650000D03*
X73660000Y-113030000D03*
X81280000Y-118110000D03*
X73660000Y-115570000D03*
X81280000Y-115570000D03*
X73660000Y-118110000D03*
X81280000Y-113030000D03*
X73660000Y-120650000D03*
X81280000Y-110490000D03*
X73660000Y-123190000D03*
X81280000Y-107950000D03*
D11*
X157480000Y-135890000D03*
D12*
X165100000Y-151130000D03*
X157480000Y-138430000D03*
X165100000Y-148590000D03*
X157480000Y-140970000D03*
X165100000Y-146050000D03*
X157480000Y-143510000D03*
X165100000Y-143510000D03*
X157480000Y-146050000D03*
X165100000Y-140970000D03*
X157480000Y-148590000D03*
X165100000Y-138430000D03*
X157480000Y-151130000D03*
X165100000Y-135890000D03*
D11*
X142240000Y-21590000D03*
D12*
X149860000Y-44450000D03*
X142240000Y-24130000D03*
X149860000Y-41910000D03*
X142240000Y-26670000D03*
X149860000Y-39370000D03*
X142240000Y-29210000D03*
X149860000Y-36830000D03*
X142240000Y-31750000D03*
X149860000Y-34290000D03*
X142240000Y-34290000D03*
X149860000Y-31750000D03*
X142240000Y-36830000D03*
X149860000Y-29210000D03*
X142240000Y-39370000D03*
X149860000Y-26670000D03*
X142240000Y-41910000D03*
X149860000Y-24130000D03*
X142240000Y-44450000D03*
X149860000Y-21590000D03*
D11*
X187960000Y-92710000D03*
D12*
X195580000Y-115570000D03*
X187960000Y-95250000D03*
X195580000Y-113030000D03*
X187960000Y-97790000D03*
X195580000Y-110490000D03*
X187960000Y-100330000D03*
X195580000Y-107950000D03*
X187960000Y-102870000D03*
X195580000Y-105410000D03*
X187960000Y-105410000D03*
X195580000Y-102870000D03*
X187960000Y-107950000D03*
X195580000Y-100330000D03*
X187960000Y-110490000D03*
X195580000Y-97790000D03*
X187960000Y-113030000D03*
X195580000Y-95250000D03*
X187960000Y-115570000D03*
X195580000Y-92710000D03*
D13*
X34250000Y-101600000D03*
D11*
X31750000Y-101600000D03*
D14*
X41656000Y-101600000D03*
D15*
X39656000Y-101600000D03*
D12*
X50800000Y-163830000D03*
X43180000Y-179070000D03*
X50800000Y-166370000D03*
X43180000Y-176530000D03*
X50800000Y-168910000D03*
X43180000Y-173990000D03*
X50800000Y-171450000D03*
X43180000Y-171450000D03*
X50800000Y-173990000D03*
X43180000Y-168910000D03*
X50800000Y-176530000D03*
X43180000Y-166370000D03*
X50800000Y-179070000D03*
D11*
X43180000Y-163830000D03*
D16*
X50800000Y-157480000D03*
X48260000Y-157480000D03*
X50800000Y-154940000D03*
X48260000Y-154940000D03*
X50800000Y-152400000D03*
X48260000Y-152400000D03*
X50800000Y-149860000D03*
X48260000Y-149860000D03*
X50800000Y-147320000D03*
X48260000Y-147320000D03*
X50800000Y-144780000D03*
X48260000Y-144780000D03*
X50800000Y-142240000D03*
X48260000Y-142240000D03*
X50800000Y-139700000D03*
D17*
X48260000Y-139700000D03*
X107950000Y-21590000D03*
D16*
X110490000Y-21590000D03*
X107950000Y-24130000D03*
X110490000Y-24130000D03*
X107950000Y-26670000D03*
X110490000Y-26670000D03*
X107950000Y-29210000D03*
X110490000Y-29210000D03*
X107950000Y-31750000D03*
X110490000Y-31750000D03*
X107950000Y-34290000D03*
X110490000Y-34290000D03*
X107950000Y-36830000D03*
X110490000Y-36830000D03*
X107950000Y-39370000D03*
X110490000Y-39370000D03*
X107950000Y-41910000D03*
X110490000Y-41910000D03*
X107950000Y-44450000D03*
X110490000Y-44450000D03*
X107950000Y-46990000D03*
X110490000Y-46990000D03*
X107950000Y-49530000D03*
X110490000Y-49530000D03*
X107950000Y-52070000D03*
X110490000Y-52070000D03*
X107950000Y-54610000D03*
X110490000Y-54610000D03*
X107950000Y-57150000D03*
X110490000Y-57150000D03*
X107950000Y-59690000D03*
X110490000Y-59690000D03*
X107950000Y-62230000D03*
X110490000Y-62230000D03*
X107950000Y-64770000D03*
X110490000Y-64770000D03*
X107950000Y-67310000D03*
X110490000Y-67310000D03*
X107950000Y-69850000D03*
X110490000Y-69850000D03*
X107950000Y-72390000D03*
X110490000Y-72390000D03*
X107950000Y-74930000D03*
X110490000Y-74930000D03*
X107950000Y-77470000D03*
X110490000Y-77470000D03*
X107950000Y-80010000D03*
X110490000Y-80010000D03*
D11*
X115570000Y-102870000D03*
D13*
X115570000Y-95250000D03*
X123190000Y-95250000D03*
X123190000Y-102870000D03*
D18*
X120650000Y-58420000D03*
D19*
X123190000Y-58420000D03*
X125730000Y-58420000D03*
D12*
X66040000Y-113030000D03*
X58420000Y-120650000D03*
X66040000Y-115570000D03*
X58420000Y-118110000D03*
X66040000Y-118110000D03*
X58420000Y-115570000D03*
X66040000Y-120650000D03*
D11*
X58420000Y-113030000D03*
X142240000Y-128270000D03*
D12*
X149860000Y-151130000D03*
X142240000Y-130810000D03*
X149860000Y-148590000D03*
X142240000Y-133350000D03*
X149860000Y-146050000D03*
X142240000Y-135890000D03*
X149860000Y-143510000D03*
X142240000Y-138430000D03*
X149860000Y-140970000D03*
X142240000Y-140970000D03*
X149860000Y-138430000D03*
X142240000Y-143510000D03*
X149860000Y-135890000D03*
X142240000Y-146050000D03*
X149860000Y-133350000D03*
X142240000Y-148590000D03*
X149860000Y-130810000D03*
X142240000Y-151130000D03*
X149860000Y-128270000D03*
D11*
X187960000Y-128270000D03*
D12*
X195580000Y-151130000D03*
X187960000Y-130810000D03*
X195580000Y-148590000D03*
X187960000Y-133350000D03*
X195580000Y-146050000D03*
X187960000Y-135890000D03*
X195580000Y-143510000D03*
X187960000Y-138430000D03*
X195580000Y-140970000D03*
X187960000Y-140970000D03*
X195580000Y-138430000D03*
X187960000Y-143510000D03*
X195580000Y-135890000D03*
X187960000Y-146050000D03*
X195580000Y-133350000D03*
X187960000Y-148590000D03*
X195580000Y-130810000D03*
X187960000Y-151130000D03*
X195580000Y-128270000D03*
D11*
X142240000Y-57150000D03*
D12*
X149860000Y-80010000D03*
X142240000Y-59690000D03*
X149860000Y-77470000D03*
X142240000Y-62230000D03*
X149860000Y-74930000D03*
X142240000Y-64770000D03*
X149860000Y-72390000D03*
X142240000Y-67310000D03*
X149860000Y-69850000D03*
X142240000Y-69850000D03*
X149860000Y-67310000D03*
X142240000Y-72390000D03*
X149860000Y-64770000D03*
X142240000Y-74930000D03*
X149860000Y-62230000D03*
X142240000Y-77470000D03*
X149860000Y-59690000D03*
X142240000Y-80010000D03*
X149860000Y-57150000D03*
D11*
X187960000Y-21590000D03*
D12*
X195580000Y-44450000D03*
X187960000Y-24130000D03*
X195580000Y-41910000D03*
X187960000Y-26670000D03*
X195580000Y-39370000D03*
X187960000Y-29210000D03*
X195580000Y-36830000D03*
X187960000Y-31750000D03*
X195580000Y-34290000D03*
X187960000Y-34290000D03*
X195580000Y-31750000D03*
X187960000Y-36830000D03*
X195580000Y-29210000D03*
X187960000Y-39370000D03*
X195580000Y-26670000D03*
X187960000Y-41910000D03*
X195580000Y-24130000D03*
X187960000Y-44450000D03*
X195580000Y-21590000D03*
D11*
X73660000Y-163830000D03*
D12*
X81280000Y-179070000D03*
X73660000Y-166370000D03*
X81280000Y-176530000D03*
X73660000Y-168910000D03*
X81280000Y-173990000D03*
X73660000Y-171450000D03*
X81280000Y-171450000D03*
X73660000Y-173990000D03*
X81280000Y-168910000D03*
X73660000Y-176530000D03*
X81280000Y-166370000D03*
X73660000Y-179070000D03*
X81280000Y-163830000D03*
D11*
X58420000Y-163830000D03*
D12*
X66040000Y-179070000D03*
X58420000Y-166370000D03*
X66040000Y-176530000D03*
X58420000Y-168910000D03*
X66040000Y-173990000D03*
X58420000Y-171450000D03*
X66040000Y-171450000D03*
X58420000Y-173990000D03*
X66040000Y-168910000D03*
X58420000Y-176530000D03*
X66040000Y-166370000D03*
X58420000Y-179070000D03*
X66040000Y-163830000D03*
D11*
X187960000Y-163830000D03*
D12*
X195580000Y-179070000D03*
X187960000Y-166370000D03*
X195580000Y-176530000D03*
X187960000Y-168910000D03*
X195580000Y-173990000D03*
X187960000Y-171450000D03*
X195580000Y-171450000D03*
X187960000Y-173990000D03*
X195580000Y-168910000D03*
X187960000Y-176530000D03*
X195580000Y-166370000D03*
X187960000Y-179070000D03*
X195580000Y-163830000D03*
X104140000Y-118110000D03*
X88900000Y-151130000D03*
X104140000Y-120650000D03*
X88900000Y-148590000D03*
X104140000Y-123190000D03*
X88900000Y-146050000D03*
X104140000Y-125730000D03*
X88900000Y-143510000D03*
X104140000Y-128270000D03*
X88900000Y-140970000D03*
X104140000Y-130810000D03*
X88900000Y-138430000D03*
X104140000Y-133350000D03*
X88900000Y-135890000D03*
X104140000Y-135890000D03*
X88900000Y-133350000D03*
X104140000Y-138430000D03*
X88900000Y-130810000D03*
X104140000Y-140970000D03*
X88900000Y-128270000D03*
X104140000Y-143510000D03*
X88900000Y-125730000D03*
X104140000Y-146050000D03*
X88900000Y-123190000D03*
X104140000Y-148590000D03*
X88900000Y-120650000D03*
X104140000Y-151130000D03*
D11*
X88900000Y-118110000D03*
X142240000Y-163830000D03*
D12*
X149860000Y-179070000D03*
X142240000Y-166370000D03*
X149860000Y-176530000D03*
X142240000Y-168910000D03*
X149860000Y-173990000D03*
X142240000Y-171450000D03*
X149860000Y-171450000D03*
X142240000Y-173990000D03*
X149860000Y-168910000D03*
X142240000Y-176530000D03*
X149860000Y-166370000D03*
X142240000Y-179070000D03*
X149860000Y-163830000D03*
D11*
X172720000Y-163830000D03*
D12*
X180340000Y-179070000D03*
X172720000Y-166370000D03*
X180340000Y-176530000D03*
X172720000Y-168910000D03*
X180340000Y-173990000D03*
X172720000Y-171450000D03*
X180340000Y-171450000D03*
X172720000Y-173990000D03*
X180340000Y-168910000D03*
X172720000Y-176530000D03*
X180340000Y-166370000D03*
X172720000Y-179070000D03*
X180340000Y-163830000D03*
D11*
X119380000Y-163830000D03*
D12*
X127000000Y-179070000D03*
X119380000Y-166370000D03*
X127000000Y-176530000D03*
X119380000Y-168910000D03*
X127000000Y-173990000D03*
X119380000Y-171450000D03*
X127000000Y-171450000D03*
X119380000Y-173990000D03*
X127000000Y-168910000D03*
X119380000Y-176530000D03*
X127000000Y-166370000D03*
X119380000Y-179070000D03*
X127000000Y-163830000D03*
D11*
X157480000Y-163830000D03*
D12*
X165100000Y-179070000D03*
X157480000Y-166370000D03*
X165100000Y-176530000D03*
X157480000Y-168910000D03*
X165100000Y-173990000D03*
X157480000Y-171450000D03*
X165100000Y-171450000D03*
X157480000Y-173990000D03*
X165100000Y-168910000D03*
X157480000Y-176530000D03*
X165100000Y-166370000D03*
X157480000Y-179070000D03*
X165100000Y-163830000D03*
D11*
X158750000Y-128270000D03*
D12*
X161290000Y-128270000D03*
X163830000Y-128270000D03*
X166370000Y-128270000D03*
X168910000Y-128270000D03*
X171450000Y-128270000D03*
X173990000Y-128270000D03*
X176530000Y-128270000D03*
X179070000Y-128270000D03*
X134620000Y-130810000D03*
X134620000Y-133350000D03*
X134620000Y-135890000D03*
X134620000Y-138430000D03*
X134620000Y-140970000D03*
X134620000Y-143510000D03*
X134620000Y-146050000D03*
X134620000Y-148590000D03*
D11*
X134620000Y-151130000D03*
X49530000Y-133350000D03*
D12*
X49530000Y-130810000D03*
X49530000Y-128270000D03*
X49530000Y-125730000D03*
X49530000Y-123190000D03*
X49530000Y-120650000D03*
X49530000Y-118110000D03*
X49530000Y-115570000D03*
X49530000Y-113030000D03*
X134620000Y-59690000D03*
X134620000Y-62230000D03*
X134620000Y-64770000D03*
X134620000Y-67310000D03*
X134620000Y-69850000D03*
X134620000Y-72390000D03*
X134620000Y-74930000D03*
X134620000Y-77470000D03*
D11*
X134620000Y-80010000D03*
D20*
X179070000Y-120650000D03*
D21*
X158750000Y-120650000D03*
D20*
X67310000Y-102870000D03*
D21*
X46990000Y-102870000D03*
D20*
X107950000Y-102870000D03*
D21*
X87630000Y-102870000D03*
D20*
X107950000Y-95250000D03*
D21*
X87630000Y-95250000D03*
D20*
X67310000Y-95250000D03*
D21*
X46990000Y-95250000D03*
D20*
X40640000Y-137160000D03*
D21*
X40640000Y-157480000D03*
D20*
X33020000Y-137160000D03*
D21*
X33020000Y-157480000D03*
D20*
X40640000Y-109220000D03*
D21*
X40640000Y-129540000D03*
D20*
X33020000Y-109220000D03*
D21*
X33020000Y-129540000D03*
D20*
X33020000Y-165100000D03*
D21*
X33020000Y-185420000D03*
D16*
X109220000Y-110490000D03*
D17*
X106680000Y-110490000D03*
D16*
X134620000Y-24130000D03*
D17*
X134620000Y-21590000D03*
D22*
X123190000Y-33020000D03*
G04 #@! TA.AperFunction,ComponentPad*
G36*
G01*
X122190000Y-25520000D02*
X124190000Y-25520000D01*
G75*
G02*
X124940000Y-26270000I0J-750000D01*
G01*
X124940000Y-27770000D01*
G75*
G02*
X124190000Y-28520000I-750000J0D01*
G01*
X122190000Y-28520000D01*
G75*
G02*
X121440000Y-27770000I0J750000D01*
G01*
X121440000Y-26270000D01*
G75*
G02*
X122190000Y-25520000I750000J0D01*
G01*
G37*
G04 #@! TD.AperFunction*
G04 #@! TA.AperFunction,ComponentPad*
G36*
G01*
X117615000Y-28270000D02*
X119365000Y-28270000D01*
G75*
G02*
X120240000Y-29145000I0J-875000D01*
G01*
X120240000Y-30895000D01*
G75*
G02*
X119365000Y-31770000I-875000J0D01*
G01*
X117615000Y-31770000D01*
G75*
G02*
X116740000Y-30895000I0J875000D01*
G01*
X116740000Y-29145000D01*
G75*
G02*
X117615000Y-28270000I875000J0D01*
G01*
G37*
G04 #@! TD.AperFunction*
D16*
X134620000Y-123190000D03*
X134620000Y-120650000D03*
D17*
X134620000Y-118110000D03*
X88900000Y-21590000D03*
D16*
X91440000Y-21590000D03*
X88900000Y-24130000D03*
X91440000Y-24130000D03*
X88900000Y-26670000D03*
X91440000Y-26670000D03*
X88900000Y-29210000D03*
X91440000Y-29210000D03*
X88900000Y-31750000D03*
X91440000Y-31750000D03*
X88900000Y-34290000D03*
X91440000Y-34290000D03*
X88900000Y-36830000D03*
X91440000Y-36830000D03*
X88900000Y-39370000D03*
X91440000Y-39370000D03*
X88900000Y-41910000D03*
X91440000Y-41910000D03*
X88900000Y-44450000D03*
X91440000Y-44450000D03*
X88900000Y-46990000D03*
X91440000Y-46990000D03*
X88900000Y-49530000D03*
X91440000Y-49530000D03*
X88900000Y-52070000D03*
X91440000Y-52070000D03*
X88900000Y-54610000D03*
X91440000Y-54610000D03*
X88900000Y-57150000D03*
X91440000Y-57150000D03*
X88900000Y-59690000D03*
X91440000Y-59690000D03*
X88900000Y-62230000D03*
X91440000Y-62230000D03*
X88900000Y-64770000D03*
X91440000Y-64770000D03*
X88900000Y-67310000D03*
X91440000Y-67310000D03*
X88900000Y-69850000D03*
X91440000Y-69850000D03*
X88900000Y-72390000D03*
X91440000Y-72390000D03*
X88900000Y-74930000D03*
X91440000Y-74930000D03*
X88900000Y-77470000D03*
X91440000Y-77470000D03*
X88900000Y-80010000D03*
X91440000Y-80010000D03*
D17*
X69850000Y-21590000D03*
D16*
X72390000Y-21590000D03*
X69850000Y-24130000D03*
X72390000Y-24130000D03*
X69850000Y-26670000D03*
X72390000Y-26670000D03*
X69850000Y-29210000D03*
X72390000Y-29210000D03*
X69850000Y-31750000D03*
X72390000Y-31750000D03*
X69850000Y-34290000D03*
X72390000Y-34290000D03*
X69850000Y-36830000D03*
X72390000Y-36830000D03*
X69850000Y-39370000D03*
X72390000Y-39370000D03*
X69850000Y-41910000D03*
X72390000Y-41910000D03*
X69850000Y-44450000D03*
X72390000Y-44450000D03*
X69850000Y-46990000D03*
X72390000Y-46990000D03*
X69850000Y-49530000D03*
X72390000Y-49530000D03*
X69850000Y-52070000D03*
X72390000Y-52070000D03*
X69850000Y-54610000D03*
X72390000Y-54610000D03*
X69850000Y-57150000D03*
X72390000Y-57150000D03*
X69850000Y-59690000D03*
X72390000Y-59690000D03*
X69850000Y-62230000D03*
X72390000Y-62230000D03*
X69850000Y-64770000D03*
X72390000Y-64770000D03*
X69850000Y-67310000D03*
X72390000Y-67310000D03*
X69850000Y-69850000D03*
X72390000Y-69850000D03*
X69850000Y-72390000D03*
X72390000Y-72390000D03*
X69850000Y-74930000D03*
X72390000Y-74930000D03*
X69850000Y-77470000D03*
X72390000Y-77470000D03*
X69850000Y-80010000D03*
X72390000Y-80010000D03*
D17*
X50800000Y-21590000D03*
D16*
X53340000Y-21590000D03*
X50800000Y-24130000D03*
X53340000Y-24130000D03*
X50800000Y-26670000D03*
X53340000Y-26670000D03*
X50800000Y-29210000D03*
X53340000Y-29210000D03*
X50800000Y-31750000D03*
X53340000Y-31750000D03*
X50800000Y-34290000D03*
X53340000Y-34290000D03*
X50800000Y-36830000D03*
X53340000Y-36830000D03*
X50800000Y-39370000D03*
X53340000Y-39370000D03*
X50800000Y-41910000D03*
X53340000Y-41910000D03*
X50800000Y-44450000D03*
X53340000Y-44450000D03*
X50800000Y-46990000D03*
X53340000Y-46990000D03*
X50800000Y-49530000D03*
X53340000Y-49530000D03*
X50800000Y-52070000D03*
X53340000Y-52070000D03*
X50800000Y-54610000D03*
X53340000Y-54610000D03*
X50800000Y-57150000D03*
X53340000Y-57150000D03*
X50800000Y-59690000D03*
X53340000Y-59690000D03*
X50800000Y-62230000D03*
X53340000Y-62230000D03*
X50800000Y-64770000D03*
X53340000Y-64770000D03*
X50800000Y-67310000D03*
X53340000Y-67310000D03*
X50800000Y-69850000D03*
X53340000Y-69850000D03*
X50800000Y-72390000D03*
X53340000Y-72390000D03*
X50800000Y-74930000D03*
X53340000Y-74930000D03*
X50800000Y-77470000D03*
X53340000Y-77470000D03*
X50800000Y-80010000D03*
X53340000Y-80010000D03*
D17*
X31750000Y-21590000D03*
D16*
X34290000Y-21590000D03*
X31750000Y-24130000D03*
X34290000Y-24130000D03*
X31750000Y-26670000D03*
X34290000Y-26670000D03*
X31750000Y-29210000D03*
X34290000Y-29210000D03*
X31750000Y-31750000D03*
X34290000Y-31750000D03*
X31750000Y-34290000D03*
X34290000Y-34290000D03*
X31750000Y-36830000D03*
X34290000Y-36830000D03*
X31750000Y-39370000D03*
X34290000Y-39370000D03*
X31750000Y-41910000D03*
X34290000Y-41910000D03*
X31750000Y-44450000D03*
X34290000Y-44450000D03*
X31750000Y-46990000D03*
X34290000Y-46990000D03*
X31750000Y-49530000D03*
X34290000Y-49530000D03*
X31750000Y-52070000D03*
X34290000Y-52070000D03*
X31750000Y-54610000D03*
X34290000Y-54610000D03*
X31750000Y-57150000D03*
X34290000Y-57150000D03*
X31750000Y-59690000D03*
X34290000Y-59690000D03*
X31750000Y-62230000D03*
X34290000Y-62230000D03*
X31750000Y-64770000D03*
X34290000Y-64770000D03*
X31750000Y-67310000D03*
X34290000Y-67310000D03*
X31750000Y-69850000D03*
X34290000Y-69850000D03*
X31750000Y-72390000D03*
X34290000Y-72390000D03*
X31750000Y-74930000D03*
X34290000Y-74930000D03*
X31750000Y-77470000D03*
X34290000Y-77470000D03*
X31750000Y-80010000D03*
X34290000Y-80010000D03*
X31750000Y-82550000D03*
X34290000Y-82550000D03*
X31750000Y-85090000D03*
X34290000Y-85090000D03*
D23*
X170180000Y-111760000D03*
D24*
X167640000Y-111760000D03*
D25*
X134620000Y-34290000D03*
D26*
X134620000Y-44450000D03*
D14*
X124174000Y-76200000D03*
D15*
X122174000Y-76200000D03*
D13*
X125650000Y-86360000D03*
X120650000Y-86360000D03*
X137080000Y-86360000D03*
X132080000Y-86360000D03*
X124420000Y-67310000D03*
D11*
X121920000Y-67310000D03*
D13*
X79930000Y-99060000D03*
X74930000Y-99060000D03*
X121840000Y-157480000D03*
X116840000Y-157480000D03*
X125650000Y-185420000D03*
X120650000Y-185420000D03*
X79930000Y-157480000D03*
X74930000Y-157480000D03*
X49450000Y-185420000D03*
X44450000Y-185420000D03*
X148510000Y-185420000D03*
X143510000Y-185420000D03*
X95170000Y-185420000D03*
X90170000Y-185420000D03*
X163750000Y-185420000D03*
X158750000Y-185420000D03*
X79930000Y-185420000D03*
X74930000Y-185420000D03*
X178990000Y-157480000D03*
X173990000Y-157480000D03*
X73580000Y-86360000D03*
X68580000Y-86360000D03*
X148510000Y-86360000D03*
X143510000Y-86360000D03*
X194230000Y-157480000D03*
X189230000Y-157480000D03*
X111680000Y-86360000D03*
X106680000Y-86360000D03*
X194230000Y-86360000D03*
X189230000Y-86360000D03*
X64690000Y-127000000D03*
X59690000Y-127000000D03*
X92630000Y-86360000D03*
X87630000Y-86360000D03*
X64690000Y-157480000D03*
X59690000Y-157480000D03*
X194230000Y-185420000D03*
X189230000Y-185420000D03*
X35810000Y-91960000D03*
X30810000Y-91960000D03*
X64690000Y-185420000D03*
X59690000Y-185420000D03*
X178990000Y-185420000D03*
X173990000Y-185420000D03*
X194230000Y-50800000D03*
X189230000Y-50800000D03*
X98980000Y-157480000D03*
X93980000Y-157480000D03*
X79930000Y-129540000D03*
X74930000Y-129540000D03*
X163750000Y-157480000D03*
X158750000Y-157480000D03*
X194230000Y-121920000D03*
X189230000Y-121920000D03*
X54530000Y-86360000D03*
X49530000Y-86360000D03*
X148510000Y-50800000D03*
X143510000Y-50800000D03*
X148510000Y-157480000D03*
X143510000Y-157480000D03*
X110410000Y-185420000D03*
X105410000Y-185420000D03*
X148510000Y-121920000D03*
X143510000Y-121920000D03*
X180260000Y-106680000D03*
X175260000Y-106680000D03*
X162480000Y-106680000D03*
X157480000Y-106680000D03*
D27*
X39370000Y-46990000D03*
X39370000Y-69850000D03*
X55880000Y-46990000D03*
X55880000Y-69850000D03*
X74930000Y-46990000D03*
X74930000Y-69850000D03*
X93980000Y-46990000D03*
X93980000Y-69850000D03*
X140970000Y-85090000D03*
X125730000Y-69850000D03*
X127000000Y-68580000D03*
X100330000Y-118110000D03*
X100330000Y-143510000D03*
X162560000Y-147320000D03*
X190500000Y-109220000D03*
X193040000Y-95250000D03*
X154940000Y-82550000D03*
X193040000Y-151130000D03*
X190500000Y-170180000D03*
X193040000Y-167640000D03*
X64770000Y-144780000D03*
X97790000Y-151130000D03*
X116840000Y-151130000D03*
X63500000Y-137160000D03*
X151130000Y-76200000D03*
X193040000Y-142240000D03*
X114300000Y-163830000D03*
X123190000Y-138430000D03*
X173990000Y-109220000D03*
X177800000Y-144780000D03*
X161290000Y-74930000D03*
X39370000Y-21590000D03*
X55880000Y-21590000D03*
X74930000Y-21590000D03*
X93980000Y-21590000D03*
X106680000Y-71120000D03*
X87630000Y-71120000D03*
X68580000Y-71120000D03*
X49530000Y-71120000D03*
X49530000Y-48260000D03*
X68580000Y-48260000D03*
X87630000Y-48260000D03*
X106680000Y-48260000D03*
X43180000Y-96520000D03*
X191770000Y-130810000D03*
X99060000Y-163830000D03*
X99060000Y-161290000D03*
X167640000Y-163830000D03*
X167640000Y-161290000D03*
X194310000Y-91440000D03*
X194310000Y-55880000D03*
X71120000Y-106680000D03*
X189230000Y-82550000D03*
X190500000Y-143510000D03*
X177800000Y-118110000D03*
X185420000Y-118110000D03*
X45720000Y-109220000D03*
X43180000Y-92710000D03*
X193040000Y-22860000D03*
X66040000Y-109220000D03*
X50800000Y-116840000D03*
X41910000Y-116840000D03*
X38100000Y-104140000D03*
X76200000Y-105410000D03*
X76200000Y-109220000D03*
X77470000Y-110490000D03*
X76200000Y-124460000D03*
X128270000Y-85090000D03*
X118110000Y-85090000D03*
X121920000Y-71120000D03*
X67310000Y-107950000D03*
X38100000Y-96520000D03*
X45720000Y-97790000D03*
X52070000Y-93980000D03*
X62230000Y-102870000D03*
X137160000Y-25400000D03*
X156210000Y-113030000D03*
X161290000Y-109220000D03*
X30480000Y-133350000D03*
X45720000Y-130810000D03*
X44450000Y-129540000D03*
X44450000Y-118110000D03*
X41910000Y-118110000D03*
X38100000Y-111760000D03*
X39370000Y-106680000D03*
X39370000Y-104140000D03*
X41910000Y-85090000D03*
X40640000Y-92710000D03*
X59690000Y-123190000D03*
X55880000Y-127000000D03*
X52070000Y-127000000D03*
X124460000Y-104140000D03*
X125730000Y-88900000D03*
X123190000Y-86360000D03*
X121920000Y-78740000D03*
X114300000Y-74930000D03*
X114300000Y-72390000D03*
X109220000Y-119380000D03*
X124460000Y-121920000D03*
X110490000Y-157480000D03*
X111760000Y-160020000D03*
X127000000Y-78740000D03*
X144780000Y-77470000D03*
X152400000Y-57150000D03*
X154940000Y-54610000D03*
X124460000Y-137160000D03*
X113030000Y-152400000D03*
X115570000Y-163830000D03*
X55880000Y-72390000D03*
X74930000Y-72390000D03*
X93980000Y-72390000D03*
X39370000Y-72390000D03*
X139700000Y-93980000D03*
X132080000Y-88900000D03*
X111760000Y-73660000D03*
X127000000Y-77470000D03*
X134620000Y-57150000D03*
X134620000Y-46990000D03*
X143510000Y-30480000D03*
X158750000Y-133350000D03*
X163830000Y-147320000D03*
X167640000Y-154940000D03*
X172720000Y-154940000D03*
X176530000Y-154940000D03*
X187960000Y-154940000D03*
X193040000Y-143510000D03*
X160020000Y-154940000D03*
X154940000Y-163830000D03*
X153670000Y-171450000D03*
X143510000Y-170180000D03*
X134620000Y-171450000D03*
X123190000Y-167640000D03*
X191770000Y-163830000D03*
X185420000Y-167640000D03*
X182880000Y-170180000D03*
X195580000Y-153670000D03*
X199390000Y-168910000D03*
X114300000Y-27940000D03*
X113030000Y-57150000D03*
X115570000Y-68580000D03*
X115570000Y-71120000D03*
X115570000Y-76200000D03*
X114300000Y-21590000D03*
X39370000Y-74930000D03*
X55880000Y-74930000D03*
X74930000Y-74930000D03*
X93980000Y-74930000D03*
X190500000Y-165100000D03*
X176530000Y-176530000D03*
X114300000Y-29210000D03*
X111760000Y-76200000D03*
X116840000Y-77470000D03*
X116840000Y-71120000D03*
X116840000Y-68580000D03*
X114300000Y-57150000D03*
X33020000Y-180340000D03*
X30480000Y-114300000D03*
X30480000Y-96520000D03*
X77470000Y-68580000D03*
X39370000Y-67310000D03*
X55880000Y-67310000D03*
X74930000Y-67310000D03*
X93980000Y-67310000D03*
X78740000Y-67310000D03*
X111760000Y-66040000D03*
X80010000Y-66040000D03*
X39370000Y-64770000D03*
X55880000Y-64770000D03*
X74930000Y-64770000D03*
X93980000Y-64770000D03*
X81280000Y-64770000D03*
X111760000Y-63500000D03*
X82550000Y-63500000D03*
X39370000Y-62230000D03*
X55880000Y-62230000D03*
X74930000Y-62230000D03*
X93980000Y-62230000D03*
X83820000Y-62230000D03*
X111760000Y-60960000D03*
X85090000Y-60960000D03*
X39370000Y-59690000D03*
X55880000Y-59690000D03*
X74930000Y-59690000D03*
X93980000Y-59690000D03*
X86360000Y-59690000D03*
X111760000Y-58420000D03*
X96520000Y-58420000D03*
X115570000Y-149860000D03*
X115570000Y-143510000D03*
X125730000Y-149860000D03*
X121920000Y-149860000D03*
X39370000Y-57150000D03*
X55880000Y-57150000D03*
X74930000Y-57150000D03*
X93980000Y-57150000D03*
X97790000Y-57150000D03*
X114300000Y-149860000D03*
X114300000Y-147320000D03*
X125730000Y-147320000D03*
X121920000Y-147320000D03*
X99060000Y-55880000D03*
X125730000Y-144780000D03*
X121920000Y-144780000D03*
X39370000Y-54610000D03*
X55880000Y-54610000D03*
X74930000Y-54610000D03*
X93980000Y-54610000D03*
X100330000Y-54610000D03*
X101600000Y-53340000D03*
X39370000Y-52070000D03*
X55880000Y-52070000D03*
X74930000Y-52070000D03*
X93980000Y-52070000D03*
X102870000Y-52070000D03*
X104140000Y-50800000D03*
X39370000Y-49530000D03*
X55880000Y-49530000D03*
X74930000Y-49530000D03*
X93980000Y-49530000D03*
X105410000Y-49530000D03*
X107950000Y-85090000D03*
X105410000Y-85090000D03*
X39370000Y-44450000D03*
X55880000Y-44450000D03*
X74930000Y-44450000D03*
X93980000Y-44450000D03*
X105410000Y-142240000D03*
X105410000Y-157480000D03*
X193040000Y-160020000D03*
X175260000Y-160020000D03*
X168910000Y-158750000D03*
X135890000Y-160020000D03*
X41910000Y-132080000D03*
X43180000Y-115570000D03*
X43180000Y-110490000D03*
X40640000Y-105410000D03*
X45720000Y-44450000D03*
X41910000Y-92710000D03*
X106680000Y-139700000D03*
X106680000Y-157480000D03*
X193040000Y-161290000D03*
X173990000Y-161290000D03*
X167640000Y-160020000D03*
X128270000Y-160020000D03*
X102870000Y-161290000D03*
X36830000Y-142240000D03*
X35560000Y-133350000D03*
X36830000Y-107950000D03*
X36830000Y-99060000D03*
X36830000Y-95250000D03*
X44450000Y-85090000D03*
X44450000Y-43180000D03*
X36830000Y-104140000D03*
X55880000Y-41910000D03*
X74930000Y-41910000D03*
X93980000Y-41910000D03*
X168910000Y-179070000D03*
X168910000Y-182880000D03*
X151130000Y-182880000D03*
X148590000Y-182880000D03*
X30480000Y-132080000D03*
X30480000Y-115570000D03*
X35560000Y-88900000D03*
X38100000Y-77470000D03*
X41910000Y-77470000D03*
X39370000Y-41910000D03*
X41910000Y-41910000D03*
X106680000Y-177800000D03*
X106680000Y-163830000D03*
X109220000Y-160020000D03*
X107950000Y-157480000D03*
X107950000Y-137160000D03*
X106680000Y-166370000D03*
X109220000Y-133350000D03*
X109220000Y-157480000D03*
X110490000Y-160020000D03*
X107950000Y-163830000D03*
X170180000Y-179070000D03*
X170180000Y-181610000D03*
X151130000Y-181610000D03*
X148590000Y-181610000D03*
X107950000Y-180340000D03*
X102870000Y-177800000D03*
X107950000Y-177800000D03*
X35560000Y-143510000D03*
X36830000Y-88900000D03*
X39370000Y-78740000D03*
X43180000Y-78740000D03*
X43180000Y-40640000D03*
X35560000Y-132080000D03*
X34290000Y-121920000D03*
X31750000Y-119380000D03*
X107950000Y-166370000D03*
X39370000Y-39370000D03*
X55880000Y-39370000D03*
X74930000Y-39370000D03*
X93980000Y-39370000D03*
X185420000Y-111760000D03*
X152400000Y-125730000D03*
X85090000Y-111760000D03*
X87630000Y-109220000D03*
X67310000Y-39370000D03*
X78740000Y-101600000D03*
X76200000Y-96520000D03*
X76200000Y-92710000D03*
X73660000Y-88900000D03*
X133350000Y-128270000D03*
X184150000Y-110490000D03*
X152400000Y-124460000D03*
X69850000Y-105410000D03*
X66040000Y-38100000D03*
X73660000Y-95250000D03*
X73660000Y-91440000D03*
X133350000Y-127000000D03*
X39370000Y-36830000D03*
X55880000Y-36830000D03*
X74930000Y-36830000D03*
X93980000Y-36830000D03*
X82550000Y-125730000D03*
X182880000Y-109220000D03*
X152400000Y-123190000D03*
X76200000Y-120650000D03*
X72390000Y-119380000D03*
X69850000Y-119380000D03*
X69850000Y-110490000D03*
X68580000Y-109220000D03*
X64770000Y-101600000D03*
X62230000Y-101600000D03*
X64770000Y-36830000D03*
X133350000Y-125730000D03*
X76200000Y-119380000D03*
X82550000Y-119380000D03*
X88900000Y-115570000D03*
X130810000Y-58420000D03*
X130810000Y-52070000D03*
X144780000Y-91440000D03*
X39370000Y-34290000D03*
X55880000Y-34290000D03*
X74930000Y-34290000D03*
X93980000Y-34290000D03*
X132080000Y-58420000D03*
X130810000Y-50800000D03*
X146050000Y-90170000D03*
X107950000Y-125730000D03*
X125730000Y-113030000D03*
X124460000Y-119380000D03*
X125730000Y-121920000D03*
X86360000Y-123190000D03*
X86360000Y-127000000D03*
X133350000Y-58420000D03*
X130810000Y-49530000D03*
X147320000Y-88900000D03*
X107950000Y-128270000D03*
X39370000Y-31750000D03*
X55880000Y-31750000D03*
X74930000Y-31750000D03*
X93980000Y-31750000D03*
X83820000Y-127000000D03*
X83820000Y-123190000D03*
X83820000Y-119380000D03*
X83820000Y-114300000D03*
X153670000Y-81280000D03*
X153670000Y-77470000D03*
X151130000Y-55880000D03*
X134620000Y-52070000D03*
X130810000Y-48260000D03*
X107950000Y-135890000D03*
X86360000Y-133350000D03*
X87630000Y-134620000D03*
X85090000Y-127000000D03*
X85090000Y-123190000D03*
X77470000Y-115570000D03*
X77470000Y-113030000D03*
X80010000Y-111760000D03*
X83820000Y-110490000D03*
X154940000Y-78740000D03*
X154940000Y-76200000D03*
X151130000Y-54610000D03*
X134620000Y-50800000D03*
X130810000Y-46990000D03*
X107950000Y-130810000D03*
X39370000Y-29210000D03*
X55880000Y-29210000D03*
X74930000Y-29210000D03*
X93980000Y-29210000D03*
X82550000Y-109220000D03*
X151130000Y-53340000D03*
X134620000Y-49530000D03*
X130810000Y-45720000D03*
X107950000Y-123190000D03*
X156210000Y-127000000D03*
X162560000Y-135890000D03*
X161290000Y-143510000D03*
X129540000Y-121920000D03*
X148590000Y-33020000D03*
X148590000Y-22860000D03*
X39370000Y-26670000D03*
X55880000Y-26670000D03*
X74930000Y-26670000D03*
X93980000Y-26670000D03*
X129540000Y-120650000D03*
X133350000Y-134620000D03*
X146050000Y-152400000D03*
X151130000Y-149860000D03*
X132080000Y-123190000D03*
X147320000Y-30480000D03*
X147320000Y-24130000D03*
X143510000Y-25400000D03*
X138430000Y-26670000D03*
X114300000Y-26670000D03*
X157480000Y-153670000D03*
X39370000Y-24130000D03*
X55880000Y-24130000D03*
X74930000Y-24130000D03*
X93980000Y-24130000D03*
X199390000Y-29210000D03*
X199390000Y-26670000D03*
X171450000Y-147320000D03*
X55880000Y-77470000D03*
X74930000Y-77470000D03*
X93980000Y-77470000D03*
X30480000Y-127000000D03*
X30480000Y-130810000D03*
X198120000Y-167640000D03*
X170180000Y-147320000D03*
X167640000Y-140970000D03*
X170180000Y-127000000D03*
X60960000Y-140970000D03*
X62230000Y-133350000D03*
X41910000Y-124460000D03*
X172720000Y-127000000D03*
X167640000Y-139700000D03*
X59690000Y-144780000D03*
X63500000Y-144780000D03*
X41910000Y-125730000D03*
X46990000Y-130810000D03*
X53340000Y-135890000D03*
X175260000Y-127000000D03*
X168910000Y-137160000D03*
X53340000Y-137160000D03*
X35560000Y-134620000D03*
X44450000Y-96520000D03*
X46990000Y-90170000D03*
X54610000Y-132080000D03*
X71120000Y-172720000D03*
X54610000Y-139700000D03*
X44450000Y-92710000D03*
X68580000Y-133350000D03*
X64770000Y-124460000D03*
X57150000Y-119380000D03*
X53340000Y-119380000D03*
X41910000Y-119380000D03*
X35560000Y-109220000D03*
X53340000Y-129540000D03*
X35560000Y-104140000D03*
X49530000Y-107950000D03*
X69850000Y-100330000D03*
X69850000Y-95250000D03*
X53340000Y-128270000D03*
X55880000Y-128270000D03*
X60960000Y-160020000D03*
X68580000Y-160020000D03*
X55880000Y-139700000D03*
X71120000Y-170180000D03*
X71120000Y-167640000D03*
X69850000Y-135890000D03*
X68580000Y-116840000D03*
X62230000Y-114300000D03*
X60960000Y-113030000D03*
X58420000Y-110490000D03*
X50800000Y-104140000D03*
X71120000Y-97790000D03*
X71120000Y-95250000D03*
X53340000Y-106680000D03*
X39370000Y-113030000D03*
X44450000Y-110490000D03*
X67310000Y-132080000D03*
X66040000Y-128270000D03*
X55880000Y-110490000D03*
X55880000Y-107950000D03*
X39370000Y-114300000D03*
X44450000Y-111760000D03*
X54610000Y-111760000D03*
X54610000Y-104140000D03*
X87630000Y-91440000D03*
X85090000Y-88900000D03*
X58420000Y-104140000D03*
X77470000Y-95250000D03*
X57150000Y-139700000D03*
X53340000Y-138430000D03*
X33020000Y-140970000D03*
X100330000Y-173990000D03*
X92710000Y-172720000D03*
X87630000Y-172720000D03*
X63500000Y-165100000D03*
X57150000Y-167640000D03*
X57150000Y-160020000D03*
X49530000Y-104140000D03*
X68580000Y-92710000D03*
X76200000Y-90170000D03*
X88900000Y-83820000D03*
X93980000Y-81280000D03*
X54610000Y-113030000D03*
X55880000Y-115570000D03*
X39370000Y-115570000D03*
X44450000Y-114300000D03*
X55880000Y-111760000D03*
X63500000Y-113030000D03*
X67310000Y-114300000D03*
X68580000Y-115570000D03*
X72390000Y-116840000D03*
X80010000Y-105410000D03*
X69850000Y-140970000D03*
X69850000Y-120650000D03*
X69850000Y-160020000D03*
X71120000Y-157480000D03*
X73660000Y-132080000D03*
X91440000Y-110490000D03*
X100330000Y-110490000D03*
X100330000Y-104140000D03*
X105410000Y-104140000D03*
X105410000Y-101600000D03*
X80010000Y-132080000D03*
X129540000Y-161290000D03*
X129540000Y-157480000D03*
X135890000Y-147320000D03*
X115570000Y-105410000D03*
X115570000Y-110490000D03*
X123190000Y-106680000D03*
X130810000Y-161290000D03*
X130810000Y-157480000D03*
X137160000Y-149860000D03*
X132080000Y-132080000D03*
X132080000Y-129540000D03*
X115570000Y-100330000D03*
X127000000Y-95250000D03*
X146050000Y-148590000D03*
X129540000Y-125730000D03*
X110490000Y-101600000D03*
X123190000Y-90170000D03*
X151130000Y-93980000D03*
X147320000Y-93980000D03*
X146050000Y-96520000D03*
X143510000Y-96520000D03*
X129540000Y-113030000D03*
X128270000Y-115570000D03*
X128270000Y-124460000D03*
X125730000Y-139700000D03*
X123190000Y-139700000D03*
X110490000Y-144780000D03*
X110490000Y-152400000D03*
X102870000Y-152400000D03*
X97790000Y-160020000D03*
X91440000Y-168910000D03*
X90170000Y-160020000D03*
X83820000Y-161290000D03*
X83820000Y-158750000D03*
X78740000Y-158750000D03*
X77470000Y-152400000D03*
X68580000Y-139700000D03*
X60960000Y-130810000D03*
X57150000Y-130810000D03*
X58420000Y-125730000D03*
X55880000Y-121920000D03*
X53340000Y-121920000D03*
X52070000Y-124460000D03*
X46990000Y-124460000D03*
X158750000Y-58420000D03*
X161290000Y-60960000D03*
X170180000Y-73660000D03*
X170180000Y-90170000D03*
X190500000Y-101600000D03*
X191770000Y-102870000D03*
X191770000Y-109220000D03*
X193040000Y-116840000D03*
X189230000Y-134620000D03*
X175260000Y-149860000D03*
X170180000Y-152400000D03*
X152400000Y-148590000D03*
X149860000Y-153670000D03*
X151130000Y-157480000D03*
X144780000Y-162560000D03*
X133350000Y-165100000D03*
X110490000Y-170180000D03*
X110490000Y-165100000D03*
X105410000Y-170180000D03*
X99060000Y-166370000D03*
X93980000Y-165100000D03*
X91440000Y-163830000D03*
X91440000Y-166370000D03*
X175260000Y-139700000D03*
X176530000Y-135890000D03*
X175260000Y-144780000D03*
X62230000Y-179070000D03*
X54610000Y-177800000D03*
X52070000Y-177800000D03*
X48260000Y-177800000D03*
X46990000Y-135890000D03*
X46990000Y-132080000D03*
X172720000Y-74930000D03*
X173990000Y-74930000D03*
X173990000Y-92710000D03*
X175260000Y-96520000D03*
X175260000Y-74930000D03*
X175260000Y-91440000D03*
X173990000Y-96520000D03*
X176530000Y-74930000D03*
X176530000Y-95250000D03*
X172720000Y-96520000D03*
X184150000Y-107950000D03*
X167640000Y-102870000D03*
X171450000Y-102870000D03*
X167640000Y-101600000D03*
X170180000Y-101600000D03*
X158750000Y-91440000D03*
X162560000Y-91440000D03*
X158750000Y-93980000D03*
X162560000Y-93980000D03*
X179070000Y-125730000D03*
X167640000Y-116840000D03*
X158750000Y-96520000D03*
X162560000Y-96520000D03*
X154940000Y-91440000D03*
X166370000Y-116840000D03*
X179070000Y-124460000D03*
X158750000Y-99060000D03*
X162560000Y-99060000D03*
X153670000Y-92710000D03*
X157480000Y-113030000D03*
X160020000Y-111760000D03*
X166370000Y-114300000D03*
X179070000Y-123190000D03*
X158750000Y-101600000D03*
X162560000Y-101600000D03*
X139700000Y-85090000D03*
X125730000Y-80010000D03*
X119380000Y-80010000D03*
X120650000Y-73660000D03*
X119380000Y-68580000D03*
X111760000Y-45720000D03*
X46990000Y-45720000D03*
X46990000Y-87630000D03*
X39370000Y-88900000D03*
X33020000Y-92710000D03*
X31750000Y-96520000D03*
X33020000Y-106680000D03*
X35560000Y-115570000D03*
X35560000Y-127000000D03*
X40640000Y-132080000D03*
X38100000Y-143510000D03*
X46990000Y-175260000D03*
X54610000Y-176530000D03*
X60960000Y-172720000D03*
X158750000Y-102870000D03*
X162560000Y-102870000D03*
X158750000Y-104140000D03*
X162560000Y-104140000D03*
X158750000Y-105410000D03*
X163830000Y-104140000D03*
X171450000Y-153670000D03*
X161290000Y-153670000D03*
X161290000Y-158750000D03*
X134620000Y-158750000D03*
X132080000Y-161290000D03*
X132080000Y-167640000D03*
X114300000Y-171450000D03*
X114300000Y-176530000D03*
X134620000Y-173990000D03*
X129540000Y-179070000D03*
X168910000Y-72390000D03*
X170180000Y-99060000D03*
X182880000Y-96520000D03*
X181610000Y-102870000D03*
X179070000Y-102870000D03*
X177800000Y-113030000D03*
X180340000Y-113030000D03*
X181610000Y-129540000D03*
X176530000Y-142240000D03*
X176530000Y-144780000D03*
X185420000Y-137160000D03*
X186690000Y-53340000D03*
X187960000Y-54610000D03*
X158750000Y-63500000D03*
X152400000Y-83820000D03*
X85090000Y-115570000D03*
X83820000Y-116840000D03*
X86360000Y-119380000D03*
X86360000Y-129540000D03*
X86360000Y-134620000D03*
X86360000Y-157480000D03*
X77470000Y-165100000D03*
X154940000Y-26670000D03*
X151130000Y-27940000D03*
X152400000Y-25400000D03*
X182880000Y-168910000D03*
X191770000Y-176530000D03*
X175260000Y-151130000D03*
X184150000Y-173990000D03*
X95250000Y-181610000D03*
X102870000Y-181610000D03*
X105410000Y-181610000D03*
X107950000Y-182880000D03*
X110490000Y-182880000D03*
X133350000Y-139700000D03*
X144780000Y-152400000D03*
X140970000Y-153670000D03*
X140970000Y-157480000D03*
X140970000Y-167640000D03*
X132080000Y-170180000D03*
X121920000Y-171450000D03*
X121920000Y-173990000D03*
X92710000Y-173990000D03*
X105410000Y-175260000D03*
X100330000Y-175260000D03*
X87630000Y-137160000D03*
X88900000Y-157480000D03*
X91440000Y-175260000D03*
X102870000Y-184150000D03*
X105410000Y-182880000D03*
X107950000Y-184150000D03*
X111760000Y-184150000D03*
X115570000Y-181610000D03*
X52070000Y-160020000D03*
X91440000Y-179070000D03*
X92710000Y-180340000D03*
X95250000Y-180340000D03*
X102870000Y-180340000D03*
X120650000Y-175260000D03*
X138430000Y-175260000D03*
X146050000Y-167640000D03*
X162560000Y-158750000D03*
X171450000Y-157480000D03*
X182880000Y-163830000D03*
X175260000Y-156210000D03*
X182880000Y-156210000D03*
X175260000Y-182880000D03*
X152400000Y-184150000D03*
X152400000Y-179070000D03*
X153670000Y-176530000D03*
X154940000Y-173990000D03*
X152400000Y-173990000D03*
X152400000Y-163830000D03*
X156210000Y-156210000D03*
X186690000Y-172720000D03*
X53340000Y-160020000D03*
X53340000Y-172720000D03*
X49530000Y-181610000D03*
X43180000Y-181610000D03*
X142240000Y-181610000D03*
X148590000Y-180340000D03*
X151130000Y-180340000D03*
X160020000Y-180340000D03*
X161290000Y-176530000D03*
X170180000Y-172720000D03*
X175260000Y-171450000D03*
X177800000Y-171450000D03*
X107950000Y-133350000D03*
X163830000Y-172720000D03*
X163830000Y-180340000D03*
X120650000Y-167640000D03*
X113030000Y-165100000D03*
X91440000Y-132080000D03*
X91440000Y-142240000D03*
X96520000Y-151130000D03*
X96520000Y-157480000D03*
X100330000Y-166370000D03*
X171450000Y-74930000D03*
X171450000Y-101600000D03*
X191770000Y-110490000D03*
X191770000Y-118110000D03*
X193040000Y-129540000D03*
X190500000Y-134620000D03*
X191770000Y-135890000D03*
X191770000Y-143510000D03*
X176530000Y-163830000D03*
X175260000Y-168910000D03*
X184150000Y-151130000D03*
X184150000Y-153670000D03*
X160020000Y-73660000D03*
X85090000Y-157480000D03*
X85090000Y-163830000D03*
X99060000Y-167640000D03*
X93980000Y-167640000D03*
X92710000Y-179070000D03*
X100330000Y-172720000D03*
X105410000Y-172720000D03*
X92710000Y-176530000D03*
X95250000Y-177800000D03*
X95250000Y-170180000D03*
X110490000Y-177800000D03*
X140970000Y-182880000D03*
X123190000Y-177800000D03*
X140970000Y-177800000D03*
X146050000Y-184150000D03*
X149860000Y-184150000D03*
X152400000Y-185420000D03*
X167640000Y-185420000D03*
X168910000Y-176530000D03*
X170180000Y-175260000D03*
X170180000Y-163830000D03*
X190500000Y-153670000D03*
X113030000Y-160020000D03*
X120650000Y-160020000D03*
X109220000Y-163830000D03*
X193040000Y-181610000D03*
X196850000Y-181610000D03*
X138430000Y-185420000D03*
X133350000Y-185420000D03*
X125730000Y-181610000D03*
X186690000Y-137160000D03*
X186690000Y-139700000D03*
X179070000Y-139700000D03*
X177800000Y-135890000D03*
X186690000Y-142240000D03*
X179070000Y-142240000D03*
X68580000Y-170180000D03*
X69850000Y-163830000D03*
X76200000Y-148590000D03*
X77470000Y-158750000D03*
X55880000Y-157480000D03*
X69850000Y-157480000D03*
X71120000Y-175260000D03*
X69850000Y-173990000D03*
X69850000Y-171450000D03*
X71120000Y-163830000D03*
X82550000Y-157480000D03*
X80010000Y-149860000D03*
X77470000Y-149860000D03*
X76200000Y-140970000D03*
X68580000Y-157480000D03*
X68580000Y-163830000D03*
X72390000Y-157480000D03*
X73660000Y-153670000D03*
X67310000Y-157480000D03*
X64770000Y-123190000D03*
X67310000Y-125730000D03*
X72390000Y-130810000D03*
X73660000Y-128270000D03*
X86360000Y-152400000D03*
X87630000Y-157480000D03*
X49530000Y-160020000D03*
X190500000Y-172720000D03*
X194310000Y-170180000D03*
X139700000Y-157480000D03*
X139700000Y-151130000D03*
X88900000Y-114300000D03*
X115570000Y-114300000D03*
X124460000Y-142240000D03*
X115570000Y-142240000D03*
X121920000Y-140970000D03*
X138430000Y-157480000D03*
X138430000Y-152400000D03*
X71120000Y-125730000D03*
X71120000Y-123190000D03*
X137160000Y-157480000D03*
X137160000Y-153670000D03*
X81280000Y-133350000D03*
X81280000Y-125730000D03*
X85090000Y-133350000D03*
X184150000Y-166370000D03*
X177800000Y-168910000D03*
X161290000Y-170180000D03*
X148590000Y-177800000D03*
X161290000Y-151130000D03*
X76200000Y-163830000D03*
X83820000Y-157480000D03*
X62230000Y-172720000D03*
X67310000Y-172720000D03*
X77470000Y-176530000D03*
X80010000Y-177800000D03*
D28*
X31750000Y-52070000D02*
X33020000Y-50800000D01*
X33020000Y-50800000D02*
X35560000Y-50800000D01*
X35560000Y-50800000D02*
X39370000Y-46990000D01*
X31750000Y-74930000D02*
X33020000Y-73660000D01*
X33020000Y-73660000D02*
X35560000Y-73660000D01*
X35560000Y-73660000D02*
X39370000Y-69850000D01*
X50800000Y-46990000D02*
X52070000Y-48260000D01*
X52070000Y-48260000D02*
X54610000Y-48260000D01*
X54610000Y-48260000D02*
X55880000Y-46990000D01*
X50800000Y-69850000D02*
X52070000Y-71120000D01*
X52070000Y-71120000D02*
X54610000Y-71120000D01*
X54610000Y-71120000D02*
X55880000Y-69850000D01*
X69850000Y-46990000D02*
X71120000Y-48260000D01*
X71120000Y-48260000D02*
X73660000Y-48260000D01*
X73660000Y-48260000D02*
X74930000Y-46990000D01*
X69850000Y-69850000D02*
X71120000Y-71120000D01*
X71120000Y-71120000D02*
X73660000Y-71120000D01*
X73660000Y-71120000D02*
X74930000Y-69850000D01*
X88900000Y-46990000D02*
X90170000Y-48260000D01*
X90170000Y-48260000D02*
X92710000Y-48260000D01*
X92710000Y-48260000D02*
X93980000Y-46990000D01*
X88900000Y-69850000D02*
X90170000Y-71120000D01*
X90170000Y-71120000D02*
X92710000Y-71120000D01*
X92710000Y-71120000D02*
X93980000Y-69850000D01*
X64690000Y-132000000D02*
X66040000Y-133350000D01*
X64690000Y-127000000D02*
X64690000Y-132000000D01*
X104140000Y-118110000D02*
X104140000Y-120650000D01*
X127000000Y-118110000D02*
X127000000Y-120650000D01*
X95250000Y-162560000D02*
X96520000Y-163830000D01*
X81280000Y-163830000D02*
X82550000Y-162560000D01*
X82550000Y-162560000D02*
X95250000Y-162560000D01*
X121840000Y-157480000D02*
X124460000Y-157480000D01*
X127000000Y-160020000D02*
X127000000Y-163830000D01*
X124460000Y-157480000D02*
X127000000Y-160020000D01*
X43180000Y-163830000D02*
X50800000Y-163830000D01*
X43180000Y-163830000D02*
X43180000Y-166370000D01*
X64770000Y-162560000D02*
X66040000Y-163830000D01*
X50800000Y-163830000D02*
X52070000Y-162560000D01*
X52070000Y-162560000D02*
X64770000Y-162560000D01*
X80010000Y-162560000D02*
X81280000Y-163830000D01*
X66040000Y-163830000D02*
X67310000Y-162560000D01*
X67310000Y-162560000D02*
X80010000Y-162560000D01*
X163830000Y-162560000D02*
X165100000Y-163830000D01*
X149860000Y-163830000D02*
X151130000Y-162560000D01*
X151130000Y-162560000D02*
X163830000Y-162560000D01*
X179070000Y-162560000D02*
X180340000Y-163830000D01*
X165100000Y-163830000D02*
X166370000Y-162560000D01*
X166370000Y-162560000D02*
X179070000Y-162560000D01*
X180340000Y-163830000D02*
X181610000Y-162560000D01*
X181610000Y-162560000D02*
X194310000Y-162560000D01*
X194310000Y-162560000D02*
X195580000Y-163830000D01*
X195580000Y-158830000D02*
X194230000Y-157480000D01*
X195580000Y-163830000D02*
X195580000Y-158830000D01*
X149860000Y-128270000D02*
X142240000Y-128270000D01*
X149860000Y-128270000D02*
X158750000Y-128270000D01*
X158750000Y-129540000D02*
X165100000Y-135890000D01*
X158750000Y-128270000D02*
X158750000Y-129540000D01*
X187960000Y-128270000D02*
X195580000Y-128270000D01*
X195580000Y-92710000D02*
X187960000Y-92710000D01*
X195580000Y-87710000D02*
X194230000Y-86360000D01*
X195580000Y-92710000D02*
X195580000Y-87710000D01*
X195580000Y-57150000D02*
X187960000Y-57150000D01*
X195580000Y-52150000D02*
X194230000Y-50800000D01*
X195580000Y-57150000D02*
X195580000Y-52150000D01*
X195580000Y-21590000D02*
X187960000Y-21590000D01*
X179070000Y-107870000D02*
X180260000Y-106680000D01*
X179070000Y-120650000D02*
X179070000Y-107870000D01*
X157480000Y-80010000D02*
X157480000Y-77470000D01*
X157480000Y-77470000D02*
X157480000Y-74930000D01*
X157480000Y-54610000D02*
X157480000Y-52070000D01*
X157480000Y-52070000D02*
X157480000Y-49530000D01*
X149860000Y-57150000D02*
X142240000Y-57150000D01*
X104140000Y-106680000D02*
X107950000Y-102870000D01*
X104140000Y-118110000D02*
X104140000Y-106680000D01*
X49530000Y-133350000D02*
X52070000Y-133350000D01*
X52070000Y-133350000D02*
X54610000Y-130810000D01*
X54610000Y-124460000D02*
X58420000Y-120650000D01*
X54610000Y-130810000D02*
X54610000Y-124460000D01*
X46990000Y-102870000D02*
X46990000Y-95250000D01*
X121324000Y-76200000D02*
X122174000Y-76200000D01*
X120650000Y-76874000D02*
X121324000Y-76200000D01*
X120650000Y-86360000D02*
X120650000Y-76874000D01*
X54530000Y-86360000D02*
X55880000Y-86360000D01*
X55880000Y-86360000D02*
X57150000Y-85090000D01*
X57150000Y-71120000D02*
X55880000Y-69850000D01*
X57150000Y-85090000D02*
X57150000Y-71120000D01*
X73580000Y-86360000D02*
X74930000Y-86360000D01*
X74930000Y-86360000D02*
X76200000Y-85090000D01*
X76200000Y-71120000D02*
X74930000Y-69850000D01*
X76200000Y-85090000D02*
X76200000Y-71120000D01*
X95250000Y-71120000D02*
X93980000Y-69850000D01*
X95250000Y-85090000D02*
X95250000Y-71120000D01*
X92630000Y-86360000D02*
X93980000Y-86360000D01*
X93980000Y-86360000D02*
X95250000Y-85090000D01*
X55880000Y-69850000D02*
X57150000Y-68580000D01*
X57150000Y-48260000D02*
X55880000Y-46990000D01*
X57150000Y-68580000D02*
X57150000Y-48260000D01*
X35810000Y-91960000D02*
X37580000Y-91960000D01*
X37580000Y-91960000D02*
X40640000Y-88900000D01*
X40640000Y-71120000D02*
X39370000Y-69850000D01*
X40640000Y-88900000D02*
X40640000Y-71120000D01*
X39370000Y-69850000D02*
X40640000Y-68580000D01*
X40640000Y-68580000D02*
X40640000Y-48260000D01*
X40640000Y-48260000D02*
X39370000Y-46990000D01*
X74930000Y-69850000D02*
X76200000Y-68580000D01*
X76200000Y-68580000D02*
X76200000Y-48260000D01*
X76200000Y-48260000D02*
X74930000Y-46990000D01*
X93980000Y-69850000D02*
X95250000Y-68580000D01*
X95250000Y-68580000D02*
X95250000Y-48260000D01*
X95250000Y-48260000D02*
X93980000Y-46990000D01*
X64690000Y-127000000D02*
X63500000Y-125810000D01*
X63500000Y-115570000D02*
X66040000Y-113030000D01*
X63500000Y-125810000D02*
X63500000Y-115570000D01*
X48260000Y-166370000D02*
X50800000Y-163830000D01*
X64690000Y-185420000D02*
X63500000Y-184230000D01*
X63500000Y-166370000D02*
X66040000Y-163830000D01*
X79930000Y-185420000D02*
X78740000Y-184230000D01*
X78740000Y-166370000D02*
X81280000Y-163830000D01*
X78740000Y-184230000D02*
X78740000Y-166370000D01*
X95170000Y-185420000D02*
X93980000Y-184230000D01*
X148510000Y-185420000D02*
X147320000Y-184230000D01*
X147320000Y-176530000D02*
X149860000Y-173990000D01*
X147320000Y-184230000D02*
X147320000Y-176530000D01*
X149860000Y-173990000D02*
X147320000Y-171450000D01*
X147320000Y-166370000D02*
X149860000Y-163830000D01*
X147320000Y-171450000D02*
X147320000Y-166370000D01*
X163750000Y-185420000D02*
X162560000Y-184230000D01*
X162560000Y-166370000D02*
X165100000Y-163830000D01*
X162560000Y-184230000D02*
X162560000Y-166370000D01*
X148510000Y-157480000D02*
X147320000Y-156290000D01*
X147320000Y-130810000D02*
X149860000Y-128270000D01*
X147320000Y-156290000D02*
X147320000Y-130810000D01*
X162560000Y-138430000D02*
X165100000Y-135890000D01*
X193040000Y-130810000D02*
X195580000Y-128270000D01*
X148510000Y-121920000D02*
X147320000Y-120730000D01*
X147320000Y-95250000D02*
X149860000Y-92710000D01*
X147320000Y-120730000D02*
X147320000Y-95250000D01*
X194230000Y-86360000D02*
X193040000Y-85170000D01*
X193040000Y-59690000D02*
X195580000Y-57150000D01*
X193040000Y-85170000D02*
X193040000Y-59690000D01*
X122174000Y-75350000D02*
X125730000Y-71794000D01*
X122174000Y-76200000D02*
X122174000Y-75350000D01*
X125730000Y-71794000D02*
X125730000Y-69850000D01*
X123190000Y-121920000D02*
X127000000Y-118110000D01*
X111680000Y-86360000D02*
X111680000Y-82630000D01*
X111680000Y-82630000D02*
X113030000Y-81280000D01*
X113030000Y-81280000D02*
X113030000Y-72390000D01*
X113030000Y-72390000D02*
X111760000Y-71120000D01*
X109220000Y-71120000D02*
X107950000Y-69850000D01*
X111760000Y-71120000D02*
X109220000Y-71120000D01*
X111680000Y-86360000D02*
X120650000Y-86360000D01*
X100330000Y-143510000D02*
X100330000Y-118110000D01*
X127000000Y-68580000D02*
X127000000Y-64770000D01*
X125730000Y-63500000D02*
X125730000Y-58420000D01*
X127000000Y-64770000D02*
X125730000Y-63500000D01*
X153670000Y-50800000D02*
X157480000Y-54610000D01*
X148510000Y-50800000D02*
X153670000Y-50800000D01*
X149860000Y-92710000D02*
X149860000Y-87710000D01*
X149860000Y-87710000D02*
X148510000Y-86360000D01*
X162560000Y-147320000D02*
X162560000Y-138430000D01*
X194230000Y-50800000D02*
X193040000Y-49610000D01*
X193040000Y-49610000D02*
X193040000Y-24130000D01*
X193040000Y-24130000D02*
X195580000Y-21590000D01*
X193040000Y-95250000D02*
X195580000Y-92710000D01*
X194230000Y-121920000D02*
X190500000Y-118190000D01*
X190500000Y-118190000D02*
X190500000Y-109220000D01*
X140970000Y-129540000D02*
X133350000Y-129540000D01*
X142240000Y-128270000D02*
X140970000Y-129540000D01*
X132080000Y-125730000D02*
X127000000Y-120650000D01*
X157480000Y-80010000D02*
X154940000Y-82550000D01*
X194230000Y-157480000D02*
X193040000Y-156290000D01*
X193040000Y-156290000D02*
X193040000Y-151130000D01*
X194230000Y-185420000D02*
X194230000Y-173910000D01*
X194230000Y-173910000D02*
X190500000Y-170180000D01*
X193040000Y-166370000D02*
X195580000Y-163830000D01*
X193040000Y-167640000D02*
X193040000Y-166370000D01*
X63500000Y-157480000D02*
X62230000Y-156210000D01*
X64690000Y-157480000D02*
X63500000Y-157480000D01*
X62230000Y-156210000D02*
X62230000Y-147320000D01*
X62230000Y-147320000D02*
X64770000Y-144780000D01*
X79930000Y-129540000D02*
X78740000Y-128350000D01*
X78740000Y-110490000D02*
X81280000Y-107950000D01*
X78740000Y-128350000D02*
X78740000Y-110490000D01*
X98980000Y-157480000D02*
X98980000Y-156130000D01*
X98980000Y-156130000D02*
X97790000Y-154940000D01*
X97790000Y-154940000D02*
X97790000Y-151130000D01*
X121840000Y-156130000D02*
X116840000Y-151130000D01*
X121840000Y-157480000D02*
X121840000Y-156130000D01*
X79930000Y-157480000D02*
X78740000Y-156290000D01*
X78740000Y-156290000D02*
X78740000Y-138430000D01*
X78740000Y-138430000D02*
X81280000Y-135890000D01*
X78740000Y-130730000D02*
X79930000Y-129540000D01*
X78740000Y-138430000D02*
X78740000Y-130730000D01*
X127000000Y-160020000D02*
X128270000Y-158750000D01*
X128270000Y-158750000D02*
X133350000Y-158750000D01*
X133350000Y-158750000D02*
X134620000Y-157480000D01*
X134620000Y-157480000D02*
X134620000Y-151130000D01*
X46990000Y-102870000D02*
X48260000Y-101600000D01*
X48260000Y-101600000D02*
X55880000Y-101600000D01*
X55880000Y-101600000D02*
X57150000Y-102870000D01*
X57150000Y-104140000D02*
X66040000Y-113030000D01*
X57150000Y-102870000D02*
X57150000Y-104140000D01*
X63500000Y-184230000D02*
X63500000Y-166370000D01*
X125730000Y-58420000D02*
X128270000Y-55880000D01*
X128270000Y-55880000D02*
X137160000Y-55880000D01*
X137160000Y-55880000D02*
X138430000Y-57150000D01*
X138430000Y-57150000D02*
X142240000Y-57150000D01*
X46990000Y-95250000D02*
X45720000Y-93980000D01*
X37830000Y-93980000D02*
X35810000Y-91960000D01*
X45720000Y-93980000D02*
X37830000Y-93980000D01*
X146050000Y-22860000D02*
X147320000Y-21590000D01*
X146050000Y-49530000D02*
X146050000Y-22860000D01*
X148510000Y-50800000D02*
X147320000Y-50800000D01*
X147320000Y-21590000D02*
X149860000Y-21590000D01*
X147320000Y-50800000D02*
X146050000Y-49530000D01*
X140970000Y-85090000D02*
X135890000Y-80010000D01*
X135890000Y-80010000D02*
X134620000Y-80010000D01*
X151130000Y-83740000D02*
X151130000Y-76200000D01*
X148510000Y-86360000D02*
X151130000Y-83740000D01*
X176530000Y-173990000D02*
X176530000Y-167640000D01*
X177800000Y-184230000D02*
X177800000Y-175260000D01*
X178990000Y-185420000D02*
X177800000Y-184230000D01*
X177800000Y-175260000D02*
X176530000Y-173990000D01*
X176530000Y-167640000D02*
X180340000Y-163830000D01*
X193040000Y-130810000D02*
X193040000Y-142240000D01*
X102870000Y-165100000D02*
X100330000Y-162560000D01*
X100330000Y-162560000D02*
X97790000Y-162560000D01*
X97790000Y-162560000D02*
X96520000Y-163830000D01*
X109220000Y-165100000D02*
X102870000Y-165100000D01*
X114300000Y-163830000D02*
X111760000Y-163830000D01*
X125650000Y-185420000D02*
X124460000Y-184230000D01*
X124460000Y-166370000D02*
X127000000Y-163830000D01*
X124460000Y-184230000D02*
X124460000Y-166370000D01*
X132080000Y-128270000D02*
X132080000Y-125730000D01*
X133350000Y-129540000D02*
X132080000Y-128270000D01*
X123190000Y-138430000D02*
X123190000Y-121920000D01*
X109220000Y-165100000D02*
X110490000Y-163830000D01*
X110490000Y-163830000D02*
X111760000Y-163830000D01*
X109220000Y-184230000D02*
X110410000Y-185420000D01*
X109220000Y-165100000D02*
X109220000Y-184230000D01*
X93980000Y-168910000D02*
X95250000Y-167640000D01*
X93980000Y-184230000D02*
X93980000Y-168910000D01*
X95250000Y-167640000D02*
X95250000Y-165100000D01*
X95250000Y-165100000D02*
X96520000Y-163830000D01*
X162560000Y-59690000D02*
X157480000Y-54610000D01*
X162560000Y-73660000D02*
X162560000Y-59690000D01*
X162480000Y-106680000D02*
X161290000Y-105490000D01*
X161290000Y-105490000D02*
X161290000Y-74930000D01*
X179070000Y-60960000D02*
X180340000Y-59690000D01*
X180260000Y-106680000D02*
X180260000Y-102790000D01*
X180260000Y-102790000D02*
X179070000Y-101600000D01*
X179070000Y-101600000D02*
X179070000Y-60960000D01*
X179070000Y-107870000D02*
X179070000Y-107950000D01*
X179070000Y-107950000D02*
X176530000Y-110490000D01*
X176530000Y-110490000D02*
X175260000Y-110490000D01*
X175260000Y-110490000D02*
X173990000Y-109220000D01*
X179070000Y-135890000D02*
X180340000Y-135890000D01*
X176530000Y-138430000D02*
X179070000Y-135890000D01*
X176530000Y-140970000D02*
X176530000Y-138430000D01*
X177800000Y-144780000D02*
X177800000Y-142240000D01*
X177800000Y-142240000D02*
X176530000Y-140970000D01*
X161290000Y-74930000D02*
X162560000Y-73660000D01*
X63500000Y-137160000D02*
X63500000Y-135890000D01*
X63500000Y-135890000D02*
X66040000Y-133350000D01*
X49450000Y-185420000D02*
X48260000Y-185420000D01*
X48260000Y-185420000D02*
X46990000Y-184150000D01*
X46990000Y-176530000D02*
X48260000Y-175260000D01*
X46990000Y-184150000D02*
X46990000Y-176530000D01*
X48260000Y-175260000D02*
X48260000Y-166370000D01*
X31750000Y-21590000D02*
X33020000Y-22860000D01*
X35560000Y-22860000D02*
X36830000Y-21590000D01*
X33020000Y-22860000D02*
X35560000Y-22860000D01*
X36830000Y-21590000D02*
X39370000Y-21590000D01*
X50800000Y-21590000D02*
X52070000Y-22860000D01*
X52070000Y-22860000D02*
X54610000Y-22860000D01*
X54610000Y-22860000D02*
X55880000Y-21590000D01*
X69850000Y-21590000D02*
X71120000Y-22860000D01*
X71120000Y-22860000D02*
X73660000Y-22860000D01*
X73660000Y-22860000D02*
X74930000Y-21590000D01*
X88900000Y-21590000D02*
X90170000Y-22860000D01*
X90170000Y-22860000D02*
X92710000Y-22860000D01*
X92710000Y-22860000D02*
X93980000Y-21590000D01*
X74930000Y-124460000D02*
X73660000Y-123190000D01*
X74930000Y-129540000D02*
X74930000Y-124460000D01*
X59690000Y-152400000D02*
X58420000Y-151130000D01*
X59690000Y-157480000D02*
X59690000Y-152400000D01*
X120650000Y-180340000D02*
X119380000Y-179070000D01*
X120650000Y-185420000D02*
X120650000Y-180340000D01*
X105410000Y-185420000D02*
X106680000Y-186690000D01*
X119380000Y-186690000D02*
X120650000Y-185420000D01*
X106680000Y-186690000D02*
X119380000Y-186690000D01*
X103505000Y-187325000D02*
X105410000Y-185420000D01*
X88900000Y-186690000D02*
X90170000Y-185420000D01*
X74930000Y-185420000D02*
X76200000Y-186690000D01*
X76200000Y-186690000D02*
X88900000Y-186690000D01*
X74930000Y-180340000D02*
X73660000Y-179070000D01*
X74930000Y-185420000D02*
X74930000Y-180340000D01*
X59690000Y-185420000D02*
X60960000Y-186690000D01*
X73660000Y-186690000D02*
X74930000Y-185420000D01*
X60960000Y-186690000D02*
X73660000Y-186690000D01*
X59690000Y-180340000D02*
X58420000Y-179070000D01*
X59690000Y-185420000D02*
X59690000Y-180340000D01*
X58420000Y-186690000D02*
X59690000Y-185420000D01*
X44450000Y-185420000D02*
X45720000Y-186690000D01*
X45720000Y-186690000D02*
X58420000Y-186690000D01*
X44450000Y-180340000D02*
X43180000Y-179070000D01*
X44450000Y-185420000D02*
X44450000Y-180340000D01*
X189230000Y-180340000D02*
X187960000Y-179070000D01*
X189230000Y-185420000D02*
X189230000Y-180340000D01*
X173990000Y-180340000D02*
X172720000Y-179070000D01*
X173990000Y-185420000D02*
X173990000Y-180340000D01*
X158750000Y-180340000D02*
X157480000Y-179070000D01*
X158750000Y-185420000D02*
X158750000Y-180340000D01*
X143510000Y-180340000D02*
X142240000Y-179070000D01*
X143510000Y-185420000D02*
X143510000Y-180340000D01*
X143510000Y-185420000D02*
X144780000Y-186690000D01*
X144780000Y-186690000D02*
X157480000Y-186690000D01*
X157480000Y-186690000D02*
X158750000Y-185420000D01*
X158750000Y-185420000D02*
X160020000Y-186690000D01*
X160020000Y-186690000D02*
X172720000Y-186690000D01*
X172720000Y-186690000D02*
X173990000Y-185420000D01*
X173990000Y-185420000D02*
X175260000Y-186690000D01*
X175260000Y-186690000D02*
X187960000Y-186690000D01*
X187960000Y-186690000D02*
X189230000Y-185420000D01*
X165100000Y-171450000D02*
X165100000Y-168910000D01*
X96520000Y-171450000D02*
X97790000Y-170180000D01*
X97790000Y-170180000D02*
X97790000Y-167640000D01*
X97790000Y-167640000D02*
X96520000Y-166370000D01*
X158750000Y-152400000D02*
X157480000Y-151130000D01*
X158750000Y-157480000D02*
X158750000Y-152400000D01*
X143510000Y-152400000D02*
X142240000Y-151130000D01*
X143510000Y-157480000D02*
X143510000Y-152400000D01*
X173990000Y-152400000D02*
X172720000Y-151130000D01*
X173990000Y-157480000D02*
X173990000Y-152400000D01*
X187960000Y-115570000D02*
X187960000Y-113030000D01*
X189230000Y-45720000D02*
X187960000Y-44450000D01*
X189230000Y-50800000D02*
X189230000Y-45720000D01*
X143510000Y-81280000D02*
X142240000Y-80010000D01*
X143510000Y-86360000D02*
X143510000Y-81280000D01*
X139700000Y-24130000D02*
X142240000Y-21590000D01*
X134620000Y-24130000D02*
X139700000Y-24130000D01*
X124580000Y-24130000D02*
X123190000Y-25520000D01*
X123190000Y-25520000D02*
X123190000Y-27020000D01*
X134620000Y-24130000D02*
X124580000Y-24130000D01*
X124174000Y-76200000D02*
X125730000Y-76200000D01*
X125730000Y-76200000D02*
X127000000Y-74930000D01*
X127000000Y-69890000D02*
X124420000Y-67310000D01*
X127000000Y-74930000D02*
X127000000Y-69890000D01*
X106680000Y-86360000D02*
X106680000Y-71120000D01*
X87630000Y-86360000D02*
X87630000Y-71120000D01*
X68580000Y-86360000D02*
X68580000Y-71120000D01*
X49530000Y-86360000D02*
X49530000Y-71120000D01*
X49530000Y-71120000D02*
X49530000Y-48260000D01*
X68580000Y-71120000D02*
X68580000Y-48260000D01*
X87630000Y-71120000D02*
X87630000Y-48260000D01*
X106680000Y-71120000D02*
X106680000Y-48260000D01*
X87800000Y-21590000D02*
X88900000Y-21590000D01*
X87630000Y-21760000D02*
X87800000Y-21590000D01*
X87630000Y-48260000D02*
X87630000Y-21760000D01*
X106850000Y-21590000D02*
X107950000Y-21590000D01*
X106680000Y-21760000D02*
X106850000Y-21590000D01*
X106680000Y-48260000D02*
X106680000Y-21760000D01*
X68750000Y-21590000D02*
X69850000Y-21590000D01*
X68580000Y-21760000D02*
X68750000Y-21590000D01*
X68580000Y-48260000D02*
X68580000Y-21760000D01*
X49700000Y-21590000D02*
X50800000Y-21590000D01*
X49530000Y-21760000D02*
X49700000Y-21590000D01*
X49530000Y-48260000D02*
X49530000Y-21760000D01*
X34250000Y-95400000D02*
X30810000Y-91960000D01*
X34250000Y-101600000D02*
X34250000Y-95400000D01*
X41656000Y-101600000D02*
X41656000Y-98044000D01*
X41656000Y-98044000D02*
X43180000Y-96520000D01*
X74930000Y-152400000D02*
X73660000Y-151130000D01*
X74930000Y-157480000D02*
X74930000Y-152400000D01*
X73660000Y-158750000D02*
X74930000Y-157480000D01*
X59690000Y-157480000D02*
X60960000Y-158750000D01*
X60960000Y-158750000D02*
X73660000Y-158750000D01*
X74930000Y-149860000D02*
X73660000Y-151130000D01*
X74930000Y-129540000D02*
X74930000Y-149860000D01*
X93980000Y-156210000D02*
X88900000Y-151130000D01*
X93980000Y-157480000D02*
X93980000Y-156210000D01*
X191770000Y-134620000D02*
X191770000Y-130810000D01*
X167640000Y-111760000D02*
X167640000Y-110610000D01*
X59470000Y-113030000D02*
X58420000Y-113030000D01*
X60960000Y-114520000D02*
X59470000Y-113030000D01*
X60960000Y-125730000D02*
X60960000Y-114520000D01*
X59690000Y-127000000D02*
X60960000Y-125730000D01*
X190500000Y-140970000D02*
X187960000Y-138430000D01*
X142240000Y-115570000D02*
X144780000Y-113030000D01*
X144780000Y-113030000D02*
X144780000Y-95250000D01*
X144780000Y-95250000D02*
X142240000Y-92710000D01*
X144780000Y-24130000D02*
X142240000Y-21590000D01*
X157480000Y-158750000D02*
X158750000Y-157480000D01*
X143510000Y-157480000D02*
X144780000Y-158750000D01*
X144780000Y-158750000D02*
X157480000Y-158750000D01*
X96520000Y-166370000D02*
X99060000Y-163830000D01*
X93980000Y-157480000D02*
X93980000Y-160020000D01*
X95250000Y-161290000D02*
X99060000Y-161290000D01*
X93980000Y-160020000D02*
X95250000Y-161290000D01*
X165100000Y-168910000D02*
X167640000Y-166370000D01*
X167640000Y-166370000D02*
X167640000Y-163830000D01*
X173990000Y-157480000D02*
X173990000Y-160020000D01*
X172720000Y-161290000D02*
X167640000Y-161290000D01*
X173990000Y-160020000D02*
X172720000Y-161290000D01*
X189230000Y-86360000D02*
X194310000Y-91440000D01*
X187960000Y-49530000D02*
X189230000Y-50800000D01*
X180340000Y-49530000D02*
X187960000Y-49530000D01*
X189230000Y-50800000D02*
X194310000Y-55880000D01*
X137080000Y-86360000D02*
X143510000Y-86360000D01*
X121880000Y-69850000D02*
X124420000Y-67310000D01*
X110490000Y-69850000D02*
X121880000Y-69850000D01*
X125650000Y-86360000D02*
X126920000Y-87630000D01*
X135810000Y-87630000D02*
X137080000Y-86360000D01*
X126920000Y-87630000D02*
X135810000Y-87630000D01*
X73660000Y-123190000D02*
X71120000Y-120650000D01*
X71120000Y-120650000D02*
X71120000Y-106680000D01*
X124420000Y-67310000D02*
X124420000Y-64730000D01*
X123190000Y-63500000D02*
X123190000Y-58420000D01*
X124420000Y-64730000D02*
X123190000Y-63500000D01*
X125650000Y-86360000D02*
X125650000Y-82470000D01*
X124174000Y-80994000D02*
X124174000Y-76200000D01*
X125650000Y-82470000D02*
X124174000Y-80994000D01*
X189230000Y-81280000D02*
X187960000Y-80010000D01*
X189230000Y-82550000D02*
X189230000Y-81280000D01*
X142240000Y-92710000D02*
X142240000Y-87630000D01*
X142240000Y-87630000D02*
X143510000Y-86360000D01*
X175260000Y-106680000D02*
X177800000Y-104140000D01*
X177800000Y-52070000D02*
X180340000Y-49530000D01*
X177800000Y-104140000D02*
X177800000Y-52070000D01*
X167640000Y-110610000D02*
X169030000Y-109220000D01*
X190500000Y-143510000D02*
X190500000Y-140970000D01*
X190500000Y-44450000D02*
X191770000Y-43180000D01*
X187960000Y-44450000D02*
X190500000Y-44450000D01*
X156210000Y-58420000D02*
X157480000Y-59690000D01*
X153670000Y-52070000D02*
X156210000Y-54610000D01*
X144780000Y-52070000D02*
X153670000Y-52070000D01*
X156210000Y-54610000D02*
X156210000Y-58420000D01*
X143510000Y-50800000D02*
X144780000Y-52070000D01*
X189230000Y-116840000D02*
X187960000Y-115570000D01*
X189230000Y-121920000D02*
X189230000Y-116840000D01*
X167640000Y-111760000D02*
X173990000Y-118110000D01*
X173990000Y-118110000D02*
X177800000Y-118110000D01*
X185420000Y-118110000D02*
X187960000Y-115570000D01*
X143510000Y-45720000D02*
X142240000Y-44450000D01*
X143510000Y-50800000D02*
X143510000Y-45720000D01*
X123190000Y-57170000D02*
X124480000Y-55880000D01*
X123190000Y-58420000D02*
X123190000Y-57170000D01*
X160020000Y-156210000D02*
X158750000Y-157480000D01*
X173990000Y-157480000D02*
X172720000Y-156210000D01*
X172720000Y-156210000D02*
X160020000Y-156210000D01*
X41656000Y-105156000D02*
X45720000Y-109220000D01*
X41656000Y-101600000D02*
X41656000Y-105156000D01*
X140970000Y-179070000D02*
X142240000Y-179070000D01*
X133350000Y-186690000D02*
X140970000Y-179070000D01*
X120650000Y-185420000D02*
X121920000Y-186690000D01*
X121920000Y-186690000D02*
X133350000Y-186690000D01*
X105410000Y-185420000D02*
X104140000Y-184150000D01*
X104140000Y-184150000D02*
X104140000Y-179070000D01*
X143510000Y-121920000D02*
X143510000Y-116840000D01*
X143510000Y-116840000D02*
X142240000Y-115570000D01*
X134620000Y-120650000D02*
X138430000Y-120650000D01*
X138430000Y-120650000D02*
X139700000Y-121920000D01*
X143510000Y-121920000D02*
X139700000Y-121920000D01*
X124460000Y-87550000D02*
X125650000Y-86360000D01*
X124460000Y-96520000D02*
X124460000Y-87550000D01*
X123190000Y-102870000D02*
X123190000Y-97790000D01*
X123190000Y-97790000D02*
X124460000Y-96520000D01*
X124480000Y-55880000D02*
X124480000Y-55860000D01*
X124480000Y-55860000D02*
X125730000Y-54610000D01*
X132080000Y-54610000D02*
X133350000Y-53340000D01*
X125730000Y-54610000D02*
X132080000Y-54610000D01*
X133350000Y-53340000D02*
X133350000Y-49530000D01*
X134620000Y-48260000D02*
X139700000Y-48260000D01*
X133350000Y-49530000D02*
X134620000Y-48260000D01*
X139700000Y-48260000D02*
X142240000Y-45720000D01*
X142240000Y-45720000D02*
X142240000Y-44450000D01*
X34250000Y-101600000D02*
X35560000Y-101600000D01*
X35560000Y-101600000D02*
X36830000Y-102870000D01*
X40386000Y-102870000D02*
X41656000Y-101600000D01*
X36830000Y-102870000D02*
X40386000Y-102870000D01*
X49530000Y-86360000D02*
X43180000Y-92710000D01*
X142240000Y-44450000D02*
X144780000Y-41910000D01*
X144780000Y-41910000D02*
X144780000Y-24130000D01*
X191770000Y-43180000D02*
X191770000Y-24130000D01*
X191770000Y-24130000D02*
X193040000Y-22860000D01*
X88900000Y-184150000D02*
X90170000Y-185420000D01*
X88900000Y-179070000D02*
X88900000Y-184150000D01*
X90170000Y-185420000D02*
X92075000Y-187325000D01*
X92075000Y-187325000D02*
X103505000Y-187325000D01*
X172720000Y-179070000D02*
X165100000Y-171450000D01*
X187960000Y-158750000D02*
X189230000Y-157480000D01*
X175260000Y-158750000D02*
X187960000Y-158750000D01*
X173990000Y-157480000D02*
X175260000Y-158750000D01*
X97790000Y-172720000D02*
X96520000Y-171450000D01*
X101600000Y-179070000D02*
X97790000Y-175260000D01*
X97790000Y-175260000D02*
X97790000Y-172720000D01*
X104140000Y-179070000D02*
X101600000Y-179070000D01*
X189230000Y-152400000D02*
X187960000Y-151130000D01*
X189230000Y-157480000D02*
X189230000Y-152400000D01*
X116840000Y-157480000D02*
X116840000Y-152400000D01*
X115570000Y-151130000D02*
X111760000Y-151130000D01*
X116840000Y-152400000D02*
X115570000Y-151130000D01*
X158750000Y-59690000D02*
X157480000Y-59690000D01*
X161290000Y-62230000D02*
X158750000Y-59690000D01*
X157480000Y-106680000D02*
X158750000Y-106680000D01*
X158750000Y-106680000D02*
X160020000Y-105410000D01*
X160020000Y-74930000D02*
X161290000Y-73660000D01*
X160020000Y-105410000D02*
X160020000Y-74930000D01*
X161290000Y-73660000D02*
X161290000Y-62230000D01*
X181610000Y-110490000D02*
X184150000Y-113030000D01*
X184150000Y-113030000D02*
X187960000Y-113030000D01*
X181610000Y-104140000D02*
X184150000Y-101600000D01*
X181610000Y-104140000D02*
X181610000Y-110490000D01*
X184150000Y-101600000D02*
X184150000Y-91440000D01*
X189230000Y-86360000D02*
X184150000Y-91440000D01*
X171450000Y-109220000D02*
X173990000Y-106680000D01*
X169030000Y-109220000D02*
X171450000Y-109220000D01*
X173990000Y-106680000D02*
X175260000Y-106680000D01*
X187960000Y-138430000D02*
X191770000Y-134620000D01*
X87630000Y-160020000D02*
X88900000Y-158750000D01*
X77470000Y-160020000D02*
X87630000Y-160020000D01*
X74930000Y-157480000D02*
X77470000Y-160020000D01*
X88900000Y-158750000D02*
X92710000Y-158750000D01*
X92710000Y-158750000D02*
X93980000Y-157480000D01*
X59690000Y-139700000D02*
X59690000Y-127000000D01*
X58420000Y-140970000D02*
X59690000Y-139700000D01*
X67310000Y-95250000D02*
X63500000Y-99060000D01*
X66040000Y-109220000D02*
X63500000Y-106680000D01*
X63500000Y-106680000D02*
X63500000Y-99060000D01*
X58420000Y-115570000D02*
X57150000Y-116840000D01*
X57150000Y-116840000D02*
X50800000Y-116840000D01*
X41910000Y-116840000D02*
X39370000Y-116840000D01*
X39370000Y-116840000D02*
X38100000Y-115570000D01*
X38100000Y-113030000D02*
X39370000Y-111760000D01*
X38100000Y-115570000D02*
X38100000Y-113030000D01*
X39370000Y-111760000D02*
X39370000Y-110490000D01*
X39370000Y-110490000D02*
X38100000Y-109220000D01*
X38100000Y-109220000D02*
X38100000Y-104140000D01*
X76200000Y-105410000D02*
X76200000Y-109220000D01*
X77470000Y-118110000D02*
X77470000Y-123190000D01*
X77470000Y-123190000D02*
X76200000Y-124460000D01*
X76200000Y-116840000D02*
X77470000Y-118110000D01*
X76200000Y-111760000D02*
X76200000Y-116840000D01*
X77470000Y-110490000D02*
X76200000Y-111760000D01*
X132080000Y-86360000D02*
X129540000Y-86360000D01*
X129540000Y-86360000D02*
X128270000Y-85090000D01*
X118110000Y-85090000D02*
X118110000Y-74930000D01*
X118110000Y-74930000D02*
X121920000Y-71120000D01*
X121920000Y-67310000D02*
X121920000Y-64770000D01*
X120650000Y-63500000D02*
X120650000Y-58420000D01*
X121920000Y-64770000D02*
X120650000Y-63500000D01*
X132080000Y-46990000D02*
X134620000Y-44450000D01*
X132080000Y-52070000D02*
X132080000Y-46990000D01*
X130810000Y-53340000D02*
X132080000Y-52070000D01*
X125730000Y-53340000D02*
X130810000Y-53340000D01*
X120650000Y-58420000D02*
X125730000Y-53340000D01*
X66040000Y-118110000D02*
X66040000Y-115570000D01*
X67310000Y-107950000D02*
X67310000Y-102870000D01*
X38100000Y-96520000D02*
X39370000Y-95250000D01*
X39370000Y-95250000D02*
X44450000Y-95250000D01*
X44450000Y-95250000D02*
X45720000Y-96520000D01*
X45720000Y-96520000D02*
X45720000Y-97790000D01*
X52070000Y-93980000D02*
X60960000Y-102870000D01*
X60960000Y-102870000D02*
X62230000Y-102870000D01*
X124460000Y-34290000D02*
X123190000Y-33020000D01*
X133350000Y-33020000D02*
X134620000Y-34290000D01*
X123190000Y-33020000D02*
X133350000Y-33020000D01*
X134620000Y-34290000D02*
X137160000Y-31750000D01*
X137160000Y-31750000D02*
X137160000Y-25400000D01*
X156210000Y-113030000D02*
X160020000Y-109220000D01*
X160020000Y-109220000D02*
X161290000Y-109220000D01*
X33020000Y-165100000D02*
X28575000Y-160655000D01*
X28575000Y-160655000D02*
X28575000Y-135255000D01*
X28575000Y-135255000D02*
X30480000Y-133350000D01*
X44450000Y-129540000D02*
X44450000Y-118110000D01*
X41910000Y-118110000D02*
X39370000Y-118110000D01*
X39370000Y-118110000D02*
X37465000Y-116205000D01*
X37465000Y-116205000D02*
X37465000Y-112395000D01*
X37465000Y-112395000D02*
X38100000Y-111760000D01*
X39370000Y-106680000D02*
X39370000Y-104140000D01*
X40640000Y-90170000D02*
X41910000Y-88900000D01*
X41910000Y-88900000D02*
X41910000Y-85090000D01*
X40640000Y-90170000D02*
X40640000Y-92710000D01*
X59690000Y-123190000D02*
X55880000Y-127000000D01*
X46990000Y-127000000D02*
X44450000Y-129540000D01*
X52070000Y-127000000D02*
X46990000Y-127000000D01*
X45720000Y-130810000D02*
X45720000Y-133350000D01*
X34290000Y-130810000D02*
X33020000Y-132080000D01*
X45720000Y-133350000D02*
X44450000Y-134620000D01*
X33020000Y-132080000D02*
X31750000Y-132080000D01*
X39370000Y-134620000D02*
X35560000Y-130810000D01*
X44450000Y-134620000D02*
X39370000Y-134620000D01*
X31750000Y-132080000D02*
X30480000Y-133350000D01*
X35560000Y-130810000D02*
X34290000Y-130810000D01*
X124460000Y-104140000D02*
X124460000Y-97790000D01*
X124460000Y-97790000D02*
X125730000Y-96520000D01*
X125730000Y-96520000D02*
X125730000Y-88900000D01*
X123190000Y-86360000D02*
X121920000Y-85090000D01*
X121920000Y-85090000D02*
X121920000Y-78740000D01*
X114300000Y-74930000D02*
X114300000Y-72390000D01*
X109220000Y-110490000D02*
X109220000Y-119380000D01*
X127000000Y-78740000D02*
X143510000Y-78740000D01*
X143510000Y-78740000D02*
X144780000Y-77470000D01*
X152400000Y-57150000D02*
X154940000Y-54610000D01*
X124460000Y-121920000D02*
X124460000Y-137160000D01*
X111760000Y-160020000D02*
X113030000Y-158750000D01*
X113030000Y-158750000D02*
X114300000Y-158750000D01*
X114300000Y-158750000D02*
X115570000Y-160020000D01*
X115570000Y-160020000D02*
X115570000Y-163830000D01*
X110490000Y-157480000D02*
X113030000Y-154940000D01*
X113030000Y-154940000D02*
X113030000Y-152400000D01*
X50800000Y-72390000D02*
X52070000Y-73660000D01*
X52070000Y-73660000D02*
X54610000Y-73660000D01*
X54610000Y-73660000D02*
X55880000Y-72390000D01*
X69850000Y-72390000D02*
X71120000Y-73660000D01*
X71120000Y-73660000D02*
X73660000Y-73660000D01*
X73660000Y-73660000D02*
X74930000Y-72390000D01*
X88900000Y-72390000D02*
X90170000Y-73660000D01*
X90170000Y-73660000D02*
X92710000Y-73660000D01*
X92710000Y-73660000D02*
X93980000Y-72390000D01*
X31750000Y-77470000D02*
X33020000Y-76200000D01*
X33020000Y-76200000D02*
X35560000Y-76200000D01*
X35560000Y-76200000D02*
X39370000Y-72390000D01*
X139700000Y-93980000D02*
X134620000Y-88900000D01*
X134620000Y-88900000D02*
X132080000Y-88900000D01*
X107950000Y-72390000D02*
X109220000Y-73660000D01*
X109220000Y-73660000D02*
X111760000Y-73660000D01*
X127000000Y-77470000D02*
X128270000Y-76200000D01*
X128270000Y-76200000D02*
X128270000Y-59690000D01*
X128270000Y-59690000D02*
X130810000Y-57150000D01*
X130810000Y-57150000D02*
X134620000Y-57150000D01*
X137160000Y-46990000D02*
X139700000Y-44450000D01*
X139700000Y-44450000D02*
X139700000Y-31750000D01*
X139700000Y-31750000D02*
X140970000Y-30480000D01*
X134620000Y-46990000D02*
X137160000Y-46990000D01*
X140970000Y-30480000D02*
X143510000Y-30480000D01*
X158750000Y-133350000D02*
X160020000Y-134620000D01*
X160020000Y-134620000D02*
X160020000Y-147320000D01*
X160020000Y-147320000D02*
X161290000Y-148590000D01*
X161290000Y-148590000D02*
X162560000Y-148590000D01*
X162560000Y-148590000D02*
X163830000Y-147320000D01*
X167640000Y-154940000D02*
X172720000Y-154940000D01*
X176530000Y-154940000D02*
X187960000Y-154940000D01*
X193040000Y-143510000D02*
X195580000Y-143510000D01*
X167640000Y-154940000D02*
X160020000Y-154940000D01*
X154940000Y-163830000D02*
X154940000Y-170180000D01*
X154940000Y-170180000D02*
X153670000Y-171450000D01*
X143510000Y-170180000D02*
X140970000Y-170180000D01*
X140970000Y-170180000D02*
X139700000Y-171450000D01*
X139700000Y-171450000D02*
X134620000Y-171450000D01*
X120650000Y-158750000D02*
X123190000Y-161290000D01*
X111760000Y-157480000D02*
X114300000Y-157480000D01*
X115570000Y-158750000D02*
X120650000Y-158750000D01*
X114300000Y-157480000D02*
X115570000Y-158750000D01*
X104140000Y-163830000D02*
X104140000Y-161290000D01*
X106680000Y-158750000D02*
X110490000Y-158750000D01*
X123190000Y-161290000D02*
X123190000Y-167640000D01*
X104140000Y-161290000D02*
X106680000Y-158750000D01*
X110490000Y-158750000D02*
X111760000Y-157480000D01*
X191770000Y-163830000D02*
X190500000Y-163830000D01*
X190500000Y-163830000D02*
X189230000Y-165100000D01*
X182880000Y-170180000D02*
X184150000Y-171450000D01*
X184150000Y-171450000D02*
X187960000Y-171450000D01*
X195580000Y-153670000D02*
X196850000Y-154940000D01*
X196850000Y-154940000D02*
X196850000Y-167640000D01*
X196850000Y-167640000D02*
X198120000Y-168910000D01*
X198120000Y-168910000D02*
X199390000Y-168910000D01*
X113030000Y-57150000D02*
X115570000Y-59690000D01*
X115570000Y-59690000D02*
X115570000Y-68580000D01*
X115570000Y-76200000D02*
X115570000Y-71120000D01*
X114300000Y-21590000D02*
X115570000Y-22860000D01*
X115570000Y-22860000D02*
X115570000Y-26670000D01*
X115570000Y-26670000D02*
X114300000Y-27940000D01*
X189230000Y-165100000D02*
X186690000Y-165100000D01*
X186690000Y-165100000D02*
X185420000Y-166370000D01*
X185420000Y-166370000D02*
X185420000Y-167640000D01*
X31750000Y-80010000D02*
X33020000Y-78740000D01*
X33020000Y-78740000D02*
X35560000Y-78740000D01*
X35560000Y-78740000D02*
X39370000Y-74930000D01*
X50800000Y-74930000D02*
X52070000Y-76200000D01*
X52070000Y-76200000D02*
X54610000Y-76200000D01*
X54610000Y-76200000D02*
X55880000Y-74930000D01*
X69850000Y-74930000D02*
X71120000Y-76200000D01*
X71120000Y-76200000D02*
X73660000Y-76200000D01*
X73660000Y-76200000D02*
X74930000Y-74930000D01*
X88900000Y-74930000D02*
X90170000Y-76200000D01*
X90170000Y-76200000D02*
X92710000Y-76200000D01*
X92710000Y-76200000D02*
X93980000Y-74930000D01*
X191770000Y-166370000D02*
X190500000Y-165100000D01*
X191770000Y-170180000D02*
X191770000Y-166370000D01*
X195580000Y-173990000D02*
X191770000Y-170180000D01*
X176530000Y-176530000D02*
X173990000Y-173990000D01*
X173990000Y-173990000D02*
X172720000Y-173990000D01*
X107950000Y-74930000D02*
X109220000Y-76200000D01*
X109220000Y-76200000D02*
X111760000Y-76200000D01*
X116840000Y-77470000D02*
X116840000Y-71120000D01*
X116840000Y-59690000D02*
X114300000Y-57150000D01*
X116840000Y-68580000D02*
X116840000Y-59690000D01*
X200660000Y-168910000D02*
X195580000Y-173990000D01*
X200660000Y-29210000D02*
X200660000Y-168910000D01*
X198120000Y-21590000D02*
X198120000Y-26670000D01*
X123190000Y-20320000D02*
X196850000Y-20320000D01*
X196850000Y-20320000D02*
X198120000Y-21590000D01*
X114300000Y-29210000D02*
X123190000Y-20320000D01*
X198120000Y-26670000D02*
X200660000Y-29210000D01*
X33020000Y-185420000D02*
X33020000Y-180340000D01*
X33020000Y-180340000D02*
X27940000Y-175260000D01*
X27940000Y-175260000D02*
X27940000Y-116840000D01*
X27940000Y-116840000D02*
X30480000Y-114300000D01*
X30480000Y-96520000D02*
X30480000Y-95250000D01*
X30480000Y-95250000D02*
X29210000Y-93980000D01*
X29210000Y-93980000D02*
X29210000Y-85090000D01*
X29210000Y-85090000D02*
X30480000Y-83820000D01*
X33020000Y-83820000D02*
X34290000Y-82550000D01*
X30480000Y-83820000D02*
X33020000Y-83820000D01*
X134620000Y-77470000D02*
X142240000Y-77470000D01*
X77470000Y-93980000D02*
X77470000Y-68580000D01*
X88900000Y-143510000D02*
X91440000Y-143510000D01*
X78740000Y-95250000D02*
X77470000Y-93980000D01*
X85090000Y-106680000D02*
X78740000Y-100330000D01*
X92710000Y-142240000D02*
X92710000Y-110490000D01*
X91440000Y-143510000D02*
X92710000Y-142240000D01*
X92710000Y-110490000D02*
X88900000Y-106680000D01*
X78740000Y-100330000D02*
X78740000Y-95250000D01*
X88900000Y-106680000D02*
X85090000Y-106680000D01*
X31750000Y-72390000D02*
X33020000Y-71120000D01*
X33020000Y-71120000D02*
X35560000Y-71120000D01*
X35560000Y-71120000D02*
X39370000Y-67310000D01*
X50800000Y-67310000D02*
X52070000Y-68580000D01*
X52070000Y-68580000D02*
X54610000Y-68580000D01*
X54610000Y-68580000D02*
X55880000Y-67310000D01*
X69850000Y-67310000D02*
X71120000Y-68580000D01*
X71120000Y-68580000D02*
X73660000Y-68580000D01*
X73660000Y-68580000D02*
X74930000Y-67310000D01*
X88900000Y-67310000D02*
X90170000Y-68580000D01*
X90170000Y-68580000D02*
X92710000Y-68580000D01*
X92710000Y-68580000D02*
X93980000Y-67310000D01*
X134620000Y-74930000D02*
X142240000Y-74930000D01*
X78740000Y-93980000D02*
X78740000Y-67310000D01*
X86360000Y-105410000D02*
X81280000Y-100330000D01*
X81280000Y-96520000D02*
X78740000Y-93980000D01*
X92710000Y-146050000D02*
X93980000Y-144780000D01*
X81280000Y-100330000D02*
X81280000Y-96520000D01*
X93980000Y-144780000D02*
X93980000Y-109220000D01*
X93980000Y-109220000D02*
X90170000Y-105410000D01*
X88900000Y-146050000D02*
X92710000Y-146050000D01*
X90170000Y-105410000D02*
X86360000Y-105410000D01*
X109220000Y-66040000D02*
X107950000Y-67310000D01*
X111760000Y-66040000D02*
X109220000Y-66040000D01*
X134620000Y-72390000D02*
X142240000Y-72390000D01*
X95250000Y-147320000D02*
X95250000Y-107950000D01*
X93980000Y-148590000D02*
X95250000Y-147320000D01*
X82550000Y-95250000D02*
X80010000Y-92710000D01*
X80010000Y-92710000D02*
X80010000Y-66040000D01*
X88900000Y-148590000D02*
X93980000Y-148590000D01*
X95250000Y-107950000D02*
X87630000Y-100330000D01*
X83820000Y-100330000D02*
X82550000Y-99060000D01*
X87630000Y-100330000D02*
X83820000Y-100330000D01*
X82550000Y-99060000D02*
X82550000Y-95250000D01*
X31750000Y-69850000D02*
X33020000Y-68580000D01*
X33020000Y-68580000D02*
X35560000Y-68580000D01*
X35560000Y-68580000D02*
X39370000Y-64770000D01*
X50800000Y-64770000D02*
X52070000Y-66040000D01*
X52070000Y-66040000D02*
X54610000Y-66040000D01*
X54610000Y-66040000D02*
X55880000Y-64770000D01*
X69850000Y-64770000D02*
X71120000Y-66040000D01*
X71120000Y-66040000D02*
X73660000Y-66040000D01*
X73660000Y-66040000D02*
X74930000Y-64770000D01*
X88900000Y-64770000D02*
X90170000Y-66040000D01*
X90170000Y-66040000D02*
X92710000Y-66040000D01*
X92710000Y-66040000D02*
X93980000Y-64770000D01*
X134620000Y-69850000D02*
X142240000Y-69850000D01*
X109220000Y-63500000D02*
X107950000Y-64770000D01*
X111760000Y-63500000D02*
X109220000Y-63500000D01*
X96520000Y-147320000D02*
X96520000Y-106680000D01*
X96520000Y-106680000D02*
X88900000Y-99060000D01*
X83820000Y-97790000D02*
X83820000Y-93980000D01*
X100330000Y-151130000D02*
X96520000Y-147320000D01*
X104140000Y-151130000D02*
X100330000Y-151130000D01*
X81280000Y-91440000D02*
X81280000Y-64770000D01*
X83820000Y-93980000D02*
X81280000Y-91440000D01*
X88900000Y-99060000D02*
X85090000Y-99060000D01*
X85090000Y-99060000D02*
X83820000Y-97790000D01*
X134620000Y-67310000D02*
X142240000Y-67310000D01*
X97790000Y-105410000D02*
X90170000Y-97790000D01*
X97790000Y-146050000D02*
X97790000Y-105410000D01*
X85090000Y-96520000D02*
X85090000Y-92710000D01*
X100330000Y-148590000D02*
X97790000Y-146050000D01*
X104140000Y-148590000D02*
X100330000Y-148590000D01*
X85090000Y-92710000D02*
X82550000Y-90170000D01*
X82550000Y-90170000D02*
X82550000Y-63500000D01*
X90170000Y-97790000D02*
X86360000Y-97790000D01*
X86360000Y-97790000D02*
X85090000Y-96520000D01*
X31750000Y-67310000D02*
X33020000Y-66040000D01*
X33020000Y-66040000D02*
X35560000Y-66040000D01*
X35560000Y-66040000D02*
X39370000Y-62230000D01*
X50800000Y-62230000D02*
X52070000Y-63500000D01*
X52070000Y-63500000D02*
X54610000Y-63500000D01*
X54610000Y-63500000D02*
X55880000Y-62230000D01*
X69850000Y-62230000D02*
X71120000Y-63500000D01*
X71120000Y-63500000D02*
X73660000Y-63500000D01*
X73660000Y-63500000D02*
X74930000Y-62230000D01*
X88900000Y-62230000D02*
X90170000Y-63500000D01*
X90170000Y-63500000D02*
X92710000Y-63500000D01*
X92710000Y-63500000D02*
X93980000Y-62230000D01*
X134620000Y-64770000D02*
X142240000Y-64770000D01*
X104140000Y-146050000D02*
X100330000Y-146050000D01*
X100330000Y-146050000D02*
X99060000Y-144780000D01*
X99060000Y-144780000D02*
X99060000Y-104140000D01*
X83820000Y-88900000D02*
X83820000Y-62230000D01*
X99060000Y-104140000D02*
X83820000Y-88900000D01*
X109220000Y-60960000D02*
X107950000Y-62230000D01*
X111760000Y-60960000D02*
X109220000Y-60960000D01*
X134620000Y-62230000D02*
X142240000Y-62230000D01*
X101600000Y-140970000D02*
X101600000Y-104140000D01*
X101600000Y-104140000D02*
X85090000Y-87630000D01*
X104140000Y-143510000D02*
X101600000Y-140970000D01*
X85090000Y-87630000D02*
X85090000Y-60960000D01*
X31750000Y-64770000D02*
X33020000Y-63500000D01*
X33020000Y-63500000D02*
X35560000Y-63500000D01*
X35560000Y-63500000D02*
X39370000Y-59690000D01*
X50800000Y-59690000D02*
X52070000Y-60960000D01*
X52070000Y-60960000D02*
X54610000Y-60960000D01*
X54610000Y-60960000D02*
X55880000Y-59690000D01*
X69850000Y-59690000D02*
X71120000Y-60960000D01*
X71120000Y-60960000D02*
X73660000Y-60960000D01*
X73660000Y-60960000D02*
X74930000Y-59690000D01*
X88900000Y-59690000D02*
X90170000Y-60960000D01*
X90170000Y-60960000D02*
X92710000Y-60960000D01*
X92710000Y-60960000D02*
X93980000Y-59690000D01*
X134620000Y-59690000D02*
X142240000Y-59690000D01*
X109220000Y-58420000D02*
X107950000Y-59690000D01*
X111760000Y-58420000D02*
X109220000Y-58420000D01*
X87630000Y-88900000D02*
X86360000Y-87630000D01*
X104140000Y-140970000D02*
X102870000Y-139700000D01*
X102870000Y-102870000D02*
X88900000Y-88900000D01*
X102870000Y-139700000D02*
X102870000Y-102870000D01*
X88900000Y-88900000D02*
X87630000Y-88900000D01*
X86360000Y-87630000D02*
X86360000Y-59690000D01*
X134620000Y-148590000D02*
X142240000Y-148590000D01*
X110490000Y-142240000D02*
X110490000Y-115570000D01*
X110490000Y-115570000D02*
X111760000Y-114300000D01*
X111760000Y-143510000D02*
X110490000Y-142240000D01*
X111760000Y-101600000D02*
X110490000Y-100330000D01*
X111760000Y-114300000D02*
X111760000Y-101600000D01*
X115570000Y-149860000D02*
X115570000Y-143510000D01*
X96520000Y-93980000D02*
X96520000Y-58420000D01*
X110490000Y-100330000D02*
X102870000Y-100330000D01*
X102870000Y-100330000D02*
X96520000Y-93980000D01*
X121920000Y-149860000D02*
X125730000Y-149860000D01*
X31750000Y-62230000D02*
X33020000Y-60960000D01*
X33020000Y-60960000D02*
X35560000Y-60960000D01*
X35560000Y-60960000D02*
X39370000Y-57150000D01*
X50800000Y-57150000D02*
X52070000Y-58420000D01*
X52070000Y-58420000D02*
X54610000Y-58420000D01*
X54610000Y-58420000D02*
X55880000Y-57150000D01*
X69850000Y-57150000D02*
X71120000Y-58420000D01*
X71120000Y-58420000D02*
X73660000Y-58420000D01*
X73660000Y-58420000D02*
X74930000Y-57150000D01*
X88900000Y-57150000D02*
X90170000Y-58420000D01*
X90170000Y-58420000D02*
X92710000Y-58420000D01*
X92710000Y-58420000D02*
X93980000Y-57150000D01*
X134620000Y-146050000D02*
X142240000Y-146050000D01*
X113030000Y-144780000D02*
X113030000Y-100330000D01*
X113030000Y-100330000D02*
X111760000Y-99060000D01*
X111760000Y-146050000D02*
X113030000Y-144780000D01*
X114300000Y-149860000D02*
X114300000Y-147320000D01*
X97790000Y-92710000D02*
X97790000Y-57150000D01*
X104140000Y-99060000D02*
X97790000Y-92710000D01*
X111760000Y-99060000D02*
X104140000Y-99060000D01*
X121920000Y-147320000D02*
X125730000Y-147320000D01*
X134620000Y-143510000D02*
X142240000Y-143510000D01*
X99060000Y-91440000D02*
X99060000Y-55880000D01*
X114300000Y-146050000D02*
X114300000Y-99060000D01*
X114300000Y-99060000D02*
X113030000Y-97790000D01*
X111760000Y-148590000D02*
X114300000Y-146050000D01*
X113030000Y-97790000D02*
X105410000Y-97790000D01*
X105410000Y-97790000D02*
X99060000Y-91440000D01*
X121920000Y-144780000D02*
X125730000Y-144780000D01*
X31750000Y-59690000D02*
X33020000Y-58420000D01*
X33020000Y-58420000D02*
X35560000Y-58420000D01*
X35560000Y-58420000D02*
X39370000Y-54610000D01*
X50800000Y-54610000D02*
X52070000Y-55880000D01*
X52070000Y-55880000D02*
X54610000Y-55880000D01*
X54610000Y-55880000D02*
X55880000Y-54610000D01*
X69850000Y-54610000D02*
X71120000Y-55880000D01*
X71120000Y-55880000D02*
X73660000Y-55880000D01*
X73660000Y-55880000D02*
X74930000Y-54610000D01*
X88900000Y-54610000D02*
X90170000Y-55880000D01*
X90170000Y-55880000D02*
X92710000Y-55880000D01*
X92710000Y-55880000D02*
X93980000Y-54610000D01*
X134620000Y-140970000D02*
X142240000Y-140970000D01*
X118110000Y-151130000D02*
X116840000Y-149860000D01*
X127000000Y-151130000D02*
X118110000Y-151130000D01*
X116840000Y-149860000D02*
X116840000Y-93980000D01*
X116840000Y-93980000D02*
X115570000Y-92710000D01*
X133350000Y-144780000D02*
X127000000Y-151130000D01*
X133350000Y-142240000D02*
X133350000Y-144780000D01*
X134620000Y-140970000D02*
X133350000Y-142240000D01*
X100330000Y-90170000D02*
X100330000Y-54610000D01*
X115570000Y-92710000D02*
X102870000Y-92710000D01*
X102870000Y-92710000D02*
X100330000Y-90170000D01*
X134620000Y-138430000D02*
X142240000Y-138430000D01*
X118110000Y-92710000D02*
X116840000Y-91440000D01*
X127000000Y-148590000D02*
X119380000Y-148590000D01*
X118110000Y-147320000D02*
X118110000Y-92710000D01*
X119380000Y-148590000D02*
X118110000Y-147320000D01*
X132080000Y-143510000D02*
X127000000Y-148590000D01*
X132080000Y-139700000D02*
X132080000Y-143510000D01*
X134620000Y-138430000D02*
X133350000Y-138430000D01*
X133350000Y-138430000D02*
X132080000Y-139700000D01*
X101600000Y-88900000D02*
X101600000Y-53340000D01*
X116840000Y-91440000D02*
X104140000Y-91440000D01*
X104140000Y-91440000D02*
X101600000Y-88900000D01*
X31750000Y-57150000D02*
X33020000Y-55880000D01*
X33020000Y-55880000D02*
X35560000Y-55880000D01*
X35560000Y-55880000D02*
X39370000Y-52070000D01*
X50800000Y-52070000D02*
X52070000Y-53340000D01*
X52070000Y-53340000D02*
X54610000Y-53340000D01*
X54610000Y-53340000D02*
X55880000Y-52070000D01*
X69850000Y-52070000D02*
X71120000Y-53340000D01*
X71120000Y-53340000D02*
X73660000Y-53340000D01*
X73660000Y-53340000D02*
X74930000Y-52070000D01*
X88900000Y-52070000D02*
X90170000Y-53340000D01*
X90170000Y-53340000D02*
X92710000Y-53340000D01*
X92710000Y-53340000D02*
X93980000Y-52070000D01*
X134620000Y-135890000D02*
X142240000Y-135890000D01*
X120650000Y-146050000D02*
X119380000Y-144780000D01*
X119380000Y-144780000D02*
X119380000Y-91440000D01*
X127000000Y-146050000D02*
X120650000Y-146050000D01*
X119380000Y-91440000D02*
X118110000Y-90170000D01*
X130810000Y-142240000D02*
X127000000Y-146050000D01*
X130810000Y-137160000D02*
X130810000Y-142240000D01*
X132080000Y-135890000D02*
X130810000Y-137160000D01*
X134620000Y-135890000D02*
X132080000Y-135890000D01*
X102870000Y-87630000D02*
X102870000Y-52070000D01*
X118110000Y-90170000D02*
X105410000Y-90170000D01*
X105410000Y-90170000D02*
X102870000Y-87630000D01*
X134620000Y-133350000D02*
X142240000Y-133350000D01*
X121920000Y-143510000D02*
X120650000Y-142240000D01*
X120650000Y-90170000D02*
X119380000Y-88900000D01*
X104140000Y-86360000D02*
X104140000Y-50800000D01*
X127000000Y-143510000D02*
X121920000Y-143510000D01*
X120650000Y-142240000D02*
X120650000Y-90170000D01*
X106680000Y-88900000D02*
X104140000Y-86360000D01*
X119380000Y-88900000D02*
X106680000Y-88900000D01*
X129540000Y-140970000D02*
X127000000Y-143510000D01*
X129540000Y-135890000D02*
X132080000Y-133350000D01*
X134620000Y-133350000D02*
X132080000Y-133350000D01*
X129540000Y-135890000D02*
X129540000Y-140970000D01*
X31750000Y-54610000D02*
X33020000Y-53340000D01*
X33020000Y-53340000D02*
X35560000Y-53340000D01*
X35560000Y-53340000D02*
X39370000Y-49530000D01*
X50800000Y-49530000D02*
X52070000Y-50800000D01*
X52070000Y-50800000D02*
X54610000Y-50800000D01*
X54610000Y-50800000D02*
X55880000Y-49530000D01*
X69850000Y-49530000D02*
X71120000Y-50800000D01*
X71120000Y-50800000D02*
X73660000Y-50800000D01*
X73660000Y-50800000D02*
X74930000Y-49530000D01*
X88900000Y-49530000D02*
X90170000Y-50800000D01*
X90170000Y-50800000D02*
X92710000Y-50800000D01*
X92710000Y-50800000D02*
X93980000Y-49530000D01*
X134620000Y-130810000D02*
X142240000Y-130810000D01*
X128270000Y-139700000D02*
X127000000Y-140970000D01*
X105410000Y-49530000D02*
X105410000Y-85090000D01*
X128270000Y-134620000D02*
X132080000Y-130810000D01*
X134620000Y-130810000D02*
X132080000Y-130810000D01*
X128270000Y-134620000D02*
X128270000Y-139700000D01*
X123190000Y-140970000D02*
X121920000Y-139700000D01*
X121920000Y-139700000D02*
X121920000Y-88900000D01*
X110490000Y-87630000D02*
X107950000Y-85090000D01*
X127000000Y-140970000D02*
X123190000Y-140970000D01*
X121920000Y-88900000D02*
X120650000Y-87630000D01*
X120650000Y-87630000D02*
X110490000Y-87630000D01*
X31750000Y-49530000D02*
X33020000Y-48260000D01*
X33020000Y-48260000D02*
X35560000Y-48260000D01*
X35560000Y-48260000D02*
X39370000Y-44450000D01*
X50800000Y-44450000D02*
X52070000Y-45720000D01*
X52070000Y-45720000D02*
X54610000Y-45720000D01*
X54610000Y-45720000D02*
X55880000Y-44450000D01*
X69850000Y-44450000D02*
X71120000Y-45720000D01*
X71120000Y-45720000D02*
X73660000Y-45720000D01*
X73660000Y-45720000D02*
X74930000Y-44450000D01*
X88900000Y-44450000D02*
X90170000Y-45720000D01*
X90170000Y-45720000D02*
X92710000Y-45720000D01*
X92710000Y-45720000D02*
X93980000Y-44450000D01*
X105410000Y-142240000D02*
X105410000Y-157480000D01*
X41910000Y-132080000D02*
X43180000Y-130810000D01*
X43180000Y-130810000D02*
X43180000Y-115570000D01*
X43180000Y-110490000D02*
X43180000Y-107950000D01*
X43180000Y-107950000D02*
X40640000Y-105410000D01*
X41910000Y-91440000D02*
X45720000Y-87630000D01*
X45720000Y-87630000D02*
X45720000Y-44450000D01*
X41910000Y-91440000D02*
X41910000Y-92710000D01*
X193040000Y-160020000D02*
X175260000Y-160020000D01*
X165735000Y-160655000D02*
X167640000Y-158750000D01*
X167640000Y-158750000D02*
X168910000Y-158750000D01*
X135890000Y-160020000D02*
X136525000Y-160655000D01*
X136525000Y-160655000D02*
X165735000Y-160655000D01*
X106680000Y-139700000D02*
X106680000Y-157480000D01*
X167640000Y-160020000D02*
X166370000Y-161290000D01*
X166370000Y-161290000D02*
X135890000Y-161290000D01*
X135890000Y-161290000D02*
X134620000Y-160020000D01*
X134620000Y-160020000D02*
X128270000Y-160020000D01*
X36830000Y-142240000D02*
X31750000Y-142240000D01*
X31750000Y-142240000D02*
X30480000Y-140970000D01*
X30480000Y-140970000D02*
X30480000Y-137160000D01*
X30480000Y-137160000D02*
X34290000Y-133350000D01*
X34290000Y-133350000D02*
X35560000Y-133350000D01*
X36830000Y-99060000D02*
X36830000Y-95250000D01*
X44450000Y-85090000D02*
X44450000Y-43180000D01*
X36830000Y-107950000D02*
X36830000Y-104140000D01*
X193040000Y-161290000D02*
X173990000Y-161290000D01*
X102870000Y-161290000D02*
X106680000Y-157480000D01*
X31750000Y-46990000D02*
X33020000Y-45720000D01*
X33020000Y-45720000D02*
X35560000Y-45720000D01*
X50800000Y-41910000D02*
X52070000Y-43180000D01*
X52070000Y-43180000D02*
X54610000Y-43180000D01*
X54610000Y-43180000D02*
X55880000Y-41910000D01*
X69850000Y-41910000D02*
X71120000Y-43180000D01*
X71120000Y-43180000D02*
X73660000Y-43180000D01*
X73660000Y-43180000D02*
X74930000Y-41910000D01*
X88900000Y-41910000D02*
X90170000Y-43180000D01*
X90170000Y-43180000D02*
X92710000Y-43180000D01*
X92710000Y-43180000D02*
X93980000Y-41910000D01*
X168910000Y-179070000D02*
X168910000Y-182880000D01*
X151130000Y-182880000D02*
X148590000Y-182880000D01*
X30480000Y-132080000D02*
X29210000Y-130810000D01*
X29210000Y-130810000D02*
X29210000Y-116840000D01*
X29210000Y-116840000D02*
X30480000Y-115570000D01*
X35560000Y-88900000D02*
X38100000Y-86360000D01*
X38100000Y-86360000D02*
X38100000Y-77470000D01*
X41910000Y-77470000D02*
X41910000Y-41910000D01*
X35560000Y-45720000D02*
X39370000Y-41910000D01*
X107950000Y-137160000D02*
X107950000Y-157480000D01*
X106680000Y-177800000D02*
X106680000Y-166370000D01*
X109220000Y-160020000D02*
X106680000Y-162560000D01*
X106680000Y-162560000D02*
X106680000Y-163830000D01*
X109220000Y-133350000D02*
X109220000Y-157480000D01*
X170180000Y-179070000D02*
X170180000Y-181610000D01*
X151130000Y-181610000D02*
X148590000Y-181610000D01*
X107950000Y-180340000D02*
X105410000Y-177800000D01*
X105410000Y-177800000D02*
X102870000Y-177800000D01*
X35560000Y-143510000D02*
X30480000Y-143510000D01*
X30480000Y-143510000D02*
X29210000Y-142240000D01*
X36830000Y-88900000D02*
X39370000Y-86360000D01*
X39370000Y-86360000D02*
X39370000Y-78740000D01*
X43180000Y-78740000D02*
X43180000Y-40640000D01*
X29210000Y-137160000D02*
X34290000Y-132080000D01*
X29210000Y-142240000D02*
X29210000Y-137160000D01*
X34290000Y-132080000D02*
X35560000Y-132080000D01*
X34290000Y-121920000D02*
X31750000Y-119380000D01*
X107950000Y-177800000D02*
X107950000Y-166370000D01*
X110490000Y-160020000D02*
X107950000Y-162560000D01*
X107950000Y-162560000D02*
X107950000Y-163830000D01*
X31750000Y-44450000D02*
X33020000Y-43180000D01*
X33020000Y-43180000D02*
X35560000Y-43180000D01*
X35560000Y-43180000D02*
X39370000Y-39370000D01*
X50800000Y-39370000D02*
X52070000Y-40640000D01*
X52070000Y-40640000D02*
X54610000Y-40640000D01*
X54610000Y-40640000D02*
X55880000Y-39370000D01*
X69850000Y-39370000D02*
X71120000Y-40640000D01*
X71120000Y-40640000D02*
X73660000Y-40640000D01*
X73660000Y-40640000D02*
X74930000Y-39370000D01*
X88900000Y-39370000D02*
X90170000Y-40640000D01*
X90170000Y-40640000D02*
X92710000Y-40640000D01*
X92710000Y-40640000D02*
X93980000Y-39370000D01*
X195580000Y-102870000D02*
X189230000Y-109220000D01*
X189230000Y-109220000D02*
X186690000Y-109220000D01*
X186690000Y-109220000D02*
X185420000Y-110490000D01*
X185420000Y-110490000D02*
X185420000Y-111760000D01*
X81280000Y-115570000D02*
X85090000Y-111760000D01*
X78740000Y-102870000D02*
X78740000Y-101600000D01*
X83820000Y-107950000D02*
X78740000Y-102870000D01*
X87630000Y-109220000D02*
X86360000Y-107950000D01*
X86360000Y-107950000D02*
X83820000Y-107950000D01*
X67310000Y-87630000D02*
X67310000Y-39370000D01*
X68580000Y-88900000D02*
X67310000Y-87630000D01*
X76200000Y-96520000D02*
X76200000Y-92710000D01*
X73660000Y-88900000D02*
X68580000Y-88900000D01*
X151130000Y-127000000D02*
X152400000Y-125730000D01*
X140970000Y-127000000D02*
X151130000Y-127000000D01*
X139700000Y-128270000D02*
X140970000Y-127000000D01*
X88900000Y-130810000D02*
X83820000Y-130810000D01*
X83820000Y-130810000D02*
X79375000Y-126365000D01*
X79375000Y-117475000D02*
X81280000Y-115570000D01*
X79375000Y-126365000D02*
X79375000Y-117475000D01*
X139700000Y-128270000D02*
X133350000Y-128270000D01*
X88900000Y-128270000D02*
X82550000Y-128270000D01*
X82550000Y-128270000D02*
X80010000Y-125730000D01*
X80010000Y-125730000D02*
X80010000Y-119380000D01*
X80010000Y-119380000D02*
X81280000Y-118110000D01*
X189230000Y-106680000D02*
X195580000Y-100330000D01*
X186690000Y-106680000D02*
X189230000Y-106680000D01*
X184150000Y-109220000D02*
X186690000Y-106680000D01*
X184150000Y-109220000D02*
X184150000Y-110490000D01*
X66040000Y-87630000D02*
X66040000Y-38100000D01*
X73660000Y-101600000D02*
X73660000Y-95250000D01*
X69850000Y-105410000D02*
X73660000Y-101600000D01*
X72390000Y-90170000D02*
X68580000Y-90170000D01*
X68580000Y-90170000D02*
X66040000Y-87630000D01*
X73660000Y-91440000D02*
X72390000Y-90170000D01*
X150495000Y-126365000D02*
X152400000Y-124460000D01*
X140335000Y-126365000D02*
X150495000Y-126365000D01*
X139700000Y-127000000D02*
X140335000Y-126365000D01*
X139700000Y-127000000D02*
X133350000Y-127000000D01*
X31750000Y-41910000D02*
X33020000Y-40640000D01*
X33020000Y-40640000D02*
X35560000Y-40640000D01*
X35560000Y-40640000D02*
X39370000Y-36830000D01*
X50800000Y-36830000D02*
X52070000Y-38100000D01*
X52070000Y-38100000D02*
X54610000Y-38100000D01*
X54610000Y-38100000D02*
X55880000Y-36830000D01*
X69850000Y-36830000D02*
X71120000Y-38100000D01*
X71120000Y-38100000D02*
X73660000Y-38100000D01*
X73660000Y-38100000D02*
X74930000Y-36830000D01*
X88900000Y-36830000D02*
X90170000Y-38100000D01*
X90170000Y-38100000D02*
X92710000Y-38100000D01*
X92710000Y-38100000D02*
X93980000Y-36830000D01*
X82550000Y-121920000D02*
X81280000Y-120650000D01*
X82550000Y-125730000D02*
X82550000Y-121920000D01*
X195580000Y-97790000D02*
X193040000Y-97790000D01*
X182880000Y-105410000D02*
X182880000Y-109220000D01*
X76200000Y-120650000D02*
X74930000Y-119380000D01*
X74930000Y-119380000D02*
X72390000Y-119380000D01*
X69850000Y-119380000D02*
X69850000Y-110490000D01*
X68580000Y-109220000D02*
X68580000Y-105410000D01*
X68580000Y-105410000D02*
X69850000Y-104140000D01*
X69850000Y-104140000D02*
X69850000Y-102870000D01*
X69850000Y-102870000D02*
X67310000Y-100330000D01*
X67310000Y-100330000D02*
X66040000Y-100330000D01*
X66040000Y-100330000D02*
X64770000Y-101600000D01*
X62230000Y-101600000D02*
X62230000Y-90170000D01*
X62230000Y-90170000D02*
X64770000Y-87630000D01*
X64770000Y-87630000D02*
X64770000Y-36830000D01*
X149860000Y-125730000D02*
X152400000Y-123190000D01*
X149860000Y-125730000D02*
X133350000Y-125730000D01*
X189230000Y-101600000D02*
X186690000Y-101600000D01*
X186690000Y-101600000D02*
X182880000Y-105410000D01*
X193040000Y-97790000D02*
X189230000Y-101600000D01*
X85090000Y-121920000D02*
X82550000Y-119380000D01*
X127000000Y-52070000D02*
X116840000Y-41910000D01*
X116840000Y-39370000D02*
X111760000Y-34290000D01*
X130810000Y-52070000D02*
X127000000Y-52070000D01*
X116840000Y-41910000D02*
X116840000Y-39370000D01*
X111760000Y-34290000D02*
X110490000Y-34290000D01*
X76200000Y-119380000D02*
X74930000Y-118110000D01*
X74930000Y-118110000D02*
X73660000Y-118110000D01*
X85090000Y-121920000D02*
X85090000Y-118110000D01*
X87630000Y-115570000D02*
X88900000Y-115570000D01*
X85090000Y-118110000D02*
X87630000Y-115570000D01*
X88900000Y-123190000D02*
X87630000Y-123190000D01*
X87630000Y-123190000D02*
X86360000Y-121920000D01*
X86360000Y-121920000D02*
X85090000Y-121920000D01*
X146050000Y-66040000D02*
X143510000Y-63500000D01*
X143510000Y-63500000D02*
X133350000Y-63500000D01*
X146050000Y-77470000D02*
X146050000Y-66040000D01*
X130810000Y-60960000D02*
X130810000Y-58420000D01*
X133350000Y-63500000D02*
X130810000Y-60960000D01*
X144780000Y-78740000D02*
X146050000Y-77470000D01*
X144780000Y-91440000D02*
X144780000Y-78740000D01*
X31750000Y-39370000D02*
X33020000Y-38100000D01*
X33020000Y-38100000D02*
X35560000Y-38100000D01*
X35560000Y-38100000D02*
X39370000Y-34290000D01*
X50800000Y-34290000D02*
X52070000Y-35560000D01*
X52070000Y-35560000D02*
X54610000Y-35560000D01*
X54610000Y-35560000D02*
X55880000Y-34290000D01*
X69850000Y-34290000D02*
X71120000Y-35560000D01*
X71120000Y-35560000D02*
X73660000Y-35560000D01*
X73660000Y-35560000D02*
X74930000Y-34290000D01*
X88900000Y-34290000D02*
X90170000Y-35560000D01*
X90170000Y-35560000D02*
X92710000Y-35560000D01*
X92710000Y-35560000D02*
X93980000Y-34290000D01*
X104140000Y-125730000D02*
X107950000Y-125730000D01*
X130810000Y-50800000D02*
X127000000Y-50800000D01*
X127000000Y-50800000D02*
X118110000Y-41910000D01*
X118110000Y-41910000D02*
X118110000Y-39370000D01*
X118110000Y-39370000D02*
X111760000Y-33020000D01*
X111760000Y-33020000D02*
X109220000Y-33020000D01*
X109220000Y-33020000D02*
X107950000Y-34290000D01*
X125730000Y-113030000D02*
X124460000Y-114300000D01*
X124460000Y-114300000D02*
X124460000Y-119380000D01*
X125730000Y-124460000D02*
X127000000Y-125730000D01*
X125730000Y-121920000D02*
X125730000Y-124460000D01*
X132080000Y-59690000D02*
X132080000Y-58420000D01*
X147320000Y-63500000D02*
X144780000Y-60960000D01*
X133350000Y-60960000D02*
X132080000Y-59690000D01*
X147320000Y-77470000D02*
X147320000Y-63500000D01*
X146050000Y-78740000D02*
X147320000Y-77470000D01*
X144780000Y-60960000D02*
X133350000Y-60960000D01*
X146050000Y-90170000D02*
X146050000Y-78740000D01*
X104140000Y-128270000D02*
X107950000Y-128270000D01*
X86360000Y-127000000D02*
X86360000Y-123190000D01*
X111760000Y-31750000D02*
X110490000Y-31750000D01*
X119380000Y-39370000D02*
X111760000Y-31750000D01*
X119380000Y-41910000D02*
X119380000Y-39370000D01*
X127000000Y-49530000D02*
X119380000Y-41910000D01*
X130810000Y-49530000D02*
X127000000Y-49530000D01*
X147320000Y-88900000D02*
X147320000Y-78740000D01*
X147320000Y-78740000D02*
X148590000Y-77470000D01*
X146050000Y-58420000D02*
X133350000Y-58420000D01*
X148590000Y-77470000D02*
X148590000Y-60960000D01*
X148590000Y-60960000D02*
X146050000Y-58420000D01*
X31750000Y-36830000D02*
X33020000Y-35560000D01*
X33020000Y-35560000D02*
X35560000Y-35560000D01*
X35560000Y-35560000D02*
X39370000Y-31750000D01*
X50800000Y-31750000D02*
X52070000Y-33020000D01*
X52070000Y-33020000D02*
X54610000Y-33020000D01*
X54610000Y-33020000D02*
X55880000Y-31750000D01*
X69850000Y-31750000D02*
X71120000Y-33020000D01*
X71120000Y-33020000D02*
X73660000Y-33020000D01*
X73660000Y-33020000D02*
X74930000Y-31750000D01*
X88900000Y-31750000D02*
X90170000Y-33020000D01*
X90170000Y-33020000D02*
X92710000Y-33020000D01*
X92710000Y-33020000D02*
X93980000Y-31750000D01*
X104140000Y-135890000D02*
X107950000Y-135890000D01*
X83820000Y-127000000D02*
X83820000Y-123190000D01*
X153670000Y-81280000D02*
X153670000Y-77470000D01*
X151130000Y-55880000D02*
X138430000Y-55880000D01*
X138430000Y-55880000D02*
X134620000Y-52070000D01*
X130810000Y-48260000D02*
X128270000Y-45720000D01*
X128270000Y-45720000D02*
X128270000Y-43180000D01*
X128270000Y-43180000D02*
X124460000Y-39370000D01*
X124460000Y-39370000D02*
X120650000Y-39370000D01*
X120650000Y-39370000D02*
X111760000Y-30480000D01*
X111760000Y-30480000D02*
X109220000Y-30480000D01*
X109220000Y-30480000D02*
X107950000Y-31750000D01*
X83820000Y-119380000D02*
X82550000Y-118110000D01*
X82550000Y-118110000D02*
X82550000Y-115570000D01*
X82550000Y-115570000D02*
X83820000Y-114300000D01*
X87630000Y-134620000D02*
X86360000Y-133350000D01*
X104140000Y-130810000D02*
X107950000Y-130810000D01*
X85090000Y-127000000D02*
X85090000Y-123190000D01*
X77470000Y-115570000D02*
X77470000Y-113030000D01*
X80010000Y-111760000D02*
X82550000Y-111760000D01*
X82550000Y-111760000D02*
X83820000Y-110490000D01*
X154940000Y-78740000D02*
X154940000Y-76200000D01*
X151130000Y-54610000D02*
X138430000Y-54610000D01*
X138430000Y-54610000D02*
X134620000Y-50800000D01*
X111760000Y-29210000D02*
X110490000Y-29210000D01*
X120650000Y-38100000D02*
X111760000Y-29210000D01*
X124460000Y-38100000D02*
X120650000Y-38100000D01*
X129540000Y-43180000D02*
X124460000Y-38100000D01*
X129540000Y-45720000D02*
X129540000Y-43180000D01*
X130810000Y-46990000D02*
X129540000Y-45720000D01*
X31750000Y-34290000D02*
X33020000Y-33020000D01*
X33020000Y-33020000D02*
X35560000Y-33020000D01*
X35560000Y-33020000D02*
X39370000Y-29210000D01*
X50800000Y-29210000D02*
X52070000Y-30480000D01*
X52070000Y-30480000D02*
X54610000Y-30480000D01*
X54610000Y-30480000D02*
X55880000Y-29210000D01*
X69850000Y-29210000D02*
X71120000Y-30480000D01*
X71120000Y-30480000D02*
X73660000Y-30480000D01*
X73660000Y-30480000D02*
X74930000Y-29210000D01*
X88900000Y-29210000D02*
X90170000Y-30480000D01*
X90170000Y-30480000D02*
X92710000Y-30480000D01*
X92710000Y-30480000D02*
X93980000Y-29210000D01*
X151130000Y-53340000D02*
X138430000Y-53340000D01*
X138430000Y-53340000D02*
X134620000Y-49530000D01*
X109220000Y-27940000D02*
X107950000Y-29210000D01*
X130810000Y-45720000D02*
X130810000Y-43180000D01*
X111760000Y-27940000D02*
X109220000Y-27940000D01*
X130810000Y-43180000D02*
X124460000Y-36830000D01*
X124460000Y-36830000D02*
X120650000Y-36830000D01*
X120650000Y-36830000D02*
X111760000Y-27940000D01*
X86360000Y-109220000D02*
X82550000Y-109220000D01*
X90170000Y-119380000D02*
X90170000Y-111760000D01*
X87630000Y-110490000D02*
X86360000Y-109220000D01*
X88900000Y-120650000D02*
X90170000Y-119380000D01*
X90170000Y-111760000D02*
X88900000Y-110490000D01*
X88900000Y-110490000D02*
X87630000Y-110490000D01*
X104140000Y-123190000D02*
X107950000Y-123190000D01*
X196850000Y-66040000D02*
X195580000Y-64770000D01*
X172720000Y-132080000D02*
X182880000Y-132080000D01*
X185420000Y-129540000D02*
X185420000Y-125730000D01*
X186690000Y-124460000D02*
X195580000Y-124460000D01*
X170180000Y-134620000D02*
X172720000Y-132080000D01*
X165100000Y-143510000D02*
X166370000Y-143510000D01*
X170180000Y-139700000D02*
X170180000Y-134620000D01*
X166370000Y-143510000D02*
X170180000Y-139700000D01*
X182880000Y-132080000D02*
X185420000Y-129540000D01*
X196850000Y-123190000D02*
X196850000Y-66040000D01*
X185420000Y-125730000D02*
X186690000Y-124460000D01*
X195580000Y-124460000D02*
X196850000Y-123190000D01*
X162560000Y-135890000D02*
X161290000Y-137160000D01*
X161290000Y-137160000D02*
X161290000Y-143510000D01*
X148590000Y-33020000D02*
X148590000Y-22860000D01*
X132080000Y-124460000D02*
X129540000Y-121920000D01*
X156210000Y-123190000D02*
X154940000Y-121920000D01*
X154940000Y-121920000D02*
X152400000Y-121920000D01*
X152400000Y-121920000D02*
X149860000Y-124460000D01*
X156210000Y-127000000D02*
X156210000Y-123190000D01*
X149860000Y-124460000D02*
X132080000Y-124460000D01*
X31750000Y-31750000D02*
X33020000Y-30480000D01*
X33020000Y-30480000D02*
X35560000Y-30480000D01*
X35560000Y-30480000D02*
X39370000Y-26670000D01*
X50800000Y-26670000D02*
X52070000Y-27940000D01*
X52070000Y-27940000D02*
X54610000Y-27940000D01*
X54610000Y-27940000D02*
X55880000Y-26670000D01*
X69850000Y-26670000D02*
X71120000Y-27940000D01*
X71120000Y-27940000D02*
X73660000Y-27940000D01*
X73660000Y-27940000D02*
X74930000Y-26670000D01*
X88900000Y-26670000D02*
X90170000Y-27940000D01*
X90170000Y-27940000D02*
X92710000Y-27940000D01*
X92710000Y-27940000D02*
X93980000Y-26670000D01*
X197485000Y-64135000D02*
X195580000Y-62230000D01*
X173355000Y-132715000D02*
X183515000Y-132715000D01*
X170815000Y-135255000D02*
X173355000Y-132715000D01*
X183515000Y-132715000D02*
X186055000Y-130175000D01*
X186055000Y-130175000D02*
X186055000Y-126365000D01*
X197485000Y-123825000D02*
X197485000Y-64135000D01*
X170815000Y-141605000D02*
X170815000Y-135255000D01*
X165100000Y-146050000D02*
X166370000Y-146050000D01*
X186055000Y-126365000D02*
X187325000Y-125095000D01*
X187325000Y-125095000D02*
X196215000Y-125095000D01*
X166370000Y-146050000D02*
X170815000Y-141605000D01*
X196215000Y-125095000D02*
X197485000Y-123825000D01*
X133350000Y-134620000D02*
X143510000Y-134620000D01*
X143510000Y-134620000D02*
X144780000Y-135890000D01*
X144780000Y-135890000D02*
X144780000Y-151130000D01*
X144780000Y-151130000D02*
X146050000Y-152400000D01*
X129540000Y-120650000D02*
X132080000Y-123190000D01*
X147320000Y-30480000D02*
X147320000Y-24130000D01*
X143510000Y-25400000D02*
X139700000Y-25400000D01*
X139700000Y-25400000D02*
X138430000Y-26670000D01*
X107950000Y-26670000D02*
X109220000Y-25400000D01*
X109220000Y-25400000D02*
X113030000Y-25400000D01*
X113030000Y-25400000D02*
X114300000Y-26670000D01*
X151130000Y-149860000D02*
X151130000Y-156210000D01*
X151130000Y-156210000D02*
X152400000Y-157480000D01*
X152400000Y-157480000D02*
X156210000Y-157480000D01*
X156210000Y-157480000D02*
X157480000Y-156210000D01*
X157480000Y-156210000D02*
X157480000Y-153670000D01*
X198120000Y-46990000D02*
X195580000Y-44450000D01*
X198120000Y-124460000D02*
X198120000Y-46990000D01*
X187960000Y-125730000D02*
X196850000Y-125730000D01*
X172324998Y-137160000D02*
X173990000Y-137160000D01*
X171450000Y-142240000D02*
X171450000Y-138034998D01*
X171450000Y-138034998D02*
X172324998Y-137160000D01*
X184150000Y-133350000D02*
X186690000Y-130810000D01*
X196850000Y-125730000D02*
X198120000Y-124460000D01*
X165100000Y-148590000D02*
X171450000Y-142240000D01*
X186690000Y-130810000D02*
X186690000Y-127000000D01*
X177800000Y-133350000D02*
X184150000Y-133350000D01*
X173990000Y-137160000D02*
X177800000Y-133350000D01*
X186690000Y-127000000D02*
X187960000Y-125730000D01*
X31750000Y-29210000D02*
X33020000Y-27940000D01*
X33020000Y-27940000D02*
X35560000Y-27940000D01*
X35560000Y-27940000D02*
X39370000Y-24130000D01*
X50800000Y-24130000D02*
X52070000Y-25400000D01*
X52070000Y-25400000D02*
X54610000Y-25400000D01*
X54610000Y-25400000D02*
X55880000Y-24130000D01*
X69850000Y-24130000D02*
X71120000Y-25400000D01*
X71120000Y-25400000D02*
X73660000Y-25400000D01*
X73660000Y-25400000D02*
X74930000Y-24130000D01*
X88900000Y-24130000D02*
X90170000Y-25400000D01*
X90170000Y-25400000D02*
X92710000Y-25400000D01*
X92710000Y-25400000D02*
X93980000Y-24130000D01*
X185420000Y-144780000D02*
X184150000Y-143510000D01*
X184150000Y-143510000D02*
X180340000Y-143510000D01*
X196850000Y-144780000D02*
X185420000Y-144780000D01*
X195580000Y-41910000D02*
X198755000Y-45085000D01*
X198755000Y-45085000D02*
X198755000Y-142875000D01*
X198755000Y-142875000D02*
X196850000Y-144780000D01*
X195580000Y-41910000D02*
X194310000Y-40640000D01*
X195329997Y-35415001D02*
X196994999Y-35415001D01*
X194310000Y-40640000D02*
X194310000Y-36434998D01*
X194310000Y-36434998D02*
X195329997Y-35415001D01*
X196994999Y-35415001D02*
X199390000Y-33020000D01*
X199390000Y-33020000D02*
X199390000Y-29210000D01*
X199390000Y-21590000D02*
X199390000Y-26670000D01*
X196850000Y-19050000D02*
X199390000Y-21590000D01*
X107950000Y-24130000D02*
X109220000Y-22860000D01*
X109220000Y-22860000D02*
X111760000Y-22860000D01*
X111760000Y-22860000D02*
X115570000Y-19050000D01*
X115570000Y-19050000D02*
X196850000Y-19050000D01*
X166370000Y-149860000D02*
X171450000Y-144780000D01*
X157480000Y-146050000D02*
X161290000Y-149860000D01*
X161290000Y-149860000D02*
X166370000Y-149860000D01*
X180340000Y-143510000D02*
X177800000Y-146050000D01*
X177800000Y-146050000D02*
X175260000Y-146050000D01*
X175260000Y-146050000D02*
X173990000Y-144780000D01*
X171450000Y-144780000D02*
X173990000Y-144780000D01*
X184150000Y-146050000D02*
X180340000Y-146050000D01*
X185420000Y-147320000D02*
X184150000Y-146050000D01*
X196850000Y-147320000D02*
X185420000Y-147320000D01*
X195580000Y-39370000D02*
X199390000Y-43180000D01*
X199390000Y-144780000D02*
X196850000Y-147320000D01*
X199390000Y-43180000D02*
X199390000Y-144780000D01*
X179070000Y-147320000D02*
X180340000Y-146050000D01*
X171450000Y-147320000D02*
X179070000Y-147320000D01*
X50800000Y-77470000D02*
X52070000Y-78740000D01*
X52070000Y-78740000D02*
X54610000Y-78740000D01*
X54610000Y-78740000D02*
X55880000Y-77470000D01*
X69850000Y-77470000D02*
X71120000Y-78740000D01*
X71120000Y-78740000D02*
X73660000Y-78740000D01*
X73660000Y-78740000D02*
X74930000Y-77470000D01*
X88900000Y-77470000D02*
X90170000Y-78740000D01*
X90170000Y-78740000D02*
X92710000Y-78740000D01*
X92710000Y-78740000D02*
X93980000Y-77470000D01*
X180340000Y-148590000D02*
X175260000Y-148590000D01*
X175260000Y-148590000D02*
X173990000Y-149860000D01*
X185420000Y-149860000D02*
X184150000Y-148590000D01*
X195580000Y-36830000D02*
X200025000Y-41275000D01*
X200025000Y-41275000D02*
X200025000Y-146685000D01*
X200025000Y-146685000D02*
X196850000Y-149860000D01*
X184150000Y-148590000D02*
X180340000Y-148590000D01*
X30480000Y-127000000D02*
X30480000Y-130810000D01*
X196850000Y-149860000D02*
X198120000Y-151130000D01*
X198120000Y-151130000D02*
X198120000Y-167640000D01*
X189230000Y-149860000D02*
X190500000Y-148590000D01*
X189230000Y-149860000D02*
X185420000Y-149860000D01*
X190500000Y-148590000D02*
X193040000Y-148590000D01*
X193040000Y-148590000D02*
X194310000Y-149860000D01*
X196850000Y-149860000D02*
X194310000Y-149860000D01*
X173990000Y-149860000D02*
X171450000Y-149860000D01*
X171450000Y-149860000D02*
X170180000Y-148590000D01*
X170180000Y-148590000D02*
X170180000Y-147320000D01*
X167640000Y-140970000D02*
X165100000Y-138430000D01*
X170180000Y-129540000D02*
X166370000Y-133350000D01*
X166370000Y-133350000D02*
X166370000Y-137160000D01*
X170180000Y-127000000D02*
X170180000Y-129540000D01*
X166370000Y-137160000D02*
X165100000Y-138430000D01*
X36195000Y-118745000D02*
X36195000Y-117475000D01*
X28575000Y-109855000D02*
X28575000Y-27305000D01*
X33020000Y-25400000D02*
X34290000Y-24130000D01*
X41910000Y-124460000D02*
X36195000Y-118745000D01*
X30480000Y-25400000D02*
X33020000Y-25400000D01*
X28575000Y-27305000D02*
X30480000Y-25400000D01*
X36195000Y-117475000D02*
X28575000Y-109855000D01*
X60960000Y-140970000D02*
X60960000Y-134620000D01*
X60960000Y-134620000D02*
X62230000Y-133350000D01*
X172720000Y-129540000D02*
X167640000Y-134620000D01*
X172720000Y-127000000D02*
X172720000Y-129540000D01*
X167640000Y-134620000D02*
X167640000Y-139700000D01*
X59690000Y-144780000D02*
X63500000Y-144780000D01*
X30480000Y-24130000D02*
X31750000Y-24130000D01*
X35560000Y-119380000D02*
X35560000Y-118110000D01*
X41910000Y-125730000D02*
X35560000Y-119380000D01*
X35560000Y-118110000D02*
X27940000Y-110490000D01*
X27940000Y-110490000D02*
X27940000Y-26670000D01*
X27940000Y-26670000D02*
X30480000Y-24130000D01*
X49530000Y-135890000D02*
X53340000Y-135890000D01*
X46990000Y-130810000D02*
X48260000Y-132080000D01*
X48260000Y-132080000D02*
X48260000Y-134620000D01*
X48260000Y-134620000D02*
X49530000Y-135890000D01*
X175260000Y-127000000D02*
X175260000Y-129540000D01*
X175260000Y-129540000D02*
X173990000Y-130810000D01*
X173990000Y-130810000D02*
X172720000Y-130810000D01*
X172720000Y-130810000D02*
X168910000Y-134620000D01*
X168910000Y-137160000D02*
X168910000Y-134620000D01*
X35560000Y-137160000D02*
X35560000Y-134620000D01*
X38100000Y-139700000D02*
X35560000Y-137160000D01*
X53340000Y-137160000D02*
X44450000Y-137160000D01*
X41910000Y-139700000D02*
X38100000Y-139700000D01*
X44450000Y-137160000D02*
X41910000Y-139700000D01*
X49530000Y-120650000D02*
X46990000Y-118110000D01*
X46990000Y-118110000D02*
X46990000Y-109220000D01*
X46990000Y-109220000D02*
X43180000Y-105410000D01*
X43180000Y-105410000D02*
X43180000Y-97790000D01*
X43180000Y-97790000D02*
X44450000Y-96520000D01*
X72390000Y-171450000D02*
X71120000Y-172720000D01*
X73660000Y-171450000D02*
X72390000Y-171450000D01*
X54610000Y-139700000D02*
X54610000Y-132080000D01*
X46990000Y-90170000D02*
X44450000Y-92710000D01*
X68580000Y-133350000D02*
X68580000Y-128270000D01*
X68580000Y-128270000D02*
X64770000Y-124460000D01*
X57150000Y-119380000D02*
X53340000Y-119380000D01*
X36830000Y-113030000D02*
X33020000Y-109220000D01*
X41910000Y-119380000D02*
X38100000Y-119380000D01*
X36830000Y-118110000D02*
X36830000Y-113030000D01*
X38100000Y-119380000D02*
X36830000Y-118110000D01*
X35560000Y-109220000D02*
X35560000Y-104140000D01*
X45720000Y-129540000D02*
X53340000Y-129540000D01*
X35560000Y-129540000D02*
X39370000Y-133350000D01*
X33020000Y-129540000D02*
X35560000Y-129540000D01*
X39370000Y-133350000D02*
X41910000Y-133350000D01*
X41910000Y-133350000D02*
X45720000Y-129540000D01*
X49530000Y-118110000D02*
X48260000Y-116840000D01*
X48260000Y-116840000D02*
X48260000Y-109220000D01*
X48260000Y-109220000D02*
X49530000Y-107950000D01*
X69850000Y-100330000D02*
X69850000Y-95250000D01*
X60960000Y-160020000D02*
X68580000Y-160020000D01*
X49530000Y-118110000D02*
X50800000Y-118110000D01*
X55880000Y-139700000D02*
X55880000Y-128270000D01*
X71120000Y-170180000D02*
X71120000Y-167640000D01*
X53340000Y-124460000D02*
X53340000Y-128270000D01*
X53340000Y-124460000D02*
X52070000Y-123190000D01*
X52070000Y-123190000D02*
X52070000Y-119380000D01*
X50800000Y-118110000D02*
X52070000Y-119380000D01*
X62230000Y-114300000D02*
X60960000Y-113030000D01*
X54610000Y-102870000D02*
X52070000Y-102870000D01*
X52070000Y-102870000D02*
X50800000Y-104140000D01*
X58420000Y-110490000D02*
X58420000Y-106680000D01*
X58420000Y-106680000D02*
X54610000Y-102870000D01*
X69850000Y-128270000D02*
X69850000Y-135890000D01*
X68580000Y-127000000D02*
X69850000Y-128270000D01*
X68580000Y-116840000D02*
X68580000Y-127000000D01*
X71120000Y-97790000D02*
X71120000Y-95250000D01*
X49530000Y-115570000D02*
X52070000Y-115570000D01*
X52070000Y-115570000D02*
X53340000Y-114300000D01*
X53340000Y-114300000D02*
X53340000Y-106680000D01*
X39370000Y-113030000D02*
X41910000Y-113030000D01*
X41910000Y-113030000D02*
X44450000Y-110490000D01*
X67310000Y-132080000D02*
X67310000Y-129540000D01*
X67310000Y-129540000D02*
X66040000Y-128270000D01*
X55880000Y-110490000D02*
X55880000Y-107950000D01*
X39370000Y-114300000D02*
X41910000Y-114300000D01*
X41910000Y-114300000D02*
X44450000Y-111760000D01*
X54610000Y-111760000D02*
X54610000Y-104140000D01*
X87630000Y-91440000D02*
X85090000Y-88900000D01*
X74930000Y-105410000D02*
X77470000Y-102870000D01*
X64770000Y-110490000D02*
X68580000Y-110490000D01*
X69850000Y-109220000D02*
X69850000Y-106680000D01*
X77470000Y-102870000D02*
X77470000Y-95250000D01*
X58420000Y-104140000D02*
X64770000Y-110490000D01*
X71120000Y-105410000D02*
X74930000Y-105410000D01*
X68580000Y-110490000D02*
X69850000Y-109220000D01*
X69850000Y-106680000D02*
X71120000Y-105410000D01*
X58024998Y-142240000D02*
X57150000Y-141365002D01*
X57150000Y-141365002D02*
X57150000Y-139700000D01*
X44450000Y-138430000D02*
X53340000Y-138430000D01*
X41910000Y-140970000D02*
X44450000Y-138430000D01*
X33020000Y-140970000D02*
X41910000Y-140970000D01*
X66040000Y-140970000D02*
X64770000Y-142240000D01*
X64770000Y-142240000D02*
X58024998Y-142240000D01*
X104140000Y-173990000D02*
X100330000Y-173990000D01*
X92710000Y-172720000D02*
X87630000Y-172720000D01*
X63500000Y-165100000D02*
X60960000Y-167640000D01*
X60960000Y-167640000D02*
X57150000Y-167640000D01*
X57150000Y-160020000D02*
X55880000Y-161290000D01*
X55880000Y-161290000D02*
X51435000Y-161290000D01*
X51435000Y-161290000D02*
X50800000Y-160655000D01*
X50800000Y-160655000D02*
X50800000Y-157480000D01*
X49530000Y-113030000D02*
X52070000Y-110490000D01*
X68580000Y-92710000D02*
X73660000Y-92710000D01*
X73660000Y-92710000D02*
X76200000Y-90170000D01*
X88900000Y-83820000D02*
X91440000Y-83820000D01*
X91440000Y-83820000D02*
X93980000Y-81280000D01*
X54610000Y-113030000D02*
X55880000Y-114300000D01*
X55880000Y-114300000D02*
X55880000Y-115570000D01*
X49530000Y-104140000D02*
X49530000Y-106680000D01*
X49530000Y-106680000D02*
X52070000Y-109220000D01*
X52070000Y-110490000D02*
X52070000Y-109220000D01*
X55880000Y-111760000D02*
X62230000Y-111760000D01*
X62230000Y-111760000D02*
X63500000Y-113030000D01*
X67310000Y-114300000D02*
X68580000Y-115570000D01*
X80010000Y-106680000D02*
X80010000Y-105410000D01*
X75074999Y-111615001D02*
X80010000Y-106680000D01*
X73409997Y-111615001D02*
X75074999Y-111615001D01*
X72390000Y-112634998D02*
X73409997Y-111615001D01*
X72390000Y-116840000D02*
X72390000Y-112634998D01*
X44450000Y-114300000D02*
X43180000Y-114300000D01*
X43180000Y-114300000D02*
X41910000Y-115570000D01*
X39370000Y-115570000D02*
X41910000Y-115570000D01*
X69850000Y-140970000D02*
X71120000Y-139700000D01*
X71120000Y-139700000D02*
X71120000Y-128270000D01*
X71120000Y-128270000D02*
X69850000Y-127000000D01*
X69850000Y-127000000D02*
X69850000Y-120650000D01*
X71120000Y-157480000D02*
X67310000Y-153670000D01*
X67310000Y-153670000D02*
X67310000Y-144780000D01*
X67310000Y-144780000D02*
X66040000Y-143510000D01*
X80010000Y-132080000D02*
X90170000Y-132080000D01*
X90170000Y-132080000D02*
X91440000Y-130810000D01*
X91440000Y-130810000D02*
X91440000Y-110490000D01*
X100330000Y-110490000D02*
X100330000Y-104140000D01*
X105410000Y-104140000D02*
X105410000Y-101600000D01*
X66040000Y-143510000D02*
X68580000Y-143510000D01*
X72390000Y-139700000D02*
X72390000Y-133350000D01*
X68580000Y-143510000D02*
X72390000Y-139700000D01*
X72390000Y-133350000D02*
X73660000Y-132080000D01*
X45085000Y-161925000D02*
X40640000Y-157480000D01*
X69850000Y-160020000D02*
X67945000Y-161925000D01*
X67945000Y-161925000D02*
X45085000Y-161925000D01*
X127000000Y-166370000D02*
X129540000Y-163830000D01*
X129540000Y-163830000D02*
X129540000Y-161290000D01*
X129540000Y-157480000D02*
X129540000Y-149860000D01*
X129540000Y-149860000D02*
X132080000Y-147320000D01*
X132080000Y-147320000D02*
X135890000Y-147320000D01*
X115570000Y-105410000D02*
X115570000Y-110490000D01*
X132080000Y-118110000D02*
X123190000Y-109220000D01*
X123190000Y-109220000D02*
X123190000Y-106680000D01*
X132080000Y-121920000D02*
X132080000Y-118110000D01*
X134620000Y-123190000D02*
X133350000Y-123190000D01*
X133350000Y-123190000D02*
X132080000Y-121920000D01*
X127000000Y-176530000D02*
X130810000Y-172720000D01*
X130810000Y-172720000D02*
X130810000Y-161290000D01*
X130810000Y-157480000D02*
X130810000Y-151130000D01*
X130810000Y-151130000D02*
X132080000Y-149860000D01*
X132080000Y-149860000D02*
X137160000Y-149860000D01*
X107950000Y-95250000D02*
X113030000Y-95250000D01*
X113030000Y-95250000D02*
X115570000Y-97790000D01*
X115570000Y-97790000D02*
X115570000Y-100330000D01*
X127000000Y-95250000D02*
X127000000Y-111760000D01*
X127000000Y-111760000D02*
X133350000Y-118110000D01*
X133350000Y-118110000D02*
X134620000Y-118110000D01*
X146050000Y-148590000D02*
X146050000Y-133350000D01*
X144780000Y-132080000D02*
X132080000Y-132080000D01*
X146050000Y-133350000D02*
X144780000Y-132080000D01*
X132080000Y-129540000D02*
X129540000Y-127000000D01*
X129540000Y-127000000D02*
X129540000Y-125730000D01*
X106680000Y-110490000D02*
X106680000Y-107950000D01*
X106680000Y-107950000D02*
X110490000Y-104140000D01*
X110490000Y-104140000D02*
X110490000Y-101600000D01*
X123190000Y-90170000D02*
X123190000Y-95250000D01*
X147320000Y-93980000D02*
X146050000Y-95250000D01*
X146050000Y-95250000D02*
X146050000Y-96520000D01*
X143510000Y-96520000D02*
X135890000Y-96520000D01*
X135890000Y-96520000D02*
X129540000Y-102870000D01*
X129540000Y-102870000D02*
X129540000Y-113030000D01*
X128270000Y-124460000D02*
X128270000Y-127000000D01*
X128270000Y-127000000D02*
X129540000Y-128270000D01*
X129540000Y-128270000D02*
X129540000Y-130810000D01*
X129540000Y-130810000D02*
X128270000Y-132080000D01*
X126604998Y-132080000D02*
X125730000Y-132954998D01*
X128270000Y-132080000D02*
X126604998Y-132080000D01*
X125730000Y-132954998D02*
X125730000Y-139700000D01*
X125730000Y-139700000D02*
X123190000Y-139700000D01*
X110490000Y-144780000D02*
X110490000Y-152400000D01*
X102870000Y-152400000D02*
X100330000Y-154940000D01*
X100330000Y-154940000D02*
X100330000Y-158750000D01*
X100330000Y-158750000D02*
X99060000Y-160020000D01*
X99060000Y-160020000D02*
X97790000Y-160020000D01*
X88900000Y-171450000D02*
X91440000Y-168910000D01*
X156210000Y-66040000D02*
X157480000Y-64770000D01*
X151130000Y-93980000D02*
X151130000Y-87630000D01*
X153670000Y-85090000D02*
X153670000Y-82550000D01*
X151130000Y-87630000D02*
X153670000Y-85090000D01*
X153670000Y-82550000D02*
X156210000Y-80010000D01*
X156210000Y-80010000D02*
X156210000Y-66040000D01*
X90170000Y-160020000D02*
X88900000Y-161290000D01*
X88900000Y-161290000D02*
X83820000Y-161290000D01*
X83820000Y-158750000D02*
X78740000Y-158750000D01*
X78740000Y-158750000D02*
X77470000Y-157480000D01*
X77470000Y-157480000D02*
X77470000Y-152400000D01*
X68580000Y-139700000D02*
X63500000Y-139700000D01*
X63500000Y-139700000D02*
X62230000Y-138430000D01*
X62230000Y-138430000D02*
X62230000Y-135890000D01*
X62230000Y-135890000D02*
X63500000Y-134620000D01*
X63500000Y-134620000D02*
X63500000Y-132080000D01*
X63500000Y-132080000D02*
X62230000Y-130810000D01*
X62230000Y-130810000D02*
X60960000Y-130810000D01*
X57150000Y-130810000D02*
X57150000Y-127000000D01*
X57150000Y-127000000D02*
X58420000Y-125730000D01*
X55880000Y-121920000D02*
X53340000Y-121920000D01*
X46990000Y-124460000D02*
X52070000Y-124460000D01*
X88900000Y-176530000D02*
X86360000Y-173990000D01*
X86360000Y-173990000D02*
X86360000Y-168910000D01*
X86360000Y-168910000D02*
X88900000Y-166370000D01*
X158750000Y-58420000D02*
X161290000Y-60960000D01*
X170180000Y-73660000D02*
X170180000Y-90170000D01*
X190500000Y-101600000D02*
X191770000Y-102870000D01*
X191770000Y-109220000D02*
X193040000Y-110490000D01*
X193040000Y-110490000D02*
X193040000Y-116840000D01*
X189230000Y-134620000D02*
X177800000Y-134620000D01*
X170180000Y-152400000D02*
X161290000Y-152400000D01*
X161290000Y-152400000D02*
X158750000Y-149860000D01*
X158750000Y-149860000D02*
X153670000Y-149860000D01*
X153670000Y-149860000D02*
X152400000Y-148590000D01*
X149860000Y-153670000D02*
X149860000Y-156210000D01*
X149860000Y-156210000D02*
X151130000Y-157480000D01*
X144780000Y-162560000D02*
X144780000Y-163830000D01*
X144780000Y-163830000D02*
X143510000Y-165100000D01*
X143510000Y-165100000D02*
X133350000Y-165100000D01*
X110490000Y-170180000D02*
X110490000Y-165100000D01*
X105410000Y-170180000D02*
X102870000Y-170180000D01*
X102870000Y-170180000D02*
X99060000Y-166370000D01*
X93980000Y-165100000D02*
X92710000Y-163830000D01*
X92710000Y-163830000D02*
X91440000Y-163830000D01*
X88900000Y-166370000D02*
X91440000Y-166370000D01*
X177800000Y-134620000D02*
X176530000Y-135890000D01*
X175260000Y-139700000D02*
X175260000Y-144780000D01*
X62230000Y-179070000D02*
X60960000Y-177800000D01*
X60960000Y-177800000D02*
X54610000Y-177800000D01*
X52070000Y-177800000D02*
X48260000Y-177800000D01*
X46990000Y-135890000D02*
X46990000Y-132080000D01*
X165100000Y-124460000D02*
X168910000Y-128270000D01*
X172720000Y-92710000D02*
X176530000Y-96520000D01*
X167640000Y-107950000D02*
X165100000Y-110490000D01*
X176530000Y-96520000D02*
X176530000Y-102870000D01*
X165100000Y-110490000D02*
X165100000Y-124460000D01*
X172720000Y-74930000D02*
X172720000Y-92710000D01*
X171450000Y-107950000D02*
X167640000Y-107950000D01*
X176530000Y-102870000D02*
X171450000Y-107950000D01*
X173990000Y-74930000D02*
X173990000Y-92710000D01*
X163830000Y-110490000D02*
X163830000Y-125730000D01*
X175260000Y-102870000D02*
X171450000Y-106680000D01*
X171450000Y-106680000D02*
X167640000Y-106680000D01*
X163830000Y-125730000D02*
X166370000Y-128270000D01*
X175260000Y-96520000D02*
X175260000Y-102870000D01*
X167640000Y-106680000D02*
X163830000Y-110490000D01*
X175260000Y-74930000D02*
X175260000Y-91440000D01*
X173990000Y-102870000D02*
X171450000Y-105410000D01*
X162560000Y-110490000D02*
X162560000Y-127000000D01*
X173990000Y-96520000D02*
X173990000Y-102870000D01*
X162560000Y-127000000D02*
X163830000Y-128270000D01*
X171450000Y-105410000D02*
X167640000Y-105410000D01*
X167640000Y-105410000D02*
X162560000Y-110490000D01*
X176530000Y-74930000D02*
X176530000Y-95250000D01*
X161290000Y-110490000D02*
X161290000Y-128270000D01*
X167640000Y-104140000D02*
X161290000Y-110490000D01*
X171450000Y-104140000D02*
X167640000Y-104140000D01*
X172720000Y-96520000D02*
X172720000Y-102870000D01*
X172720000Y-102870000D02*
X171450000Y-104140000D01*
X149860000Y-39370000D02*
X156210000Y-33020000D01*
X156210000Y-33020000D02*
X158750000Y-33020000D01*
X158750000Y-33020000D02*
X170180000Y-21590000D01*
X170180000Y-21590000D02*
X180340000Y-21590000D01*
X184150000Y-106680000D02*
X187960000Y-102870000D01*
X184150000Y-107950000D02*
X184150000Y-106680000D01*
X149860000Y-41910000D02*
X156210000Y-35560000D01*
X156210000Y-35560000D02*
X158750000Y-35560000D01*
X158750000Y-35560000D02*
X170180000Y-24130000D01*
X170180000Y-24130000D02*
X180340000Y-24130000D01*
X167640000Y-102870000D02*
X171450000Y-102870000D01*
X149860000Y-44450000D02*
X156210000Y-38100000D01*
X156210000Y-38100000D02*
X158750000Y-38100000D01*
X158750000Y-38100000D02*
X170180000Y-26670000D01*
X170180000Y-26670000D02*
X180340000Y-26670000D01*
X167640000Y-101600000D02*
X170180000Y-101600000D01*
X149860000Y-97790000D02*
X156210000Y-91440000D01*
X156210000Y-91440000D02*
X158750000Y-91440000D01*
X163195000Y-46355000D02*
X180340000Y-29210000D01*
X162560000Y-91440000D02*
X163195000Y-90805000D01*
X163195000Y-90805000D02*
X163195000Y-46355000D01*
X149860000Y-100330000D02*
X156210000Y-93980000D01*
X156210000Y-93980000D02*
X158750000Y-93980000D01*
X162560000Y-93980000D02*
X163830000Y-92710000D01*
X163830000Y-92710000D02*
X163830000Y-48260000D01*
X163830000Y-48260000D02*
X180340000Y-31750000D01*
X176530000Y-125730000D02*
X167640000Y-116840000D01*
X179070000Y-125730000D02*
X176530000Y-125730000D01*
X149860000Y-102870000D02*
X156210000Y-96520000D01*
X156210000Y-96520000D02*
X158750000Y-96520000D01*
X164465000Y-50165000D02*
X180340000Y-34290000D01*
X162560000Y-96520000D02*
X164465000Y-94615000D01*
X164465000Y-94615000D02*
X164465000Y-50165000D01*
X157480000Y-87630000D02*
X154940000Y-90170000D01*
X154940000Y-90170000D02*
X154940000Y-91440000D01*
X167640000Y-115570000D02*
X168910000Y-115570000D01*
X166370000Y-116840000D02*
X167640000Y-115570000D01*
X168910000Y-115570000D02*
X177800000Y-124460000D01*
X177800000Y-124460000D02*
X179070000Y-124460000D01*
X149860000Y-105410000D02*
X156210000Y-99060000D01*
X156210000Y-99060000D02*
X158750000Y-99060000D01*
X165100000Y-52070000D02*
X180340000Y-36830000D01*
X165100000Y-96520000D02*
X165100000Y-52070000D01*
X162560000Y-99060000D02*
X165100000Y-96520000D01*
X157480000Y-85090000D02*
X153670000Y-88900000D01*
X153670000Y-88900000D02*
X153670000Y-92710000D01*
X177800000Y-123190000D02*
X179070000Y-123190000D01*
X166370000Y-114300000D02*
X168910000Y-114300000D01*
X168910000Y-114300000D02*
X177800000Y-123190000D01*
X157480000Y-113030000D02*
X158750000Y-113030000D01*
X158750000Y-113030000D02*
X160020000Y-111760000D01*
X149860000Y-107950000D02*
X156210000Y-101600000D01*
X156210000Y-101600000D02*
X158750000Y-101600000D01*
X165735000Y-53975000D02*
X180340000Y-39370000D01*
X165735000Y-98425000D02*
X165735000Y-53975000D01*
X162560000Y-101600000D02*
X165735000Y-98425000D01*
X139700000Y-85090000D02*
X135890000Y-81280000D01*
X135890000Y-81280000D02*
X127000000Y-81280000D01*
X127000000Y-81280000D02*
X125730000Y-80010000D01*
X119380000Y-80010000D02*
X119380000Y-74930000D01*
X119380000Y-74930000D02*
X120650000Y-73660000D01*
X118980001Y-68180001D02*
X118980001Y-60560001D01*
X119380000Y-68580000D02*
X118980001Y-68180001D01*
X118980001Y-60560001D02*
X115570000Y-57150000D01*
X115570000Y-57150000D02*
X115570000Y-46990000D01*
X115570000Y-46990000D02*
X114300000Y-45720000D01*
X114300000Y-45720000D02*
X111760000Y-45720000D01*
X46990000Y-45720000D02*
X46990000Y-87630000D01*
X39370000Y-88900000D02*
X38100000Y-90170000D01*
X38100000Y-90170000D02*
X34290000Y-90170000D01*
X34290000Y-90170000D02*
X33020000Y-91440000D01*
X33020000Y-91440000D02*
X33020000Y-92710000D01*
X31750000Y-96520000D02*
X30480000Y-97790000D01*
X30480000Y-97790000D02*
X30480000Y-104140000D01*
X30480000Y-104140000D02*
X33020000Y-106680000D01*
X33020000Y-106680000D02*
X31750000Y-106680000D01*
X31750000Y-106680000D02*
X30480000Y-107950000D01*
X30480000Y-107950000D02*
X30480000Y-110490000D01*
X30480000Y-110490000D02*
X35560000Y-115570000D01*
X35560000Y-127000000D02*
X35560000Y-128270000D01*
X35560000Y-128270000D02*
X39370000Y-132080000D01*
X39370000Y-132080000D02*
X40640000Y-132080000D01*
X38100000Y-143510000D02*
X38100000Y-171450000D01*
X38100000Y-171450000D02*
X41910000Y-175260000D01*
X41910000Y-175260000D02*
X46990000Y-175260000D01*
X54610000Y-176530000D02*
X54610000Y-173990000D01*
X54610000Y-173990000D02*
X55880000Y-172720000D01*
X55880000Y-172720000D02*
X60960000Y-172720000D01*
X149860000Y-110490000D02*
X152400000Y-107950000D01*
X152400000Y-107950000D02*
X152400000Y-106680000D01*
X152400000Y-106680000D02*
X156210000Y-102870000D01*
X156210000Y-102870000D02*
X158750000Y-102870000D01*
X166370000Y-55880000D02*
X180340000Y-41910000D01*
X166370000Y-99060000D02*
X166370000Y-55880000D01*
X162560000Y-102870000D02*
X166370000Y-99060000D01*
X149860000Y-113030000D02*
X153670000Y-109220000D01*
X153670000Y-109220000D02*
X153670000Y-106680000D01*
X153670000Y-106680000D02*
X156210000Y-104140000D01*
X156210000Y-104140000D02*
X158750000Y-104140000D01*
X167005000Y-57785000D02*
X180340000Y-44450000D01*
X167005000Y-99695000D02*
X167005000Y-57785000D01*
X162560000Y-104140000D02*
X167005000Y-99695000D01*
X149860000Y-115570000D02*
X154940000Y-110490000D01*
X154940000Y-110490000D02*
X154940000Y-106680000D01*
X154940000Y-106680000D02*
X156210000Y-105410000D01*
X156210000Y-105410000D02*
X158750000Y-105410000D01*
X167640000Y-59690000D02*
X180340000Y-46990000D01*
X167640000Y-100330000D02*
X167640000Y-59690000D01*
X163830000Y-104140000D02*
X167640000Y-100330000D01*
X171450000Y-153670000D02*
X161290000Y-153670000D01*
X161290000Y-158750000D02*
X160020000Y-160020000D01*
X160020000Y-160020000D02*
X137160000Y-160020000D01*
X137160000Y-160020000D02*
X135890000Y-158750000D01*
X135890000Y-158750000D02*
X134620000Y-158750000D01*
X132080000Y-161290000D02*
X132080000Y-167640000D01*
X114300000Y-171450000D02*
X114300000Y-176530000D01*
X129540000Y-179070000D02*
X134620000Y-173990000D01*
X168910000Y-72390000D02*
X168910000Y-97790000D01*
X168910000Y-97790000D02*
X170180000Y-99060000D01*
X182880000Y-96520000D02*
X182880000Y-101600000D01*
X182880000Y-101600000D02*
X181610000Y-102870000D01*
X179070000Y-102870000D02*
X179070000Y-105410000D01*
X179070000Y-105410000D02*
X176530000Y-107950000D01*
X176530000Y-107950000D02*
X173990000Y-107950000D01*
X173990000Y-107950000D02*
X172720000Y-109220000D01*
X172720000Y-109220000D02*
X172720000Y-111760000D01*
X172720000Y-111760000D02*
X173990000Y-113030000D01*
X173990000Y-113030000D02*
X177800000Y-113030000D01*
X180340000Y-113030000D02*
X181610000Y-114300000D01*
X181610000Y-114300000D02*
X181610000Y-129540000D01*
X180340000Y-140970000D02*
X179070000Y-140970000D01*
X179070000Y-140970000D02*
X177800000Y-139700000D01*
X177800000Y-139700000D02*
X177800000Y-138430000D01*
X177800000Y-138430000D02*
X179070000Y-137160000D01*
X176530000Y-142240000D02*
X176530000Y-144780000D01*
X179070000Y-137160000D02*
X185420000Y-137160000D01*
X180340000Y-69850000D02*
X181610000Y-68580000D01*
X181610000Y-68580000D02*
X181610000Y-58420000D01*
X181610000Y-58420000D02*
X186690000Y-53340000D01*
X180340000Y-72390000D02*
X182245000Y-70485000D01*
X182245000Y-70485000D02*
X182245000Y-62865000D01*
X182245000Y-62865000D02*
X186690000Y-58420000D01*
X186690000Y-58420000D02*
X186690000Y-55880000D01*
X186690000Y-55880000D02*
X187960000Y-54610000D01*
X180340000Y-74930000D02*
X182880000Y-72390000D01*
X182880000Y-64770000D02*
X187960000Y-59690000D01*
X182880000Y-72390000D02*
X182880000Y-64770000D01*
X183515000Y-66675000D02*
X187960000Y-62230000D01*
X180340000Y-77470000D02*
X183515000Y-74295000D01*
X183515000Y-74295000D02*
X183515000Y-66675000D01*
X158750000Y-63500000D02*
X153670000Y-63500000D01*
X153670000Y-63500000D02*
X152400000Y-64770000D01*
X152400000Y-64770000D02*
X152400000Y-83820000D01*
X85090000Y-115570000D02*
X83820000Y-116840000D01*
X86360000Y-119380000D02*
X86360000Y-120650000D01*
X86360000Y-120650000D02*
X87630000Y-121920000D01*
X90025001Y-128810001D02*
X89295002Y-129540000D01*
X90025001Y-122649999D02*
X90025001Y-128810001D01*
X87630000Y-121920000D02*
X89295002Y-121920000D01*
X89295002Y-121920000D02*
X90025001Y-122649999D01*
X89295002Y-129540000D02*
X86360000Y-129540000D01*
X86360000Y-134620000D02*
X85090000Y-135890000D01*
X85090000Y-135890000D02*
X85090000Y-156210000D01*
X85090000Y-156210000D02*
X86360000Y-157480000D01*
X73660000Y-168910000D02*
X77470000Y-165100000D01*
X184150000Y-68580000D02*
X187960000Y-64770000D01*
X180340000Y-80010000D02*
X184150000Y-76200000D01*
X184150000Y-76200000D02*
X184150000Y-68580000D01*
X180340000Y-82550000D02*
X184785000Y-78105000D01*
X184785000Y-70485000D02*
X187960000Y-67310000D01*
X184785000Y-78105000D02*
X184785000Y-70485000D01*
X180340000Y-85090000D02*
X185420000Y-80010000D01*
X185420000Y-72390000D02*
X187960000Y-69850000D01*
X185420000Y-80010000D02*
X185420000Y-72390000D01*
X186055000Y-74295000D02*
X187960000Y-72390000D01*
X180340000Y-87630000D02*
X186055000Y-81915000D01*
X186055000Y-81915000D02*
X186055000Y-74295000D01*
X180340000Y-90170000D02*
X186690000Y-83820000D01*
X186690000Y-76200000D02*
X187960000Y-74930000D01*
X186690000Y-83820000D02*
X186690000Y-76200000D01*
X154940000Y-29210000D02*
X157480000Y-31750000D01*
X154940000Y-26670000D02*
X154940000Y-29210000D01*
X190500000Y-80010000D02*
X187960000Y-77470000D01*
X180340000Y-92710000D02*
X190500000Y-82550000D01*
X190500000Y-82550000D02*
X190500000Y-80010000D01*
X149860000Y-31750000D02*
X151130000Y-30480000D01*
X151130000Y-30480000D02*
X151130000Y-27940000D01*
X152400000Y-31750000D02*
X149860000Y-34290000D01*
X152400000Y-25400000D02*
X152400000Y-31750000D01*
X149860000Y-36830000D02*
X153670000Y-33020000D01*
X156430000Y-21590000D02*
X157480000Y-21590000D01*
X153670000Y-24350000D02*
X156430000Y-21590000D01*
X153670000Y-33020000D02*
X153670000Y-24350000D01*
X157480000Y-176530000D02*
X160020000Y-173990000D01*
X160020000Y-166370000D02*
X157480000Y-163830000D01*
X160020000Y-173990000D02*
X160020000Y-166370000D01*
X182880000Y-168910000D02*
X187960000Y-168910000D01*
X187960000Y-168910000D02*
X191770000Y-172720000D01*
X191770000Y-172720000D02*
X191770000Y-176530000D01*
X149860000Y-176530000D02*
X151130000Y-176530000D01*
X151130000Y-176530000D02*
X156210000Y-171450000D01*
X156210000Y-171450000D02*
X157480000Y-171450000D01*
X175260000Y-151130000D02*
X180340000Y-151130000D01*
X165100000Y-179070000D02*
X165100000Y-176530000D01*
X184150000Y-173990000D02*
X181610000Y-171450000D01*
X181610000Y-171450000D02*
X180340000Y-171450000D01*
X95250000Y-181610000D02*
X102870000Y-181610000D01*
X105410000Y-181610000D02*
X106680000Y-181610000D01*
X106680000Y-181610000D02*
X107950000Y-182880000D01*
X113030000Y-182880000D02*
X119380000Y-176530000D01*
X110490000Y-182880000D02*
X113030000Y-182880000D01*
X127000000Y-168910000D02*
X125730000Y-170180000D01*
X125730000Y-177800000D02*
X127000000Y-179070000D01*
X125730000Y-170180000D02*
X125730000Y-177800000D01*
X133350000Y-139700000D02*
X142635002Y-139700000D01*
X142635002Y-139700000D02*
X143510000Y-140574998D01*
X143510000Y-140574998D02*
X143510000Y-151130000D01*
X143510000Y-151130000D02*
X144780000Y-152400000D01*
X140970000Y-153670000D02*
X140970000Y-157480000D01*
X140970000Y-167640000D02*
X138430000Y-170180000D01*
X138430000Y-170180000D02*
X132080000Y-170180000D01*
X121920000Y-171450000D02*
X121920000Y-173990000D01*
X88900000Y-173990000D02*
X92710000Y-173990000D01*
X127000000Y-173990000D02*
X127000000Y-171450000D01*
X105410000Y-175260000D02*
X100330000Y-175260000D01*
X87630000Y-137160000D02*
X87630000Y-156210000D01*
X87630000Y-156210000D02*
X88900000Y-157480000D01*
X91440000Y-175260000D02*
X90170000Y-176530000D01*
X90170000Y-176530000D02*
X90170000Y-182880000D01*
X90170000Y-182880000D02*
X93980000Y-186690000D01*
X93980000Y-186690000D02*
X100330000Y-186690000D01*
X100330000Y-186690000D02*
X102870000Y-184150000D01*
X105410000Y-182880000D02*
X106680000Y-182880000D01*
X106680000Y-182880000D02*
X107950000Y-184150000D01*
X111760000Y-184150000D02*
X113030000Y-184150000D01*
X113030000Y-184150000D02*
X115570000Y-181610000D01*
X111760000Y-179070000D02*
X114300000Y-179070000D01*
X116840000Y-176530000D02*
X116840000Y-173990000D01*
X114300000Y-179070000D02*
X116840000Y-176530000D01*
X116840000Y-173990000D02*
X119380000Y-171450000D01*
X58420000Y-143510000D02*
X57150000Y-143510000D01*
X57150000Y-143510000D02*
X52070000Y-148590000D01*
X52070000Y-148590000D02*
X52070000Y-160020000D01*
X91440000Y-179070000D02*
X92710000Y-180340000D01*
X95250000Y-180340000D02*
X102870000Y-180340000D01*
X120650000Y-175260000D02*
X120650000Y-170180000D01*
X120650000Y-170180000D02*
X119380000Y-168910000D01*
X162560000Y-158750000D02*
X166370000Y-158750000D01*
X166370000Y-158750000D02*
X167640000Y-157480000D01*
X167640000Y-157480000D02*
X171450000Y-157480000D01*
X146050000Y-171450000D02*
X146050000Y-167640000D01*
X138430000Y-175260000D02*
X140970000Y-172720000D01*
X144780000Y-172720000D02*
X146050000Y-171450000D01*
X140970000Y-172720000D02*
X144780000Y-172720000D01*
X180340000Y-166370000D02*
X182880000Y-163830000D01*
X175260000Y-156210000D02*
X182880000Y-156210000D01*
X172720000Y-176530000D02*
X175260000Y-179070000D01*
X175260000Y-179070000D02*
X175260000Y-182880000D01*
X152400000Y-184150000D02*
X152400000Y-179070000D01*
X153670000Y-176530000D02*
X154940000Y-175260000D01*
X154940000Y-175260000D02*
X154940000Y-173990000D01*
X152400000Y-173990000D02*
X152400000Y-163830000D01*
X153670000Y-156210000D02*
X152400000Y-154940000D01*
X156210000Y-156210000D02*
X153670000Y-156210000D01*
X152400000Y-149860000D02*
X151130000Y-148590000D01*
X152400000Y-154940000D02*
X152400000Y-149860000D01*
X151130000Y-132080000D02*
X149860000Y-130810000D01*
X151130000Y-148590000D02*
X151130000Y-132080000D01*
X186690000Y-172720000D02*
X184150000Y-172720000D01*
X184150000Y-172720000D02*
X180340000Y-168910000D01*
X58420000Y-146050000D02*
X57150000Y-146050000D01*
X57150000Y-146050000D02*
X53340000Y-149860000D01*
X53340000Y-149860000D02*
X53340000Y-160020000D01*
X53340000Y-172720000D02*
X53340000Y-179070000D01*
X53340000Y-179070000D02*
X50800000Y-181610000D01*
X50800000Y-181610000D02*
X49530000Y-181610000D01*
X43180000Y-185815002D02*
X45324998Y-187960000D01*
X43180000Y-181610000D02*
X43180000Y-185815002D01*
X45324998Y-187960000D02*
X133350000Y-187960000D01*
X133350000Y-187960000D02*
X139700000Y-181610000D01*
X139700000Y-181610000D02*
X142240000Y-181610000D01*
X148590000Y-180340000D02*
X151130000Y-180340000D01*
X160020000Y-180340000D02*
X161290000Y-179070000D01*
X161290000Y-179070000D02*
X161290000Y-176530000D01*
X170180000Y-172720000D02*
X173990000Y-172720000D01*
X173990000Y-172720000D02*
X175260000Y-171450000D01*
X177800000Y-171450000D02*
X180340000Y-168910000D01*
X104140000Y-133350000D02*
X107950000Y-133350000D01*
X172720000Y-171450000D02*
X173990000Y-170180000D01*
X173990000Y-170180000D02*
X173990000Y-165100000D01*
X173990000Y-165100000D02*
X172720000Y-163830000D01*
X163830000Y-172720000D02*
X163830000Y-180340000D01*
X120650000Y-167640000D02*
X115570000Y-167640000D01*
X115570000Y-167640000D02*
X113030000Y-165100000D01*
X91440000Y-132080000D02*
X91440000Y-142240000D01*
X96520000Y-151130000D02*
X96520000Y-157480000D01*
X100330000Y-166370000D02*
X104140000Y-166370000D01*
X158750000Y-60960000D02*
X160020000Y-62230000D01*
X171450000Y-74930000D02*
X171450000Y-101600000D01*
X191770000Y-110490000D02*
X191770000Y-118110000D01*
X193040000Y-129540000D02*
X191770000Y-129540000D01*
X191770000Y-129540000D02*
X190500000Y-130810000D01*
X190500000Y-130810000D02*
X190500000Y-134620000D01*
X191770000Y-135890000D02*
X191770000Y-143510000D01*
X176530000Y-163830000D02*
X175260000Y-165100000D01*
X175260000Y-165100000D02*
X175260000Y-168910000D01*
X184150000Y-153670000D02*
X184150000Y-151130000D01*
X151130000Y-60960000D02*
X158750000Y-60960000D01*
X149860000Y-59690000D02*
X151130000Y-60960000D01*
X160020000Y-73660000D02*
X160020000Y-62230000D01*
X81280000Y-140970000D02*
X83820000Y-143510000D01*
X83820000Y-143510000D02*
X83820000Y-156210000D01*
X83820000Y-156210000D02*
X85090000Y-157480000D01*
X99060000Y-167640000D02*
X99060000Y-175260000D01*
X99060000Y-175260000D02*
X100330000Y-176530000D01*
X100330000Y-176530000D02*
X104140000Y-176530000D01*
X86360000Y-165100000D02*
X85090000Y-163830000D01*
X86360000Y-165100000D02*
X91440000Y-165100000D01*
X91440000Y-165100000D02*
X93980000Y-167640000D01*
X100330000Y-172720000D02*
X105410000Y-172720000D01*
X92710000Y-179070000D02*
X92710000Y-176530000D01*
X95250000Y-177800000D02*
X95250000Y-170180000D01*
X195580000Y-179070000D02*
X195580000Y-186690000D01*
X195580000Y-186690000D02*
X194945000Y-187325000D01*
X194945000Y-187325000D02*
X142875000Y-187325000D01*
X110490000Y-177800000D02*
X110490000Y-172720000D01*
X110490000Y-172720000D02*
X111760000Y-171450000D01*
X142875000Y-187325000D02*
X140970000Y-185420000D01*
X140970000Y-185420000D02*
X140970000Y-182880000D01*
X140970000Y-177800000D02*
X143510000Y-177800000D01*
X143510000Y-177800000D02*
X146050000Y-180340000D01*
X146050000Y-180340000D02*
X146050000Y-184150000D01*
X149860000Y-184150000D02*
X151130000Y-185420000D01*
X151130000Y-185420000D02*
X152400000Y-185420000D01*
X167640000Y-185420000D02*
X167640000Y-177800000D01*
X167640000Y-177800000D02*
X168910000Y-176530000D01*
X170180000Y-175260000D02*
X168910000Y-173990000D01*
X168910000Y-173990000D02*
X168910000Y-171450000D01*
X168910000Y-171450000D02*
X170180000Y-170180000D01*
X170180000Y-170180000D02*
X170180000Y-163830000D01*
X195580000Y-151130000D02*
X194310000Y-151130000D01*
X194310000Y-151130000D02*
X193040000Y-149860000D01*
X193040000Y-149860000D02*
X191770000Y-149860000D01*
X191770000Y-149860000D02*
X190500000Y-151130000D01*
X190500000Y-151130000D02*
X190500000Y-153670000D01*
X123190000Y-170180000D02*
X123190000Y-177800000D01*
X121920000Y-168910000D02*
X123190000Y-170180000D01*
X121920000Y-161290000D02*
X121920000Y-168910000D01*
X120650000Y-160020000D02*
X121920000Y-161290000D01*
X113030000Y-160020000D02*
X109220000Y-163830000D01*
X187960000Y-176530000D02*
X193040000Y-181610000D01*
X196850000Y-181610000D02*
X196850000Y-186690000D01*
X196850000Y-186690000D02*
X195580000Y-187960000D01*
X195580000Y-187960000D02*
X140970000Y-187960000D01*
X140970000Y-187960000D02*
X138430000Y-185420000D01*
X133350000Y-185420000D02*
X129540000Y-185420000D01*
X129540000Y-185420000D02*
X125730000Y-181610000D01*
X180340000Y-138430000D02*
X185420000Y-138430000D01*
X185420000Y-138430000D02*
X186690000Y-137160000D01*
X186690000Y-139700000D02*
X179070000Y-139700000D01*
X177800000Y-135890000D02*
X175260000Y-138430000D01*
X175260000Y-138430000D02*
X172720000Y-138430000D01*
X186690000Y-142240000D02*
X179070000Y-142240000D01*
X68580000Y-170180000D02*
X68580000Y-165100000D01*
X68580000Y-165100000D02*
X69850000Y-163830000D01*
X76200000Y-157480000D02*
X76200000Y-148590000D01*
X76200000Y-157480000D02*
X77470000Y-158750000D01*
X55880000Y-151130000D02*
X58420000Y-148590000D01*
X55880000Y-157480000D02*
X55880000Y-151130000D01*
X66040000Y-151130000D02*
X66040000Y-153670000D01*
X66040000Y-153670000D02*
X69850000Y-157480000D01*
X71120000Y-175260000D02*
X69850000Y-173990000D01*
X69850000Y-171450000D02*
X69850000Y-165100000D01*
X69850000Y-165100000D02*
X71120000Y-163830000D01*
X82550000Y-157480000D02*
X80010000Y-154940000D01*
X80010000Y-154940000D02*
X80010000Y-149860000D01*
X77470000Y-149860000D02*
X77470000Y-148590000D01*
X77470000Y-148590000D02*
X76200000Y-147320000D01*
X76200000Y-147320000D02*
X76200000Y-140970000D01*
X66040000Y-148590000D02*
X64770000Y-149860000D01*
X64770000Y-149860000D02*
X64770000Y-153670000D01*
X64770000Y-153670000D02*
X68580000Y-157480000D01*
X66040000Y-166370000D02*
X68580000Y-163830000D01*
X72390000Y-157480000D02*
X72390000Y-154940000D01*
X72390000Y-154940000D02*
X73660000Y-153670000D01*
X66040000Y-146050000D02*
X63500000Y-148590000D01*
X63500000Y-148590000D02*
X63500000Y-153670000D01*
X63500000Y-153670000D02*
X67310000Y-157480000D01*
X64770000Y-123190000D02*
X67310000Y-125730000D01*
X72390000Y-130810000D02*
X72390000Y-129540000D01*
X72390000Y-129540000D02*
X73660000Y-128270000D01*
X86360000Y-152400000D02*
X86360000Y-156210000D01*
X86360000Y-156210000D02*
X87630000Y-157480000D01*
X49530000Y-156210000D02*
X48260000Y-154940000D01*
X49530000Y-160020000D02*
X49530000Y-156210000D01*
X180340000Y-179070000D02*
X182880000Y-179070000D01*
X182880000Y-179070000D02*
X186690000Y-175260000D01*
X186690000Y-175260000D02*
X189230000Y-175260000D01*
X189230000Y-175260000D02*
X190500000Y-173990000D01*
X190500000Y-173990000D02*
X190500000Y-172720000D01*
X194310000Y-167640000D02*
X195580000Y-166370000D01*
X194310000Y-170180000D02*
X194310000Y-167640000D01*
X139700000Y-157480000D02*
X139700000Y-151130000D01*
X81280000Y-113030000D02*
X82550000Y-113030000D01*
X82550000Y-113030000D02*
X85090000Y-110490000D01*
X85090000Y-110490000D02*
X86360000Y-110490000D01*
X86360000Y-110490000D02*
X88900000Y-113030000D01*
X88900000Y-113030000D02*
X88900000Y-114300000D01*
X115570000Y-114300000D02*
X115570000Y-142240000D01*
X124460000Y-142240000D02*
X123190000Y-142240000D01*
X123190000Y-142240000D02*
X121920000Y-140970000D01*
X138430000Y-157480000D02*
X138430000Y-152400000D01*
X71120000Y-125730000D02*
X71120000Y-123190000D01*
X137160000Y-157480000D02*
X137160000Y-153670000D01*
X81280000Y-125730000D02*
X81280000Y-123190000D01*
X81280000Y-133350000D02*
X85090000Y-133350000D01*
X179070000Y-167640000D02*
X177800000Y-168910000D01*
X161290000Y-170180000D02*
X161290000Y-175260000D01*
X161290000Y-175260000D02*
X158750000Y-177800000D01*
X158750000Y-177800000D02*
X148590000Y-177800000D01*
X182880000Y-167640000D02*
X179070000Y-167640000D01*
X184150000Y-166370000D02*
X182880000Y-167640000D01*
X161290000Y-151130000D02*
X165100000Y-151130000D01*
X73660000Y-166370000D02*
X76200000Y-163830000D01*
X83820000Y-157480000D02*
X82550000Y-156210000D01*
X82550000Y-156210000D02*
X82550000Y-144780000D01*
X82550000Y-144780000D02*
X81280000Y-143510000D01*
X73660000Y-176530000D02*
X66040000Y-168910000D01*
X58420000Y-168910000D02*
X62230000Y-172720000D01*
X67310000Y-172720000D02*
X72390000Y-177800000D01*
X72390000Y-177800000D02*
X76200000Y-177800000D01*
X76200000Y-177800000D02*
X77470000Y-176530000D01*
X81280000Y-168910000D02*
X80010000Y-170180000D01*
X80010000Y-170180000D02*
X80010000Y-177800000D01*
X81280000Y-179070000D02*
X83820000Y-176530000D01*
X83820000Y-176530000D02*
X83820000Y-168910000D01*
X83820000Y-168910000D02*
X81280000Y-166370000D01*
M02*
